<?xml version="1.0" encoding="UTF-8" standalone="no"?>
<!-- Created with Inkscape (http://www.inkscape.org/) -->

<svg
   xmlns:dc="http://purl.org/dc/elements/1.1/"
   xmlns:cc="http://creativecommons.org/ns#"
   xmlns:rdf="http://www.w3.org/1999/02/22-rdf-syntax-ns#"
   xmlns:svg="http://www.w3.org/2000/svg"
   xmlns="http://www.w3.org/2000/svg"
   xmlns:xlink="http://www.w3.org/1999/xlink"
   xmlns:sodipodi="http://sodipodi.sourceforge.net/DTD/sodipodi-0.dtd"
   xmlns:inkscape="http://www.inkscape.org/namespaces/inkscape"
   width="361.24445mm"
   height="361.24445mm"
   viewBox="0 0 1280 1280"
   id="svg5060"
   version="1.1"
   inkscape:version="0.91 r13725"
   sodipodi:docname="MaletaVieja.svg"
   inkscape:export-filename="C:\Users\vg\SuriAlFuturo\ART\Models\Maleta\MaletaVieja.png"
   inkscape:export-xdpi="90"
   inkscape:export-ydpi="90">
  <defs
     id="defs5062" />
  <sodipodi:namedview
     id="base"
     pagecolor="#ffffff"
     bordercolor="#666666"
     borderopacity="1.0"
     inkscape:pageopacity="0.0"
     inkscape:pageshadow="2"
     inkscape:zoom="0.35"
     inkscape:cx="375"
     inkscape:cy="520"
     inkscape:document-units="px"
     inkscape:current-layer="layer2"
     showgrid="false"
     fit-margin-top="0"
     fit-margin-left="0"
     fit-margin-right="0"
     fit-margin-bottom="0"
     inkscape:window-width="1366"
     inkscape:window-height="715"
     inkscape:window-x="-8"
     inkscape:window-y="-8"
     inkscape:window-maximized="1"
     inkscape:snap-global="false" />
  <metadata
     id="metadata5065">
    <rdf:RDF>
      <cc:Work
         rdf:about="">
        <dc:format>image/svg+xml</dc:format>
        <dc:type
           rdf:resource="http://purl.org/dc/dcmitype/StillImage" />
        <dc:title></dc:title>
      </cc:Work>
    </rdf:RDF>
  </metadata>
  <g
     inkscape:groupmode="layer"
     id="layer2"
     inkscape:label="Layer 2">
    <path
       style="color:#000000;clip-rule:nonzero;display:inline;overflow:visible;visibility:visible;opacity:1;isolation:auto;mix-blend-mode:normal;color-interpolation:sRGB;color-interpolation-filters:linearRGB;solid-color:#000000;solid-opacity:1;fill:#193d0d;fill-opacity:1;fill-rule:nonzero;stroke:#000000;stroke-width:30;stroke-linecap:round;stroke-linejoin:miter;stroke-miterlimit:4;stroke-dasharray:none;stroke-dashoffset:0;stroke-opacity:1;marker:none;color-rendering:auto;image-rendering:auto;shape-rendering:auto;text-rendering:auto;enable-background:accumulate"
       d="m 700.41393,123.41242 -54.92175,54.92175 0,384.4523 55.24482,55.24483 432.5896,0 54.1141,-54.11409 1.7769,-385.4215 -53.8718,-54.03332 z"
       id="path5620"
       inkscape:connector-curvature="0"
       sodipodi:nodetypes="ccccccccc" />
    <path
       sodipodi:nodetypes="ccccccccc"
       inkscape:connector-curvature="0"
       id="path5622"
       d="m 115.59629,123.41242 -54.921753,54.92175 0,384.4523 55.244823,55.24483 432.5896,0 54.1141,-54.11409 1.7769,-385.4215 -53.8718,-54.03332 z"
       style="color:#000000;clip-rule:nonzero;display:inline;overflow:visible;visibility:visible;opacity:1;isolation:auto;mix-blend-mode:normal;color-interpolation:sRGB;color-interpolation-filters:linearRGB;solid-color:#000000;solid-opacity:1;fill:#193d0d;fill-opacity:1;fill-rule:nonzero;stroke:#000000;stroke-width:30;stroke-linecap:round;stroke-linejoin:miter;stroke-miterlimit:4;stroke-dasharray:none;stroke-dashoffset:0;stroke-opacity:1;marker:none;color-rendering:auto;image-rendering:auto;shape-rendering:auto;text-rendering:auto;enable-background:accumulate" />
    <rect
       style="color:#000000;clip-rule:nonzero;display:inline;overflow:visible;visibility:visible;opacity:1;isolation:auto;mix-blend-mode:normal;color-interpolation:sRGB;color-interpolation-filters:linearRGB;solid-color:#000000;solid-opacity:1;fill:#112808;fill-opacity:1;fill-rule:nonzero;stroke:none;stroke-width:10;stroke-linecap:round;stroke-linejoin:miter;stroke-miterlimit:4;stroke-dasharray:none;stroke-dashoffset:0;stroke-opacity:1;marker:none;color-rendering:auto;image-rendering:auto;shape-rendering:auto;text-rendering:auto;enable-background:accumulate"
       id="rect5628"
       width="153.78091"
       height="591.86267"
       x="1134.6189"
       y="69.136803"
       rx="6.46138"
       ry="6.46138" />
    <rect
       ry="6.46138"
       rx="6.46138"
       y="69.136803"
       x="548.4306"
       height="591.86267"
       width="153.78091"
       id="rect5630"
       style="color:#000000;clip-rule:nonzero;display:inline;overflow:visible;visibility:visible;opacity:1;isolation:auto;mix-blend-mode:normal;color-interpolation:sRGB;color-interpolation-filters:linearRGB;solid-color:#000000;solid-opacity:1;fill:#112808;fill-opacity:1;fill-rule:nonzero;stroke:none;stroke-width:10;stroke-linecap:round;stroke-linejoin:miter;stroke-miterlimit:4;stroke-dasharray:none;stroke-dashoffset:0;stroke-opacity:1;marker:none;color-rendering:auto;image-rendering:auto;shape-rendering:auto;text-rendering:auto;enable-background:accumulate" />
    <rect
       style="color:#000000;clip-rule:nonzero;display:inline;overflow:visible;visibility:visible;opacity:1;isolation:auto;mix-blend-mode:normal;color-interpolation:sRGB;color-interpolation-filters:linearRGB;solid-color:#000000;solid-opacity:1;fill:#112808;fill-opacity:1;fill-rule:nonzero;stroke:none;stroke-width:10;stroke-linecap:round;stroke-linejoin:miter;stroke-miterlimit:4;stroke-dasharray:none;stroke-dashoffset:0;stroke-opacity:1;marker:none;color-rendering:auto;image-rendering:auto;shape-rendering:auto;text-rendering:auto;enable-background:accumulate"
       id="rect5640"
       width="153.78091"
       height="591.86267"
       x="-36.387039"
       y="69.136803"
       rx="6.46138"
       ry="6.46138" />
    <rect
       style="color:#000000;clip-rule:nonzero;display:inline;overflow:visible;visibility:visible;opacity:1;isolation:auto;mix-blend-mode:normal;color-interpolation:sRGB;color-interpolation-filters:linearRGB;solid-color:#000000;solid-opacity:1;fill:#286115;fill-opacity:1;fill-rule:nonzero;stroke:none;stroke-width:10;stroke-linecap:round;stroke-linejoin:miter;stroke-miterlimit:4;stroke-dasharray:none;stroke-dashoffset:0;stroke-opacity:1;marker:none;color-rendering:auto;image-rendering:auto;shape-rendering:auto;text-rendering:auto;enable-background:accumulate"
       id="rect5642"
       width="1262.8406"
       height="142.5493"
       x="5.4826655"
       y="39.090065"
       rx="6.46138"
       ry="6.46138" />
    <rect
       ry="1.0545326"
       rx="55.528908"
       y="564.40424"
       x="-33.188835"
       height="96.59523"
       width="1321.5886"
       id="rect5654"
       style="color:#000000;clip-rule:nonzero;display:inline;overflow:visible;visibility:visible;opacity:1;isolation:auto;mix-blend-mode:normal;color-interpolation:sRGB;color-interpolation-filters:linearRGB;solid-color:#000000;solid-opacity:1;fill:#112808;fill-opacity:1;fill-rule:nonzero;stroke:none;stroke-width:10;stroke-linecap:round;stroke-linejoin:miter;stroke-miterlimit:4;stroke-dasharray:none;stroke-dashoffset:0;stroke-opacity:1;marker:none;color-rendering:auto;image-rendering:auto;shape-rendering:auto;text-rendering:auto;enable-background:accumulate" />
    <g
       id="g5644"
       transform="translate(-3.3778958,0)">
      <rect
         ry="6.46138"
         rx="6.46138"
         y="84.644119"
         x="730.13629"
         height="572.47858"
         width="62.029278"
         id="rect5624"
         style="color:#000000;clip-rule:nonzero;display:inline;overflow:visible;visibility:visible;opacity:1;isolation:auto;mix-blend-mode:normal;color-interpolation:sRGB;color-interpolation-filters:linearRGB;solid-color:#000000;solid-opacity:1;fill:#8a940d;fill-opacity:1;fill-rule:nonzero;stroke:#000000;stroke-width:10;stroke-linecap:round;stroke-linejoin:miter;stroke-miterlimit:4;stroke-dasharray:none;stroke-dashoffset:0;stroke-opacity:1;marker:none;color-rendering:auto;image-rendering:auto;shape-rendering:auto;text-rendering:auto;enable-background:accumulate" />
      <rect
         style="color:#000000;clip-rule:nonzero;display:inline;overflow:visible;visibility:visible;opacity:1;isolation:auto;mix-blend-mode:normal;color-interpolation:sRGB;color-interpolation-filters:linearRGB;solid-color:#000000;solid-opacity:1;fill:#8a940d;fill-opacity:1;fill-rule:nonzero;stroke:#000000;stroke-width:10;stroke-linecap:round;stroke-linejoin:miter;stroke-miterlimit:4;stroke-dasharray:none;stroke-dashoffset:0;stroke-opacity:1;marker:none;color-rendering:auto;image-rendering:auto;shape-rendering:auto;text-rendering:auto;enable-background:accumulate"
         id="rect5626"
         width="62.029278"
         height="572.47858"
         x="1049.3286"
         y="84.644119"
         rx="6.46138"
         ry="6.46138" />
    </g>
    <g
       transform="translate(-588.19554,0)"
       id="g5648">
      <rect
         style="color:#000000;clip-rule:nonzero;display:inline;overflow:visible;visibility:visible;opacity:1;isolation:auto;mix-blend-mode:normal;color-interpolation:sRGB;color-interpolation-filters:linearRGB;solid-color:#000000;solid-opacity:1;fill:#8a940d;fill-opacity:1;fill-rule:nonzero;stroke:#000000;stroke-width:10;stroke-linecap:round;stroke-linejoin:miter;stroke-miterlimit:4;stroke-dasharray:none;stroke-dashoffset:0;stroke-opacity:1;marker:none;color-rendering:auto;image-rendering:auto;shape-rendering:auto;text-rendering:auto;enable-background:accumulate"
         id="rect5650"
         width="62.029278"
         height="572.47858"
         x="730.13629"
         y="84.644119"
         rx="6.46138"
         ry="6.46138" />
      <rect
         ry="6.46138"
         rx="6.46138"
         y="84.644119"
         x="1049.3286"
         height="572.47858"
         width="62.029278"
         id="rect5652"
         style="color:#000000;clip-rule:nonzero;display:inline;overflow:visible;visibility:visible;opacity:1;isolation:auto;mix-blend-mode:normal;color-interpolation:sRGB;color-interpolation-filters:linearRGB;solid-color:#000000;solid-opacity:1;fill:#8a940d;fill-opacity:1;fill-rule:nonzero;stroke:#000000;stroke-width:10;stroke-linecap:round;stroke-linejoin:miter;stroke-miterlimit:4;stroke-dasharray:none;stroke-dashoffset:0;stroke-opacity:1;marker:none;color-rendering:auto;image-rendering:auto;shape-rendering:auto;text-rendering:auto;enable-background:accumulate" />
    </g>
    <rect
       style="color:#000000;clip-rule:nonzero;display:inline;overflow:visible;visibility:visible;opacity:1;isolation:auto;mix-blend-mode:normal;color-interpolation:sRGB;color-interpolation-filters:linearRGB;solid-color:#000000;solid-opacity:1;fill:#112808;fill-opacity:1;fill-rule:nonzero;stroke:none;stroke-width:10;stroke-linecap:round;stroke-linejoin:miter;stroke-miterlimit:4;stroke-dasharray:none;stroke-dashoffset:0;stroke-opacity:1;marker:none;color-rendering:auto;image-rendering:auto;shape-rendering:auto;text-rendering:auto;enable-background:accumulate"
       id="rect5656"
       width="242.19096"
       height="486.96664"
       x="1029.4092"
       y="774.94159"
       rx="55.5289"
       ry="1.05453" />
    <rect
       ry="1.05453"
       rx="55.5289"
       y="771.2865"
       x="726.03503"
       height="486.96664"
       width="242.19096"
       id="rect5658"
       style="color:#000000;clip-rule:nonzero;display:inline;overflow:visible;visibility:visible;opacity:1;isolation:auto;mix-blend-mode:normal;color-interpolation:sRGB;color-interpolation-filters:linearRGB;solid-color:#000000;solid-opacity:1;fill:#112808;fill-opacity:1;fill-rule:nonzero;stroke:none;stroke-width:10;stroke-linecap:round;stroke-linejoin:miter;stroke-miterlimit:4;stroke-dasharray:none;stroke-dashoffset:0;stroke-opacity:1;marker:none;color-rendering:auto;image-rendering:auto;shape-rendering:auto;text-rendering:auto;enable-background:accumulate" />
    <rect
       style="color:#000000;clip-rule:nonzero;display:inline;overflow:visible;visibility:visible;opacity:1;isolation:auto;mix-blend-mode:normal;color-interpolation:sRGB;color-interpolation-filters:linearRGB;solid-color:#000000;solid-opacity:1;fill:#337b1b;fill-opacity:1;fill-rule:nonzero;stroke:none;stroke-width:10;stroke-linecap:round;stroke-linejoin:miter;stroke-miterlimit:4;stroke-dasharray:none;stroke-dashoffset:0;stroke-opacity:1;marker:none;color-rendering:auto;image-rendering:auto;shape-rendering:auto;text-rendering:auto;enable-background:accumulate"
       id="rect5660"
       width="606.74829"
       height="312.51193"
       x="32.895992"
       y="684.21704"
       rx="55.5289"
       ry="1.05453" />
    <rect
       ry="0.1254496"
       rx="55.5289"
       y="774.94159"
       x="1029.4092"
       height="57.930805"
       width="242.19096"
       id="rect5664"
       style="color:#000000;clip-rule:nonzero;display:inline;overflow:visible;visibility:visible;opacity:1;isolation:auto;mix-blend-mode:normal;color-interpolation:sRGB;color-interpolation-filters:linearRGB;solid-color:#000000;solid-opacity:1;fill:#193d0d;fill-opacity:1;fill-rule:nonzero;stroke:none;stroke-width:10;stroke-linecap:round;stroke-linejoin:miter;stroke-miterlimit:4;stroke-dasharray:none;stroke-dashoffset:0;stroke-opacity:1;marker:none;color-rendering:auto;image-rendering:auto;shape-rendering:auto;text-rendering:auto;enable-background:accumulate" />
    <rect
       style="color:#000000;clip-rule:nonzero;display:inline;overflow:visible;visibility:visible;opacity:1;isolation:auto;mix-blend-mode:normal;color-interpolation:sRGB;color-interpolation-filters:linearRGB;solid-color:#000000;solid-opacity:1;fill:#193d0d;fill-opacity:1;fill-rule:nonzero;stroke:none;stroke-width:10;stroke-linecap:round;stroke-linejoin:miter;stroke-miterlimit:4;stroke-dasharray:none;stroke-dashoffset:0;stroke-opacity:1;marker:none;color-rendering:auto;image-rendering:auto;shape-rendering:auto;text-rendering:auto;enable-background:accumulate"
       id="rect5666"
       width="242.19096"
       height="63.099911"
       x="726.03503"
       y="771.2865"
       rx="55.5289"
       ry="0.13664334" />
    <rect
       ry="0.16182926"
       rx="55.5289"
       y="1187.1779"
       x="1029.4092"
       height="74.7304"
       width="242.19096"
       id="rect5668"
       style="color:#000000;clip-rule:nonzero;display:inline;overflow:visible;visibility:visible;opacity:1;isolation:auto;mix-blend-mode:normal;color-interpolation:sRGB;color-interpolation-filters:linearRGB;solid-color:#000000;solid-opacity:1;fill:#0a1705;fill-opacity:1;fill-rule:nonzero;stroke:none;stroke-width:10;stroke-linecap:round;stroke-linejoin:miter;stroke-miterlimit:4;stroke-dasharray:none;stroke-dashoffset:0;stroke-opacity:1;marker:none;color-rendering:auto;image-rendering:auto;shape-rendering:auto;text-rendering:auto;enable-background:accumulate" />
    <rect
       style="color:#000000;clip-rule:nonzero;display:inline;overflow:visible;visibility:visible;opacity:1;isolation:auto;mix-blend-mode:normal;color-interpolation:sRGB;color-interpolation-filters:linearRGB;solid-color:#000000;solid-opacity:1;fill:#0a1705;fill-opacity:1;fill-rule:nonzero;stroke:none;stroke-width:10;stroke-linecap:round;stroke-linejoin:miter;stroke-miterlimit:4;stroke-dasharray:none;stroke-dashoffset:0;stroke-opacity:1;marker:none;color-rendering:auto;image-rendering:auto;shape-rendering:auto;text-rendering:auto;enable-background:accumulate"
       id="rect5670"
       width="242.19096"
       height="71.49971"
       x="726.03503"
       y="1186.7534"
       rx="55.5289"
       ry="0.15483317" />
    <rect
       style="color:#000000;clip-rule:nonzero;display:inline;overflow:visible;visibility:visible;opacity:1;isolation:auto;mix-blend-mode:normal;color-interpolation:sRGB;color-interpolation-filters:linearRGB;solid-color:#000000;solid-opacity:1;fill:#2f210b;fill-opacity:1;fill-rule:nonzero;stroke:none;stroke-width:10;stroke-linecap:round;stroke-linejoin:miter;stroke-miterlimit:4;stroke-dasharray:none;stroke-dashoffset:0;stroke-opacity:1;marker:none;color-rendering:auto;image-rendering:auto;shape-rendering:auto;text-rendering:auto;enable-background:accumulate"
       id="rect5676"
       width="95.032867"
       height="95.946648"
       x="790.4176"
       y="686.95837"
       rx="55.5289"
       ry="1.05453" />
    <rect
       ry="1.05453"
       rx="55.5289"
       y="686.95837"
       x="1107.0254"
       height="95.946648"
       width="95.032867"
       id="rect5678"
       style="color:#000000;clip-rule:nonzero;display:inline;overflow:visible;visibility:visible;opacity:1;isolation:auto;mix-blend-mode:normal;color-interpolation:sRGB;color-interpolation-filters:linearRGB;solid-color:#000000;solid-opacity:1;fill:#2f210b;fill-opacity:1;fill-rule:nonzero;stroke:none;stroke-width:10;stroke-linecap:round;stroke-linejoin:miter;stroke-miterlimit:4;stroke-dasharray:none;stroke-dashoffset:0;stroke-opacity:1;marker:none;color-rendering:auto;image-rendering:auto;shape-rendering:auto;text-rendering:auto;enable-background:accumulate" />
    <rect
       style="color:#000000;clip-rule:nonzero;display:inline;overflow:visible;visibility:visible;opacity:1;isolation:auto;mix-blend-mode:normal;color-interpolation:sRGB;color-interpolation-filters:linearRGB;solid-color:#000000;solid-opacity:1;fill:#000000;fill-opacity:1;fill-rule:nonzero;stroke:none;stroke-width:10;stroke-linecap:round;stroke-linejoin:miter;stroke-miterlimit:4;stroke-dasharray:none;stroke-dashoffset:0;stroke-opacity:1;marker:none;color-rendering:auto;image-rendering:auto;shape-rendering:auto;text-rendering:auto;enable-background:accumulate"
       id="rect5680"
       width="235.19435"
       height="102.08985"
       x="9.0459366"
       y="1015.0833"
       rx="55.5289"
       ry="0.90552032" />
    <rect
       style="color:#000000;clip-rule:nonzero;display:inline;overflow:visible;visibility:visible;opacity:1;isolation:auto;mix-blend-mode:normal;color-interpolation:sRGB;color-interpolation-filters:linearRGB;solid-color:#000000;solid-opacity:1;fill:#ca8e2f;fill-opacity:1;fill-rule:nonzero;stroke:none;stroke-width:10;stroke-linecap:round;stroke-linejoin:miter;stroke-miterlimit:4;stroke-dasharray:none;stroke-dashoffset:0;stroke-opacity:1;marker:none;color-rendering:auto;image-rendering:auto;shape-rendering:auto;text-rendering:auto;enable-background:accumulate"
       id="rect5682"
       width="202.88744"
       height="125.35084"
       x="42.64513"
       y="1137.8496"
       rx="55.5289"
       ry="1.33084" />
    <path
       inkscape:connector-curvature="0"
       style="color:#000000;font-style:normal;font-variant:normal;font-weight:normal;font-stretch:normal;font-size:medium;line-height:normal;font-family:sans-serif;text-indent:0;text-align:start;text-decoration:none;text-decoration-line:none;text-decoration-style:solid;text-decoration-color:#000000;letter-spacing:normal;word-spacing:normal;text-transform:none;direction:ltr;block-progression:tb;writing-mode:lr-tb;baseline-shift:baseline;text-anchor:start;white-space:normal;clip-rule:nonzero;display:inline;overflow:visible;visibility:visible;opacity:1;isolation:auto;mix-blend-mode:normal;color-interpolation:sRGB;color-interpolation-filters:linearRGB;solid-color:#000000;solid-opacity:1;fill:#000000;fill-opacity:1;fill-rule:nonzero;stroke:none;stroke-width:10;stroke-linecap:round;stroke-linejoin:miter;stroke-miterlimit:4;stroke-dasharray:none;stroke-dashoffset:0;stroke-opacity:1;marker:none;color-rendering:auto;image-rendering:auto;shape-rendering:auto;text-rendering:auto;enable-background:accumulate"
       d="m 148.40234,79.644535 c -6.26312,0 -11.46093,5.197819 -11.46093,11.460938 l 0,17.357417 -27.54297,-0.0664 -4.40821,4.41016 -59.316402,59.31445 0,396.87891 64.033202,64.03125 27.23438,0 0,17.63086 c 0,6.26312 5.19781,11.46094 11.46093,11.46094 l 49.10743,0 c 6.26312,0 11.46093,-5.19782 11.46093,-11.46094 l 0,-17.63086 247.16211,0 0,17.63086 c 0,6.26312 5.19774,11.46094 11.46094,11.46094 l 49.10742,0 c 6.2631,0 11.46094,-5.19782 11.46094,-11.46094 l 0,-17.63086 26.56055,0 62.87109,-62.87305 1.83398,-397.83398 -62.6582,-62.84766 -28.60742,-0.0684 0,-18.302727 c 0,-6.263119 -5.19784,-11.460938 -11.46094,-11.460938 l -49.10742,0 c -6.2632,0 -11.46094,5.197819 -11.46094,11.460938 l 0,18.128907 -247.16211,-0.59766 0,-17.531247 c 0,-6.263119 -5.19781,-11.460938 -11.46093,-11.460938 l -49.10743,0 z m 584.81836,0 c -6.26312,0 -11.46093,5.197819 -11.46093,11.460938 l 0,17.357417 -27.54493,-0.0664 -4.4082,4.41016 -59.31445,59.31445 0,396.87891 64.03125,64.03125 27.23633,0 0,17.63086 c 0,6.26312 5.19781,11.46094 11.46093,11.46094 l 49.10742,0 c 6.26312,0 11.46094,-5.19782 11.46094,-11.46094 l 0,-17.63086 247.16214,0 0,17.63086 c 0,6.26312 5.1977,11.46094 11.4609,11.46094 l 49.1074,0 c 6.2631,0 11.461,-5.19782 11.461,-11.46094 l 0,-17.63086 26.5586,0 62.873,-62.87305 1.834,-397.83398 -62.6582,-62.84766 -28.6074,-0.0684 0,-18.302727 c 0,-6.263119 -5.1979,-11.460938 -11.461,-11.460938 l -49.1074,0 c -6.2632,0 -11.4609,5.197819 -11.4609,11.460938 l 0,18.128907 -247.16214,-0.59766 0,-17.531247 c 0,-6.263119 -5.19782,-11.460938 -11.46094,-11.460938 l -49.10742,0 z m -584.81836,10 49.10743,0 c 0.89609,0 1.46093,0.564847 1.46093,1.460938 l 0,17.507807 -52.02929,-0.12695 0,-17.380857 c 0,-0.896091 0.56484,-1.460938 1.46093,-1.460938 z m 319.19141,0 49.10742,0 c 0.8961,0 1.46094,0.564847 1.46094,1.460938 l 0,18.277337 -52.0293,-0.125 0,-18.152337 c 0,-0.896091 0.56484,-1.460938 1.46094,-1.460938 z m 265.62695,0 49.10742,0 c 0.89609,0 1.46094,0.564847 1.46094,1.460938 l 0,17.507807 -52.02929,-0.12695 0,-17.380857 c 0,-0.896091 0.56484,-1.460938 1.46093,-1.460938 z m 319.1914,0 49.1074,0 c 0.8961,0 1.461,0.564847 1.461,1.460938 l 0,18.277337 -52.0293,-0.125 0,-18.152337 c 0,-0.896091 0.5648,-1.460938 1.4609,-1.460938 z m -930.61718,48.783195 15.14649,0.0371 0,464.56641 -14.8086,0 -46.458982,-46.45703 0,-372.02734 46.121092,-46.11915 z m 584.81836,0 15.14649,0.0371 0,464.56641 -14.8086,0 -46.45898,-46.45703 0,-372.02734 46.12109,-46.11915 z m -559.67187,0.0606 52.02929,0.125 0,464.41797 -52.02929,0 0,-464.54297 z m 584.81836,0 52.02929,0.125 0,464.41797 -52.02929,0 0,-464.54297 z m -522.78907,0.15039 247.16211,0.59571 0,463.79687 -247.16211,0 0,-464.39258 z m 584.81836,0 247.16214,0.59571 0,463.79687 -247.16214,0 0,-464.39258 z m -327.65625,0.61914 52.0293,0.12696 0,463.64648 -52.0293,0 0,-463.77344 z m 584.81839,0 52.0293,0.12696 0,463.64648 -52.0293,0 0,-463.77344 z m -522.78909,0.15039 16.125,0.0391 45.08398,45.2207 -1.71875,373.00781 -45.35742,45.35547 -14.13281,0 0,-463.62305 z m 584.81839,0 16.123,0.0391 45.086,45.2207 -1.7207,373.00781 -45.3555,45.35547 -14.1328,0 0,-463.62305 z m -966.03909,493.62305 52.02929,0 0,17.63086 c 0,0.89609 -0.56484,1.46094 -1.46093,1.46094 l -49.10743,0 c -0.89609,0 -1.46093,-0.56485 -1.46093,-1.46094 l 0,-17.63086 z m 319.1914,0 52.0293,0 0,17.63086 c 0,0.89609 -0.56484,1.46094 -1.46094,1.46094 l -49.10742,0 c -0.8961,0 -1.46094,-0.56485 -1.46094,-1.46094 l 0,-17.63086 z m 265.62696,0 52.02929,0 0,17.63086 c 0,0.89609 -0.56484,1.46094 -1.46094,1.46094 l -49.10742,0 c -0.89609,0 -1.46093,-0.56485 -1.46093,-1.46094 l 0,-17.63086 z m 319.19143,0 52.0293,0 0,17.63086 c 0,0.89609 -0.5649,1.46094 -1.461,1.46094 l -49.1074,0 c -0.8961,0 -1.4609,-0.56485 -1.4609,-1.46094 l 0,-17.63086 z"
       id="rect5779" />
    <rect
       style="color:#000000;clip-rule:nonzero;display:inline;overflow:visible;visibility:visible;opacity:1;isolation:auto;mix-blend-mode:normal;color-interpolation:sRGB;color-interpolation-filters:linearRGB;solid-color:#000000;solid-opacity:1;fill:#feff79;fill-opacity:0.27601815;fill-rule:nonzero;stroke:none;stroke-width:50;stroke-linecap:round;stroke-linejoin:miter;stroke-miterlimit:4;stroke-dasharray:none;stroke-dashoffset:0;stroke-opacity:1;marker:none;color-rendering:auto;image-rendering:auto;shape-rendering:auto;text-rendering:auto;enable-background:accumulate"
       id="rect5762"
       width="3210.0151"
       height="2052.1353"
       x="-866.67529"
       y="-330.88525"
       rx="55.5289"
       ry="1.05453" />
    <rect
       style="color:#000000;clip-rule:nonzero;display:inline;overflow:visible;visibility:visible;opacity:1;isolation:auto;mix-blend-mode:normal;color-interpolation:sRGB;color-interpolation-filters:linearRGB;solid-color:#000000;solid-opacity:1;fill:#7c571d;fill-opacity:1;fill-rule:nonzero;stroke:none;stroke-width:10;stroke-linecap:round;stroke-linejoin:miter;stroke-miterlimit:4;stroke-dasharray:none;stroke-dashoffset:0;stroke-opacity:1;marker:none;color-rendering:auto;image-rendering:auto;shape-rendering:auto;text-rendering:auto;enable-background:accumulate"
       id="rect5672"
       width="236.48665"
       height="95.628464"
       x="209.3488"
       y="27.137804"
       rx="55.5289"
       ry="1.05453" />
    <rect
       ry="1.05453"
       rx="55.5289"
       y="27.137804"
       x="798.62695"
       height="95.628464"
       width="236.48665"
       id="rect5674"
       style="color:#000000;clip-rule:nonzero;display:inline;overflow:visible;visibility:visible;opacity:1;isolation:auto;mix-blend-mode:normal;color-interpolation:sRGB;color-interpolation-filters:linearRGB;solid-color:#000000;solid-opacity:1;fill:#5c4015;fill-opacity:1;fill-rule:nonzero;stroke:none;stroke-width:10;stroke-linecap:round;stroke-linejoin:miter;stroke-miterlimit:4;stroke-dasharray:none;stroke-dashoffset:0;stroke-opacity:1;marker:none;color-rendering:auto;image-rendering:auto;shape-rendering:auto;text-rendering:auto;enable-background:accumulate" />
  </g>
  <g
     inkscape:groupmode="layer"
     id="layer3"
     inkscape:label="mud">
    <path
       style="color:#000000;clip-rule:nonzero;display:inline;overflow:visible;visibility:visible;opacity:1;isolation:auto;mix-blend-mode:normal;color-interpolation:sRGB;color-interpolation-filters:linearRGB;solid-color:#000000;solid-opacity:1;fill:#ca8e2f;fill-opacity:0.3574661;fill-rule:nonzero;stroke:none;stroke-width:10;stroke-linecap:round;stroke-linejoin:miter;stroke-miterlimit:4;stroke-dasharray:none;stroke-dashoffset:0;stroke-opacity:1;marker:none;color-rendering:auto;image-rendering:auto;shape-rendering:auto;text-rendering:auto;enable-background:accumulate"
       d="m 1198.8762,358.91222 -7.3103,98.68798 -12.7928,-51.17154 -20.1031,14.62044 -7.3103,38.37866 -10.9653,69.44709 -10.9653,-52.9991 -27.4134,40.20621 -5.4826,-96.86042 -52.9991,74.92976 -10.9653,-98.68797 -29.2409,76.75731 -21.93065,0 -29.2409,109.65331 -7.31025,45.68888 0,7.31022 9.13775,-169.96263 -21.93063,25.58577 14.62043,-155.34218 0,12.79288 5.4827,102.34309 -93.20534,217.47906 0,-9.13778 1.82756,-38.37865 3.65511,-98.68798 -25.58577,-95.03287 -25.58578,1.82756 0,-60.30932 -3.65511,-80.41243 -7.31022,71.27465 -27.41332,180.92796 0,-34.72355 1.82755,-76.75731 -34.72355,73.1022 0,-31.06843 -16.44799,-104.17065 -34.72355,113.30842 0,-93.20531 -20.10311,137.06663 -10.96533,-96.86042 -67.61954,47.51644 -27.41332,-111.48087 -27.41333,80.41243 -20.10311,-47.51643 -20.1031,45.68887 -14.62044,45.68888 -10.96534,-52.9991 -45.68887,62.13688 0,-38.37866 0,-69.44709 -38.37866,21.93066 10.96533,-40.20622 16.448,-89.5502 -25.58578,52.9991 0,-14.62044 0,-87.72265 0,-21.93066 -14.62044,51.17155 -21.93066,193.72084 -5.48266,49.34399 0,25.58577 -3.65511,-98.68798 -45.68888,-47.51643 -12.79289,56.65421 -14.62044,67.61954 0,-21.93066 16.448,-93.20531 -43.86133,67.61954 -16.44799,-56.65421 -40.20622,56.65421 -23.75821,-89.55021 -54.82666,142.5493 L 43.861323,320.53357 -1.827555,368.05 l -31.068437,71.27465 0,-9.13778 9.137775,-63.96443 -7.31022,21.93067 -20.103107,87.72264 -3.65511,109.65331 60.309319,60.30932 96.860425,9.13777 56.65421,16.448 177.27284,-3.65511 171.79019,0 140.72174,-5.48266 180.92796,0 58.48176,21.93066 49.34399,-7.31022 233.92702,0 78.5849,-29.24089 1.8276,-162.6524 21.9306,-116.96353 z"
       id="path5684"
       inkscape:connector-curvature="0"
       sodipodi:nodetypes="cccccccccccccccccccccccccccccccccccccccccccccccccccccccccccccccccccccccccccccccccccccccccccccc" />
    <path
       style="color:#000000;clip-rule:nonzero;display:inline;overflow:visible;visibility:visible;opacity:1;isolation:auto;mix-blend-mode:normal;color-interpolation:sRGB;color-interpolation-filters:linearRGB;solid-color:#000000;solid-opacity:1;fill:#000000;fill-opacity:0.3574661;fill-rule:nonzero;stroke:none;stroke-width:10;stroke-linecap:round;stroke-linejoin:miter;stroke-miterlimit:4;stroke-dasharray:none;stroke-dashoffset:0;stroke-opacity:1;marker:none;color-rendering:auto;image-rendering:auto;shape-rendering:auto;text-rendering:auto;enable-background:accumulate"
       d="m 42.896484,349.20704 -5.820312,5.8418 -18.029297,26.75976 -26.943359,57.51563 -10.486328,0 -8.302735,41.59375 -7.1875,53.93945 -0.917969,29.69922 0.765625,6.66406 26.013672,30.99024 22.03711,20.13281 92.662109,8.01367 57.21289,16.55274 169.26953,-3.94727 174.89063,-0.19336 140.7207,-5.48242 94.94336,-0.88672 58.96875,-0.10937 20.02148,0.33203 6.83789,0.36328 3.67969,0.44922 0.93164,0.21679 0.0586,-0.98828 0.40625,-2.96094 1.20703,-15.15039 3.59765,-96.98828 -13.93945,-67.20703 -3.66797,0.78711 -12.91601,-0.61523 -9.02735,85.31054 -0.006,1.87891 -0.125,2.77344 -0.44531,2.9082 -2.25586,6.28125 -36.2539,9.1582 -9.7793,-13.14257 -0.76367,-3.09375 -0.27735,-1.97266 -0.11523,-1.69531 -0.043,-1.46875 -0.12305,-10.13086 0.0371,-4.77539 -14.08008,0.73242 -17.44726,-11.62695 -3.8457,-9.72852 -0.30665,-13.82812 -5.02343,4.87695 -2.88282,14.26367 -7.50976,19.79688 -27.92383,17.3457 -21,-11.08594 -3.92773,-8.72852 -1.08594,-7.90039 0.12695,-12.45898 1.2461,-31.16016 -0.11329,-10.61718 -6.66601,6.66601 -22.51563,20.88281 -19.56054,8.17579 -21.43946,-7.67188 -8.34375,-16.54687 -3.19921,-23.27344 -6.12305,7.35937 -23.63867,6.78516 -14.84961,-8.16016 -2.59961,-2.96289 -10.03516,34.04883 -1.64453,5.24805 -4.82617,7.26953 -21.00586,7.60351 -16.41992,-8.92968 -2.35352,-3.33594 -3.56836,4.67578 -31.34961,16.70313 -19.62304,-6.87305 -10.13282,-16.70313 0.44336,-20.71875 4.3125,-19.08398 0,-25.25781 -10.13476,4.48632 -9.25196,-0.0117 -4.26953,22.36718 -4.51953,29.14453 -0.4082,40.54688 -50,0 0,-25.58594 0.21094,-9.23047 -3.45313,-59.34179 -4.80664,-14.15039 -0.63477,3.27734 -1.98632,10.26172 -2.02344,10.45703 -14.94531,68.95898 -1.65625,4.6836 -14.11329,13.45508 -24.10351,-3.37696 -7.64649,-9.36523 -2.24609,-7.14453 -0.61133,-10.74219 1.1836,-16.66406 -19.43946,-5.57031 -8.53515,-12.32618 -0.42578,0.61524 -30.59375,17.34179 -19.90235,-9.80468 -3.16992,-5.32422 -0.35742,-1 -40.1543,64.1289 -22.39648,7.90625 -23.560544,-10.36132 -14.5,-31.02149 -9.08985,-75.44531 -9.02539,-70.29883 z m 1181.240216,36.92383 0.1719,26.62695 -2.0684,34.46289 -3.8847,15.92774 -6.4961,10.47461 -20.2949,8.97656 -18.2989,-7.49023 -7.873,53.76562 0,0.48633 -37.6875,0.50195 -2.4571,4.375 -11.7539,9.27734 -21.4414,-1.38671 -11.3164,-12.0625 -2.4375,-6.07813 -1.9472,-30.96094 0.6191,-8.39648 -15.7598,27.19726 0,0.002 -20.4804,7.18359 -16.918,-9.41601 -4.5664,-9.15625 -0.8242,-4.54493 -0.09,-1.27539 -7.5215,4.97461 -12.27535,1.39649 -22.043,86.60742 -0.9785,4.76562 -5.6679,42.50782 -0.014,1.08593 -0.061,1.17579 -1.0079,5.45507 -0.9433,2.59375 -2.5391,4.55664 -2.7324,2.44922 207.35545,-0.23437 55.8105,-21.09375 0.168,-7.66992 0.5664,-53.07032 0.4258,-85.10742 0.8555,-7.34375 1.2011,-5.30469 3.5977,-14.0957 9.793,-38.29297 6.8359,-32.18164 -13.373,-1.26172 -11.6465,-0.40234 z m -1046.25389,49.79297 -0.11914,0.17578 z m 915.51759,8.09375 0,0.002 0.031,0.01 -0.029,-0.0117 z m -505.8086,9.27344 -0.625,0.55859 z m 420.7988,18.64648 -0.6914,1.73633 z m -589.71287,0.12109 z m -452.624996,99.84571 0.05078,0.43945 z m 959.744146,12.02148 -24.79883,55.07422 -9.5293,20.37695 1.06836,0.22071 13.66211,-1.29297 20.79297,-5.60547 -0.41407,-0.25 -3.66796,-5.0625 -1.96875,-4.64844 -0.92774,-4.29492 -0.15625,-1.64844 -0.1289,-3.18945 0.35156,-9.45899 0.7168,-5.29101 z m -5.84766,48.10938 -0.0508,1.39648 z m -0.0723,1.99023 -0.0234,0.45313 -0.008,0.39453 z"
       id="path5690"
       inkscape:connector-curvature="0"
       sodipodi:nodetypes="ccccccccccccccccccccccccccccccccccccccccccccccccccccccccccccccccccccccccccccccccccccccccccccccccccccccccccccccccccccccccccccccccccccccccccccccccccccccccccccccccccccccccccccccccccccccccccccccccccccccccccc" />
    <path
       style="color:#000000;clip-rule:nonzero;display:inline;overflow:visible;visibility:visible;opacity:1;isolation:auto;mix-blend-mode:normal;color-interpolation:sRGB;color-interpolation-filters:linearRGB;solid-color:#000000;solid-opacity:1;fill:#ca8e2f;fill-opacity:0.3574661;fill-rule:nonzero;stroke:none;stroke-width:10;stroke-linecap:round;stroke-linejoin:miter;stroke-miterlimit:4;stroke-dasharray:none;stroke-dashoffset:0;stroke-opacity:1;marker:none;color-rendering:auto;image-rendering:auto;shape-rendering:auto;text-rendering:auto;enable-background:accumulate"
       d="m 1890.6058,1000.3841 -7.3103,98.688 -12.7928,-51.1716 -20.1031,14.6205 -7.3103,38.3786 -10.9653,69.4471 -10.9653,-52.9991 -27.4134,40.2062 -5.4826,-96.8604 -52.9991,74.9298 -10.9653,-98.688 -29.2409,76.7573 -21.9307,0 -29.2409,109.6533 -7.3102,45.6889 0,7.3102 9.1377,-169.9626 -21.9306,25.5858 14.6204,-155.34223 0,12.7929 5.4827,102.34313 -93.2053,217.479 0,-9.1378 1.8275,-38.3786 3.6551,-98.688 -25.5857,-95.0329 -25.5858,1.8276 0,-60.3093 -3.6551,-80.41243 -7.3102,71.27463 -27.4134,180.928 0,-34.7236 1.8276,-76.7573 -34.7236,73.1022 0,-31.0684 -16.4479,-104.1707 -34.7236,113.3084 0,-93.2053 -20.1031,137.0667 -10.9653,-96.8605 -67.6196,47.5165 -27.4133,-111.4809 -27.4133,80.4124 -20.1031,-47.5164 -20.1031,45.6889 -14.6204,45.6889 -10.9654,-52.9991 -45.6888,62.1368 0,-38.3786 0,-69.4471 -38.3787,21.9307 10.9653,-40.2063 16.448,-89.55023 -25.5858,52.9991 0,-14.6204 0,-87.72265 0,-21.93066 -14.6204,51.17151 -21.9307,193.72093 -5.4826,49.344 0,25.5857 -3.6551,-98.6879 -45.68885,-47.5165 -12.7929,56.6542 -14.6205,67.6196 0,-21.9307 16.448,-93.2053 -43.86131,67.6195 -16.44799,-56.6542 -40.20622,56.6542 -23.75821,-89.5502 -54.82666,142.5493 -63.96443,-191.89323 -45.68888,47.51643 -31.06843,71.2746 0,-9.1377 9.13777,-63.9645 -7.31022,21.9307 -20.1031,87.7226 -3.65511,109.6533 60.30931,60.3094 96.86043,9.1377 56.65421,16.448 177.27279,-3.6551 171.7902,0 140.7217,-5.4826 180.928,0 58.4818,21.9306 49.3439,-7.3102 233.9271,0 78.5849,-29.2409 1.8276,-162.6524 21.9306,-116.9635 z"
       id="path5684-5"
       inkscape:connector-curvature="0"
       sodipodi:nodetypes="cccccccccccccccccccccccccccccccccccccccccccccccccccccccccccccccccccccccccccccccccccccccccccccc" />
    <path
       style="color:#000000;clip-rule:nonzero;display:inline;overflow:visible;visibility:visible;opacity:1;isolation:auto;mix-blend-mode:normal;color-interpolation:sRGB;color-interpolation-filters:linearRGB;solid-color:#000000;solid-opacity:1;fill:#000000;fill-opacity:0.3574661;fill-rule:nonzero;stroke:none;stroke-width:10;stroke-linecap:round;stroke-linejoin:miter;stroke-miterlimit:4;stroke-dasharray:none;stroke-dashoffset:0;stroke-opacity:1;marker:none;color-rendering:auto;image-rendering:auto;shape-rendering:auto;text-rendering:auto;enable-background:accumulate"
       d="m 734.62609,990.67887 -5.82031,5.8418 -18.0293,26.75983 -26.94335,57.5156 -10.48633,0 -8.30274,41.5938 -7.1875,53.9394 -0.91797,29.6992 0.76563,6.6641 26.01367,30.9902 22.03711,20.1328 92.66211,8.0137 57.21289,16.5528 169.2695,-3.9473 174.8907,-0.1934 140.7206,-5.4824 94.9434,-0.8867 58.9687,-0.1094 20.0215,0.332 6.8379,0.3633 3.6797,0.4492 0.9316,0.2168 0.059,-0.9882 0.4063,-2.961 1.207,-15.1504 3.5977,-96.9883 -13.9395,-67.207 -3.668,0.7871 -12.916,-0.6152 -9.0273,85.3105 -0.01,1.8789 -0.125,2.7735 -0.4453,2.9082 -2.2559,6.2812 -36.2539,9.1582 -9.7793,-13.1425 -0.7637,-3.0938 -0.2773,-1.9726 -0.1152,-1.6954 -0.043,-1.4687 -0.1231,-10.1309 0.037,-4.7754 -14.0801,0.7325 -17.4472,-11.627 -3.8457,-9.7285 -0.3067,-13.8281 -5.0234,4.8769 -2.8828,14.2637 -7.5098,19.7969 -27.9238,17.3457 -21,-11.086 -3.9278,-8.7285 -1.0859,-7.9004 0.127,-12.459 1.2461,-31.1601 -0.1133,-10.6172 -6.666,6.666 -22.5157,20.8828 -19.5605,8.1758 -21.4395,-7.6719 -8.3437,-16.5468 -3.1992,-23.2735 -6.123,7.3594 -23.6387,6.7852 -14.8496,-8.1602 -2.5996,-2.9629 -10.0352,34.0488 -1.6445,5.2481 -4.8262,7.2695 -21.0059,7.6035 -16.4199,-8.9297 -2.3535,-3.3359 -3.5684,4.6758 -31.3496,16.7031 -19.623,-6.873 -10.1328,-16.7032 0.4433,-20.7187 4.3125,-19.084 0,-25.2578 -10.1347,4.4863 -9.252,-0.012 -4.2695,22.3672 -4.5195,29.1445 -0.4082,40.5469 -50,0 0,-25.5859 0.2109,-9.2305 -3.4531,-59.3418 -4.8067,-14.1504 -0.6347,3.2774 -1.9864,10.2617 -2.0234,10.457 -14.94535,68.959 -1.6562,4.6836 -14.1133,13.4551 -24.1035,-3.377 -7.6465,-9.3652 -2.24609,-7.1446 -0.61133,-10.7421 1.1836,-16.6641 -19.43946,-5.5703 -8.53515,-12.3262 -0.42578,0.6152 -30.59375,17.3418 -19.90235,-9.8046 -3.16992,-5.3243 -0.35742,-1 -40.1543,64.1289 -22.39648,7.9063 -23.56054,-10.3613 -14.5,-31.0215 -9.08985,-75.4453 -9.02539,-70.29893 z m 1181.24021,36.92393 0.1719,26.6269 -2.0684,34.4629 -3.8847,15.9277 -6.4961,10.4746 -20.2949,8.9766 -18.2989,-7.4902 -7.873,53.7656 0,0.4863 -37.6875,0.502 -2.4571,4.375 -11.7539,9.2773 -21.4414,-1.3867 -11.3164,-12.0625 -2.4375,-6.0781 -1.9472,-30.961 0.6191,-8.3964 -15.7598,27.1972 0,0 -20.4804,7.1836 -16.918,-9.416 -4.5664,-9.1563 -0.8242,-4.5449 -0.09,-1.2754 -7.5215,4.9746 -12.2754,1.3965 -22.043,86.6074 -0.9785,4.7657 -5.6679,42.5078 -0.014,1.0859 -0.061,1.1758 -1.0079,5.4551 -0.9433,2.5937 -2.5391,4.5567 -2.7324,2.4492 207.3555,-0.2344 55.8105,-21.0937 0.168,-7.67 0.5664,-53.0703 0.4258,-85.1074 0.8555,-7.3437 1.2011,-5.3047 3.5977,-14.0957 9.793,-38.293 6.8359,-32.1816 -13.373,-1.2618 -11.6465,-0.4023 z m -1046.25388,49.7929 -0.11914,0.1758 z m 915.51758,8.0938 0,0 0.031,0.01 -0.029,-0.012 z m -505.8086,9.2734 -0.625,0.5586 z m 420.7988,18.6465 -0.6914,1.7363 z m -589.7129,0.1211 z m -452.62496,99.8457 0.0508,0.4394 z m 959.74406,12.0215 -24.7988,55.0742 -9.5293,20.3769 1.0684,0.2208 13.6621,-1.293 20.793,-5.6055 -0.4141,-0.25 -3.668,-5.0625 -1.9687,-4.6484 -0.9278,-4.2949 -0.1562,-1.6485 -0.1289,-3.1894 0.3515,-9.459 0.7168,-5.291 z m -5.8476,48.1094 -0.051,1.3964 z m -0.072,1.9902 -0.023,0.4531 -0.01,0.3945 z"
       id="path5690-8"
       inkscape:connector-curvature="0"
       sodipodi:nodetypes="ccccccccccccccccccccccccccccccccccccccccccccccccccccccccccccccccccccccccccccccccccccccccccccccccccccccccccccccccccccccccccccccccccccccccccccccccccccccccccccccccccccccccccccccccccccccccccccccccccccccccccc" />
    <rect
       style="color:#000000;clip-rule:nonzero;display:inline;overflow:visible;visibility:visible;opacity:1;isolation:auto;mix-blend-mode:normal;color-interpolation:sRGB;color-interpolation-filters:linearRGB;solid-color:#000000;solid-opacity:1;fill:#071104;fill-opacity:1;fill-rule:nonzero;stroke:none;stroke-width:10;stroke-linecap:round;stroke-linejoin:miter;stroke-miterlimit:4;stroke-dasharray:none;stroke-dashoffset:0;stroke-opacity:1;marker:none;color-rendering:auto;image-rendering:auto;shape-rendering:auto;text-rendering:auto;enable-background:accumulate"
       id="rect5662"
       width="455.06122"
       height="250.37505"
       x="264.99548"
       y="1013.1769"
       rx="55.5289"
       ry="1.05453" />
  </g>
  <g
     inkscape:label="Layer 1"
     inkscape:groupmode="layer"
     id="layer1"
     transform="translate(-471.35791,-177.16786)"
     sodipodi:insensitive="true"
     style="display:none">
    <image
       sodipodi:absref="C:\Users\vg\SuriAlFuturo\ART\Models\Maleta\Maleta-UvLayout.png"
       xlink:href="Maleta-UvLayout.png"
       width="1280"
       height="1280"
       preserveAspectRatio="none"
       id="image5616"
       x="471.35791"
       y="177.16786" />
  </g>
</svg>
