<?xml version="1.0" encoding="UTF-8" standalone="no"?>
<!-- Created with Inkscape (http://www.inkscape.org/) -->

<svg
   xmlns:dc="http://purl.org/dc/elements/1.1/"
   xmlns:cc="http://creativecommons.org/ns#"
   xmlns:rdf="http://www.w3.org/1999/02/22-rdf-syntax-ns#"
   xmlns:svg="http://www.w3.org/2000/svg"
   xmlns="http://www.w3.org/2000/svg"
   xmlns:xlink="http://www.w3.org/1999/xlink"
   xmlns:sodipodi="http://sodipodi.sourceforge.net/DTD/sodipodi-0.dtd"
   xmlns:inkscape="http://www.inkscape.org/namespaces/inkscape"
   width="361.24445mm"
   height="361.24445mm"
   viewBox="0 0 1280 1280"
   id="svg4176"
   version="1.1"
   inkscape:version="0.91 r13725"
   sodipodi:docname="Fish Diffuse Color.svg"
   inkscape:export-filename="C:\Users\vg\SuriAlFuturo\ART\Models\Critters\Fish\Fish Diffuse Color.png"
   inkscape:export-xdpi="90"
   inkscape:export-ydpi="90">
  <sodipodi:namedview
     id="base"
     pagecolor="#ffffff"
     bordercolor="#666666"
     borderopacity="1.0"
     inkscape:pageopacity="0.0"
     inkscape:pageshadow="2"
     inkscape:zoom="0.35"
     inkscape:cx="375"
     inkscape:cy="520"
     inkscape:document-units="px"
     inkscape:current-layer="layer3"
     showgrid="false"
     fit-margin-top="0"
     fit-margin-left="0"
     fit-margin-right="0"
     fit-margin-bottom="0"
     inkscape:snap-global="false"
     inkscape:window-width="1366"
     inkscape:window-height="715"
     inkscape:window-x="-8"
     inkscape:window-y="-8"
     inkscape:window-maximized="1" />
  <defs
     id="defs4178" />
  <metadata
     id="metadata4181">
    <rdf:RDF>
      <cc:Work
         rdf:about="">
        <dc:format>image/svg+xml</dc:format>
        <dc:type
           rdf:resource="http://purl.org/dc/dcmitype/StillImage" />
        <dc:title />
      </cc:Work>
    </rdf:RDF>
  </metadata>
  <g
     style="display:inline"
     transform="translate(261.36295,375.92654)"
     inkscape:label="Layer 2"
     id="layer3"
     inkscape:groupmode="layer">
    <path
       inkscape:connector-curvature="0"
       id="path4858"
       d="M 439.58943,-307.9412 613.06929,121.06979 950.65175,393.01119 1004.5711,259.38481 971.75065,-14.9009 556.80555,-305.59687 446.6224,-352.48332 Z"
       style="color:#000000;clip-rule:nonzero;display:inline;overflow:visible;visibility:visible;opacity:1;isolation:auto;mix-blend-mode:normal;color-interpolation:sRGB;color-interpolation-filters:linearRGB;solid-color:#000000;solid-opacity:1;fill:#767676;fill-opacity:1;fill-rule:nonzero;stroke:none;stroke-width:10;stroke-linecap:round;stroke-linejoin:round;stroke-miterlimit:4;stroke-dasharray:none;stroke-dashoffset:0;stroke-opacity:1;marker:none;color-rendering:auto;image-rendering:auto;shape-rendering:auto;text-rendering:auto;enable-background:accumulate" />
    <path
       style="color:#000000;clip-rule:nonzero;display:inline;overflow:visible;visibility:visible;opacity:1;isolation:auto;mix-blend-mode:normal;color-interpolation:sRGB;color-interpolation-filters:linearRGB;solid-color:#000000;solid-opacity:1;fill:#7b7b7b;fill-opacity:1;fill-rule:nonzero;stroke:none;stroke-width:10;stroke-linecap:round;stroke-linejoin:round;stroke-miterlimit:4;stroke-dasharray:none;stroke-dashoffset:0;stroke-opacity:1;marker:none;color-rendering:auto;image-rendering:auto;shape-rendering:auto;text-rendering:auto;enable-background:accumulate"
       d="M 448.96672,-331.38442 622.44658,57.773093 617.75793,-68.820319 718.56383,128.10276 690.43192,-43.032769 812.33669,167.95625 798.27075,15.57529 l 145.348,314.1392 7.033,-536.84983 z"
       id="path4856"
       inkscape:connector-curvature="0"
       sodipodi:nodetypes="cccccccccc" />
    <path
       sodipodi:nodetypes="cccccccccc"
       inkscape:connector-curvature="0"
       id="path4854"
       d="M 448.96672,-331.38442 606.03632,-12.556578 584.93742,-174.31482 685.74332,31.985547 662.30005,-113.36244 791.23779,92.93793 784.20482,-28.966835 924.86417,203.12108 950.65175,-207.13534 Z"
       style="color:#000000;clip-rule:nonzero;display:inline;overflow:visible;visibility:visible;opacity:1;isolation:auto;mix-blend-mode:normal;color-interpolation:sRGB;color-interpolation-filters:linearRGB;solid-color:#000000;solid-opacity:1;fill:#7f7f7f;fill-opacity:1;fill-rule:nonzero;stroke:none;stroke-width:10;stroke-linecap:round;stroke-linejoin:round;stroke-miterlimit:4;stroke-dasharray:none;stroke-dashoffset:0;stroke-opacity:1;marker:none;color-rendering:auto;image-rendering:auto;shape-rendering:auto;text-rendering:auto;enable-background:accumulate" />
    <path
       inkscape:connector-curvature="0"
       id="path4736"
       d="m -263.9475,-357.18858 227.440678,-7.75366 162.826862,36.18375 273.96264,170.58051 L 542.43311,92.523695 640.64614,353.56357 756.95106,325.13348 1061.9284,451.77659 992.14541,583.58881 759.53556,599.09613 676.82988,834.29046 563.10954,924.74976 493.3266,601.68068 503.66481,485.37578 237.45583,425.93106 -28.753162,286.36518 -225.1792,53.755395 -294.96214,-132.33245 Z"
       style="color:#000000;clip-rule:nonzero;display:inline;overflow:visible;visibility:visible;opacity:1;isolation:auto;mix-blend-mode:normal;color-interpolation:sRGB;color-interpolation-filters:linearRGB;solid-color:#000000;solid-opacity:1;fill:#989898;fill-opacity:1;fill-rule:nonzero;stroke:none;stroke-width:5;stroke-linecap:round;stroke-linejoin:round;stroke-miterlimit:4;stroke-dasharray:none;stroke-dashoffset:0;stroke-opacity:1;marker:none;color-rendering:auto;image-rendering:auto;shape-rendering:auto;text-rendering:auto;enable-background:accumulate" />
    <path
       inkscape:connector-curvature="0"
       id="path4809"
       d="m 1010.6154,458.15001 -107.82575,-18.27555 49.344,25.58577 -149.8595,-31.06844 84.0675,65.79199 -126.1013,-58.48177 49.344,63.96443 -116.96352,-38.37866 36.5511,47.51644 -140.72174,-85.89509 91.37775,126.1013 -69.44709,-38.37866 38.37866,129.75639 -43.86133,-56.65418 21.93066,133.41148 -45.68887,-76.7573 16.44799,184.5831 -69.44709,-186.4106 49.34399,328.9599 226.61679,-153.5146 27.4134,-131.584 186.41055,-23.7582 42.0338,-190.06576 z"
       style="color:#000000;clip-rule:nonzero;display:inline;overflow:visible;visibility:visible;opacity:1;isolation:auto;mix-blend-mode:normal;color-interpolation:sRGB;color-interpolation-filters:linearRGB;solid-color:#000000;solid-opacity:1;fill:#767676;fill-opacity:1;fill-rule:nonzero;stroke:none;stroke-width:10;stroke-linecap:round;stroke-linejoin:round;stroke-miterlimit:4;stroke-dasharray:none;stroke-dashoffset:0;stroke-opacity:1;marker:none;color-rendering:auto;image-rendering:auto;shape-rendering:auto;text-rendering:auto;enable-background:accumulate" />
    <g
       transform="matrix(-0.83353837,-0.83353837,0.83353837,-0.83353837,767.10626,400.35595)"
       id="g4790">
      <path
         inkscape:connector-curvature="0"
         style="color:#000000;clip-rule:nonzero;display:inline;overflow:visible;visibility:visible;opacity:1;isolation:auto;mix-blend-mode:normal;color-interpolation:sRGB;color-interpolation-filters:linearRGB;solid-color:#000000;solid-opacity:1;fill:#ababab;fill-opacity:1;fill-rule:nonzero;stroke:none;stroke-width:20;stroke-linecap:round;stroke-linejoin:round;stroke-miterlimit:4;stroke-dasharray:none;stroke-dashoffset:0;stroke-opacity:1;marker:none;color-rendering:auto;image-rendering:auto;shape-rendering:auto;text-rendering:auto;enable-background:accumulate"
         d="m 840.67578,61.021484 a 51.171543,51.171543 0 0 0 -51.17187,51.169926 51.171543,51.171543 0 0 0 11.26367,32.01171 51.171543,51.171543 0 0 0 -11.26367,31.95313 51.171543,51.171543 0 0 0 11.26562,32.00977 51.171543,51.171543 0 0 0 -11.26562,31.95507 51.171543,51.171543 0 0 0 11.26367,32.00977 51.171543,51.171543 0 0 0 -11.26367,31.95508 51.171543,51.171543 0 0 0 11.26367,32.00976 51.171543,51.171543 0 0 0 -11.26367,31.95508 51.171543,51.171543 0 0 0 51.17187,51.16992 51.171543,51.171543 0 0 0 51.17188,-51.16992 51.171543,51.171543 0 0 0 -11.26563,-32.00976 51.171543,51.171543 0 0 0 11.26563,-31.95508 51.171543,51.171543 0 0 0 -11.26563,-32.00977 51.171543,51.171543 0 0 0 11.26563,-31.95508 51.171543,51.171543 0 0 0 -11.26368,-32.00976 51.171543,51.171543 0 0 0 11.26368,-31.95508 51.171543,51.171543 0 0 0 -11.26563,-32.00977 51.171543,51.171543 0 0 0 11.26563,-31.95507 51.171543,51.171543 0 0 0 -51.17188,-51.169926 z"
         transform="translate(-261.36295,-375.92654)"
         id="path4761" />
      <path
         id="path4772"
         d="m 610.38127,-314.90506 a 51.171543,51.171543 0 0 0 -51.17187,51.16993 51.171543,51.171543 0 0 0 11.26367,32.01171 51.171543,51.171543 0 0 0 -11.26367,31.95313 51.171543,51.171543 0 0 0 11.26562,32.00977 51.171543,51.171543 0 0 0 -11.26562,31.95507 51.171543,51.171543 0 0 0 11.26367,32.00977 51.171543,51.171543 0 0 0 -11.26367,31.95508 51.171543,51.171543 0 0 0 11.26367,32.00976 51.171543,51.171543 0 0 0 -11.26367,31.95508 51.171543,51.171543 0 0 0 51.17187,51.16992 51.171543,51.171543 0 0 0 51.17188,-51.16992 51.171543,51.171543 0 0 0 -11.26563,-32.00976 51.171543,51.171543 0 0 0 11.26563,-31.95508 51.171543,51.171543 0 0 0 -11.26563,-32.00977 51.171543,51.171543 0 0 0 11.26563,-31.95508 51.171543,51.171543 0 0 0 -11.26368,-32.00976 51.171543,51.171543 0 0 0 11.26368,-31.95508 51.171543,51.171543 0 0 0 -11.26563,-32.00977 51.171543,51.171543 0 0 0 11.26563,-31.95507 51.171543,51.171543 0 0 0 -51.17188,-51.16993 z"
         style="color:#000000;clip-rule:nonzero;display:inline;overflow:visible;visibility:visible;opacity:1;isolation:auto;mix-blend-mode:normal;color-interpolation:sRGB;color-interpolation-filters:linearRGB;solid-color:#000000;solid-opacity:1;fill:#7f7f7f;fill-opacity:1;fill-rule:nonzero;stroke:none;stroke-width:20;stroke-linecap:round;stroke-linejoin:round;stroke-miterlimit:4;stroke-dasharray:none;stroke-dashoffset:0;stroke-opacity:1;marker:none;color-rendering:auto;image-rendering:auto;shape-rendering:auto;text-rendering:auto;enable-background:accumulate"
         inkscape:connector-curvature="0" />
      <path
         id="path4774"
         d="m 637.79459,-314.90506 a 51.171543,51.171543 0 0 0 -51.17187,51.16993 51.171543,51.171543 0 0 0 11.26367,32.01171 51.171543,51.171543 0 0 0 -11.26367,31.95313 51.171543,51.171543 0 0 0 11.26562,32.00977 51.171543,51.171543 0 0 0 -11.26562,31.95507 51.171543,51.171543 0 0 0 11.26367,32.00977 51.171543,51.171543 0 0 0 -11.26367,31.95508 51.171543,51.171543 0 0 0 11.26367,32.00976 51.171543,51.171543 0 0 0 -11.26367,31.95508 51.171543,51.171543 0 0 0 51.17187,51.16992 51.171543,51.171543 0 0 0 51.17188,-51.16992 51.171543,51.171543 0 0 0 -11.26563,-32.00976 51.171543,51.171543 0 0 0 11.26563,-31.95508 51.171543,51.171543 0 0 0 -11.26563,-32.00977 51.171543,51.171543 0 0 0 11.26563,-31.95508 51.171543,51.171543 0 0 0 -11.26368,-32.00976 51.171543,51.171543 0 0 0 11.26368,-31.95508 51.171543,51.171543 0 0 0 -11.26563,-32.00977 51.171543,51.171543 0 0 0 11.26563,-31.95507 51.171543,51.171543 0 0 0 -51.17188,-51.16993 z"
         style="color:#000000;clip-rule:nonzero;display:inline;overflow:visible;visibility:visible;opacity:1;isolation:auto;mix-blend-mode:normal;color-interpolation:sRGB;color-interpolation-filters:linearRGB;solid-color:#000000;solid-opacity:1;fill:#ababab;fill-opacity:1;fill-rule:nonzero;stroke:none;stroke-width:20;stroke-linecap:round;stroke-linejoin:round;stroke-miterlimit:4;stroke-dasharray:none;stroke-dashoffset:0;stroke-opacity:1;marker:none;color-rendering:auto;image-rendering:auto;shape-rendering:auto;text-rendering:auto;enable-background:accumulate"
         inkscape:connector-curvature="0" />
      <path
         inkscape:connector-curvature="0"
         style="color:#000000;clip-rule:nonzero;display:inline;overflow:visible;visibility:visible;opacity:1;isolation:auto;mix-blend-mode:normal;color-interpolation:sRGB;color-interpolation-filters:linearRGB;solid-color:#000000;solid-opacity:1;fill:#7f7f7f;fill-opacity:1;fill-rule:nonzero;stroke:none;stroke-width:20;stroke-linecap:round;stroke-linejoin:round;stroke-miterlimit:4;stroke-dasharray:none;stroke-dashoffset:0;stroke-opacity:1;marker:none;color-rendering:auto;image-rendering:auto;shape-rendering:auto;text-rendering:auto;enable-background:accumulate"
         d="m 661.55281,-314.90506 a 51.171543,51.171543 0 0 0 -51.17187,51.16993 51.171543,51.171543 0 0 0 11.26367,32.01171 51.171543,51.171543 0 0 0 -11.26367,31.95313 51.171543,51.171543 0 0 0 11.26562,32.00977 51.171543,51.171543 0 0 0 -11.26562,31.95507 51.171543,51.171543 0 0 0 11.26367,32.00977 51.171543,51.171543 0 0 0 -11.26367,31.95508 51.171543,51.171543 0 0 0 11.26367,32.00976 51.171543,51.171543 0 0 0 -11.26367,31.95508 51.171543,51.171543 0 0 0 51.17187,51.16992 51.171543,51.171543 0 0 0 51.17188,-51.16992 51.171543,51.171543 0 0 0 -11.26563,-32.00976 51.171543,51.171543 0 0 0 11.26563,-31.95508 51.171543,51.171543 0 0 0 -11.26563,-32.00977 51.171543,51.171543 0 0 0 11.26563,-31.95508 51.171543,51.171543 0 0 0 -11.26368,-32.00976 51.171543,51.171543 0 0 0 11.26368,-31.95508 51.171543,51.171543 0 0 0 -11.26563,-32.00977 51.171543,51.171543 0 0 0 11.26563,-31.95507 51.171543,51.171543 0 0 0 -51.17188,-51.16993 z"
         id="path4776" />
      <path
         id="path4778"
         d="m 685.31103,-314.90506 a 51.171543,51.171543 0 0 0 -51.17187,51.16993 51.171543,51.171543 0 0 0 11.26367,32.01171 51.171543,51.171543 0 0 0 -11.26367,31.95313 51.171543,51.171543 0 0 0 11.26562,32.00977 51.171543,51.171543 0 0 0 -11.26562,31.95507 51.171543,51.171543 0 0 0 11.26367,32.00977 51.171543,51.171543 0 0 0 -11.26367,31.95508 51.171543,51.171543 0 0 0 11.26367,32.00976 51.171543,51.171543 0 0 0 -11.26367,31.95508 51.171543,51.171543 0 0 0 51.17187,51.16992 51.171543,51.171543 0 0 0 51.17188,-51.16992 51.171543,51.171543 0 0 0 -11.26563,-32.00976 51.171543,51.171543 0 0 0 11.26563,-31.95508 51.171543,51.171543 0 0 0 -11.26563,-32.00977 51.171543,51.171543 0 0 0 11.26563,-31.95508 51.171543,51.171543 0 0 0 -11.26368,-32.00976 51.171543,51.171543 0 0 0 11.26368,-31.95508 51.171543,51.171543 0 0 0 -11.26563,-32.00977 51.171543,51.171543 0 0 0 11.26563,-31.95507 51.171543,51.171543 0 0 0 -51.17188,-51.16993 z"
         style="color:#000000;clip-rule:nonzero;display:inline;overflow:visible;visibility:visible;opacity:1;isolation:auto;mix-blend-mode:normal;color-interpolation:sRGB;color-interpolation-filters:linearRGB;solid-color:#000000;solid-opacity:1;fill:#ababab;fill-opacity:1;fill-rule:nonzero;stroke:none;stroke-width:20;stroke-linecap:round;stroke-linejoin:round;stroke-miterlimit:4;stroke-dasharray:none;stroke-dashoffset:0;stroke-opacity:1;marker:none;color-rendering:auto;image-rendering:auto;shape-rendering:auto;text-rendering:auto;enable-background:accumulate"
         inkscape:connector-curvature="0" />
      <path
         inkscape:connector-curvature="0"
         style="color:#000000;clip-rule:nonzero;display:inline;overflow:visible;visibility:visible;opacity:1;isolation:auto;mix-blend-mode:normal;color-interpolation:sRGB;color-interpolation-filters:linearRGB;solid-color:#000000;solid-opacity:1;fill:#7f7f7f;fill-opacity:1;fill-rule:nonzero;stroke:none;stroke-width:20;stroke-linecap:round;stroke-linejoin:round;stroke-miterlimit:4;stroke-dasharray:none;stroke-dashoffset:0;stroke-opacity:1;marker:none;color-rendering:auto;image-rendering:auto;shape-rendering:auto;text-rendering:auto;enable-background:accumulate"
         d="m 710.8968,-314.90506 a 51.171543,51.171543 0 0 0 -51.17187,51.16993 51.171543,51.171543 0 0 0 11.26367,32.01171 51.171543,51.171543 0 0 0 -11.26367,31.95313 51.171543,51.171543 0 0 0 11.26562,32.00977 51.171543,51.171543 0 0 0 -11.26562,31.95507 51.171543,51.171543 0 0 0 11.26367,32.00977 51.171543,51.171543 0 0 0 -11.26367,31.95508 51.171543,51.171543 0 0 0 11.26367,32.00976 51.171543,51.171543 0 0 0 -11.26367,31.95508 51.171543,51.171543 0 0 0 51.17187,51.16992 51.171543,51.171543 0 0 0 51.17188,-51.16992 51.171543,51.171543 0 0 0 -11.26563,-32.00976 51.171543,51.171543 0 0 0 11.26563,-31.95508 51.171543,51.171543 0 0 0 -11.26563,-32.00977 51.171543,51.171543 0 0 0 11.26563,-31.95508 51.171543,51.171543 0 0 0 -11.26368,-32.00976 51.171543,51.171543 0 0 0 11.26368,-31.95508 51.171543,51.171543 0 0 0 -11.26563,-32.00977 51.171543,51.171543 0 0 0 11.26563,-31.95507 51.171543,51.171543 0 0 0 -51.17188,-51.16993 z"
         id="path4782" />
      <path
         inkscape:connector-curvature="0"
         style="color:#000000;clip-rule:nonzero;display:inline;overflow:visible;visibility:visible;opacity:1;isolation:auto;mix-blend-mode:normal;color-interpolation:sRGB;color-interpolation-filters:linearRGB;solid-color:#000000;solid-opacity:1;fill:#ababab;fill-opacity:1;fill-rule:nonzero;stroke:none;stroke-width:20;stroke-linecap:round;stroke-linejoin:round;stroke-miterlimit:4;stroke-dasharray:none;stroke-dashoffset:0;stroke-opacity:1;marker:none;color-rendering:auto;image-rendering:auto;shape-rendering:auto;text-rendering:auto;enable-background:accumulate"
         d="m 738.31012,-314.90506 a 51.171543,51.171543 0 0 0 -51.17187,51.16993 51.171543,51.171543 0 0 0 11.26367,32.01171 51.171543,51.171543 0 0 0 -11.26367,31.95313 51.171543,51.171543 0 0 0 11.26562,32.00977 51.171543,51.171543 0 0 0 -11.26562,31.95507 51.171543,51.171543 0 0 0 11.26367,32.00977 51.171543,51.171543 0 0 0 -11.26367,31.95508 51.171543,51.171543 0 0 0 11.26367,32.00976 51.171543,51.171543 0 0 0 -11.26367,31.95508 51.171543,51.171543 0 0 0 51.17187,51.16992 51.171543,51.171543 0 0 0 51.17188,-51.16992 51.171543,51.171543 0 0 0 -11.26563,-32.00976 51.171543,51.171543 0 0 0 11.26563,-31.95508 51.171543,51.171543 0 0 0 -11.26563,-32.00977 51.171543,51.171543 0 0 0 11.26563,-31.95508 51.171543,51.171543 0 0 0 -11.26368,-32.00976 51.171543,51.171543 0 0 0 11.26368,-31.95508 51.171543,51.171543 0 0 0 -11.26563,-32.00977 51.171543,51.171543 0 0 0 11.26563,-31.95507 51.171543,51.171543 0 0 0 -51.17188,-51.16993 z"
         id="path4784" />
      <path
         id="path4786"
         d="m 762.06834,-314.90506 a 51.171543,51.171543 0 0 0 -51.17187,51.16993 51.171543,51.171543 0 0 0 11.26367,32.01171 51.171543,51.171543 0 0 0 -11.26367,31.95313 51.171543,51.171543 0 0 0 11.26562,32.00977 51.171543,51.171543 0 0 0 -11.26562,31.95507 51.171543,51.171543 0 0 0 11.26367,32.00977 51.171543,51.171543 0 0 0 -11.26367,31.95508 51.171543,51.171543 0 0 0 11.26367,32.00976 51.171543,51.171543 0 0 0 -11.26367,31.95508 51.171543,51.171543 0 0 0 51.17187,51.16992 51.171543,51.171543 0 0 0 51.17188,-51.16992 51.171543,51.171543 0 0 0 -11.26563,-32.00976 51.171543,51.171543 0 0 0 11.26563,-31.95508 51.171543,51.171543 0 0 0 -11.26563,-32.00977 51.171543,51.171543 0 0 0 11.26563,-31.95508 51.171543,51.171543 0 0 0 -11.26368,-32.00976 51.171543,51.171543 0 0 0 11.26368,-31.95508 51.171543,51.171543 0 0 0 -11.26563,-32.00977 51.171543,51.171543 0 0 0 11.26563,-31.95507 51.171543,51.171543 0 0 0 -51.17188,-51.16993 z"
         style="color:#000000;clip-rule:nonzero;display:inline;overflow:visible;visibility:visible;opacity:1;isolation:auto;mix-blend-mode:normal;color-interpolation:sRGB;color-interpolation-filters:linearRGB;solid-color:#000000;solid-opacity:1;fill:#7f7f7f;fill-opacity:1;fill-rule:nonzero;stroke:none;stroke-width:20;stroke-linecap:round;stroke-linejoin:round;stroke-miterlimit:4;stroke-dasharray:none;stroke-dashoffset:0;stroke-opacity:1;marker:none;color-rendering:auto;image-rendering:auto;shape-rendering:auto;text-rendering:auto;enable-background:accumulate"
         inkscape:connector-curvature="0" />
      <path
         sodipodi:nodetypes="scccccccccscs"
         inkscape:connector-curvature="0"
         style="color:#000000;clip-rule:nonzero;display:inline;overflow:visible;visibility:visible;opacity:1;isolation:auto;mix-blend-mode:normal;color-interpolation:sRGB;color-interpolation-filters:linearRGB;solid-color:#000000;solid-opacity:1;fill:#ababab;fill-opacity:1;fill-rule:nonzero;stroke:none;stroke-width:20;stroke-linecap:round;stroke-linejoin:round;stroke-miterlimit:4;stroke-dasharray:none;stroke-dashoffset:0;stroke-opacity:1;marker:none;color-rendering:auto;image-rendering:auto;shape-rendering:auto;text-rendering:auto;enable-background:accumulate"
         d="m 785.82656,-314.90506 c -28.26076,-1.8e-4 -51.17098,22.90917 -51.17187,51.16993 0.004,11.64114 3.9772,22.93297 11.26367,32.01171 -7.27391,9.06306 -11.24631,20.33209 -11.26367,31.95313 0.005,11.64071 3.97887,22.93181 11.26562,32.00977 -7.27503,9.06332 -11.24815,20.33313 -11.26562,31.95507 0.004,11.64047 3.97762,22.93155 11.26367,32.00977 -7.27433,9.063583 -11.24675,20.333371 -11.26367,31.95508 0.004,11.64047 3.97762,22.931542 11.26367,32.00976 -7.27433,9.063583 -11.24675,20.333371 -11.26367,31.95508 9e-4,28.260757 22.91111,51.170101 51.17187,51.16992 28.26076,1.86e-4 269.32734,-54.700796 269.32744,-210.89125 0,-156.19044 -241.06668,-147.30816 -269.32744,-147.30797 z"
         id="path4788" />
    </g>
    <circle
       style="color:#000000;clip-rule:nonzero;display:inline;overflow:visible;visibility:visible;opacity:1;isolation:auto;mix-blend-mode:normal;color-interpolation:sRGB;color-interpolation-filters:linearRGB;solid-color:#000000;solid-opacity:1;fill:#6e6e6e;fill-opacity:1;fill-rule:nonzero;stroke:none;stroke-width:20;stroke-linecap:round;stroke-linejoin:round;stroke-miterlimit:4;stroke-dasharray:none;stroke-dashoffset:0;stroke-opacity:1;marker:none;color-rendering:auto;image-rendering:auto;shape-rendering:auto;text-rendering:auto;enable-background:accumulate"
       id="circle4757"
       cx="-44.260456"
       cy="-160.7625"
       r="69.523178" />
    <circle
       r="43.937405"
       cy="-160.7625"
       cx="-44.260456"
       id="path4753"
       style="color:#000000;clip-rule:nonzero;display:inline;overflow:visible;visibility:visible;opacity:1;isolation:auto;mix-blend-mode:normal;color-interpolation:sRGB;color-interpolation-filters:linearRGB;solid-color:#000000;solid-opacity:1;fill:#000000;fill-opacity:1;fill-rule:nonzero;stroke:#ffffff;stroke-width:20;stroke-linecap:round;stroke-linejoin:round;stroke-miterlimit:4;stroke-dasharray:none;stroke-dashoffset:0;stroke-opacity:1;marker:none;color-rendering:auto;image-rendering:auto;shape-rendering:auto;text-rendering:auto;enable-background:accumulate" />
    <path
       sodipodi:nodetypes="csccccccc"
       inkscape:connector-curvature="0"
       id="path4755"
       d="m -238.10197,-323.58934 c 5.16911,157.65775 139.56588,361.83746 304.97728,485.89602 165.41141,124.05855 436.7895,330.82281 553.0944,240.36345 -49.10651,87.87481 -155.0732,80.12115 -155.0732,80.12115 L 74.62897,330.30264 -155.39627,118.36927 -256.19384,-34.11937 -302.7158,-163.34703 Z"
       style="color:#000000;clip-rule:nonzero;display:inline;overflow:visible;visibility:visible;opacity:1;isolation:auto;mix-blend-mode:normal;color-interpolation:sRGB;color-interpolation-filters:linearRGB;solid-color:#000000;solid-opacity:1;fill:#7f7f7f;fill-opacity:1;fill-rule:nonzero;stroke:none;stroke-width:20;stroke-linecap:round;stroke-linejoin:round;stroke-miterlimit:4;stroke-dasharray:none;stroke-dashoffset:0;stroke-opacity:1;marker:none;color-rendering:auto;image-rendering:auto;shape-rendering:auto;text-rendering:auto;enable-background:accumulate" />
    <path
       inkscape:connector-curvature="0"
       id="path4759"
       d="m -248.57006,-327.6987 c 0,0 358.2008,7.31022 553.7492,261.34038 195.5484,254.03017 314.33948,467.85412 314.33948,467.85412 L 515.34798,14.05411 314.31692,-221.7005 100.49297,-347.80181 -67.64211,-367.90491 Z"
       style="color:#000000;clip-rule:nonzero;display:inline;overflow:visible;visibility:visible;opacity:1;isolation:auto;mix-blend-mode:normal;color-interpolation:sRGB;color-interpolation-filters:linearRGB;solid-color:#000000;solid-opacity:1;fill:#ababab;fill-opacity:1;fill-rule:nonzero;stroke:none;stroke-width:20;stroke-linecap:round;stroke-linejoin:round;stroke-miterlimit:4;stroke-dasharray:none;stroke-dashoffset:0;stroke-opacity:1;marker:none;color-rendering:auto;image-rendering:auto;shape-rendering:auto;text-rendering:auto;enable-background:accumulate" />
    <path
       sodipodi:nodetypes="cccc"
       inkscape:connector-curvature="0"
       id="path4801"
       d="m 27.390757,-115.7023 102.343093,43.861319 c 0,0 224.78928,199.203511 350.89058,400.234571 C 334.42002,120.0523 93.182742,-90.116529 27.390757,-115.7023 Z"
       style="color:#000000;clip-rule:nonzero;display:inline;overflow:visible;visibility:visible;opacity:1;isolation:auto;mix-blend-mode:normal;color-interpolation:sRGB;color-interpolation-filters:linearRGB;solid-color:#000000;solid-opacity:1;fill:#ffffff;fill-opacity:1;fill-rule:nonzero;stroke:none;stroke-width:20;stroke-linecap:round;stroke-linejoin:round;stroke-miterlimit:4;stroke-dasharray:none;stroke-dashoffset:0;stroke-opacity:1;marker:none;color-rendering:auto;image-rendering:auto;shape-rendering:auto;text-rendering:auto;enable-background:accumulate" />
    <path
       sodipodi:nodetypes="ccccc"
       inkscape:connector-curvature="0"
       id="path4803"
       d="m -281.10742,-191.58984 c -8.96593,-0.40649 -13.88739,10.28893 -7.7461,16.83398 l 159.07423,159.569337 c 3.70732,4.146646 -144.29883,-173.045897 -144.29883,-173.045897 -1.79302,-2.02319 -4.32873,-3.23432 -7.0293,-3.35742 z"
       style="color:#000000;font-style:normal;font-variant:normal;font-weight:normal;font-stretch:normal;font-size:medium;line-height:normal;font-family:sans-serif;text-indent:0;text-align:start;text-decoration:none;text-decoration-line:none;text-decoration-style:solid;text-decoration-color:#000000;letter-spacing:normal;word-spacing:normal;text-transform:none;direction:ltr;block-progression:tb;writing-mode:lr-tb;baseline-shift:baseline;text-anchor:start;white-space:normal;clip-rule:nonzero;display:inline;overflow:visible;visibility:visible;opacity:1;isolation:auto;mix-blend-mode:normal;color-interpolation:sRGB;color-interpolation-filters:linearRGB;solid-color:#000000;solid-opacity:1;fill:#000000;fill-opacity:1;fill-rule:nonzero;stroke:none;stroke-width:20;stroke-linecap:round;stroke-linejoin:round;stroke-miterlimit:4;stroke-dasharray:none;stroke-dashoffset:0;stroke-opacity:1;marker:none;color-rendering:auto;image-rendering:auto;shape-rendering:auto;text-rendering:auto;enable-background:accumulate" />
    <g
       style="stroke:#6e6e6e;stroke-opacity:1"
       id="g4817">
      <path
         style="color:#000000;clip-rule:nonzero;display:inline;overflow:visible;visibility:visible;opacity:1;isolation:auto;mix-blend-mode:normal;color-interpolation:sRGB;color-interpolation-filters:linearRGB;solid-color:#000000;solid-opacity:1;fill:none;fill-opacity:1;fill-rule:nonzero;stroke:#6e6e6e;stroke-width:10;stroke-linecap:round;stroke-linejoin:round;stroke-miterlimit:4;stroke-dasharray:none;stroke-dashoffset:0;stroke-opacity:1;marker:none;color-rendering:auto;image-rendering:auto;shape-rendering:auto;text-rendering:auto;enable-background:accumulate"
         d="m 604.89818,406.97846 c 168.13507,-43.86132 420.33772,71.27465 420.33772,71.27465"
         id="path4807"
         inkscape:connector-curvature="0" />
      <path
         inkscape:connector-curvature="0"
         id="path4811"
         d="m 604.89818,406.97846 c 138.89419,-7.31022 422.16532,115.13597 422.16532,115.13597"
         style="color:#000000;clip-rule:nonzero;display:inline;overflow:visible;visibility:visible;opacity:1;isolation:auto;mix-blend-mode:normal;color-interpolation:sRGB;color-interpolation-filters:linearRGB;solid-color:#000000;solid-opacity:1;fill:none;fill-opacity:1;fill-rule:nonzero;stroke:#6e6e6e;stroke-width:10;stroke-linecap:round;stroke-linejoin:round;stroke-miterlimit:4;stroke-dasharray:none;stroke-dashoffset:0;stroke-opacity:1;marker:none;color-rendering:auto;image-rendering:auto;shape-rendering:auto;text-rendering:auto;enable-background:accumulate"
         sodipodi:nodetypes="cc" />
      <path
         sodipodi:nodetypes="cc"
         style="color:#000000;clip-rule:nonzero;display:inline;overflow:visible;visibility:visible;opacity:1;isolation:auto;mix-blend-mode:normal;color-interpolation:sRGB;color-interpolation-filters:linearRGB;solid-color:#000000;solid-opacity:1;fill:none;fill-opacity:1;fill-rule:nonzero;stroke:#6e6e6e;stroke-width:10;stroke-linecap:round;stroke-linejoin:round;stroke-miterlimit:4;stroke-dasharray:none;stroke-dashoffset:0;stroke-opacity:1;marker:none;color-rendering:auto;image-rendering:auto;shape-rendering:auto;text-rendering:auto;enable-background:accumulate"
         d="m 598.88024,417.83293 c 120.61864,18.27555 384.32194,179.21126 384.32194,179.21126"
         id="path4813"
         inkscape:connector-curvature="0" />
      <path
         inkscape:connector-curvature="0"
         id="path4815"
         d="M 594.37629,430.31226 C 709.17968,464.09513 884.5142,633.59529 884.5142,633.59529"
         style="color:#000000;clip-rule:nonzero;display:inline;overflow:visible;visibility:visible;opacity:1;isolation:auto;mix-blend-mode:normal;color-interpolation:sRGB;color-interpolation-filters:linearRGB;solid-color:#000000;solid-opacity:1;fill:none;fill-opacity:1;fill-rule:nonzero;stroke:#6e6e6e;stroke-width:10;stroke-linecap:round;stroke-linejoin:round;stroke-miterlimit:4;stroke-dasharray:none;stroke-dashoffset:0;stroke-opacity:1;marker:none;color-rendering:auto;image-rendering:auto;shape-rendering:auto;text-rendering:auto;enable-background:accumulate"
         sodipodi:nodetypes="cc" />
    </g>
    <g
       style="stroke:#6e6e6e;stroke-opacity:1"
       inkscape:transform-center-y="200.63074"
       inkscape:transform-center-x="-129.45096"
       transform="matrix(0.18999898,0.98178429,0.98178429,-0.18999898,50.909702,-70.09912)"
       id="g4823">
      <path
         inkscape:connector-curvature="0"
         id="path4825"
         d="m 604.89818,406.97846 c 168.13507,-43.86132 420.33772,71.27465 420.33772,71.27465"
         style="color:#000000;clip-rule:nonzero;display:inline;overflow:visible;visibility:visible;opacity:1;isolation:auto;mix-blend-mode:normal;color-interpolation:sRGB;color-interpolation-filters:linearRGB;solid-color:#000000;solid-opacity:1;fill:none;fill-opacity:1;fill-rule:nonzero;stroke:#6e6e6e;stroke-width:10;stroke-linecap:round;stroke-linejoin:round;stroke-miterlimit:4;stroke-dasharray:none;stroke-dashoffset:0;stroke-opacity:1;marker:none;color-rendering:auto;image-rendering:auto;shape-rendering:auto;text-rendering:auto;enable-background:accumulate" />
      <path
         sodipodi:nodetypes="cc"
         style="color:#000000;clip-rule:nonzero;display:inline;overflow:visible;visibility:visible;opacity:1;isolation:auto;mix-blend-mode:normal;color-interpolation:sRGB;color-interpolation-filters:linearRGB;solid-color:#000000;solid-opacity:1;fill:none;fill-opacity:1;fill-rule:nonzero;stroke:#6e6e6e;stroke-width:10;stroke-linecap:round;stroke-linejoin:round;stroke-miterlimit:4;stroke-dasharray:none;stroke-dashoffset:0;stroke-opacity:1;marker:none;color-rendering:auto;image-rendering:auto;shape-rendering:auto;text-rendering:auto;enable-background:accumulate"
         d="m 604.89818,406.97846 c 138.89419,-7.31022 422.16532,115.13597 422.16532,115.13597"
         id="path4827"
         inkscape:connector-curvature="0" />
      <path
         inkscape:connector-curvature="0"
         id="path4829"
         d="m 598.88024,417.83293 c 120.61864,18.27555 384.32194,179.21126 384.32194,179.21126"
         style="color:#000000;clip-rule:nonzero;display:inline;overflow:visible;visibility:visible;opacity:1;isolation:auto;mix-blend-mode:normal;color-interpolation:sRGB;color-interpolation-filters:linearRGB;solid-color:#000000;solid-opacity:1;fill:none;fill-opacity:1;fill-rule:nonzero;stroke:#6e6e6e;stroke-width:10;stroke-linecap:round;stroke-linejoin:round;stroke-miterlimit:4;stroke-dasharray:none;stroke-dashoffset:0;stroke-opacity:1;marker:none;color-rendering:auto;image-rendering:auto;shape-rendering:auto;text-rendering:auto;enable-background:accumulate"
         sodipodi:nodetypes="cc" />
      <path
         sodipodi:nodetypes="cc"
         style="color:#000000;clip-rule:nonzero;display:inline;overflow:visible;visibility:visible;opacity:1;isolation:auto;mix-blend-mode:normal;color-interpolation:sRGB;color-interpolation-filters:linearRGB;solid-color:#000000;solid-opacity:1;fill:none;fill-opacity:1;fill-rule:nonzero;stroke:#6e6e6e;stroke-width:10;stroke-linecap:round;stroke-linejoin:round;stroke-miterlimit:4;stroke-dasharray:none;stroke-dashoffset:0;stroke-opacity:1;marker:none;color-rendering:auto;image-rendering:auto;shape-rendering:auto;text-rendering:auto;enable-background:accumulate"
         d="M 594.37629,430.31226 C 709.17968,464.09513 884.5142,633.59529 884.5142,633.59529"
         id="path4831"
         inkscape:connector-curvature="0" />
      <path
         sodipodi:nodetypes="cc"
         style="color:#000000;clip-rule:nonzero;display:inline;overflow:visible;visibility:visible;opacity:1;isolation:auto;mix-blend-mode:normal;color-interpolation:sRGB;color-interpolation-filters:linearRGB;solid-color:#000000;solid-opacity:1;fill:none;fill-opacity:1;fill-rule:nonzero;stroke:#6e6e6e;stroke-width:10;stroke-linecap:round;stroke-linejoin:round;stroke-miterlimit:4;stroke-dasharray:none;stroke-dashoffset:0;stroke-opacity:1;marker:none;color-rendering:auto;image-rendering:auto;shape-rendering:auto;text-rendering:auto;enable-background:accumulate"
         d="m 604.89818,406.97846 c 168.13507,-43.86132 466.04142,-2.21198 466.04142,-2.21198"
         id="path4833"
         inkscape:connector-curvature="0" />
      <path
         inkscape:connector-curvature="0"
         id="path4835"
         d="M 604.89818,406.97846 C 731.8614,340.81107 1079.1262,351.8483 1079.1262,351.8483"
         style="color:#000000;clip-rule:nonzero;display:inline;overflow:visible;visibility:visible;opacity:1;isolation:auto;mix-blend-mode:normal;color-interpolation:sRGB;color-interpolation-filters:linearRGB;solid-color:#000000;solid-opacity:1;fill:none;fill-opacity:1;fill-rule:nonzero;stroke:#6e6e6e;stroke-width:10;stroke-linecap:round;stroke-linejoin:round;stroke-miterlimit:4;stroke-dasharray:none;stroke-dashoffset:0;stroke-opacity:1;marker:none;color-rendering:auto;image-rendering:auto;shape-rendering:auto;text-rendering:auto;enable-background:accumulate"
         sodipodi:nodetypes="cc" />
    </g>
    <path
       sodipodi:nodetypes="cccsccc"
       inkscape:connector-curvature="0"
       id="path4837"
       d="M -98.53609,260.5197 354.487,485.59125 477.81928,643.03354 c 0,0 -25.84553,242.94801 -41.35285,253.28621 -15.50732,10.3383 -736.59768,-93.04389 -736.59768,-93.04389 l 131.81222,-563.43259 z"
       style="color:#000000;clip-rule:nonzero;display:inline;overflow:visible;visibility:visible;opacity:1;isolation:auto;mix-blend-mode:normal;color-interpolation:sRGB;color-interpolation-filters:linearRGB;solid-color:#000000;solid-opacity:1;fill:#767676;fill-opacity:1;fill-rule:nonzero;stroke:none;stroke-width:10;stroke-linecap:round;stroke-linejoin:round;stroke-miterlimit:4;stroke-dasharray:none;stroke-dashoffset:0;stroke-opacity:1;marker:none;color-rendering:auto;image-rendering:auto;shape-rendering:auto;text-rendering:auto;enable-background:accumulate" />
    <path
       inkscape:connector-curvature="0"
       id="path4839"
       d="M -126.96618,276.02702 61.70621,462.11485 -41.67592,415.59289 175.42655,578.41975 -36.50682,480.20673 286.56234,686.97096 -59.7678,593.92707 l 157.65775,77.53659 -186.08783,12.9228 160.2423,25.8455 -134.39677,15.5073 276.5472,90.4594 -581.52448,-25.8455 z"
       style="color:#000000;clip-rule:nonzero;display:inline;overflow:visible;visibility:visible;opacity:1;isolation:auto;mix-blend-mode:normal;color-interpolation:sRGB;color-interpolation-filters:linearRGB;solid-color:#000000;solid-opacity:1;fill:#7b7b7b;fill-opacity:1;fill-rule:nonzero;stroke:none;stroke-width:10;stroke-linecap:round;stroke-linejoin:round;stroke-miterlimit:4;stroke-dasharray:none;stroke-dashoffset:0;stroke-opacity:1;marker:none;color-rendering:auto;image-rendering:auto;shape-rendering:auto;text-rendering:auto;enable-background:accumulate" />
    <path
       sodipodi:nodetypes="cccccccccccccc"
       style="color:#000000;clip-rule:nonzero;display:inline;overflow:visible;visibility:visible;opacity:1;isolation:auto;mix-blend-mode:normal;color-interpolation:sRGB;color-interpolation-filters:linearRGB;solid-color:#000000;solid-opacity:1;fill:#7f7f7f;fill-opacity:1;fill-rule:nonzero;stroke:none;stroke-width:10;stroke-linecap:round;stroke-linejoin:round;stroke-miterlimit:4;stroke-dasharray:none;stroke-dashoffset:0;stroke-opacity:1;marker:none;color-rendering:auto;image-rendering:auto;shape-rendering:auto;text-rendering:auto;enable-background:accumulate"
       d="M -126.96618,276.02702 -0.32306811,428.51566 -90.782432,394.91646 22.937908,485.37583 -114.04342,444.02298 90.136293,604.26526 -160.56538,555.15877 -8.0767334,650.78723 -227.76376,699.89378 l 211.933369,5.16907 -121.473999,20.67641 351.49924,90.4594 -581.52448,-25.8455 z"
       id="path4841"
       inkscape:connector-curvature="0" />
  </g>
  <g
     style="display:none"
     sodipodi:insensitive="true"
     transform="translate(261.36295,375.92654)"
     id="layer1"
     inkscape:groupmode="layer"
     inkscape:label="Layer 1">
    <image
       sodipodi:absref="C:\Users\vg\SuriAlFuturo\ART\Models\Critters\Fish\Fish-UvLayout.png"
       xlink:href="Fish-UvLayout.png"
       y="-375.92654"
       x="-261.36295"
       id="image4733"
       preserveAspectRatio="none"
       height="1280"
       width="1280" />
  </g>
</svg>
