<?xml version="1.0" encoding="UTF-8" standalone="no"?>
<!-- Created with Inkscape (http://www.inkscape.org/) -->

<svg
   xmlns:dc="http://purl.org/dc/elements/1.1/"
   xmlns:cc="http://creativecommons.org/ns#"
   xmlns:rdf="http://www.w3.org/1999/02/22-rdf-syntax-ns#"
   xmlns:svg="http://www.w3.org/2000/svg"
   xmlns="http://www.w3.org/2000/svg"
   xmlns:sodipodi="http://sodipodi.sourceforge.net/DTD/sodipodi-0.dtd"
   xmlns:inkscape="http://www.inkscape.org/namespaces/inkscape"
   width="265.69095"
   height="265.68762"
   viewBox="0 0 265.69095 265.68763"
   id="svg2"
   version="1.1"
   inkscape:version="0.91 r13725"
   sodipodi:docname="ActiveCollectable.svg"
   inkscape:export-filename="C:\Users\vg\SuriAlFuturo\ART\UI\ActiveCollectable.png"
   inkscape:export-xdpi="90"
   inkscape:export-ydpi="90">
  <defs
     id="defs4" />
  <sodipodi:namedview
     id="base"
     pagecolor="#ffffff"
     bordercolor="#666666"
     borderopacity="1.0"
     inkscape:pageopacity="0.0"
     inkscape:pageshadow="2"
     inkscape:zoom="0.35"
     inkscape:cx="375"
     inkscape:cy="520"
     inkscape:document-units="px"
     inkscape:current-layer="layer1"
     showgrid="false"
     inkscape:window-width="1366"
     inkscape:window-height="715"
     inkscape:window-x="-8"
     inkscape:window-y="-8"
     inkscape:window-maximized="1"
     inkscape:snap-global="false"
     fit-margin-top="0"
     fit-margin-left="0"
     fit-margin-right="0"
     fit-margin-bottom="0"
     units="px" />
  <metadata
     id="metadata7">
    <rdf:RDF>
      <cc:Work
         rdf:about="">
        <dc:format>image/svg+xml</dc:format>
        <dc:type
           rdf:resource="http://purl.org/dc/dcmitype/StillImage" />
        <dc:title></dc:title>
      </cc:Work>
    </rdf:RDF>
  </metadata>
  <g
     inkscape:label="Layer 1"
     inkscape:groupmode="layer"
     id="layer1"
     transform="translate(-1.4944838,141.04566)">
    <g
       id="g4262"
       transform="matrix(1.700507,0,0,1.700507,-18.200841,-150.73058)">
      <path
         inkscape:connector-curvature="0"
         id="rect4136"
         d="m 35.101246,6.6953125 c -12.341327,0 -22.519215,10.1778875 -22.519215,22.5192145 l 0,109.156173 c 0,12.36633 10.198513,22.56485 22.56485,22.56485 l 109.502499,0 c 12.1526,0 22.17484,-10.02225 22.17484,-22.17484 l 0,-109.408294 c 0,-12.416895 -10.24021,-22.6571035 -22.6571,-22.6571035 z m 1.848964,14.5019915 105.50583,0 c 5.65554,0 9.86628,4.21074 9.86628,9.866281 l 0,105.503695 c 0,5.65554 -4.21074,9.86628 -9.86628,9.86628 l -105.50583,0 c -5.655541,0 -9.866281,-4.21074 -9.866281,-9.86628 l 0,-105.503695 c 0,-5.655541 4.21074,-9.866281 9.866281,-9.866281 z"
         style="color:#000000;font-style:normal;font-variant:normal;font-weight:normal;font-stretch:normal;font-size:medium;line-height:normal;font-family:sans-serif;text-indent:0;text-align:start;text-decoration:none;text-decoration-line:none;text-decoration-style:solid;text-decoration-color:#000000;letter-spacing:normal;word-spacing:normal;text-transform:none;direction:ltr;block-progression:tb;writing-mode:lr-tb;baseline-shift:baseline;text-anchor:start;white-space:normal;clip-rule:nonzero;display:inline;overflow:visible;visibility:visible;opacity:1;isolation:auto;mix-blend-mode:normal;color-interpolation:sRGB;color-interpolation-filters:linearRGB;solid-color:#000000;solid-opacity:1;fill:#00a3e7;fill-opacity:1;fill-rule:nonzero;stroke:#002e41;stroke-width:2;stroke-linecap:round;stroke-linejoin:round;stroke-miterlimit:4;stroke-dasharray:none;stroke-dashoffset:0;stroke-opacity:1;marker:none;color-rendering:auto;image-rendering:auto;shape-rendering:auto;text-rendering:auto;enable-background:accumulate"
         sodipodi:nodetypes="ssssssssssssssssss" />
      <path
         style="color:#000000;font-style:normal;font-variant:normal;font-weight:normal;font-stretch:normal;font-size:medium;line-height:normal;font-family:sans-serif;text-indent:0;text-align:start;text-decoration:none;text-decoration-line:none;text-decoration-style:solid;text-decoration-color:#000000;letter-spacing:normal;word-spacing:normal;text-transform:none;direction:ltr;block-progression:tb;writing-mode:lr-tb;baseline-shift:baseline;text-anchor:start;white-space:normal;clip-rule:nonzero;display:inline;overflow:visible;visibility:visible;opacity:1;isolation:auto;mix-blend-mode:normal;color-interpolation:sRGB;color-interpolation-filters:linearRGB;solid-color:#000000;solid-opacity:1;fill:#0087bd;fill-opacity:1;fill-rule:nonzero;stroke:none;stroke-width:2;stroke-linecap:round;stroke-linejoin:round;stroke-miterlimit:4;stroke-dasharray:none;stroke-dashoffset:0;stroke-opacity:1;marker:none;color-rendering:auto;image-rendering:auto;shape-rendering:auto;text-rendering:auto;enable-background:accumulate"
         d="M 39.994141,6.8027344 C 19.73363,6.8018511 3.0211919,23.514882 3.0214844,43.775391 l 0.00195,185.621089 c 2.925e-4,20.30156 16.7472586,37.04635 37.0488286,37.04883 l 186.208987,0.0215 c 19.95069,0.002 36.41123,-16.45754 36.4082,-36.40821 L 262.66211,44.009766 C 262.65901,23.625198 245.84551,6.8114356 225.46094,6.8105469 L 39.994141,6.8027344 Z m 3.203125,6.3281246 179.041014,0.0332 c 20.05025,0.0036 33.69866,14.018143 33.71094,34.06836 l 0.10937,179.671881 c 0.0119,19.62342 -13.30818,32.94135 -32.93164,32.93164 l -179.8457,-0.0879 C 23.312669,259.73817 9.7218629,246.15606 9.7207031,226.1875 L 9.7109375,46.978516 C 9.7097795,27.050318 23.269068,13.12736 43.197266,13.130859 Z m -7.871094,7.738282 c -10.454988,0 -18.238281,7.781344 -18.238281,18.236328 l 0,195.037111 c 0,10.455 7.783293,18.23828 18.238281,18.23828 l 195.039058,0 c 10.45498,0 18.23829,-7.78328 18.23829,-18.23828 l 0,-195.037111 c 0,-10.454984 -7.78331,-18.236328 -18.23829,-18.236328 l -195.039058,0 z m 7.8125,7.408203 179.414058,0 c 10.54259,0 18.64063,8.099994 18.64063,18.642578 l 0,179.410158 c 0,10.54256 -8.09804,18.64062 -18.64063,18.64062 l -179.414058,0 c -10.542587,0 -18.642578,-8.09806 -18.642578,-18.64062 l 0,-179.410158 c 0,-10.542584 8.099992,-18.642578 18.642578,-18.642578 z"
         transform="matrix(0.58805991,0,0,0.58805991,11.582031,3.4719587)"
         id="path4250"
         inkscape:connector-curvature="0" />
    </g>
    <g
       transform="matrix(1.3953758,0,0,2.0723622,-1.0468965,-150.73058)"
       style="color:#000000;font-style:normal;font-variant:normal;font-weight:normal;font-stretch:normal;font-size:39.49165344px;font-family:Ubuntu;-inkscape-font-specification:Ubuntu;text-align:center;text-anchor:middle;clip-rule:nonzero;display:inline;overflow:visible;visibility:visible;opacity:1;isolation:auto;mix-blend-mode:normal;color-interpolation:sRGB;color-interpolation-filters:linearRGB;solid-color:#000000;solid-opacity:1;fill:#bdbd00;fill-opacity:1;fill-rule:nonzero;stroke:#000000;stroke-width:4;stroke-linecap:round;stroke-linejoin:round;stroke-miterlimit:4;stroke-dasharray:none;stroke-dashoffset:0;stroke-opacity:1;marker:none;color-rendering:auto;image-rendering:auto;shape-rendering:auto;text-rendering:auto;enable-background:accumulate"
       id="g4296" />
    <g
       transform="matrix(1.3953758,0,0,2.0723622,-1.0469728,-143.51593)"
       style="color:#000000;font-style:normal;font-variant:normal;font-weight:normal;font-stretch:normal;font-size:39.49165344px;font-family:Ubuntu;-inkscape-font-specification:Ubuntu;text-align:center;text-anchor:middle;clip-rule:nonzero;display:inline;overflow:visible;visibility:visible;opacity:1;isolation:auto;mix-blend-mode:normal;color-interpolation:sRGB;color-interpolation-filters:linearRGB;solid-color:#000000;solid-opacity:1;fill:#bdbd00;fill-opacity:1;fill-rule:nonzero;stroke:none;stroke-width:5;stroke-linecap:round;stroke-linejoin:round;stroke-miterlimit:4;stroke-dasharray:none;stroke-dashoffset:0;stroke-opacity:1;marker:none;color-rendering:auto;image-rendering:auto;shape-rendering:auto;text-rendering:auto;enable-background:accumulate"
       id="g4352" />
    <g
       id="g4718"
       style="color:#000000;font-style:normal;font-variant:normal;font-weight:normal;font-stretch:normal;font-size:39.49165344px;font-family:Ubuntu;-inkscape-font-specification:Ubuntu;text-align:center;text-anchor:middle;clip-rule:nonzero;display:inline;overflow:visible;visibility:visible;opacity:1;isolation:auto;mix-blend-mode:normal;color-interpolation:sRGB;color-interpolation-filters:linearRGB;solid-color:#000000;solid-opacity:1;fill:#bdbd00;fill-opacity:1;fill-rule:nonzero;stroke:#000000;stroke-width:4;stroke-linecap:round;stroke-linejoin:round;stroke-miterlimit:4;stroke-dasharray:none;stroke-dashoffset:0;stroke-opacity:1;marker:none;color-rendering:auto;image-rendering:auto;shape-rendering:auto;text-rendering:auto;enable-background:accumulate"
       transform="matrix(1.3953758,0,0,2.0723622,298.9531,-150.73058)" />
    <g
       id="g4720"
       style="color:#000000;font-style:normal;font-variant:normal;font-weight:normal;font-stretch:normal;font-size:39.49165344px;font-family:Ubuntu;-inkscape-font-specification:Ubuntu;text-align:center;text-anchor:middle;clip-rule:nonzero;display:inline;overflow:visible;visibility:visible;opacity:1;isolation:auto;mix-blend-mode:normal;color-interpolation:sRGB;color-interpolation-filters:linearRGB;solid-color:#000000;solid-opacity:1;fill:#bdbd00;fill-opacity:1;fill-rule:nonzero;stroke:none;stroke-width:5;stroke-linecap:round;stroke-linejoin:round;stroke-miterlimit:4;stroke-dasharray:none;stroke-dashoffset:0;stroke-opacity:1;marker:none;color-rendering:auto;image-rendering:auto;shape-rendering:auto;text-rendering:auto;enable-background:accumulate"
       transform="matrix(1.3953758,0,0,2.0723622,298.95303,-143.51593)" />
    <path
       style="color:#000000;clip-rule:nonzero;display:inline;overflow:visible;visibility:visible;opacity:1;isolation:auto;mix-blend-mode:normal;color-interpolation:sRGB;color-interpolation-filters:linearRGB;solid-color:#000000;solid-opacity:1;fill:#ffffff;fill-opacity:1;fill-rule:nonzero;stroke:none;stroke-width:2;stroke-linecap:round;stroke-linejoin:round;stroke-miterlimit:4;stroke-dasharray:none;stroke-dashoffset:0;stroke-opacity:1;marker:none;color-rendering:auto;image-rendering:auto;shape-rendering:auto;text-rendering:auto;enable-background:accumulate"
       d="m 53.769879,-129.28851 c -7.416483,1.08818 -14.949412,-2.70237 -22.728432,-0.75761 -10.125169,2.53129 -21.2132039,10.54254 -21.2132039,21.2132 0,7.27699 0.7966189,13.209992 3.7880729,19.192899 0.938793,1.877587 1.515228,4.841437 1.515228,7.071068 0,0.678676 0.252539,2.698981 0.252539,2.020305 0,-10.039347 -3.737643,-24.294092 3.788072,-31.819802 3.176035,-3.17604 11.677936,-5.93075 13.637059,-9.84899 2.330685,-4.66137 10.088616,-6.06092 15.404826,-6.06092 1.72285,0 9.672177,-0.32409 5.555839,-1.01015 z"
       id="path4186"
       inkscape:connector-curvature="0" />
    <path
       style="color:#000000;clip-rule:nonzero;display:inline;overflow:visible;visibility:visible;opacity:1;isolation:auto;mix-blend-mode:normal;color-interpolation:sRGB;color-interpolation-filters:linearRGB;solid-color:#000000;solid-opacity:1;fill:#ffffff;fill-opacity:1;fill-rule:nonzero;stroke:none;stroke-width:2;stroke-linecap:round;stroke-linejoin:round;stroke-miterlimit:4;stroke-dasharray:none;stroke-dashoffset:0;stroke-opacity:1;marker:none;color-rendering:auto;image-rendering:auto;shape-rendering:auto;text-rendering:auto;enable-background:accumulate"
       d="m 204.53514,-129.28851 c 27.99832,-1.46239 49.49748,-4.73238 49.49748,29.799502 0,5.38748 0,10.77496 0,16.162441 0,1.178511 1.17851,3.535534 0,3.535534 -1.19048,0 -0.50508,-2.345058 -0.50508,-3.535534 0,-7.53081 -0.28432,-26.548293 -5.05076,-31.314733 -4.24279,-4.24278 -8.28085,-7.67595 -15.15229,-11.11167 -5.2704,-2.6352 -12.12685,2.01528 -16.16244,-2.02031 -1.54432,-1.54431 -10.01188,0.0538 -12.62691,-1.51523 z"
       id="path4188"
       inkscape:connector-curvature="0" />
    <path
       style="color:#000000;clip-rule:nonzero;display:inline;overflow:visible;visibility:visible;opacity:1;isolation:auto;mix-blend-mode:normal;color-interpolation:sRGB;color-interpolation-filters:linearRGB;solid-color:#000000;solid-opacity:1;fill:#ffffff;fill-opacity:1;fill-rule:nonzero;stroke:none;stroke-width:2;stroke-linecap:round;stroke-linejoin:round;stroke-miterlimit:4;stroke-dasharray:none;stroke-dashoffset:0;stroke-opacity:1;marker:none;color-rendering:auto;image-rendering:auto;shape-rendering:auto;text-rendering:auto;enable-background:accumulate"
       d="m 15.772734,-42.012051 c 0.607584,3.013451 -0.844247,7.812956 0,10.634879 7.068544,23.6266391 0.909064,31.04171565 0.909064,54.187248 0,5.97168 -0.606034,12.507288 -0.606034,18.231217 0,2.747987 -0.909051,10.850753 -0.909051,8.102766 0,-7.628084 -6.2425863,-28.292884 -4.848314,-34.436747 6.077257,-26.779562 1.649428,-45.114092 3.333215,-71.91205 0,0 2.082789,14.936345 2.12112,15.192687 z"
       id="path4190"
       inkscape:connector-curvature="0"
       sodipodi:nodetypes="cssssscc" />
    <path
       inkscape:connector-curvature="0"
       id="path4194"
       d="m 212.0169,113.73098 c 7.41649,-1.08818 14.94941,2.70237 22.72843,0.75761 10.12517,-2.53129 21.21321,-10.54254 21.21321,-21.213202 0,-7.27699 -0.79662,-13.20999 -3.78807,-19.1929 -0.9388,-1.87759 -1.51523,-4.84144 -1.51523,-7.07107 0,-0.67868 -0.25254,-2.69898 -0.25254,-2.0203 0,10.03934 3.73764,24.29409 -3.78807,31.819798 -3.17604,3.17604 -11.67794,5.930754 -13.63706,9.848994 -2.33069,4.66137 -10.08862,6.06092 -15.40483,6.06092 -1.72285,0 -9.67218,0.32409 -5.55584,1.01015 z"
       style="color:#000000;clip-rule:nonzero;display:inline;overflow:visible;visibility:visible;opacity:1;isolation:auto;mix-blend-mode:normal;color-interpolation:sRGB;color-interpolation-filters:linearRGB;solid-color:#000000;solid-opacity:1;fill:#ffffff;fill-opacity:1;fill-rule:nonzero;stroke:none;stroke-width:2;stroke-linecap:round;stroke-linejoin:round;stroke-miterlimit:4;stroke-dasharray:none;stroke-dashoffset:0;stroke-opacity:1;marker:none;color-rendering:auto;image-rendering:auto;shape-rendering:auto;text-rendering:auto;enable-background:accumulate" />
  </g>
</svg>
