<?xml version="1.0" encoding="UTF-8" standalone="no"?>
<!-- Created with Inkscape (http://www.inkscape.org/) -->

<svg
   xmlns:dc="http://purl.org/dc/elements/1.1/"
   xmlns:cc="http://creativecommons.org/ns#"
   xmlns:rdf="http://www.w3.org/1999/02/22-rdf-syntax-ns#"
   xmlns:svg="http://www.w3.org/2000/svg"
   xmlns="http://www.w3.org/2000/svg"
   xmlns:sodipodi="http://sodipodi.sourceforge.net/DTD/sodipodi-0.dtd"
   xmlns:inkscape="http://www.inkscape.org/namespaces/inkscape"
   width="150"
   height="300"
   viewBox="0 0 149.99999 300.00001"
   id="svg6001"
   version="1.1"
   inkscape:version="0.91 r13725"
   sodipodi:docname="choclo.svg"
   inkscape:export-filename="C:\Users\vg\SuriAlFuturo\ART\2dArt\Ambience\Choclo\choclo.png"
   inkscape:export-xdpi="90"
   inkscape:export-ydpi="90">
  <defs
     id="defs6003" />
  <sodipodi:namedview
     id="base"
     pagecolor="#ffffff"
     bordercolor="#666666"
     borderopacity="1.0"
     inkscape:pageopacity="0.0"
     inkscape:pageshadow="2"
     inkscape:zoom="0.35"
     inkscape:cx="375"
     inkscape:cy="520"
     inkscape:document-units="px"
     inkscape:current-layer="layer1"
     showgrid="false"
     inkscape:window-width="1366"
     inkscape:window-height="715"
     inkscape:window-x="-8"
     inkscape:window-y="-8"
     inkscape:window-maximized="1"
     fit-margin-top="0"
     fit-margin-left="0"
     fit-margin-right="0"
     fit-margin-bottom="0"
     units="px" />
  <metadata
     id="metadata6006">
    <rdf:RDF>
      <cc:Work
         rdf:about="">
        <dc:format>image/svg+xml</dc:format>
        <dc:type
           rdf:resource="http://purl.org/dc/dcmitype/StillImage" />
        <dc:title></dc:title>
      </cc:Work>
    </rdf:RDF>
  </metadata>
  <g
     inkscape:label="Layer 1"
     inkscape:groupmode="layer"
     id="layer1"
     transform="translate(-68.62439,74.149637)">
    <g
       id="g6602"
       transform="translate(-7.8086505,0)">
      <path
         sodipodi:nodetypes="ccsc"
         inkscape:connector-curvature="0"
         id="path6549"
         d="m 90.153858,118.03145 c 33.267572,8.81791 32.866752,72.54732 60.923722,82.56767 -20.82373,-1.26974 -47.76152,-18.62912 -59.609683,-40.9666 -6.852164,-12.91846 -8.657342,-27.50194 -1.314039,-41.60107 z"
         style="color:#000000;clip-rule:nonzero;display:inline;overflow:visible;visibility:visible;opacity:1;isolation:auto;mix-blend-mode:normal;color-interpolation:sRGB;color-interpolation-filters:linearRGB;solid-color:#000000;solid-opacity:1;fill:#114c0c;fill-opacity:1;fill-rule:nonzero;stroke:#000000;stroke-width:2;stroke-linecap:round;stroke-linejoin:miter;stroke-miterlimit:4;stroke-dasharray:none;stroke-dashoffset:0;stroke-opacity:1;marker:none;color-rendering:auto;image-rendering:auto;shape-rendering:auto;text-rendering:auto;enable-background:accumulate" />
      <path
         style="color:#000000;clip-rule:nonzero;display:inline;overflow:visible;visibility:visible;opacity:1;isolation:auto;mix-blend-mode:normal;color-interpolation:sRGB;color-interpolation-filters:linearRGB;solid-color:#000000;solid-opacity:1;fill:#114c0c;fill-opacity:1;fill-rule:nonzero;stroke:#000000;stroke-width:2;stroke-linecap:round;stroke-linejoin:miter;stroke-miterlimit:4;stroke-dasharray:none;stroke-dashoffset:0;stroke-opacity:1;marker:none;color-rendering:auto;image-rendering:auto;shape-rendering:auto;text-rendering:auto;enable-background:accumulate"
         d="m 212.71221,128.05179 c -33.26756,8.81791 -32.86675,72.54733 -60.92372,82.56767 32.86675,-2.00407 80.96441,-44.08953 60.92372,-82.56767 z"
         id="path6551"
         inkscape:connector-curvature="0"
         sodipodi:nodetypes="ccc" />
      <path
         style="color:#000000;clip-rule:nonzero;display:inline;overflow:visible;visibility:visible;opacity:1;isolation:auto;mix-blend-mode:normal;color-interpolation:sRGB;color-interpolation-filters:linearRGB;solid-color:#000000;solid-opacity:1;fill:#208c16;fill-opacity:1;fill-rule:nonzero;stroke:none;stroke-width:2;stroke-linecap:round;stroke-linejoin:miter;stroke-miterlimit:4;stroke-dasharray:none;stroke-dashoffset:0;stroke-opacity:1;marker:none;color-rendering:auto;image-rendering:auto;shape-rendering:auto;text-rendering:auto;enable-background:accumulate"
         d="M 132.5332 204.66211 C 126.46272 207.32003 121.61471 212.00227 117.49414 217.98242 C 112.49611 225.23604 108.56555 234.28466 104.78711 243.41797 C 101.00868 252.55127 97.381881 261.7659 92.894531 269.38867 C 91.697355 271.42236 90.434024 273.33789 89.087891 275.11328 C 106.03556 260.80231 122.38558 233.35244 128.75391 217.43164 C 130.34292 213.4591 131.34794 208.97215 132.5332 204.66211 z "
         transform="translate(76.433033,-74.149637)"
         id="path6582" />
      <path
         style="color:#000000;clip-rule:nonzero;display:inline;overflow:visible;visibility:visible;opacity:1;isolation:auto;mix-blend-mode:normal;color-interpolation:sRGB;color-interpolation-filters:linearRGB;solid-color:#000000;solid-opacity:1;fill:#208c16;fill-opacity:1;fill-rule:nonzero;stroke:none;stroke-width:2;stroke-linecap:round;stroke-linejoin:miter;stroke-miterlimit:4;stroke-dasharray:none;stroke-dashoffset:0;stroke-opacity:1;marker:none;color-rendering:auto;image-rendering:auto;shape-rendering:auto;text-rendering:auto;enable-background:accumulate"
         d="M 14.251953 193.45312 C 13.862454 194.23972 13.508832 195.0279 13.175781 195.81641 C 15.335272 202.33385 20.535156 208.0544 20.535156 214.62695 C 20.535156 225.06994 37.508682 253.2961 49.552734 265.74414 C 56.010395 269.19835 62.626759 271.66749 68.865234 272.86719 C 64.191714 269.69272 60.398199 264.96259 57.105469 259.36914 C 52.618129 251.74637 48.991331 242.52979 45.212891 233.39648 C 41.434461 224.26318 37.503889 215.21455 32.505859 207.96094 C 27.681639 200.95957 21.86687 195.72709 14.251953 193.45312 z "
         transform="translate(76.433033,-74.149637)"
         id="path6587" />
      <path
         style="color:#000000;clip-rule:nonzero;display:inline;overflow:visible;visibility:visible;opacity:1;isolation:auto;mix-blend-mode:normal;color-interpolation:sRGB;color-interpolation-filters:linearRGB;solid-color:#000000;solid-opacity:1;fill:#114c0c;fill-opacity:1;fill-rule:nonzero;stroke:#000000;stroke-width:2;stroke-linecap:round;stroke-linejoin:miter;stroke-miterlimit:4;stroke-dasharray:none;stroke-dashoffset:0;stroke-opacity:1;marker:none;color-rendering:auto;image-rendering:auto;shape-rendering:auto;text-rendering:auto;enable-background:accumulate"
         d="m 117.43496,79.503596 c 19.5341,5.156777 19.29874,42.426174 35.77329,48.286144 -19.29876,-1.172 -47.54082,-25.78386 -35.77329,-48.286144 z"
         id="path6564"
         inkscape:connector-curvature="0"
         sodipodi:nodetypes="ccc" />
      <path
         sodipodi:nodetypes="ccc"
         inkscape:connector-curvature="0"
         id="path6566"
         d="m 184.29744,85.363565 c -19.5341,5.156771 -19.29875,42.426175 -35.77329,48.286145 19.29876,-1.172 47.54081,-25.78387 35.77329,-48.286145 z"
         style="color:#000000;clip-rule:nonzero;display:inline;overflow:visible;visibility:visible;opacity:1;isolation:auto;mix-blend-mode:normal;color-interpolation:sRGB;color-interpolation-filters:linearRGB;solid-color:#000000;solid-opacity:1;fill:#114c0c;fill-opacity:1;fill-rule:nonzero;stroke:#000000;stroke-width:2;stroke-linecap:round;stroke-linejoin:miter;stroke-miterlimit:4;stroke-dasharray:none;stroke-dashoffset:0;stroke-opacity:1;marker:none;color-rendering:auto;image-rendering:auto;shape-rendering:auto;text-rendering:auto;enable-background:accumulate" />
      <path
         style="color:#000000;clip-rule:nonzero;display:inline;overflow:visible;visibility:visible;opacity:1;isolation:auto;mix-blend-mode:normal;color-interpolation:sRGB;color-interpolation-filters:linearRGB;solid-color:#000000;solid-opacity:1;fill:#208c16;fill-opacity:1;fill-rule:nonzero;stroke:none;stroke-width:2;stroke-linecap:round;stroke-linejoin:miter;stroke-miterlimit:4;stroke-dasharray:none;stroke-dashoffset:0;stroke-opacity:1;marker:none;color-rendering:auto;image-rendering:auto;shape-rendering:auto;text-rendering:auto;enable-background:accumulate"
         d="M 41.697266 154.98633 C 41.850264 156.35598 42.011856 157.57842 42.177734 157.91016 C 42.573644 158.70201 44.065282 159.96536 44.382812 160.91797 C 47.794922 171.15431 54.508863 177.88708 59.814453 187.17188 C 60.950573 189.16006 61.934428 194.79135 64.423828 195.78711 C 66.782307 196.73051 68.974322 198.34048 71.234375 199.80273 C 71.346738 199.83251 71.460213 199.86794 71.572266 199.89648 C 69.486016 198.08728 67.685444 195.80487 66.121094 193.1582 C 63.461304 188.65822 61.328178 183.25296 59.111328 177.91602 C 56.894478 172.57908 54.594319 167.31226 51.693359 163.11914 C 49.00503 159.23335 45.804302 156.36046 41.697266 154.98633 z "
         transform="translate(76.433033,-74.149637)"
         id="path6592" />
      <path
         style="color:#000000;clip-rule:nonzero;display:inline;overflow:visible;visibility:visible;opacity:1;isolation:auto;mix-blend-mode:normal;color-interpolation:sRGB;color-interpolation-filters:linearRGB;solid-color:#000000;solid-opacity:1;fill:#208c16;fill-opacity:1;fill-rule:nonzero;stroke:none;stroke-width:2;stroke-linecap:round;stroke-linejoin:miter;stroke-miterlimit:4;stroke-dasharray:none;stroke-dashoffset:0;stroke-opacity:1;marker:none;color-rendering:auto;image-rendering:auto;shape-rendering:auto;text-rendering:auto;enable-background:accumulate"
         d="M 107.31445 160.79102 C 103.13521 162.14482 99.892815 165.04561 97.171875 168.97852 C 94.270915 173.17163 91.970756 178.44041 89.753906 183.77734 C 87.537056 189.11428 85.403931 194.5176 82.744141 199.01758 C 81.179941 201.66399 79.378949 203.94672 77.292969 205.75586 C 78.660746 205.40745 80.054006 204.95871 81.453125 204.43164 C 86.044568 200.02195 88.713678 192.52825 92.28125 187.77148 C 93.80066 185.74561 93.458916 182.25855 94.884766 180.35742 C 97.636176 176.68887 99.713348 173.29768 101.29883 169.33398 C 102.5061 166.31581 105.52854 164.1902 107.70703 161.71289 C 107.57522 161.40554 107.46115 161.09783 107.31445 160.79102 z "
         transform="translate(76.433033,-74.149637)"
         id="path6597" />
      <path
         sodipodi:nodetypes="sssscccss"
         inkscape:connector-curvature="0"
         id="path6555"
         d="m 173.92397,20.23285 c 0,30.548145 -9.33142,55.312312 -20.84231,55.312321 -11.5109,3e-6 -20.84233,-24.764167 -20.84233,-55.312321 0,-22.8833094 5.23618,-42.521029 12.70232,-50.934987 2.01873,-2.274999 -1.84264,-29.793928 -1.84264,-29.793928 l 10.18601,14.353666 7.0058,-13.095194 c 0,0 -1.79319,25.828315 -0.0978,27.461313 8.00937,7.714655 13.73096,28.0886643 13.73096,52.00913 z"
         style="color:#000000;clip-rule:nonzero;display:inline;overflow:visible;visibility:visible;opacity:1;isolation:auto;mix-blend-mode:normal;color-interpolation:sRGB;color-interpolation-filters:linearRGB;solid-color:#000000;solid-opacity:1;fill:#e7f920;fill-opacity:1;fill-rule:nonzero;stroke:#000000;stroke-width:2;stroke-linecap:round;stroke-linejoin:miter;stroke-miterlimit:4;stroke-dasharray:none;stroke-dashoffset:0;stroke-opacity:1;marker:none;color-rendering:auto;image-rendering:auto;shape-rendering:auto;text-rendering:auto;enable-background:accumulate" />
      <path
         inkscape:connector-curvature="0"
         id="path6570"
         d="m 147.5255,-31.76211 c -2.38994,-0.253556 -5.9164,7.640086 -6.10146,8.010211 -1.16088,2.321771 -3.00739,5.868708 -4.7513,9.877833 -1.8397,6.2251044 -3.18588,13.52575794 -3.88602,21.4844994 0.35478,1.0728812 0.85549,2.0610009 1.55064,2.9299386 1.28588,1.60736 6.73339,2.932911 8.78638,4.252693 4.55466,2.92799 15.45929,11.610669 21.82376,7.367681 0.85202,-0.568012 4.423,-8.691896 8.09417,-17.7835252 -0.71458,-6.3430918 -1.84391,-12.1996332 -3.3086,-17.3620258 -2.92502,2.902606 -5.65881,5.9775071 -8.1867,8.5053882 -2.66252,2.6625217 -2.87088,5.5811135 -4.81811,8.5019608 -0.23437,0.3515371 -0.56715,1.5567753 -0.56715,1.1342803 0,-8.2828788 1.13428,-15.6696533 1.13428,-23.8078893 0,-4.83703 -0.7268,-10.610854 -0.85156,-10.486095 -0.26787,0.267871 -4.5337,23.2442899 -4.5337,24.3733163 0,3.0015489 -0.84985,6.2369143 -0.84985,9.0691013 0,0.6680238 0.0143,2.5816323 -0.28443,1.9841338 -4.26167,-8.5233283 -6.79905,-20.9881714 -4.81812,-30.8928574 0.1627,-0.813468 2.58141,-6.487693 2.26856,-6.80054 -0.21795,-0.217946 -0.45354,-0.331874 -0.70079,-0.358104 z"
         style="color:#000000;clip-rule:nonzero;display:inline;overflow:visible;visibility:visible;opacity:1;isolation:auto;mix-blend-mode:normal;color-interpolation:sRGB;color-interpolation-filters:linearRGB;solid-color:#000000;solid-opacity:1;fill:#c3d223;fill-opacity:1;fill-rule:nonzero;stroke:none;stroke-width:2;stroke-linecap:round;stroke-linejoin:miter;stroke-miterlimit:4;stroke-dasharray:none;stroke-dashoffset:0;stroke-opacity:1;marker:none;color-rendering:auto;image-rendering:auto;shape-rendering:auto;text-rendering:auto;enable-background:accumulate" />
      <path
         sodipodi:nodetypes="ccc"
         inkscape:connector-curvature="0"
         id="path6561"
         d="m 122.33081,-37.849773 c 34.87082,24.850464 37.67652,91.385576 37.67652,91.385576 -58.52432,0 -21.24314,-35.67244 -37.67652,-91.385576 z"
         style="color:#000000;clip-rule:nonzero;display:inline;overflow:visible;visibility:visible;opacity:1;isolation:auto;mix-blend-mode:normal;color-interpolation:sRGB;color-interpolation-filters:linearRGB;solid-color:#000000;solid-opacity:1;fill:#208c16;fill-opacity:1;fill-rule:nonzero;stroke:#000000;stroke-width:2;stroke-linecap:round;stroke-linejoin:miter;stroke-miterlimit:4;stroke-dasharray:none;stroke-dashoffset:0;stroke-opacity:1;marker:none;color-rendering:auto;image-rendering:auto;shape-rendering:auto;text-rendering:auto;enable-background:accumulate" />
      <path
         style="color:#000000;clip-rule:nonzero;display:inline;overflow:visible;visibility:visible;opacity:1;isolation:auto;mix-blend-mode:normal;color-interpolation:sRGB;color-interpolation-filters:linearRGB;solid-color:#000000;solid-opacity:1;fill:#2ab61c;fill-opacity:1;fill-rule:nonzero;stroke:#000000;stroke-width:2;stroke-linecap:round;stroke-linejoin:miter;stroke-miterlimit:4;stroke-dasharray:none;stroke-dashoffset:0;stroke-opacity:1;marker:none;color-rendering:auto;image-rendering:auto;shape-rendering:auto;text-rendering:auto;enable-background:accumulate"
         d="m 179.7681,-17.443659 c -34.87082,24.8504636 -37.67652,91.385575 -37.67652,91.385575 58.52432,0 21.24314,-35.672439 37.67652,-91.385575 z"
         id="path6559"
         inkscape:connector-curvature="0"
         sodipodi:nodetypes="ccc" />
      <path
         sodipodi:nodetypes="ccsc"
         inkscape:connector-curvature="0"
         id="path6557"
         d="m 113.40106,5.0019207 c 34.87082,24.8504633 57.3164,60.7233103 57.3164,60.7233103 -3.23051,8.216685 -14.5616,12.123268 -18.46486,11.897773 C 111.61065,75.275073 137.53679,59.490146 113.40106,5.0019207 Z"
         style="color:#000000;clip-rule:nonzero;display:inline;overflow:visible;visibility:visible;opacity:1;isolation:auto;mix-blend-mode:normal;color-interpolation:sRGB;color-interpolation-filters:linearRGB;solid-color:#000000;solid-opacity:1;fill:#30d121;fill-opacity:1;fill-rule:nonzero;stroke:#000000;stroke-width:2;stroke-linecap:round;stroke-linejoin:miter;stroke-miterlimit:4;stroke-dasharray:none;stroke-dashoffset:0;stroke-opacity:1;marker:none;color-rendering:auto;image-rendering:auto;shape-rendering:auto;text-rendering:auto;enable-background:accumulate" />
      <path
         style="color:#000000;clip-rule:nonzero;display:inline;overflow:visible;visibility:visible;opacity:1;isolation:auto;mix-blend-mode:normal;color-interpolation:sRGB;color-interpolation-filters:linearRGB;solid-color:#000000;solid-opacity:1;fill:#74784a;fill-opacity:1;fill-rule:nonzero;stroke:none;stroke-width:2;stroke-linecap:round;stroke-linejoin:miter;stroke-miterlimit:4;stroke-dasharray:none;stroke-dashoffset:0;stroke-opacity:1;marker:none;color-rendering:auto;image-rendering:auto;shape-rendering:auto;text-rendering:auto;enable-background:accumulate"
         d="M 68.125 17.4375 C 68.44558 19.838637 68.821591 22.411905 69.337891 27.599609 C 69.695681 31.194529 69.992966 34.862038 70.072266 37.806641 C 70.111886 39.278943 70.097606 40.567959 70.003906 41.605469 C 69.910216 42.642979 69.892869 43.39345 69.255859 44.111328 C 68.273165 45.218775 67.329561 46.565861 66.423828 48.091797 L 73.634766 42.603516 L 74.060547 57.908203 L 76.326172 43.029297 L 81.001953 54.789062 L 81.001953 44.302734 L 87.521484 55.216797 C 87.521484 55.216797 84.516135 46.81463 83.654297 43.693359 C 83.459357 43.486086 83.263376 43.283473 83.066406 43.09375 C 82.707426 42.747982 82.621421 42.427461 82.519531 42.072266 C 82.417651 41.717071 82.345756 41.317241 82.285156 40.855469 C 82.163926 39.931925 82.096247 38.764899 82.060547 37.419922 C 81.989217 34.72997 82.055258 31.337643 82.173828 27.996094 C 82.330018 23.594628 82.47373 21.762902 82.625 19.333984 L 76.970703 29.904297 L 68.125 17.4375 z "
         transform="translate(76.433033,-74.149637)"
         id="path6577" />
      <path
         sodipodi:nodetypes="cccccccc"
         inkscape:connector-curvature="0"
         id="path6553"
         d="m 142.66048,225.85039 0.44349,-150.63607 -12.44964,-15.811274 22.0265,12.133986 8.92429,-12.647239 0.37894,17.383626 -4.89427,149.176161 z"
         style="color:#000000;clip-rule:nonzero;display:inline;overflow:visible;visibility:visible;opacity:1;isolation:auto;mix-blend-mode:normal;color-interpolation:sRGB;color-interpolation-filters:linearRGB;solid-color:#000000;solid-opacity:1;fill:#114c0c;fill-opacity:1;fill-rule:nonzero;stroke:#000000;stroke-width:2;stroke-linecap:round;stroke-linejoin:miter;stroke-miterlimit:4;stroke-dasharray:none;stroke-dashoffset:0;stroke-opacity:1;marker:none;color-rendering:auto;image-rendering:auto;shape-rendering:auto;text-rendering:auto;enable-background:accumulate" />
    </g>
  </g>
</svg>
