# Blender v2.77 (sub 0) OBJ File: 'Tree.blend'
# www.blender.org
mtllib Tree.mtl
o Cylinder
v -0.000000 0.099070 -0.935572
v 0.661550 0.099070 -0.661550
v 0.935573 0.099070 0.000000
v 0.661550 0.099070 0.661550
v -0.000000 0.099070 0.935572
v -0.661550 0.099070 0.661550
v -0.935572 0.099070 -0.000000
v -0.661550 0.099070 -0.661550
v -0.000000 0.044306 -0.605117
v -0.000000 3.056931 -0.364742
v 0.427882 0.044306 -0.427882
v 0.257912 3.056931 -0.257912
v 0.605117 0.044306 0.000000
v 0.364742 3.056931 0.000000
v 0.427882 0.044306 0.427882
v 0.257912 3.056931 0.257912
v -0.000000 0.044306 0.605117
v -0.000000 3.056931 0.364742
v -0.427882 0.044306 0.427882
v -0.257912 3.056931 0.257912
v -0.605117 0.044306 -0.000000
v -0.364742 3.056931 -0.000000
v -0.427882 0.044306 -0.427882
v -0.257912 3.056931 -0.257912
v 1.052166 2.093406 -1.052166
v 0.000000 1.436033 -1.914992
v 1.914992 1.436033 0.000000
v 1.052166 2.093406 1.052166
v -0.000000 1.436033 1.914992
v -1.052166 2.093406 1.052166
v -1.914992 1.436033 -0.000000
v -1.052166 2.093406 -1.052166
v 0.271043 4.964204 -0.271044
v -0.000000 4.964204 -0.383313
v 0.383313 4.964204 0.000000
v 0.271043 4.964204 0.271044
v -0.000000 4.964204 0.383313
v -0.271044 4.964204 0.271043
v -0.383314 4.964204 -0.000000
v -0.271044 4.964204 -0.271043
v -0.000000 3.636881 -1.673450
v -0.914423 4.272895 -0.914422
v 0.914422 4.272895 -0.914422
v 1.673449 3.636881 -0.000000
v 0.914422 4.272895 0.914422
v -0.000000 3.636881 1.673450
v -0.914422 4.272895 0.914423
v -1.673450 3.636881 0.000000
v -0.000000 7.301489 0.000000
v -0.000000 3.202965 -1.487987
v -1.354104 2.545593 -1.354104
v 1.354104 2.545593 -1.354104
v 1.487987 3.202965 -0.000000
v 1.354104 2.545593 1.354104
v -0.000000 3.202965 1.487987
v -1.354104 2.545593 1.354104
v -1.487988 3.202965 0.000000
v -0.000000 5.538682 -0.440354
v -0.311378 5.538682 -0.311378
v 0.311377 5.538682 -0.311378
v 0.440354 5.538682 -0.000000
v 0.311378 5.538682 0.311378
v -0.000000 5.538682 0.440354
v -0.311378 5.538682 0.311378
v -0.440354 5.538682 0.000000
vt 0.9609 0.6279
vt 0.8904 0.6984
vt 0.7908 0.6984
vt 0.7204 0.6279
vt 0.7204 0.5283
vt 0.7908 0.4579
vt 0.8904 0.4579
vt 0.9609 0.5283
vt 0.7881 0.7308
vt 0.6789 0.9975
vt 0.6539 0.9882
vt 0.7467 0.7153
vt 0.6285 0.9804
vt 0.7045 0.7024
vt 0.6026 0.9741
vt 0.6616 0.6920
vt 0.5764 0.9695
vt 0.6181 0.6843
vt 0.5499 0.9664
vt 0.5742 0.6793
vt 0.5234 0.9650
vt 0.5301 0.6769
vt 0.4967 0.9652
vt 0.4859 0.6772
vt 0.8284 0.7488
vt 0.7032 1.0083
vt 0.0235 0.4793
vt 0.0314 0.2502
vt 0.2305 0.2499
vt 0.2365 0.2656
vt 0.0230 0.0198
vt 0.2533 0.0277
vt 0.2533 0.2284
vt 0.2363 0.2331
vt 0.4824 0.0198
vt 0.4746 0.2489
vt 0.2754 0.2492
vt 0.2694 0.2335
vt 0.4830 0.4793
vt 0.2526 0.4714
vt 0.2527 0.2707
vt 0.2696 0.2660
vt 0.5361 0.0177
vt 0.7444 0.0340
vt 0.7444 0.2259
vt 0.9527 0.0177
vt 0.9364 0.2259
vt 0.9527 0.4342
vt 0.7444 0.4179
vt 0.5361 0.4342
vt 0.5524 0.2259
vt 0.0185 0.9823
vt 0.0295 0.7598
vt 0.2091 0.7594
vt 0.2178 0.7821
vt 0.0177 0.5355
vt 0.2420 0.5469
vt 0.2418 0.7282
vt 0.2176 0.7352
vt 0.4645 0.5355
vt 0.4535 0.7581
vt 0.2739 0.7585
vt 0.2652 0.7358
vt 0.4654 0.9823
vt 0.2411 0.9710
vt 0.2412 0.7897
vt 0.2655 0.7826
vn 0.0000 1.0000 -0.0000
vn 0.0000 0.0795 -0.9968
vn 0.7049 0.0795 -0.7049
vn 0.9968 0.0795 0.0000
vn 0.7049 0.0795 0.7049
vn 0.0000 0.0795 0.9968
vn -0.7049 0.0795 0.7049
vn -0.9968 0.0795 0.0000
vn -0.7049 0.0795 -0.7049
vn 0.0000 0.3916 -0.9201
vn -0.6577 0.3670 -0.6577
vn -0.9201 0.3916 0.0000
vn -0.6577 0.3670 0.6577
vn 0.0000 0.3916 0.9201
vn 0.6577 0.3670 0.6577
vn 0.9201 0.3916 0.0000
vn 0.6577 0.3670 -0.6577
vn -0.9096 0.4154 0.0000
vn -0.6503 0.3927 0.6503
vn 0.0000 0.4154 0.9096
vn 0.6503 0.3927 0.6503
vn 0.9096 0.4154 0.0000
vn 0.6503 0.3927 -0.6503
vn 0.0000 0.4154 -0.9096
vn -0.6503 0.3927 -0.6503
vn -0.6364 0.4359 -0.6364
vn -0.9090 0.4168 0.0000
vn -0.6364 0.4359 0.6364
vn 0.0000 0.4168 0.9090
vn 0.6364 0.4359 0.6364
vn 0.9090 0.4168 0.0000
vn 0.6364 0.4359 -0.6364
vn 0.0000 0.4168 -0.9090
usemtl Tree_Diffuse_Color
s off
f 2/1/1 1/2/1 8/3/1 7/4/1 6/5/1 5/6/1 4/7/1 3/8/1
s 1
f 9/9/2 10/10/2 12/11/3 11/12/3
f 11/12/3 12/11/3 14/13/4 13/14/4
f 13/14/4 14/13/4 16/15/5 15/16/5
f 15/16/5 16/15/5 18/17/6 17/18/6
f 17/18/6 18/17/6 20/19/7 19/20/7
f 19/20/7 20/19/7 22/21/8 21/22/8
f 21/22/8 22/21/8 24/23/9 23/24/9
f 23/25/9 24/26/9 10/10/2 9/9/2
f 26/27/10 32/28/11 40/29/11 34/30/10
f 31/31/12 30/32/13 38/33/13 39/34/12
f 29/35/14 28/36/15 36/37/15 37/38/14
f 27/39/16 25/40/17 33/41/17 35/42/16
f 32/28/11 31/31/12 39/34/12 40/29/11
f 30/32/13 29/35/14 37/38/14 38/33/13
f 28/36/15 27/39/16 35/42/16 36/37/15
f 25/40/17 26/27/10 34/30/10 33/41/17
f 48/43/18 47/44/19 49/45/1
f 46/46/20 45/47/21 49/45/1
f 44/48/22 43/49/23 49/45/1
f 41/50/24 42/51/25 49/45/1
f 42/51/25 48/43/18 49/45/1
f 47/44/19 46/46/20 49/45/1
f 45/47/21 44/48/22 49/45/1
f 43/49/23 41/50/24 49/45/1
f 51/52/26 57/53/27 65/54/27 59/55/26
f 56/56/28 55/57/29 63/58/29 64/59/28
f 54/60/30 53/61/31 61/62/31 62/63/30
f 52/64/32 50/65/33 58/66/33 60/67/32
f 57/53/27 56/56/28 64/59/28 65/54/27
f 55/57/29 54/60/30 62/63/30 63/58/29
f 53/61/31 52/64/32 60/67/32 61/62/31
f 50/65/33 51/52/26 59/55/26 58/66/33
