<?xml version="1.0" encoding="UTF-8" standalone="no"?>
<!-- Created with Inkscape (http://www.inkscape.org/) -->

<svg
   xmlns:dc="http://purl.org/dc/elements/1.1/"
   xmlns:cc="http://creativecommons.org/ns#"
   xmlns:rdf="http://www.w3.org/1999/02/22-rdf-syntax-ns#"
   xmlns:svg="http://www.w3.org/2000/svg"
   xmlns="http://www.w3.org/2000/svg"
   xmlns:xlink="http://www.w3.org/1999/xlink"
   xmlns:sodipodi="http://sodipodi.sourceforge.net/DTD/sodipodi-0.dtd"
   xmlns:inkscape="http://www.inkscape.org/namespaces/inkscape"
   width="361.24445mm"
   height="361.24445mm"
   viewBox="0 0 1280 1280"
   id="svg5791"
   version="1.1"
   inkscape:version="0.91 r13725"
   sodipodi:docname="Chatarra Diffuse Color.svg"
   inkscape:export-filename="C:\Users\vg\SuriAlFuturo\ART\Models\Chatarra\Chatarra Diffuse Color.png"
   inkscape:export-xdpi="90"
   inkscape:export-ydpi="90">
  <defs
     id="defs5793" />
  <sodipodi:namedview
     id="base"
     pagecolor="#ffffff"
     bordercolor="#666666"
     borderopacity="1.0"
     inkscape:pageopacity="0.0"
     inkscape:pageshadow="2"
     inkscape:zoom="0.35"
     inkscape:cx="375"
     inkscape:cy="520"
     inkscape:document-units="px"
     inkscape:current-layer="layer3"
     showgrid="false"
     fit-margin-top="0"
     fit-margin-left="0"
     fit-margin-right="0"
     fit-margin-bottom="0"
     inkscape:window-width="1366"
     inkscape:window-height="715"
     inkscape:window-x="-8"
     inkscape:window-y="-8"
     inkscape:window-maximized="1"
     inkscape:snap-global="false" />
  <metadata
     id="metadata5796">
    <rdf:RDF>
      <cc:Work
         rdf:about="">
        <dc:format>image/svg+xml</dc:format>
        <dc:type
           rdf:resource="http://purl.org/dc/dcmitype/StillImage" />
        <dc:title></dc:title>
      </cc:Work>
    </rdf:RDF>
  </metadata>
  <g
     inkscape:groupmode="layer"
     id="layer3"
     inkscape:label="Layer 2">
    <circle
       style="color:#000000;clip-rule:nonzero;display:inline;overflow:visible;visibility:visible;opacity:1;isolation:auto;mix-blend-mode:normal;color-interpolation:sRGB;color-interpolation-filters:linearRGB;solid-color:#000000;solid-opacity:1;fill:#837c56;fill-opacity:1;fill-rule:nonzero;stroke:none;stroke-width:5;stroke-linecap:round;stroke-linejoin:round;stroke-miterlimit:4;stroke-dasharray:none;stroke-dashoffset:0;stroke-opacity:1;marker:none;color-rendering:auto;image-rendering:auto;shape-rendering:auto;text-rendering:auto;enable-background:accumulate"
       id="path6352"
       cx="321.17618"
       cy="313.96231"
       r="308.63025" />
    <circle
       r="449.14484"
       cy="820.81848"
       cx="833.05072"
       id="circle6370"
       style="color:#000000;clip-rule:nonzero;display:inline;overflow:visible;visibility:visible;opacity:1;isolation:auto;mix-blend-mode:normal;color-interpolation:sRGB;color-interpolation-filters:linearRGB;solid-color:#000000;solid-opacity:1;fill:#837c56;fill-opacity:1;fill-rule:nonzero;stroke:none;stroke-width:5;stroke-linecap:round;stroke-linejoin:round;stroke-miterlimit:4;stroke-dasharray:none;stroke-dashoffset:0;stroke-opacity:1;marker:none;color-rendering:auto;image-rendering:auto;shape-rendering:auto;text-rendering:auto;enable-background:accumulate" />
    <circle
       style="color:#000000;clip-rule:nonzero;display:inline;overflow:visible;visibility:visible;opacity:1;isolation:auto;mix-blend-mode:normal;color-interpolation:sRGB;color-interpolation-filters:linearRGB;solid-color:#000000;solid-opacity:1;fill:#666147;fill-opacity:1;fill-rule:nonzero;stroke:none;stroke-width:5;stroke-linecap:round;stroke-linejoin:round;stroke-miterlimit:4;stroke-dasharray:none;stroke-dashoffset:0;stroke-opacity:1;marker:none;color-rendering:auto;image-rendering:auto;shape-rendering:auto;text-rendering:auto;enable-background:accumulate"
       id="circle6372"
       cx="833.05072"
       cy="820.81848"
       r="173.13405" />
    <circle
       r="65.238922"
       cy="820.81848"
       cx="833.05072"
       id="circle6374"
       style="color:#000000;clip-rule:nonzero;display:inline;overflow:visible;visibility:visible;opacity:1;isolation:auto;mix-blend-mode:normal;color-interpolation:sRGB;color-interpolation-filters:linearRGB;solid-color:#000000;solid-opacity:1;fill:#000000;fill-opacity:1;fill-rule:nonzero;stroke:none;stroke-width:5;stroke-linecap:round;stroke-linejoin:round;stroke-miterlimit:4;stroke-dasharray:none;stroke-dashoffset:0;stroke-opacity:1;marker:none;color-rendering:auto;image-rendering:auto;shape-rendering:auto;text-rendering:auto;enable-background:accumulate" />
    <path
       style="color:#000000;clip-rule:nonzero;display:inline;overflow:visible;visibility:visible;opacity:1;isolation:auto;mix-blend-mode:normal;color-interpolation:sRGB;color-interpolation-filters:linearRGB;solid-color:#000000;solid-opacity:1;fill:#ab9e61;fill-opacity:1;fill-rule:nonzero;stroke:none;stroke-width:5;stroke-linecap:round;stroke-linejoin:round;stroke-miterlimit:4;stroke-dasharray:none;stroke-dashoffset:0;stroke-opacity:1;marker:none;color-rendering:auto;image-rendering:auto;shape-rendering:auto;text-rendering:auto;enable-background:accumulate"
       d="m 574.8617,549.00302 c 9.82399,2.46001 18.26198,-1.46053 26.61397,-3.54852 29.90563,-7.47641 -20.92929,30.34344 -14.19412,33.71102 10.9229,5.46145 39.69564,-3.09791 44.35661,-12.41985 2.49521,-4.99042 -11.09919,4.22893 -14.19411,8.87132 -8.81874,13.22811 -14.43652,26.73517 -28.38823,33.71103 -5.00765,2.50382 -2.101,-5.3228 -7.09706,-5.3228 -2.36569,0 -6.34897,2.24429 -7.09706,0 -5.34605,-16.03815 46.13088,-16.73541 46.13088,-28.38823 0,-8.92267 -61.62081,19.85582 -46.13088,-26.61397 z"
       id="path6376"
       inkscape:connector-curvature="0" />
    <path
       style="color:#000000;clip-rule:nonzero;display:inline;overflow:visible;visibility:visible;opacity:1;isolation:auto;mix-blend-mode:normal;color-interpolation:sRGB;color-interpolation-filters:linearRGB;solid-color:#000000;solid-opacity:1;fill:#ab9e61;fill-opacity:1;fill-rule:nonzero;stroke:none;stroke-width:5;stroke-linecap:round;stroke-linejoin:round;stroke-miterlimit:4;stroke-dasharray:none;stroke-dashoffset:0;stroke-opacity:1;marker:none;color-rendering:auto;image-rendering:auto;shape-rendering:auto;text-rendering:auto;enable-background:accumulate"
       d="m 739.8683,511.74347 c -1.31966,4.90341 -6.60888,18.719 -3.54853,24.8397 7.42916,14.85832 24.8397,-16.25242 24.8397,-26.61396 0,-4.73138 0,9.46274 0,14.19411 0,1.2282 -1.18716,27.79465 7.09706,31.93676 4.56725,2.28363 8.87132,-42.75207 8.87132,-37.25955 0,40.50585 -3.9321,20.74761 0,14.19411 1.94837,-3.24727 5.89952,-5.27871 7.09706,-8.87132 10.36122,-31.08365 3.36287,-10.73842 10.64559,-7.09706 2.09705,1.04853 5.37095,-2.94105 8.87132,-1.77426 3.10571,1.03524 5.70815,5.72421 10.64559,1.77426 1.83123,-1.46498 13.87403,-36.12544 14.19411,-35.48529 2.93254,5.86508 -24.08661,46.50742 -10.64558,53.22794 18.84913,9.42456 35.76491,-52.94831 37.25955,-51.45367 2.68386,2.68386 -1.36793,13.12405 -1.77426,15.96838 -4.96638,34.76465 -56.39735,31.93676 -85.1647,31.93676 -2.3355,0 -48.63466,3.23329 -42.58235,-8.87132 1.01696,-2.03391 13.1954,-9.64687 14.19412,-10.64559 z"
       id="path6378"
       inkscape:connector-curvature="0" />
    <path
       style="color:#000000;clip-rule:nonzero;display:inline;overflow:visible;visibility:visible;opacity:1;isolation:auto;mix-blend-mode:normal;color-interpolation:sRGB;color-interpolation-filters:linearRGB;solid-color:#000000;solid-opacity:1;fill:#ab9e61;fill-opacity:1;fill-rule:nonzero;stroke:none;stroke-width:5;stroke-linecap:round;stroke-linejoin:round;stroke-miterlimit:4;stroke-dasharray:none;stroke-dashoffset:0;stroke-opacity:1;marker:none;color-rendering:auto;image-rendering:auto;shape-rendering:auto;text-rendering:auto;enable-background:accumulate"
       d="m 844.5499,509.96921 c -2.6032,-0.90769 -19.52267,3.56005 -15.96838,-3.54853 6.72654,-13.45308 28.84097,-15.74202 28.38824,-15.96838 -6.84572,-3.42286 -26.75945,5.17731 -31.93677,0 -4.28547,-4.28548 18.12233,-11.72256 19.51691,-12.41986 13.16895,-6.58447 -1.37778,-7.09705 -12.41985,-7.09705 -1.18284,0 2.56435,0.65612 3.54853,0 5.99472,-3.99648 23.36606,-0.60124 26.61397,-7.09706 8.44587,-16.89175 -21.40659,-47.67431 -28.38823,-33.71103 -6.92047,13.84093 0,47.3761 0,63.87353 0,0.7752 -0.8082,11.61165 0,12.41985 1.71689,1.71689 8.81455,2.93818 10.64558,3.54853 z"
       id="path6380"
       inkscape:connector-curvature="0" />
    <path
       style="color:#000000;clip-rule:nonzero;display:inline;overflow:visible;visibility:visible;opacity:1;isolation:auto;mix-blend-mode:normal;color-interpolation:sRGB;color-interpolation-filters:linearRGB;solid-color:#000000;solid-opacity:1;fill:#ab9e61;fill-opacity:1;fill-rule:nonzero;stroke:none;stroke-width:5;stroke-linecap:round;stroke-linejoin:round;stroke-miterlimit:4;stroke-dasharray:none;stroke-dashoffset:0;stroke-opacity:1;marker:none;color-rendering:auto;image-rendering:auto;shape-rendering:auto;text-rendering:auto;enable-background:accumulate"
       d="m 970.52268,541.90597 c 0,2.87484 -2.09099,8.71296 1.77427,10.64558 8.22742,4.11371 24.84497,-14.77674 39.03385,8.87133 2.5643,4.27381 -1.5993,12.94498 0,17.74264 1.3721,4.11627 15.6526,0.96607 12.4198,1.77427 -14.4661,3.61653 -10.0454,44.54795 -7.097,42.58234 9.2765,-6.18432 14.5239,-48.07007 21.2911,-51.45367 9.1407,-4.57033 -14.4585,79.44528 -28.3882,58.55073 -11.8662,-17.7993 6.2364,-37.20666 -1.7743,-53.22793 -1.4509,-2.90181 -11.28682,-4.33937 -12.41981,-8.87133 -1.93987,-7.75947 2.6659,-13.52538 -5.3228,-19.51691 -8.65796,-6.49347 -12.18224,7.57229 -19.51691,-7.09705 z"
       id="path6382"
       inkscape:connector-curvature="0" />
    <path
       style="color:#000000;clip-rule:nonzero;display:inline;overflow:visible;visibility:visible;opacity:1;isolation:auto;mix-blend-mode:normal;color-interpolation:sRGB;color-interpolation-filters:linearRGB;solid-color:#000000;solid-opacity:1;fill:#ab9e61;fill-opacity:1;fill-rule:nonzero;stroke:none;stroke-width:5;stroke-linecap:round;stroke-linejoin:round;stroke-miterlimit:4;stroke-dasharray:none;stroke-dashoffset:0;stroke-opacity:1;marker:none;color-rendering:auto;image-rendering:auto;shape-rendering:auto;text-rendering:auto;enable-background:accumulate"
       d="m 1139.0778,726.42948 c -11.8489,7.75389 -16.3571,18.13133 -26.614,28.38823 -0.5514,0.55143 -16.3105,7.89864 -12.4198,8.87132 6.9147,1.72869 52.2872,-11.00876 56.7765,-17.74265 11.38,-17.07004 -21.2912,-28.90977 -21.2912,-37.25955 0,-3.59748 9.0367,-1.44342 10.6456,1.77426 3.482,6.96398 -3.2295,12.10076 -7.0971,15.96839 z"
       id="path6384"
       inkscape:connector-curvature="0" />
    <g
       id="g6396"
       transform="matrix(-0.98361495,-0.18028211,0.18028211,-0.98361495,1507.1902,1759.0515)"
       style="fill:#ab9e61;fill-opacity:1">
      <path
         style="color:#000000;clip-rule:nonzero;display:inline;overflow:visible;visibility:visible;opacity:1;isolation:auto;mix-blend-mode:normal;color-interpolation:sRGB;color-interpolation-filters:linearRGB;solid-color:#000000;solid-opacity:1;fill:#ab9e61;fill-opacity:1;fill-rule:nonzero;stroke:none;stroke-width:5;stroke-linecap:round;stroke-linejoin:round;stroke-miterlimit:4;stroke-dasharray:none;stroke-dashoffset:0;stroke-opacity:1;marker:none;color-rendering:auto;image-rendering:auto;shape-rendering:auto;text-rendering:auto;enable-background:accumulate"
         d="m 574.8617,549.00302 c 9.82399,2.46001 18.26198,-1.46053 26.61397,-3.54852 29.90563,-7.47641 -20.92929,30.34344 -14.19412,33.71102 10.9229,5.46145 39.69564,-3.09791 44.35661,-12.41985 2.49521,-4.99042 -11.09919,4.22893 -14.19411,8.87132 -8.81874,13.22811 -14.43652,26.73517 -28.38823,33.71103 -5.00765,2.50382 -2.101,-5.3228 -7.09706,-5.3228 -2.36569,0 -6.34897,2.24429 -7.09706,0 -5.34605,-16.03815 46.13088,-16.73541 46.13088,-28.38823 0,-8.92267 -61.62081,19.85582 -46.13088,-26.61397 z"
         id="path6386"
         inkscape:connector-curvature="0" />
      <path
         style="color:#000000;clip-rule:nonzero;display:inline;overflow:visible;visibility:visible;opacity:1;isolation:auto;mix-blend-mode:normal;color-interpolation:sRGB;color-interpolation-filters:linearRGB;solid-color:#000000;solid-opacity:1;fill:#ab9e61;fill-opacity:1;fill-rule:nonzero;stroke:none;stroke-width:5;stroke-linecap:round;stroke-linejoin:round;stroke-miterlimit:4;stroke-dasharray:none;stroke-dashoffset:0;stroke-opacity:1;marker:none;color-rendering:auto;image-rendering:auto;shape-rendering:auto;text-rendering:auto;enable-background:accumulate"
         d="m 739.8683,511.74347 c -1.31966,4.90341 -6.60888,18.719 -3.54853,24.8397 7.42916,14.85832 24.8397,-16.25242 24.8397,-26.61396 0,-4.73138 0,9.46274 0,14.19411 0,1.2282 -1.18716,27.79465 7.09706,31.93676 4.56725,2.28363 8.87132,-42.75207 8.87132,-37.25955 0,40.50585 -3.9321,20.74761 0,14.19411 1.94837,-3.24727 5.89952,-5.27871 7.09706,-8.87132 10.36122,-31.08365 3.36287,-10.73842 10.64559,-7.09706 2.09705,1.04853 5.37095,-2.94105 8.87132,-1.77426 3.10571,1.03524 5.70815,5.72421 10.64559,1.77426 1.83123,-1.46498 13.87403,-36.12544 14.19411,-35.48529 2.93254,5.86508 -24.08661,46.50742 -10.64558,53.22794 18.84913,9.42456 35.76491,-52.94831 37.25955,-51.45367 2.68386,2.68386 -1.36793,13.12405 -1.77426,15.96838 -4.96638,34.76465 -56.39735,31.93676 -85.1647,31.93676 -2.3355,0 -48.63466,3.23329 -42.58235,-8.87132 1.01696,-2.03391 13.1954,-9.64687 14.19412,-10.64559 z"
         id="path6388"
         inkscape:connector-curvature="0" />
      <path
         style="color:#000000;clip-rule:nonzero;display:inline;overflow:visible;visibility:visible;opacity:1;isolation:auto;mix-blend-mode:normal;color-interpolation:sRGB;color-interpolation-filters:linearRGB;solid-color:#000000;solid-opacity:1;fill:#ab9e61;fill-opacity:1;fill-rule:nonzero;stroke:none;stroke-width:5;stroke-linecap:round;stroke-linejoin:round;stroke-miterlimit:4;stroke-dasharray:none;stroke-dashoffset:0;stroke-opacity:1;marker:none;color-rendering:auto;image-rendering:auto;shape-rendering:auto;text-rendering:auto;enable-background:accumulate"
         d="m 844.5499,509.96921 c -2.6032,-0.90769 -19.52267,3.56005 -15.96838,-3.54853 6.72654,-13.45308 28.84097,-15.74202 28.38824,-15.96838 -6.84572,-3.42286 -26.75945,5.17731 -31.93677,0 -4.28547,-4.28548 18.12233,-11.72256 19.51691,-12.41986 13.16895,-6.58447 -1.37778,-7.09705 -12.41985,-7.09705 -1.18284,0 2.56435,0.65612 3.54853,0 5.99472,-3.99648 23.36606,-0.60124 26.61397,-7.09706 8.44587,-16.89175 -21.40659,-47.67431 -28.38823,-33.71103 -6.92047,13.84093 0,47.3761 0,63.87353 0,0.7752 -0.8082,11.61165 0,12.41985 1.71689,1.71689 8.81455,2.93818 10.64558,3.54853 z"
         id="path6390"
         inkscape:connector-curvature="0" />
      <path
         style="color:#000000;clip-rule:nonzero;display:inline;overflow:visible;visibility:visible;opacity:1;isolation:auto;mix-blend-mode:normal;color-interpolation:sRGB;color-interpolation-filters:linearRGB;solid-color:#000000;solid-opacity:1;fill:#ab9e61;fill-opacity:1;fill-rule:nonzero;stroke:none;stroke-width:5;stroke-linecap:round;stroke-linejoin:round;stroke-miterlimit:4;stroke-dasharray:none;stroke-dashoffset:0;stroke-opacity:1;marker:none;color-rendering:auto;image-rendering:auto;shape-rendering:auto;text-rendering:auto;enable-background:accumulate"
         d="m 970.52268,541.90597 c 0,2.87484 -2.09099,8.71296 1.77427,10.64558 8.22742,4.11371 24.84497,-14.77674 39.03385,8.87133 2.5643,4.27381 -1.5993,12.94498 0,17.74264 1.3721,4.11627 15.6526,0.96607 12.4198,1.77427 -14.4661,3.61653 -10.0454,44.54795 -7.097,42.58234 9.2765,-6.18432 14.5239,-48.07007 21.2911,-51.45367 9.1407,-4.57033 -14.4585,79.44528 -28.3882,58.55073 -11.8662,-17.7993 6.2364,-37.20666 -1.7743,-53.22793 -1.4509,-2.90181 -11.28682,-4.33937 -12.41981,-8.87133 -1.93987,-7.75947 2.6659,-13.52538 -5.3228,-19.51691 -8.65796,-6.49347 -12.18224,7.57229 -19.51691,-7.09705 z"
         id="path6392"
         inkscape:connector-curvature="0" />
      <path
         style="color:#000000;clip-rule:nonzero;display:inline;overflow:visible;visibility:visible;opacity:1;isolation:auto;mix-blend-mode:normal;color-interpolation:sRGB;color-interpolation-filters:linearRGB;solid-color:#000000;solid-opacity:1;fill:#ab9e61;fill-opacity:1;fill-rule:nonzero;stroke:none;stroke-width:5;stroke-linecap:round;stroke-linejoin:round;stroke-miterlimit:4;stroke-dasharray:none;stroke-dashoffset:0;stroke-opacity:1;marker:none;color-rendering:auto;image-rendering:auto;shape-rendering:auto;text-rendering:auto;enable-background:accumulate"
         d="m 1139.0778,726.42948 c -11.8489,7.75389 -16.3571,18.13133 -26.614,28.38823 -0.5514,0.55143 -16.3105,7.89864 -12.4198,8.87132 6.9147,1.72869 52.2872,-11.00876 56.7765,-17.74265 11.38,-17.07004 -21.2912,-28.90977 -21.2912,-37.25955 0,-3.59748 9.0367,-1.44342 10.6456,1.77426 3.482,6.96398 -3.2295,12.10076 -7.0971,15.96839 z"
         id="path6394"
         inkscape:connector-curvature="0" />
    </g>
    <rect
       style="color:#000000;clip-rule:nonzero;display:inline;overflow:visible;visibility:visible;opacity:1;isolation:auto;mix-blend-mode:normal;color-interpolation:sRGB;color-interpolation-filters:linearRGB;solid-color:#000000;solid-opacity:1;fill:#ab9e61;fill-opacity:1;fill-rule:nonzero;stroke:none;stroke-width:5;stroke-linecap:round;stroke-linejoin:round;stroke-miterlimit:4;stroke-dasharray:none;stroke-dashoffset:0;stroke-opacity:1;marker:none;color-rendering:auto;image-rendering:auto;shape-rendering:auto;text-rendering:auto;enable-background:accumulate"
       id="rect6403"
       width="1415.863"
       height="124.19852"
       x="-14.194116"
       y="1191.2867" />
  </g>
  <g
     inkscape:label="Layer 1"
     inkscape:groupmode="layer"
     id="layer1"
     transform="translate(168.27251,41.800991)"
     sodipodi:insensitive="true"
     style="display:none">
    <image
       sodipodi:absref="C:\Users\vg\SuriAlFuturo\ART\Models\Chatarra\ChatarraUV.png"
       xlink:href="ChatarraUV.png"
       width="1280"
       height="1280"
       preserveAspectRatio="none"
       id="image6347"
       x="-168.27251"
       y="-41.800991" />
  </g>
</svg>
