<?xml version="1.0" encoding="UTF-8" standalone="no"?>
<!-- Created with Inkscape (http://www.inkscape.org/) -->

<svg
   xmlns:dc="http://purl.org/dc/elements/1.1/"
   xmlns:cc="http://creativecommons.org/ns#"
   xmlns:rdf="http://www.w3.org/1999/02/22-rdf-syntax-ns#"
   xmlns:svg="http://www.w3.org/2000/svg"
   xmlns="http://www.w3.org/2000/svg"
   xmlns:sodipodi="http://sodipodi.sourceforge.net/DTD/sodipodi-0.dtd"
   xmlns:inkscape="http://www.inkscape.org/namespaces/inkscape"
   width="140.44348mm"
   height="132.00204mm"
   viewBox="0 0 497.63437 467.72377"
   id="svg2"
   version="1.1"
   inkscape:version="0.91 r13725"
   sodipodi:docname="Water.svg"
   inkscape:export-filename="C:\Users\vg\SuriAlFuturo\SuriAlFuturo\Assets\Sprites\Water.png"
   inkscape:export-xdpi="90"
   inkscape:export-ydpi="90">
  <sodipodi:namedview
     id="base"
     pagecolor="#ffffff"
     bordercolor="#666666"
     borderopacity="1.0"
     inkscape:pageopacity="0.0"
     inkscape:pageshadow="2"
     inkscape:zoom="0.35"
     inkscape:cx="375"
     inkscape:cy="520"
     inkscape:document-units="px"
     inkscape:current-layer="layer1"
     showgrid="false"
     inkscape:window-width="1366"
     inkscape:window-height="715"
     inkscape:window-x="-8"
     inkscape:window-y="-8"
     inkscape:window-maximized="1"
     fit-margin-top="0"
     fit-margin-left="0"
     fit-margin-right="0"
     fit-margin-bottom="0"
     borderlayer="true" />
  <defs
     id="defs4">
    <pattern
       patternUnits="userSpaceOnUse"
       patternTransform="translate(139.60255,85.710846)"
       height="252.1871"
       width="252.1871"
       id="Voronoi4213">
      <path
         id="path4221"
         d="M 16.971,26.084 18.893,6.809 M 164.558,21.780 180.203,0.000 M 208.460,0.000 210.547,23.168 M 210.547,23.168 243.473,12.944 M 134.375,10.403 164.558,21.780 M 207.552,29.779 210.547,23.168 M 164.558,21.780 176.936,31.229 M 18.893,6.809 66.027,18.916 M 16.971,26.084 26.873,40.471 M 125.066,24.533 134.375,10.403 M 176.936,31.229 184.974,35.276 M 184.974,35.276 189.618,0.000 M 184.974,35.276 186.090,36.563 M 186.090,36.563 207.552,29.779 M 26.873,40.471 67.212,22.856 M 66.027,18.916 67.212,22.856 M 185.936,38.239 186.090,36.563 M 207.552,29.779 226.915,45.239 M 226.915,45.239 243.473,12.944 M 21.864,49.066 26.873,40.471 M 14.741,52.234 21.864,49.066 M 67.212,22.856 75.291,31.735 M 75.291,31.735 125.066,24.533 M 125.066,24.533 134.053,50.461 M 134.053,50.461 138.533,53.815 M 138.533,53.815 176.936,31.229 M 173.622,60.510 185.936,38.239 M 226.915,45.239 231.912,57.133 M 228.715,65.411 231.912,57.133 M 12.499,77.339 14.741,52.234 M 138.533,53.815 156.348,71.922 M 156.348,71.922 173.622,60.510 M 185.936,38.239 218.132,75.016 M 218.132,75.016 228.715,65.411 M 21.864,49.066 48.579,77.961 M 156.244,77.563 156.348,71.922 M 48.579,77.961 73.868,69.398 M 73.868,69.398 75.291,31.735 M 12.499,77.339 44.318,82.213 M 44.318,82.213 48.579,77.961 M 156.244,77.563 198.686,90.069 M 73.868,69.398 79.510,75.404 M 198.686,90.069 209.945,83.548 M 173.622,60.510 209.945,83.548 M 0.000,87.680 12.499,77.339 M 209.945,83.548 214.257,82.785 M 214.257,82.785 218.132,75.016 M 79.510,75.404 100.127,84.232 M 100.127,84.232 134.053,50.461 M 73.402,97.890 79.510,75.404 M 153.164,87.628 156.244,77.563 M 153.164,87.628 154.504,90.630 M 154.504,90.630 188.726,103.198 M 188.726,103.198 198.686,90.069 M 0.000,27.596 16.971,26.084 M 0.000,49.297 14.741,52.234 M 187.823,109.747 188.726,103.198 M 100.127,84.232 111.941,100.212 M 111.941,100.212 153.164,87.628 M 0.000,89.778 35.115,107.986 M 35.115,107.986 44.318,82.213 M 111.837,109.406 111.941,100.212 M 48.018,118.083 73.402,97.890 M 111.837,109.406 115.393,112.934 M 154.504,90.630 158.122,117.976 M 158.122,117.976 187.823,109.747 M 48.018,118.083 76.780,123.816 M 73.402,97.890 76.780,123.816 M 187.823,109.747 196.179,127.452 M 35.115,107.986 36.405,119.763 M 36.405,119.763 48.018,118.083 M 214.257,82.785 233.008,117.573 M 196.179,127.452 231.511,119.436 M 231.511,119.436 233.008,117.573 M 76.780,123.816 84.189,131.852 M 84.189,131.852 89.919,132.270 M 89.919,132.270 111.837,109.406 M 18.269,132.835 31.973,129.431 M 31.973,129.431 36.405,119.763 M 115.393,112.934 154.298,132.933 M 154.298,132.933 158.122,117.976 M 11.253,149.359 18.269,132.835 M 0.000,125.295 18.269,132.835 M 31.973,129.431 45.277,147.282 M 45.277,147.282 59.107,152.502 M 59.107,152.502 84.189,131.852 M 115.393,112.934 124.275,156.963 M 226.677,158.206 231.511,119.436 M 233.008,117.573 252.187,116.084 M 228.715,65.411 252.187,78.653 M 124.275,156.963 159.222,151.683 M 154.298,132.933 159.222,151.683 M 226.677,158.206 236.392,168.246 M 188.427,163.190 226.677,158.206 M 89.919,132.270 107.960,165.128 M 107.960,165.128 124.275,156.963 M 175.138,157.875 196.179,127.452 M 175.138,157.875 188.427,163.190 M 11.253,149.359 28.567,177.024 M 28.567,177.024 45.277,147.282 M 159.222,151.683 168.402,158.784 M 168.402,158.784 175.138,157.875 M 28.182,179.193 28.567,177.024 M 109.296,175.133 137.496,183.738 M 105.454,170.520 107.960,165.128 M 105.454,170.520 109.296,175.133 M 21.825,184.213 28.182,179.193 M 90.631,179.168 105.454,170.520 M 59.107,152.502 72.384,179.613 M 72.384,179.613 90.631,179.168 M 109.296,175.133 120.868,195.016 M 120.868,195.016 137.496,183.738 M 21.825,184.213 23.338,195.494 M 137.496,183.738 161.157,185.309 M 161.157,185.309 168.402,158.784 M 0.000,160.124 11.253,149.359 M 0.000,181.309 21.825,184.213 M 28.182,179.193 62.526,190.077 M 62.526,190.077 72.384,179.613 M 120.868,195.016 123.417,200.787 M 123.417,200.787 160.621,191.763 M 160.621,191.763 161.157,185.309 M 160.621,191.763 161.342,194.392 M 188.427,163.190 210.281,202.346 M 210.281,202.346 215.453,203.206 M 215.453,203.206 236.392,168.246 M 23.338,195.494 34.679,214.942 M 215.453,203.206 224.129,211.511 M 92.285,219.394 98.510,218.272 M 90.631,179.168 98.510,218.272 M 161.342,194.392 183.424,217.104 M 183.424,217.104 210.281,202.346 M 68.091,227.596 84.574,240.947 M 84.574,240.947 92.285,219.394 M 98.510,218.272 107.929,223.320 M 62.560,221.344 92.285,219.394 M 62.560,221.344 68.091,227.596 M 56.918,220.078 62.526,190.077 M 56.918,220.078 62.560,221.344 M 84.574,240.947 86.618,244.333 M 86.618,244.333 107.929,223.320 M 107.929,223.320 116.940,226.138 M 116.940,226.138 123.417,200.787 M 34.679,214.942 51.444,224.050 M 51.444,224.050 56.918,220.078 M 50.673,226.464 51.444,224.050 M 0.000,216.443 23.338,195.494 M 0.000,223.299 34.679,214.942 M 116.940,226.138 122.636,233.019 M 86.290,252.187 86.618,244.333 M 88.498,252.187 122.636,233.019 M 122.636,233.019 131.497,240.512 M 131.497,240.512 161.342,194.392 M 68.091,227.596 80.676,252.187 M 224.129,211.511 252.187,210.105 M 236.392,168.246 252.187,171.720 M 50.673,226.464 54.126,252.187 M 131.497,240.512 137.463,252.187 M 180.205,252.187 183.424,217.104 M 220.600,252.187 224.129,211.511 M 13.229,0.000 18.893,6.809 M 0.000,221.139 0.000,221.139 M 3.683,252.187 50.673,226.464 M 231.912,57.133 252.187,49.282 M 243.473,12.944 252.187,5.280 M 134.375,10.403 135.159,0.000 M 66.027,18.916 66.515,0.000 "
         style="stroke:#000000" />
    </pattern>
    <filter
       inkscape:collect="always"
       style="color-interpolation-filters:sRGB"
       id="filter5019"
       x="-0.035958145"
       width="1.0719163"
       y="-0.036041953"
       height="1.072084">
      <feGaussianBlur
         inkscape:collect="always"
         stdDeviation="7.4419089"
         id="feGaussianBlur5021" />
    </filter>
    <filter
       inkscape:collect="always"
       style="color-interpolation-filters:sRGB"
       id="filter4838"
       x="-0.13194777"
       width="1.2638955"
       y="-0.13205227"
       height="1.2641045">
      <feGaussianBlur
         inkscape:collect="always"
         stdDeviation="25.749429"
         id="feGaussianBlur4840" />
    </filter>
    <filter
       inkscape:collect="always"
       style="color-interpolation-filters:sRGB"
       id="filter4944"
       x="-0.035146195"
       width="1.0702924"
       y="-0.036896318"
       height="1.0737926">
      <feGaussianBlur
         inkscape:collect="always"
         stdDeviation="7.2738673"
         id="feGaussianBlur4946" />
    </filter>
  </defs>
  <metadata
     id="metadata7">
    <rdf:RDF>
      <cc:Work
         rdf:about="">
        <dc:format>image/svg+xml</dc:format>
        <dc:type
           rdf:resource="http://purl.org/dc/dcmitype/StillImage" />
        <dc:title></dc:title>
      </cc:Work>
    </rdf:RDF>
  </metadata>
  <g
     inkscape:groupmode="layer"
     id="layer4"
     inkscape:label="background">
    <rect
       style="color:#000000;clip-rule:nonzero;display:inline;overflow:visible;visibility:visible;opacity:1;isolation:auto;mix-blend-mode:normal;color-interpolation:sRGB;color-interpolation-filters:linearRGB;solid-color:#000000;solid-opacity:1;fill:#71b5f5;fill-opacity:1;fill-rule:nonzero;stroke:none;stroke-width:1;stroke-linecap:round;stroke-linejoin:round;stroke-miterlimit:4;stroke-dasharray:none;stroke-dashoffset:0;stroke-opacity:1;marker:none;color-rendering:auto;image-rendering:auto;shape-rendering:auto;text-rendering:auto;enable-background:accumulate"
       id="rect4981"
       width="497.6344"
       height="467.72379"
       x="-3.0957031e-007"
       y="5.0953881e-006" />
  </g>
  <g
     inkscape:label="Layer 1"
     inkscape:groupmode="layer"
     id="layer1"
     transform="translate(-85.876633,-58.518215)">
    <g
       inkscape:label="Voronoi"
       id="g4144" />
    <path
       style="color:#000000;clip-rule:nonzero;display:inline;overflow:visible;visibility:visible;opacity:1;isolation:auto;mix-blend-mode:normal;color-interpolation:sRGB;color-interpolation-filters:linearRGB;solid-color:#000000;solid-opacity:1;fill:none;fill-opacity:1;fill-rule:nonzero;stroke:none;stroke-width:10;stroke-linecap:round;stroke-linejoin:round;stroke-miterlimit:4;stroke-dasharray:none;stroke-dashoffset:0;stroke-opacity:1;marker:none;color-rendering:auto;image-rendering:auto;shape-rendering:auto;text-rendering:auto;enable-background:accumulate"
       d="m 335.35548,304.5285 -251.362711,0 0,249.53464 251.362711,0 z"
       id="rect4956"
       inkscape:connector-curvature="0" />
    <path
       style="color:#000000;clip-rule:nonzero;display:inline;overflow:visible;visibility:visible;opacity:1;isolation:auto;mix-blend-mode:normal;color-interpolation:sRGB;color-interpolation-filters:linearRGB;solid-color:#000000;solid-opacity:1;fill:none;fill-opacity:1;fill-rule:nonzero;stroke:none;stroke-width:10;stroke-linecap:round;stroke-linejoin:round;stroke-miterlimit:4;stroke-dasharray:none;stroke-dashoffset:0;stroke-opacity:1;marker:none;color-rendering:auto;image-rendering:auto;shape-rendering:auto;text-rendering:auto;enable-background:accumulate"
       d="m 335.35548,304.52843 -251.362711,0 0,-220.992389 251.362711,0 z"
       id="rect4958"
       inkscape:connector-curvature="0" />
    <g
       id="g4987"
       transform="matrix(1.0303382,0,0,1.0303383,-10.154006,-9.219543)">
      <path
         inkscape:connector-curvature="0"
         id="path4973"
         d="m 347.5804,269.03963 1.92401,18.14883 47.18339,-11.39963 m 144.67141,-4.00357 -2.08919,16.8025 2.08919,19.61994 m 0,-36.42244 32.9605,9.62665 m -109.21231,2.39254 30.21463,-10.71229 m 43.03904,-7.53165 2.99814,6.22475 m -46.03718,1.3069 12.39096,-8.89693 m -160.13259,4.8444 9.91237,-13.54643 m 98.29588,15.00681 9.31875,13.30444 m 42.60559,-19.60922 8.04643,-3.81055 m 0,0 4.64886,28.20309 -4.64886,32.49295 m 0,-60.69604 1.11717,-1.2118 m 0,0 21.48448,6.38763 m -180.8683,-10.06731 40.38127,16.58582 m -1.18624,3.70981 1.18624,-3.70981 m 118.84838,-14.48422 0.15417,1.57808 m 21.48448,6.38763 19.38329,-14.55673 m 0,0 16.57535,30.40813 m -221.84118,-34.01153 5.01424,8.09282 m -12.14471,-11.07573 7.13047,2.98291 m 45.39551,24.67864 8.08746,-8.36023 m 0,0 49.82715,6.78122 m 0,0 8.99642,-24.41312 m 0,0 4.48469,-3.15805 m 0,0 38.44323,21.26639 m -3.31747,-27.57022 12.3269,20.96979 m 41.02194,-6.59102 5.00223,-11.19908 m -3.20035,-7.79434 3.20035,7.79434 m -219.64288,-19.02544 2.24435,23.63821 m 123.9217,-1.48863 17.83366,-17.04907 m 0,0 17.2921,10.74524 m 12.3269,20.96979 32.22974,-34.62826 m 0,0 10.59408,9.04382 m -207.06771,15.39002 26.74298,-27.20677 m 107.77781,0.37474 0.1041,5.31142 m -107.88191,-5.68616 25.3155,8.0627 m 0,0 1.42449,35.46248 m -62.85779,-42.93953 31.85234,-4.58923 m 0,0 4.26546,4.00358 m 107.77781,0.37474 42.48646,-11.77532 m -124.94877,19.46328 5.64791,-5.6551 m 119.30086,-13.80818 11.2708,6.14 m -36.36106,21.69198 36.36106,-21.69198 m 0,0 4.31652,0.71843 m 0,0 3.87906,7.31508 m -138.76724,-0.36533 20.6386,-8.31221 m 0,0 33.96155,31.79789 m -60.71455,-44.6579 6.1144,21.17222 m 73.73117,-11.5098 3.08323,9.47694 m -3.08323,-9.47694 1.3414,-2.8266 m 0,0 34.25786,-11.83371 m 0,0 9.97043,12.36193 m -184.13772,35.62444 -9.73286,2.76541 -9.84096,-2.76541 m 192.83716,-54.15273 0.90395,6.16636 m -88.69183,17.8579 11.82638,-15.04635 m 0,0 41.26619,11.84876 m -118.17268,-19.16856 -29.32846,18.13189 6.68876,10.72452 m 22.6397,-28.85641 9.21264,24.26718 m 67.58974,-25.60421 0.10411,8.65683 m -63.98997,-16.82687 25.41059,19.01321 m 38.47527,-10.84317 3.55973,-3.32187 m 39.15197,21.00086 3.62179,-25.74828 m 0,0 29.73212,7.74821 m -139.95147,-7.84896 28.79213,-5.39804 m -3.38154,24.41125 3.38154,-24.41125 m 111.15934,13.247 8.36476,-16.67056 m -161.23275,18.32867 1.29135,-11.08891 m 0,0 11.62517,1.58184 m 166.41317,33.23568 18.77064,-32.75548 m -36.86758,-9.3018 35.36901,7.54766 m 0,0 1.49857,1.75414 m -156.39168,-5.87824 7.41676,-7.56649 m 0,0 5.73601,-0.39357 m 0,0 21.94096,21.52814 m -93.66603,-22.06013 13.71836,3.20511 m 0,0 4.43664,9.10314 m 79.07076,6.43001 38.94576,-18.83054 m 0,0 3.828,14.08312 m -147.02287,-29.5494 7.02335,15.55856 m 0,0 -13.26456,7.09946 -13.39854,-7.09946 m 40.38146,3.20511 13.31794,-16.80802 m 0,0 13.84449,-4.91502 m 0,0 25.10827,19.44349 m 31.2367,17.8127 8.8913,-41.45655 m 102.50929,-1.17038 4.83906,36.50482 m 1.49857,1.75414 19.1991,1.40201 m -23.4966,47.71237 23.4966,-12.46832 m -128.04602,-73.73464 34.98362,4.9715 m -4.92916,17.65451 4.92916,-17.65451 m 67.52567,-6.14188 9.72518,-9.4534 m -48.01526,4.76059 38.29008,4.69281 m -136.90128,24.42066 18.0599,-30.93823 m 0,0 16.33209,7.68795 m 50.91629,-0.85872 21.06305,28.6455 m -21.06305,-28.6455 13.30292,-5.00447 m -177.35962,13.02292 17.33214,-26.04865 m 0,0 16.72751,28.0043 m 114.06438,-4.14388 9.18961,-6.68611 m 0,0 6.74306,0.85589 m -147.10996,-20.07247 0.3854,2.04227 m 80.81358,1.78052 28.22954,-8.10224 m -32.07557,12.44572 2.50863,5.07697 m -2.50863,-5.07697 3.84603,-4.34348 m -87.56265,-8.54949 6.36367,4.7267 m 62.51442,0.0235 14.83853,8.14273 m -46.39555,16.96527 13.29091,-25.527 m 0,0 18.26611,0.419 m 18.68456,3.79925 11.58412,-18.72131 m 0,0 16.64542,10.61906 m -115.79219,-0.44725 1.51459,-10.62188 m 114.2776,11.06913 23.68579,-1.4792 m 0,0 7.25259,24.97524 m -140.3669,-19.21658 34.37998,-10.24809 m 0,0 9.86833,9.85263 m 48.53479,-14.50306 2.55167,-5.43382 m 0,0 37.24298,8.49676 m 0,0 0.53656,6.07692 m -0.53656,-6.07692 0.72176,-2.4754 m 27.11337,29.37898 21.8769,-36.86826 m 0,0 5.17742,-0.80975 m 0,0 20.96094,32.91742 m -213.27722,-25.656 11.35288,-18.311726 m 180.9634,11.050306 8.68509,-7.819773 m -131.98213,-7.422428 6.23152,1.056452 m -7.88726,36.819299 7.88726,-36.819299 m 62.89783,22.484779 22.10513,-21.385023 m 0,0 26.88514,13.895743 M 398.75396,79.301181 415.25423,66.730225 m 0,0 7.71908,20.293734 m 6.23152,1.056452 9.42887,-4.753064 m -45.41654,1.860549 29.75615,1.836063 m -29.75615,-1.836063 5.5368,-5.886715 m -11.18471,7.078744 5.61388,28.248155 m -5.61388,-28.248155 5.64791,-1.192029 m 22.03707,-18.457671 2.04614,-3.188169 m 0,0 21.33333,19.785291 m 0,0 9.02044,-2.653353 m 0,0 6.48378,23.869836 M 365.30695,91.215854 382.08952,82.64 m 0,0 5.47973,3.739925 m -6.25154,-6.012893 0.77181,2.272968 m -16.78257,8.575854 -34.71533,-4.641021 23.36245,22.952747 m 93.70007,-28.853586 5.70196,-6.478971 m -36.38408,-18.048087 0.32835,7.39512 m 1.88197,-7.39512 34.17376,18.048087 m 0,0 8.87029,-7.055213 m 0,0 29.87627,43.42538 m -93.3487,-31.264009 12.59818,-23.154245 m 143.6033,38.299451 28.0874,1.323854 m -15.81155,39.413339 15.81155,-3.27103 M 381.31771,80.367032 384.77433,56.146936 m 77.45206,10.992874 5.97225,-10.992874 m 42.78678,0 3.22237,33.033231 m 37.21495,-33.033231 3.5327,38.299451 m 7.79115,145.358273 20.29625,7.3923 m -8.72313,34.2149 8.72313,7.21623 m -117.93544,-4.82368 0.78482,9.79518 m -69.20442,-17.8108 0.48851,17.8108"
         style="fill:none;stroke:#ffffff;stroke-width:4.85277557;stroke-miterlimit:4;stroke-dasharray:none"
         sodipodi:nodetypes="ccccccccccccccccccccccccccccccccccccccccccccccccccccccccccccccccccccccccccccccccccccccccccccccccccccccccccccccccccccccccccccccccccccccccccccccccccccccccccccccccccccccccccccccccccccccccccccccccccccccccccccccccccccccccccccccccccccccccccccccccccccccccccccccccccccccccccccccccccccccccccccccccccccccccccccccccccccccccccccccccc" />
      <path
         inkscape:connector-curvature="0"
         id="path4979"
         d="m 174.70156,273.09216 -15.77613,20.50748 m -28.49383,0 -2.10449,-21.81438 m 0,0 -33.201964,9.62665 m 110.012394,2.39254 -30.43598,-10.71229 m -43.35435,-7.53165 -3.0201,6.22475 m 46.37445,1.3069 -12.48174,-8.89693 m 161.30572,4.8444 -9.98499,-13.54643 m -99.01599,15.00681 -9.38702,13.30444 m -42.91772,-19.60922 -8.10537,-3.81055 m 0,0 -4.68292,33.21496 m 4.68292,-33.21496 -1.12536,-1.2118 m 0,0 -21.64188,6.38763 m 182.19334,-10.06731 -40.6771,16.58582 m 1.19494,3.70981 -1.19494,-3.70981 m -119.71907,-14.48422 -0.15529,1.57808 m -21.64188,6.38763 -19.52529,-14.55673 m 0,0 -16.696774,30.40813 m 223.466384,-34.01153 -5.05098,8.09282 m 12.23369,-11.07573 -7.18271,2.98291 m -45.72808,24.67864 -8.14671,-8.36023 m 0,0 -50.19218,6.78122 m 0,0 -9.06232,-24.41312 m 0,0 -4.51755,-3.15805 m 0,0 -38.72487,21.26639 m 3.34178,-27.57022 -12.41722,20.96979 m -41.32246,-6.59102 -5.03888,-11.19908 m 3.22379,-7.79434 -3.22379,7.79434 m 221.25198,-19.02544 -2.26078,23.63821 m -124.82955,-1.48863 -17.96432,-17.04907 m 0,0 -17.41877,10.74524 m -12.41722,20.96979 -32.46585,-34.62826 m 0,0 -10.6717,9.04382 m 208.5847,15.39002 -26.9389,-27.20677 m -108.56738,0.37474 -0.10488,5.31142 m 108.67226,-5.68616 -25.50096,8.0627 m 0,0 -1.43493,35.46248 m 63.31828,-42.93953 -32.08568,-4.58923 m 0,0 -4.29671,4.00358 m -108.56738,0.37474 -42.79772,-11.77532 m 125.86414,19.46328 -5.68929,-5.6551 m -120.17485,-13.80818 -11.35338,6.14 m 36.62745,21.69198 -36.62745,-21.69198 m 199.10087,5.84623 6.78043,-10.72452 -29.58598,-18.13189 m -176.29532,23.01018 -4.34814,0.71843 m 0,0 -3.90748,7.31508 m 139.78385,-0.36533 -20.7898,-8.31221 m 0,0 -34.21034,31.79789 m 61.15934,-44.6579 -6.1592,21.17222 m -74.27132,-11.5098 -3.10581,9.47694 m 3.10581,-9.47694 -1.35124,-2.8266 m 0,0 L 150.331,196.4311 m 0,0 -10.04347,12.36193 m 183.23801,60.2466 12.08966,-1.42367 11.9652,1.42367 M 151.24157,190.26474 150.331,196.4311 m 89.34158,17.8579 -11.91302,-15.04635 m 0,0 -41.5685,11.84876 m 119.03841,-19.16856 -9.28013,24.26718 m -68.08491,-25.60421 -0.10487,8.65683 m 64.45877,-16.82687 -25.59675,19.01321 m -38.75715,-10.84317 -3.5858,-3.32187 m -39.43881,21.00086 -3.64831,-25.74828 m 0,0 -29.94994,7.74821 m 140.97676,-7.84896 -29.00307,-5.39804 m 3.40632,24.41125 -3.40632,-24.41125 m -111.97369,13.247 -8.42604,-16.67056 m 162.41394,18.32867 -1.30081,-11.08891 m 0,0 -11.71033,1.58184 m -167.63232,33.23568 -18.90816,-32.75548 m 37.13768,-9.3018 -35.62813,7.54766 m 0,0 -1.50955,1.75414 m 157.53741,-5.87824 -7.4711,-7.56649 m 0,0 -5.77802,-0.39357 m 0,0 -22.10171,21.52814 m 94.35223,-22.06013 -13.81885,3.20511 m 0,0 -4.46915,9.10314 m -79.65003,6.43001 -39.23108,-18.83054 m 0,0 -3.85604,14.08312 m 148.09996,-29.5494 -7.07481,15.55856 m -13.81885,3.20511 -13.41551,-16.80802 m 0,0 -13.94592,-4.91502 m 0,0 -25.29222,19.44349 m -31.46553,17.8127 -8.95644,-41.45655 m -103.26028,-1.17038 -4.87451,36.50482 m -1.50955,1.75414 -19.33974,1.40201 m 23.66872,47.71237 -23.66872,-12.46832 m 128.98408,-73.73464 -35.2399,4.9715 m 4.96526,17.65451 -4.96526,-17.65451 m -68.02038,-6.14188 -9.79642,-9.4534 m 48.36701,4.76059 -38.57059,4.69281 m 137.90423,24.42066 -18.1922,-30.93823 m 0,0 -16.45175,7.68795 m -51.2893,-0.85872 -21.21736,28.6455 m 21.21736,-28.6455 -13.40039,-5.00447 m 178.65897,13.02292 -17.45911,-26.04865 m 0,0 -16.85006,28.0043 m -114.90001,-4.14388 -9.25694,-6.68611 m 0,0 -6.79246,0.85589 m 148.18769,-20.07247 -0.38822,2.04227 m -81.40562,1.78052 -28.43637,-8.10224 m 32.31056,12.44572 -2.52699,5.07697 m 2.52699,-5.07697 -3.87419,-4.34348 m 88.20412,-8.54949 -6.41028,4.7267 m -62.97241,0.0235 -14.94724,8.14273 m 46.73545,16.96527 -13.38828,-25.527 m 0,0 -18.39993,0.419 m -18.82143,3.79925 -11.669,-18.72131 m 0,0 -16.76737,10.61906 m 116.64049,-0.44725 -1.52568,-10.62188 m -115.11481,11.06913 -23.85931,-1.4792 m 0,0 -7.30571,24.97524 m 158.46612,8.87433 6.32373,-10.13604 6.24121,10.13604 m -23.22555,-32.81762 16.98434,2.73434 16.82428,-2.73434 m -40.2189,4.72671 -34.63185,-10.24809 m 0,0 -9.94063,9.85263 m -48.89036,-14.50306 -2.57036,-5.43382 m 0,0 -37.51582,8.49676 m 0,0 -0.5405,6.07692 m 0.5405,-6.07692 -0.72704,-2.4754 m -27.31202,29.37898 -22.03716,-36.86826 m 0,0 -5.21535,-0.80975 m 0,0 -21.1145,32.91742 m 214.83969,-25.656 -11.43606,-18.311726 m -182.28913,11.050306 -8.74872,-7.819773 m 132.94904,-7.422428 -6.27717,1.056452 m 7.94503,36.819299 -7.94503,-36.819299 M 177.94452,110.56519 155.67744,89.180167 m 0,0 -27.0821,13.895743 M 271.97709,79.301224 255.35594,66.730267 m 0,0 -7.77563,20.293734 m -6.27717,1.056453 -9.49795,-4.753064 m 45.74926,1.860548 -29.97414,1.836063 m 29.97414,-1.836063 -5.57736,-5.886714 m 11.26664,7.078744 -5.655,28.248152 m 5.655,-28.248152 -5.68928,-1.19203 m -22.19851,-18.457671 -2.06113,-3.188169 m 0,0 -21.48962,19.785292 m 0,0 -9.08652,-2.653353 m 0,0 -6.53129,23.869833 m 89.48174,-13.327974 -16.90551,-8.575854 m 0,0 -5.51988,3.739926 m 6.29735,-6.012893 -0.77747,2.272967 m 28.34157,26.887578 23.5336,-22.952745 -34.96966,4.641021 m -82.95045,-10.541859 -5.74374,-6.478971 m 36.65063,-18.048087 -0.33075,7.395119 m -1.89576,-7.395119 -34.42412,18.048087 m 0,0 -8.93527,-7.055214 m 0,0 -30.09514,43.425378 M 271.97709,79.301224 259.28661,56.146979 M 114.63127,94.44643 86.33811,95.770284 m 15.92738,39.413336 -15.92738,-3.27103 M 289.54108,80.367075 286.05913,56.146979 m -78.01947,10.992873 -6.016,-10.992873 m -43.10024,0 -3.24598,33.033231 M 118.18985,56.146979 114.63127,94.44643 m 208.89427,174.5932 -1.93811,18.14883 0,1.81332 -47.52904,-13.21295 M 289.54108,80.367075 335.6017,56.146957 381.31771,80.367032 M 106.78304,239.8047 86.33811,247.197 m 8.787036,34.21491 -8.787036,7.21622 m 118.79943,-4.82368 -0.79057,9.79519 m 69.71142,-17.81081 -0.49209,17.81081"
         style="fill:none;stroke:#ffffff;stroke-width:4.85277557;stroke-miterlimit:4;stroke-dasharray:none"
         sodipodi:nodetypes="cccccccccccccccccccccccccccccccccccccccccccccccccccccccccccccccccccccccccccccccccccccccccccccccccccccccccccccccccccccccccccccccccccccccccccccccccccccccccccccccccccccccccccccccccccccccccccccccccccccccccccccccccccccccccccccccccccccccccccccccccccccccccccccccccccccccccccccccccccccccccccccccccccccccccccccccccccccccccccccccccccccccc" />
      <path
         sodipodi:nodetypes="ccccccccccccccccccccccccccccccccccccccccccccccccccccccccccccccccccccccccccccccccccccccccccccccccccccccccccccccccccccccccccccccccccccccccccccccccccccccccccccccccccccccccccccccccccccccccccccccccccccccccccccccccccccccccccccccccccccccccccccccccccccccccccccccccccccccccccccccccccccccccccccccccccccccccccccccccccccccccccccccccc"
         style="fill:none;stroke:#ffffff;stroke-width:4.85277557;stroke-miterlimit:4;stroke-dasharray:none"
         d="m 347.5804,316.39849 1.92401,-25.0117 47.18339,18.26249 m 144.67141,4.00358 -2.08919,-16.80251 2.08919,-19.61994 m 0,36.42245 32.9605,-9.62666 m -109.21231,-2.39254 30.21463,10.7123 m 43.03904,7.53165 2.99814,-6.22475 m -46.03718,-1.3069 12.39096,8.89693 m -160.13259,-4.8444 9.91237,13.54643 m 98.29588,-15.00681 9.31875,-13.30445 m 42.60559,19.60923 8.04643,3.81055 m 0,0 4.64886,-28.2031 -4.64886,-32.49295 m 0,60.69605 1.11717,1.2118 m 0,0 21.48448,-6.38763 m -180.8683,10.06731 40.38127,-16.58582 m -1.18624,-3.70982 1.18624,3.70982 m 118.84838,14.48422 0.15417,-1.57808 m 21.48448,-6.38763 19.38329,14.55673 m 0,0 16.57535,-30.40814 m -221.84118,34.01154 5.01424,-8.09282 m -12.14471,11.07573 7.13047,-2.98291 m 45.39551,-24.67864 8.08746,8.36023 m 0,0 49.82715,-6.78122 m 0,0 8.99642,24.41312 m 0,0 4.48469,3.15805 m 0,0 38.44323,-21.26639 m -3.31747,27.57022 12.3269,-20.96979 m 41.02194,6.59102 5.00223,11.19908 m -3.20035,7.79434 3.20035,-7.79434 m -219.64288,19.02544 2.24435,-23.63821 m 123.9217,1.48863 17.83366,17.04907 m 0,0 17.2921,-10.74524 m 12.3269,-20.96979 32.22974,34.62826 m 0,0 10.59408,-9.04382 m -207.06771,-15.39002 26.74298,27.20677 m 107.77781,-0.37474 0.1041,-5.31142 m -107.88191,5.68616 25.3155,-8.0627 m 0,0 1.42449,-35.46248 m -62.85779,42.93953 31.85234,4.58923 m 0,0 4.26546,-4.00358 m 107.77781,-0.37474 42.48646,11.77532 m -124.94877,-19.46328 5.64791,5.6551 m 119.30086,13.80818 11.2708,-6.14 m -36.36106,-21.69198 36.36106,21.69198 m 0,0 4.31652,-0.71843 m 0,0 3.87906,-7.31508 m -138.76724,0.36533 20.6386,8.31221 m 0,0 33.96155,-31.79789 m -60.71455,44.6579 6.1144,-21.17222 m 73.73117,11.5098 3.08323,-9.47694 m -3.08323,9.47694 1.3414,2.8266 m 0,0 34.25786,11.83371 m 0,0 9.97043,-12.36193 m -184.13772,-35.62444 -9.73286,-2.76541 -9.84096,2.76541 m 192.83716,54.15273 0.90395,-6.16636 m -88.69183,-17.8579 11.82638,15.04635 m 0,0 41.26619,-11.84876 m -118.17268,19.16856 -29.32846,-18.13189 6.68876,-10.72452 m 22.6397,28.85641 9.21264,-24.26718 m 67.58974,25.60421 0.10411,-8.65683 m -63.98997,16.82687 25.41059,-19.01321 m 38.47527,10.84317 3.55973,3.32187 m 39.15197,-21.00086 3.62179,25.74828 m 0,0 29.73212,-7.74821 m -139.95147,7.84896 28.79213,5.39804 m -3.38154,-24.41125 3.38154,24.41125 m 111.15934,-13.247 8.36476,16.67056 m -161.23275,-18.32867 1.29135,11.08891 m 0,0 11.62517,-1.58184 m 166.41317,-33.23568 18.77064,32.75548 m -36.86758,9.3018 35.36901,-7.54766 m 0,0 1.49857,-1.75414 m -156.39168,5.87824 7.41676,7.56649 m 0,0 5.73601,0.39357 m 0,0 21.94096,-21.52814 m -93.66603,22.06013 13.71836,-3.20511 m 0,0 4.43664,-9.10314 m 79.07076,-6.43001 38.94576,18.83054 m 0,0 3.828,-14.08312 m -147.02287,29.5494 7.02335,-15.55856 m 0,0 -13.26456,-7.09946 -13.39854,7.09946 m 40.38146,-3.20511 13.31794,16.80802 m 0,0 13.84449,4.91502 m 0,0 25.10827,-19.44349 m 31.2367,-17.8127 8.8913,41.45655 m 102.50929,1.17038 4.83906,-36.50482 m 1.49857,-1.75414 19.1991,-1.40201 m -23.4966,-47.71237 23.4966,12.46832 m -128.04602,73.73464 34.98362,-4.9715 m -4.92916,-17.65451 4.92916,17.65451 m 67.52567,6.14188 9.72518,9.4534 m -48.01526,-4.76059 38.29008,-4.69281 m -136.90128,-24.42066 18.0599,30.93823 m 0,0 16.33209,-7.68795 m 50.91629,0.85872 21.06305,-28.6455 m -21.06305,28.6455 13.30292,5.00447 m -177.35962,-13.02292 17.33214,26.04865 m 0,0 16.72751,-28.0043 m 114.06438,4.14388 9.18961,6.68611 m 0,0 6.74306,-0.85589 m -147.10996,20.07247 0.3854,-2.04227 m 80.81358,-1.78052 28.22954,8.10224 m -32.07557,-12.44572 2.50863,-5.07697 m -2.50863,5.07697 3.84603,4.34348 m -87.56265,8.54949 6.36367,-4.7267 m 62.51442,-0.0235 14.83853,-8.14273 m -46.39555,-16.96527 13.29091,25.527 m 0,0 18.26611,-0.419 m 18.68456,-3.79925 11.58412,18.72131 m 0,0 16.64542,-10.61906 m -115.79219,0.44725 1.51459,10.62188 m 114.2776,-11.06913 23.68579,1.4792 m 0,0 7.25259,-24.97524 m -140.3669,19.21658 34.37998,10.24809 m 0,0 9.86833,-9.85263 m 48.53479,14.50306 2.55167,5.43382 m 0,0 37.24298,-8.49676 m 0,0 0.53656,-6.07692 m -0.53656,6.07692 0.72176,2.4754 m 27.11337,-29.37898 21.8769,36.86826 m 0,0 5.17742,0.80975 m 0,0 20.96094,-32.91742 m -213.27722,25.656 11.35288,18.31172 m 180.9634,-11.0503 8.68509,7.81977 m -131.98213,7.42243 6.23152,-1.05645 m -7.88726,-36.8193 7.88726,36.8193 m 62.89783,-22.48478 22.10513,21.38502 m 0,0 26.88514,-13.89574 m -142.33897,23.77473 16.50027,12.57095 m 0,0 7.71908,-20.29373 m 6.23152,-1.05645 9.42887,4.75306 m -45.41654,-1.86055 29.75615,-1.83606 m -29.75615,1.83606 5.5368,5.88672 m -11.18471,-7.07875 5.61388,-28.24815 m -5.61388,28.24815 5.64791,1.19203 m 22.03707,18.45767 2.04614,3.18817 m 0,0 21.33333,-19.78529 m 0,0 9.02044,2.65335 m 0,0 6.48378,-23.86983 m -88.83097,13.32797 16.78257,8.57586 m 0,0 5.47973,-3.73993 m -6.25154,6.0129 0.77181,-2.27297 m -16.78257,-8.57586 -29.22504,4.641 17.87216,-22.95272 m 93.70007,28.85358 5.70196,6.47897 m -36.38408,18.04809 0.32835,-7.39512 m 1.88197,7.39512 34.17376,-18.04809 m 0,0 8.87029,7.05522 m 0,0 29.87627,-43.42538 m -93.3487,31.26401 12.59818,23.15424 m 143.6033,-38.29945 28.0874,-1.32385 m -15.81155,-39.41334 15.81155,3.27103 m -201.72513,51.54552 3.45662,24.22009 m 77.45206,-10.99287 5.97225,10.99287 m 42.78678,0 3.22237,-33.03323 m 37.21495,33.03323 3.5327,-38.29945 m 7.79115,-145.35827 20.29625,-7.3923 m -8.72313,-34.21491 6.29674,-16.4365 m -115.50905,14.04395 0.78482,-9.79518 m -69.20442,17.8108 0.48851,-17.8108"
         id="path4902"
         inkscape:connector-curvature="0" />
      <path
         sodipodi:nodetypes="cccccccccccccccccccccccccccccccccccccccccccccccccccccccccccccccccccccccccccccccccccccccccccccccccccccccccccccccccccccccccccccccccccccccccccccccccccccccccccccccccccccccccccccccccccccccccccccccccccccccccccccccccccccccccccccccccccccccccccccccccccccccccccccccccccccccccccccccccccccccccccccccccccccccccccccccccccccccccccccccccccccccc"
         style="fill:none;stroke:#ffffff;stroke-width:4.85277557;stroke-miterlimit:4;stroke-dasharray:none"
         d="m 174.70156,312.34596 -15.77613,-20.50749 m -28.49383,0 -2.10449,21.81439 m 0,0 -33.201964,-9.62666 m 110.012394,-2.39254 -30.43598,10.7123 m -43.35435,7.53165 -3.0201,-6.22475 m 46.37445,-1.3069 -12.48174,8.89693 m 161.30572,-4.8444 -9.98499,13.54643 m -99.01599,-15.00681 -9.38702,-13.30445 m -42.91772,19.60923 -8.10537,3.81055 m 0,0 -4.68292,-33.21497 m 4.68292,33.21497 -1.12536,1.2118 m 0,0 -21.64188,-6.38763 m 182.19334,10.06731 -40.6771,-16.58582 m 1.19494,-3.70982 -1.19494,3.70982 m -119.71907,14.48422 -0.15529,-1.57808 m -21.64188,-6.38763 -19.52529,14.55673 m 0,0 -16.696774,-30.40814 m 223.466384,34.01154 -5.05098,-8.09282 m 12.23369,11.07573 -7.18271,-2.98291 m -45.72808,-24.67864 -8.14671,8.36023 m 0,0 -50.19218,-6.78122 m 0,0 -9.06232,24.41312 m 0,0 -4.51755,3.15805 m 0,0 -38.72487,-21.26639 m 3.34178,27.57022 -12.41722,-20.96979 m -41.32246,6.59102 -5.03888,11.19908 m 3.22379,7.79434 -3.22379,-7.79434 m 221.25198,19.02544 -2.26078,-23.63821 m -124.82955,1.48863 -17.96432,17.04907 m 0,0 -17.41877,-10.74524 m -12.41722,-20.96979 -32.46585,34.62826 m 0,0 -10.6717,-9.04382 m 208.5847,-15.39002 -26.9389,27.20677 m -108.56738,-0.37474 -0.10488,-5.31142 m 108.67226,5.68616 -25.50096,-8.0627 m 0,0 -1.43493,-35.46248 m 63.31828,42.93953 -32.08568,4.58923 m 0,0 -4.29671,-4.00358 m -108.56738,-0.37474 -42.79772,11.77532 m 125.86414,-19.46328 -5.68929,5.6551 m -120.17485,13.80818 -11.35338,-6.14 m 36.62745,-21.69198 -36.62745,21.69198 m 199.10087,-5.84623 6.78043,10.72452 -29.58598,18.13189 m -176.29532,-23.01018 -4.34814,-0.71843 m 0,0 -3.90748,-7.31508 m 139.78385,0.36533 -20.7898,8.31221 m 0,0 -34.21034,-31.79789 m 61.15934,44.6579 -6.1592,-21.17222 m -74.27132,11.5098 -3.10581,-9.47694 m 3.10581,9.47694 -1.35124,2.8266 m 0,0 -34.50882,11.83371 m 0,0 -10.04347,-12.36193 m 183.23801,-60.2466 12.08966,1.42367 11.9652,-1.42367 m -196.33883,78.77489 -0.91057,-6.16636 m 89.34158,-17.8579 -11.91302,15.04635 m 0,0 -41.5685,-11.84876 m 119.03841,19.16856 -9.28013,-24.26718 m -68.08491,25.60421 -0.10487,-8.65683 m 64.45877,16.82687 -25.59675,-19.01321 m -38.75715,10.84317 -3.5858,3.32187 m -39.43881,-21.00086 -3.64831,25.74828 m 0,0 -29.94994,-7.74821 m 140.97676,7.84896 -29.00307,5.39804 m 3.40632,-24.41125 -3.40632,24.41125 m -111.97369,-13.247 -8.42604,16.67056 m 162.41394,-18.32867 -1.30081,11.08891 m 0,0 -11.71033,-1.58184 m -167.63232,-33.23568 -18.90816,32.75548 m 37.13768,9.3018 -35.62813,-7.54766 m 0,0 -1.50955,-1.75414 m 157.53741,5.87824 -7.4711,7.56649 m 0,0 -5.77802,0.39357 m 0,0 -22.10171,-21.52814 m 94.35223,22.06013 -13.81885,-3.20511 m 0,0 -4.46915,-9.10314 m -79.65003,-6.43001 -39.23108,18.83054 m 0,0 -3.85604,-14.08312 m 148.09996,29.5494 -7.07481,-15.55856 m -13.81885,-3.20511 -13.41551,16.80802 m 0,0 -13.94592,4.91502 m 0,0 -25.29222,-19.44349 m -31.46553,-17.8127 -8.95644,41.45655 m -103.26028,1.17038 -4.87451,-36.50482 m -1.50955,-1.75414 -19.33974,-1.40201 m 23.66872,-47.71237 -23.66872,12.46832 m 128.98408,73.73464 -35.2399,-4.9715 m 4.96526,-17.65451 -4.96526,17.65451 m -68.02038,6.14188 -9.79642,9.4534 m 48.36701,-4.76059 -38.57059,-4.69281 m 137.90423,-24.42066 -18.1922,30.93823 m 0,0 -16.45175,-7.68795 m -51.2893,0.85872 -21.21736,-28.6455 m 21.21736,28.6455 -13.40039,5.00447 m 178.65897,-13.02292 -17.45911,26.04865 m 0,0 -16.85006,-28.0043 m -114.90001,4.14388 -9.25694,6.68611 m 0,0 -6.79246,-0.85589 m 148.18769,20.07247 -0.38822,-2.04227 m -81.40562,-1.78052 -28.43637,8.10224 m 32.31056,-12.44572 -2.52699,-5.07697 m 2.52699,5.07697 -3.87419,4.34348 m 88.20412,8.54949 -6.41028,-4.7267 m -62.97241,-0.0235 -14.94724,-8.14273 m 46.73545,-16.96527 -13.38828,25.527 m 0,0 -18.39993,-0.419 m -18.82143,-3.79925 -11.669,18.72131 m 0,0 -16.76737,-10.61906 m 116.64049,0.44725 -1.52568,10.62188 m -115.11481,-11.06913 -23.85931,1.4792 m 0,0 -7.30571,-24.97524 m 158.46612,-8.87433 6.32373,10.13604 6.24121,-10.13604 m -23.22555,32.81762 16.98434,-2.73434 16.82428,2.73434 m -40.2189,-4.72671 -34.63185,10.24809 m 0,0 -9.94063,-9.85263 m -48.89036,14.50306 -2.57036,5.43382 m 0,0 -37.51582,-8.49676 m 0,0 -0.5405,-6.07692 m 0.5405,6.07692 -0.72704,2.4754 m -27.31202,-29.37898 -22.03716,36.86826 m 0,0 -5.21535,0.80975 m 0,0 -21.1145,-32.91742 m 214.83969,25.656 -11.43606,18.31172 m -182.28913,-11.0503 -8.74872,7.81977 m 132.94904,7.42243 -6.27717,-1.05645 m 7.94503,-36.8193 -7.94503,36.8193 m -63.35862,-22.48478 -22.26708,21.38502 m 0,0 -27.0821,-13.89574 m 143.38175,23.77468 -16.62115,12.57096 m 0,0 -7.77563,-20.29373 m -6.27717,-1.05646 -9.49795,4.75307 m 45.74926,-1.86055 -29.97414,-1.83606 m 29.97414,1.83606 -5.57736,5.88671 m 11.26664,-7.07874 -5.655,-28.24815 m 5.655,28.24815 -5.68928,1.19203 m -22.19851,18.45767 -2.06113,3.18817 m 0,0 -21.48962,-19.78529 m 0,0 -9.08652,2.65335 m 0,0 -6.53129,-23.86983 m 89.48174,13.32797 -16.90551,8.57586 m 0,0 -5.51988,-3.73993 m 6.29735,6.01289 -0.77747,-2.27296 m 28.34157,-26.88758 18.04331,22.95276 -29.47937,-4.64104 m -82.95045,10.54186 -5.74374,6.47897 m 36.65063,18.04809 -0.33075,-7.39512 m -1.89576,7.39512 -34.42412,-18.04809 m 0,0 -8.93527,7.05522 m 0,0 -30.09514,-43.42538 m 94.03257,31.264 -12.69048,23.15425 M 114.63127,490.99169 86.33811,489.66783 m 15.92738,-39.41333 -15.92738,3.27103 m 203.20297,51.54551 -3.48195,24.2201 m -78.01947,-10.99287 -6.016,10.99287 m -43.10024,0 -3.24598,-33.03323 m -37.48759,33.03323 -3.55858,-38.29945 m 208.89427,-174.5932 -1.93811,-25.0117 0,-1.81332 -47.52904,20.07581 m 15.48269,195.42176 46.06062,24.22012 45.71601,-24.22007 M 106.78304,345.63342 86.33811,338.24112 m 8.787036,-34.21492 -8.787036,-7.21622 m 118.79943,4.82368 -0.79057,-9.79519 m 69.71142,17.81081 -0.49209,-17.81081"
         id="path4904"
         inkscape:connector-curvature="0" />
    </g>
    <g
       id="g4993"
       style="filter:url(#filter5019)" />
    <g
       id="g4998"
       transform="translate(735.39105,-537.40115)">
      <rect
         ry="40.694302"
         rx="40.694302"
         y="-48.781395"
         x="448.58142"
         height="871.74377"
         width="835.19269"
         id="rect4790"
         style="color:#000000;clip-rule:nonzero;display:inline;overflow:visible;visibility:visible;opacity:1;isolation:auto;mix-blend-mode:normal;color-interpolation:sRGB;color-interpolation-filters:linearRGB;solid-color:#000000;solid-opacity:1;fill:#71b5f5;fill-opacity:1;fill-rule:nonzero;stroke:none;stroke-width:5;stroke-linecap:round;stroke-linejoin:miter;stroke-miterlimit:4;stroke-dasharray:none;stroke-dashoffset:0;stroke-opacity:1;marker:none;color-rendering:auto;image-rendering:auto;shape-rendering:auto;text-rendering:auto;enable-background:accumulate" />
      <path
         style="color:#000000;clip-rule:nonzero;display:inline;overflow:visible;visibility:visible;opacity:1;isolation:auto;mix-blend-mode:normal;color-interpolation:sRGB;color-interpolation-filters:linearRGB;solid-color:#000000;solid-opacity:1;fill:#ffffff;fill-opacity:1;fill-rule:nonzero;stroke:none;stroke-width:5;stroke-linecap:round;stroke-linejoin:miter;stroke-miterlimit:4;stroke-dasharray:none;stroke-dashoffset:0;stroke-opacity:1;marker:none;filter:url(#filter4838);color-rendering:auto;image-rendering:auto;shape-rendering:auto;text-rendering:auto;enable-background:accumulate"
         d="m 657.29711,58.709699 c -10.88972,1.929214 -7.26685,17.05993 -8.94162,24.854365 -1.55274,12.406421 0.50429,26.694766 -3.49235,38.124046 -8.46921,6.31923 -0.83718,20.16519 8.84751,19.90153 37.59,5.20097 75.47204,12.24903 112.60289,20.4334 -6.40052,17.58605 -12.8815,35.91861 -23.1466,51.50393 -18.87108,11.83202 -38.45888,23.74425 -58.70917,32.48644 -13.59128,-7.73306 -25.14304,-18.51008 -38.21827,-26.99896 -7.51621,0.21782 -5.56383,12.60936 -2.08072,16.87211 9.25123,10.48283 24.3709,16.41584 32.12932,26.87264 -0.29555,12.24253 -0.59231,24.48499 -0.88987,36.72746 -10.5691,4.52348 -24.7572,3.52625 -33.22312,11.95603 -2.86493,6.13276 -0.22137,16.34973 8.24211,10.86755 8.27071,-1.76091 17.36624,-5.12105 25.41225,-5.58493 -1.07131,25.53624 6.42521,50.07469 13.65322,74.26333 2.89956,13.35948 9.05676,26.757 9.57602,40.33761 -18.08797,20.70673 -28.67475,47.29701 -46.84658,67.88731 -6.54872,-0.002 -13.37634,4.75841 -10.47904,12.09618 1.36523,6.32908 11.5491,1.57381 9.79264,10.41794 2.4842,9.78102 16.39211,2.03018 14.24516,-6.08764 9.99641,-25.46798 27.42653,-47.32703 41.45614,-70.76941 4.42253,-3.91142 11.83208,3.59168 17.28946,4.84927 19.82059,9.66656 39.5016,19.74001 58.59369,30.50851 -14.66586,14.07306 -33.48809,24.65137 -46.1602,40.83085 0.90372,9.30147 13.32617,4.13805 18.09751,0.72591 28.08647,-18.39564 52.91648,-41.20763 81.51079,-58.91762 3.85966,19.93041 5.68112,40.76201 12.35132,59.8951 3.82194,7.138 15.6412,2.92722 12.74659,-5.16406 -1.9942,-21.8739 -8.85146,-43.78291 -9.55187,-65.3574 14.76162,-15.45 35.63907,-24.79989 46.85379,-43.85372 7.8088,-10.74736 15.13934,-21.8778 23.66046,-32.0869 31.60066,6.56902 62.8526,14.74058 94.11003,22.76564 -1.4331,31.10283 -0.8125,62.3595 -4.3878,93.28351 -33.18514,9.35311 -67.58515,14.85017 -100.13298,26.16165 -5.91337,6.39976 6.00469,8.57754 10.47899,7.42166 15.3226,-0.39951 30.3884,-3.49825 45.4056,0.35136 5.55848,0.70037 6.88199,-4.85437 8.65345,-8.08208 24.20734,-8.35041 49.42204,-13.57056 74.82584,-8.81767 18.1844,1.33406 36.6801,5.60696 54.836,3.98065 6.1093,-5.17058 0.9161,-14.83262 -6.7596,-14.05472 -22.858,-3.7319 -46.4323,-5.19221 -69.1199,-8.21504 -0.7252,-29.58465 0.4157,-59.38524 3.0869,-88.79864 10.4255,-24.27425 27.8279,-44.963 42.5019,-66.70141 7.3439,-11.30634 28.0911,-4.3059 32.8638,-18.06878 2.4731,-7.65037 -6.4386,-10.34102 -12.0315,-7.37055 -7.2544,0.37627 -17.725,8.6163 -22.0398,-0.5678 -17.7898,-24.9503 -33.7849,-51.25576 -49.6029,-77.36371 13.2363,-8.54928 27.279,-16.99141 41.4418,-23.75391 13.4261,7.42157 24.3243,19.78157 38.4303,25.47886 7.6796,-4.1545 3.4785,-16.93216 -3.6008,-20.04528 -11.7334,-10.00418 -28.1281,-17.58807 -30.5335,-34.6385 -6.9952,-20.25898 -14.9167,-41.71198 -20.2985,-61.55585 18.5532,5.44086 36.2876,14.06029 54.9647,18.69407 7.6312,-4.79339 1.1858,-16.98323 -6.713,-17.87473 -32.1757,-12.40174 -65.0058,-22.916736 -93.3957,-43.204998 -14.08198,-8.261289 -29.70119,-21.972108 -47.03623,-14.469204 1.649,9.737036 17.22875,12.145942 24.2608,18.946056 13.2546,8.325619 26.63883,16.482507 39.39323,25.568266 -22.74131,17.50533 -47.41529,32.42457 -70.79457,49.08183 -23.68068,-5.86814 -47.11397,-14.35759 -70.9483,-18.62015 -8.94811,1.06074 -17.73253,2.57149 -26.74101,2.96988 3.14626,-18.00257 5.61197,-36.65596 11.26605,-53.900888 23.31705,-9.907646 50.0486,-11.741491 73.45386,-20.968845 -1.95025,-8.945077 -16.66227,-2.801637 -23.99829,-4.916089 -16.987,-1.501117 -34.02563,4.873704 -49.93352,7.165703 1.65624,-10.862667 -20.95099,-10.119895 -16.00244,0.977468 -16.37111,8.239945 -34.4375,13.557533 -52.46345,17.080535 -16.84685,1.341095 -31.24606,-10.214802 -45.15399,-18.115501 0.64911,-2.720713 0.002,-7.979296 -4.88375,-7.334604 -17.10288,-1.600405 -28.33529,14.991651 -41.37874,23.228783 -13.97712,11.160813 -27.87048,22.433488 -42.14087,33.219998 -0.0485,-18.558552 3.97558,-37.467933 2.56226,-55.722867 -2.34681,-1.448654 -5.16569,-0.696883 -7.76583,-0.804974 z m 80.30691,19.585297 c 14.92969,6.809714 29.10671,14.837799 43.67699,22.417074 -2.16346,15.37379 -5.2204,30.78122 -10.58684,45.3768 -32.67604,-5.39106 -65.19439,-11.79903 -97.55633,-18.83063 20.87952,-16.81616 41.39527,-33.999779 63.30184,-49.437603 l 1.16434,0.474359 z m 109.26079,9.33985 c -3.32071,17.485854 -5.49503,35.728864 -11.2409,52.488594 -15.15672,3.97951 -31.17719,4.64225 -46.73876,6.55478 2.87475,-14.88294 4.78797,-31.13741 10.66231,-44.78025 15.42398,-5.34527 31.58514,-12.137684 47.31735,-14.263124 z m 185.95969,31.526934 c 10.4818,23.99016 17.4722,49.55628 25.6801,74.29835 -13.1845,8.744 -27.1651,16.20263 -40.8344,24.14562 -17.76411,-16.87446 -34.82869,-34.85744 -50.72058,-53.10311 21.01956,-16.38148 42.87338,-31.85163 65.68438,-45.63913 l 0.1905,0.29827 z m -147.33893,34.46653 c 21.90679,4.95767 44.56583,9.7526 64.99802,18.39581 18.64937,17.99963 36.36177,37.19289 52.94861,57.2214 -15.44073,24.88694 -33.0985,48.81441 -51.07272,72.18889 -18.78615,-23.50332 -37.3764,-48.35842 -53.71385,-73.52161 -4.308,-24.6703 -9.32251,-50.01796 -13.16006,-74.28449 z M 868.768,154.4225 c 5.03199,22.64251 9.16868,45.46317 12.13569,68.43714 -12.87923,6.67577 -26.81922,13.995 -40.58971,16.72731 -25.1751,-9.02387 -51.27338,-16.98387 -75.74335,-27.13447 5.69604,-16.62522 10.85553,-34.2169 20.68853,-48.76919 27.54849,-4.7251 55.84449,-7.38604 83.50884,-9.26079 z m -114.73391,72.44044 c 26.31122,9.175 53.69321,16.3823 78.58914,28.72391 -6.45166,34.89067 -14.34318,70.16546 -21.85645,104.68249 -39.67991,-6.26466 -79.41913,-14.42219 -118.02928,-24.84996 -1.69893,-24.50512 -0.34707,-49.41721 -0.33779,-74.07194 20.51126,-11.54553 40.69296,-23.72655 61.63438,-34.4845 z m 131.82523,13.28207 c 19.34524,23.61169 37.05601,48.66615 54.48307,73.72335 5.44241,6.82989 -6.01094,12.40145 -7.71553,18.54676 -16.75555,24.08064 -32.63815,48.89126 -51.38896,71.49529 -18.55536,-11.79837 -36.62772,-24.37223 -53.94402,-37.7475 6.06293,-37.36073 13.76042,-74.91869 23.24361,-111.42415 11.32962,-5.36315 23.57682,-11.8333 35.32183,-14.59375 z m 129.72658,7.92397 c 15.9201,25.48971 34.2185,49.88121 47.134,76.95763 -12.4087,20.18099 -25.3687,40.84152 -41.086,58.87087 -29.78313,-6.45345 -59.55971,-14.62685 -89.08972,-22.67581 25.04194,-38.65061 51.52588,-76.51035 79.32942,-113.26769 1.9317,-2.43196 2.2041,-2.94924 3.7123,0.11499 z M 697.61767,354.76393 c 40.48009,7.61769 81.6848,15.3378 121.57087,25.16166 16.57255,12.41484 35.55702,24.21799 50.38444,37.31722 -22.8353,17.70427 -45.88914,36.1066 -70.35254,50.99364 -27.92277,-12.2006 -56.21974,-25.61594 -82.44512,-41.49208 -8.49913,-23.54813 -14.30311,-48.04221 -20.7137,-72.22483 l 1.55605,0.24439 z"
         id="path4792"
         inkscape:connector-curvature="0" />
      <path
         inkscape:connector-curvature="0"
         id="rect4136"
         d="m 335.35548,304.5285 249.53462,0 0,249.53464 -249.53462,0 z"
         style="color:#000000;clip-rule:nonzero;display:inline;overflow:visible;visibility:visible;opacity:1;isolation:auto;mix-blend-mode:normal;color-interpolation:sRGB;color-interpolation-filters:linearRGB;solid-color:#000000;solid-opacity:1;fill:none;fill-opacity:1;fill-rule:nonzero;stroke:none;stroke-width:10;stroke-linecap:round;stroke-linejoin:round;stroke-miterlimit:4;stroke-dasharray:none;stroke-dashoffset:0;stroke-opacity:1;marker:none;color-rendering:auto;image-rendering:auto;shape-rendering:auto;text-rendering:auto;enable-background:accumulate" />
      <path
         inkscape:connector-curvature="0"
         id="rect4952"
         d="m 335.35542,83.535051 0,220.993479 249.53503,0 0,-220.993479 -249.53503,0 z"
         style="color:#000000;clip-rule:nonzero;display:inline;overflow:visible;visibility:visible;opacity:1;isolation:auto;mix-blend-mode:normal;color-interpolation:sRGB;color-interpolation-filters:linearRGB;solid-color:#000000;solid-opacity:1;fill:none;fill-opacity:1;fill-rule:nonzero;stroke:none;stroke-width:10;stroke-linecap:round;stroke-linejoin:round;stroke-miterlimit:4;stroke-dasharray:none;stroke-dashoffset:0;stroke-opacity:1;marker:none;color-rendering:auto;image-rendering:auto;shape-rendering:auto;text-rendering:auto;enable-background:accumulate" />
      <path
         inkscape:connector-curvature="0"
         id="path4786"
         d="m 657.29711,58.709699 c -10.88972,1.929214 -7.26685,17.05993 -8.94162,24.854365 -1.55274,12.406421 0.50429,26.694766 -3.49235,38.124046 -8.46921,6.31923 -0.83718,20.16519 8.84751,19.90153 37.59,5.20097 75.47204,12.24903 112.60289,20.4334 -6.40052,17.58605 -12.8815,35.91861 -23.1466,51.50393 -18.87108,11.83202 -38.45888,23.74425 -58.70917,32.48644 -13.59128,-7.73306 -25.14304,-18.51008 -38.21827,-26.99896 -7.51621,0.21782 -5.56383,12.60936 -2.08072,16.87211 9.25123,10.48283 24.3709,16.41584 32.12932,26.87264 -0.29555,12.24253 -0.59231,24.48499 -0.88987,36.72746 -10.5691,4.52348 -24.7572,3.52625 -33.22312,11.95603 -2.86493,6.13276 -0.22137,16.34973 8.24211,10.86755 8.27071,-1.76091 17.36624,-5.12105 25.41225,-5.58493 -1.07131,25.53624 6.42521,50.07469 13.65322,74.26333 2.89956,13.35948 9.05676,26.757 9.57602,40.33761 -18.08797,20.70673 -28.67475,47.29701 -46.84658,67.88731 -6.54872,-0.002 -13.37634,4.75841 -10.47904,12.09618 1.36523,6.32908 11.5491,1.57381 9.79264,10.41794 2.4842,9.78102 16.39211,2.03018 14.24516,-6.08764 9.99641,-25.46798 27.42653,-47.32703 41.45614,-70.76941 4.42253,-3.91142 11.83208,3.59168 17.28946,4.84927 19.82059,9.66656 39.5016,19.74001 58.59369,30.50851 -14.66586,14.07306 -33.48809,24.65137 -46.1602,40.83085 0.90372,9.30147 13.32617,4.13805 18.09751,0.72591 28.08647,-18.39564 52.91648,-41.20763 81.51079,-58.91762 3.85966,19.93041 5.68112,40.76201 12.35132,59.8951 3.82194,7.138 15.6412,2.92722 12.74659,-5.16406 -1.9942,-21.8739 -8.85146,-43.78291 -9.55187,-65.3574 14.76162,-15.45 35.63907,-24.79989 46.85379,-43.85372 7.8088,-10.74736 15.13934,-21.8778 23.66046,-32.0869 31.60066,6.56902 62.8526,14.74058 94.11003,22.76564 -1.4331,31.10283 -0.8125,62.3595 -4.3878,93.28351 -33.18514,9.35311 -67.58515,14.85017 -100.13298,26.16165 -5.91337,6.39976 6.00469,8.57754 10.47899,7.42166 15.3226,-0.39951 30.3884,-3.49825 45.4056,0.35136 5.55848,0.70037 6.88199,-4.85437 8.65345,-8.08208 24.20734,-8.35041 49.42204,-13.57056 74.82584,-8.81767 18.1844,1.33406 36.6801,5.60696 54.836,3.98065 6.1093,-5.17058 0.9161,-14.83262 -6.7596,-14.05472 -22.858,-3.7319 -46.4323,-5.19221 -69.1199,-8.21504 -0.7252,-29.58465 0.4157,-59.38524 3.0869,-88.79864 10.4255,-24.27425 27.8279,-44.963 42.5019,-66.70141 7.3439,-11.30634 28.0911,-4.3059 32.8638,-18.06878 2.4731,-7.65037 -6.4386,-10.34102 -12.0315,-7.37055 -7.2544,0.37627 -17.725,8.6163 -22.0398,-0.5678 -17.7898,-24.9503 -33.7849,-51.25576 -49.6029,-77.36371 13.2363,-8.54928 27.279,-16.99141 41.4418,-23.75391 13.4261,7.42157 24.3243,19.78157 38.4303,25.47886 7.6796,-4.1545 3.4785,-16.93216 -3.6008,-20.04528 -11.7334,-10.00418 -28.1281,-17.58807 -30.5335,-34.6385 -6.9952,-20.25898 -14.9167,-41.71198 -20.2985,-61.55585 18.5532,5.44086 36.2876,14.06029 54.9647,18.69407 7.6312,-4.79339 1.1858,-16.98323 -6.713,-17.87473 -32.1757,-12.40174 -65.0058,-22.916736 -93.3957,-43.204998 -14.08198,-8.261289 -29.70119,-21.972108 -47.03623,-14.469204 1.649,9.737036 17.22875,12.145942 24.2608,18.946056 13.2546,8.325619 26.63883,16.482507 39.39323,25.568266 -22.74131,17.50533 -47.41529,32.42457 -70.79457,49.08183 -23.68068,-5.86814 -47.11397,-14.35759 -70.9483,-18.62015 -8.94811,1.06074 -17.73253,2.57149 -26.74101,2.96988 3.14626,-18.00257 5.61197,-36.65596 11.26605,-53.900888 23.31705,-9.907646 50.0486,-11.741491 73.45386,-20.968845 -1.95025,-8.945077 -16.66227,-2.801637 -23.99829,-4.916089 -16.987,-1.501117 -34.02563,4.873704 -49.93352,7.165703 1.65624,-10.862667 -20.95099,-10.119895 -16.00244,0.977468 -16.37111,8.239945 -34.4375,13.557533 -52.46345,17.080535 -16.84685,1.341095 -31.24606,-10.214802 -45.15399,-18.115501 0.64911,-2.720713 0.002,-7.979296 -4.88375,-7.334604 -17.10288,-1.600405 -28.33529,14.991651 -41.37874,23.228783 -13.97712,11.160813 -27.87048,22.433488 -42.14087,33.219998 -0.0485,-18.558552 3.97558,-37.467933 2.56226,-55.722867 -2.34681,-1.448654 -5.16569,-0.696883 -7.76583,-0.804974 z m 80.30691,19.585297 c 14.92969,6.809714 29.10671,14.837799 43.67699,22.417074 -2.16346,15.37379 -5.2204,30.78122 -10.58684,45.3768 -32.67604,-5.39106 -65.19439,-11.79903 -97.55633,-18.83063 20.87952,-16.81616 41.39527,-33.999779 63.30184,-49.437603 l 1.16434,0.474359 z m 109.26079,9.33985 c -3.32071,17.485854 -5.49503,35.728864 -11.2409,52.488594 -15.15672,3.97951 -31.17719,4.64225 -46.73876,6.55478 2.87475,-14.88294 4.78797,-31.13741 10.66231,-44.78025 15.42398,-5.34527 31.58514,-12.137684 47.31735,-14.263124 z m 185.95969,31.526934 c 10.4818,23.99016 17.4722,49.55628 25.6801,74.29835 -13.1845,8.744 -27.1651,16.20263 -40.8344,24.14562 -17.76411,-16.87446 -34.82869,-34.85744 -50.72058,-53.10311 21.01956,-16.38148 42.87338,-31.85163 65.68438,-45.63913 l 0.1905,0.29827 z m -147.33893,34.46653 c 21.90679,4.95767 44.56583,9.7526 64.99802,18.39581 18.64937,17.99963 36.36177,37.19289 52.94861,57.2214 -15.44073,24.88694 -33.0985,48.81441 -51.07272,72.18889 -18.78615,-23.50332 -37.3764,-48.35842 -53.71385,-73.52161 -4.308,-24.6703 -9.32251,-50.01796 -13.16006,-74.28449 z M 868.768,154.4225 c 5.03199,22.64251 9.16868,45.46317 12.13569,68.43714 -12.87923,6.67577 -26.81922,13.995 -40.58971,16.72731 -25.1751,-9.02387 -51.27338,-16.98387 -75.74335,-27.13447 5.69604,-16.62522 10.85553,-34.2169 20.68853,-48.76919 27.54849,-4.7251 55.84449,-7.38604 83.50884,-9.26079 z m -114.73391,72.44044 c 26.31122,9.175 53.69321,16.3823 78.58914,28.72391 -6.45166,34.89067 -14.34318,70.16546 -21.85645,104.68249 -39.67991,-6.26466 -79.41913,-14.42219 -118.02928,-24.84996 -1.69893,-24.50512 -0.34707,-49.41721 -0.33779,-74.07194 20.51126,-11.54553 40.69296,-23.72655 61.63438,-34.4845 z m 131.82523,13.28207 c 19.34524,23.61169 37.05601,48.66615 54.48307,73.72335 5.44241,6.82989 -6.01094,12.40145 -7.71553,18.54676 -16.75555,24.08064 -32.63815,48.89126 -51.38896,71.49529 -18.55536,-11.79837 -36.62772,-24.37223 -53.94402,-37.7475 6.06293,-37.36073 13.76042,-74.91869 23.24361,-111.42415 11.32962,-5.36315 23.57682,-11.8333 35.32183,-14.59375 z m 129.72658,7.92397 c 15.9201,25.48971 34.2185,49.88121 47.134,76.95763 -12.4087,20.18099 -25.3687,40.84152 -41.086,58.87087 -29.78313,-6.45345 -59.55971,-14.62685 -89.08972,-22.67581 25.04194,-38.65061 51.52588,-76.51035 79.32942,-113.26769 1.9317,-2.43196 2.2041,-2.94924 3.7123,0.11499 z M 697.61767,354.76393 c 40.48009,7.61769 81.6848,15.3378 121.57087,25.16166 16.57255,12.41484 35.55702,24.21799 50.38444,37.31722 -22.8353,17.70427 -45.88914,36.1066 -70.35254,50.99364 -27.92277,-12.2006 -56.21974,-25.61594 -82.44512,-41.49208 -8.49913,-23.54813 -14.30311,-48.04221 -20.7137,-72.22483 l 1.55605,0.24439 z"
         style="color:#000000;clip-rule:nonzero;display:inline;overflow:visible;visibility:visible;opacity:1;isolation:auto;mix-blend-mode:normal;color-interpolation:sRGB;color-interpolation-filters:linearRGB;solid-color:#000000;solid-opacity:1;fill:#ffffff;fill-opacity:1;fill-rule:nonzero;stroke:none;stroke-width:5;stroke-linecap:round;stroke-linejoin:miter;stroke-miterlimit:4;stroke-dasharray:none;stroke-dashoffset:0;stroke-opacity:1;marker:none;color-rendering:auto;image-rendering:auto;shape-rendering:auto;text-rendering:auto;enable-background:accumulate" />
    </g>
  </g>
  <g
     inkscape:groupmode="layer"
     id="layer3"
     inkscape:label="Layer 2">
    <g
       transform="matrix(1.0303382,0,0,1.0303383,-96.030639,-67.737759)"
       id="g4906"
       style="filter:url(#filter4944)">
      <path
         sodipodi:nodetypes="ccccccccccccccccccccccccccccccccccccccccccccccccccccccccccccccccccccccccccccccccccccccccccccccccccccccccccccccccccccccccccccccccccccccccccccccccccccccccccccccccccccccccccccccccccccccccccccccccccccccccccccccccccccccccccccccccccccccccccccccccccccccccccccccccccccccccccccccccccccccccccccccccccccccccccccccccccccccccccccccccc"
         style="fill:none;stroke:#ffffff;stroke-width:4.85277557;stroke-miterlimit:4;stroke-dasharray:none"
         d="m 347.5804,269.03963 1.92401,18.14883 47.18339,-11.39963 m 144.67141,-4.00357 -2.08919,16.8025 2.08919,19.61994 m 0,-36.42244 32.9605,9.62665 m -109.21231,2.39254 30.21463,-10.71229 m 43.03904,-7.53165 2.99814,6.22475 m -46.03718,1.3069 12.39096,-8.89693 m -160.13259,4.8444 9.91237,-13.54643 m 98.29588,15.00681 9.31875,13.30444 m 42.60559,-19.60922 8.04643,-3.81055 m 0,0 4.64886,28.20309 -4.64886,32.49295 m 0,-60.69604 1.11717,-1.2118 m 0,0 21.48448,6.38763 m -180.8683,-10.06731 40.38127,16.58582 m -1.18624,3.70981 1.18624,-3.70981 m 118.84838,-14.48422 0.15417,1.57808 m 21.48448,6.38763 19.38329,-14.55673 m 0,0 16.57535,30.40813 m -221.84118,-34.01153 5.01424,8.09282 m -12.14471,-11.07573 7.13047,2.98291 m 45.39551,24.67864 8.08746,-8.36023 m 0,0 49.82715,6.78122 m 0,0 8.99642,-24.41312 m 0,0 4.48469,-3.15805 m 0,0 38.44323,21.26639 m -3.31747,-27.57022 12.3269,20.96979 m 41.02194,-6.59102 5.00223,-11.19908 m -3.20035,-7.79434 3.20035,7.79434 m -219.64288,-19.02544 2.24435,23.63821 m 123.9217,-1.48863 17.83366,-17.04907 m 0,0 17.2921,10.74524 m 12.3269,20.96979 32.22974,-34.62826 m 0,0 10.59408,9.04382 m -207.06771,15.39002 26.74298,-27.20677 m 107.77781,0.37474 0.1041,5.31142 m -107.88191,-5.68616 25.3155,8.0627 m 0,0 1.42449,35.46248 m -62.85779,-42.93953 31.85234,-4.58923 m 0,0 4.26546,4.00358 m 107.77781,0.37474 42.48646,-11.77532 m -124.94877,19.46328 5.64791,-5.6551 m 119.30086,-13.80818 11.2708,6.14 m -36.36106,21.69198 36.36106,-21.69198 m 0,0 4.31652,0.71843 m 0,0 3.87906,7.31508 m -138.76724,-0.36533 20.6386,-8.31221 m 0,0 33.96155,31.79789 m -60.71455,-44.6579 6.1144,21.17222 m 73.73117,-11.5098 3.08323,9.47694 m -3.08323,-9.47694 1.3414,-2.8266 m 0,0 34.25786,-11.83371 m 0,0 9.97043,12.36193 m -184.13772,35.62444 -9.73286,2.76541 -9.84096,-2.76541 m 192.83716,-54.15273 0.90395,6.16636 m -88.69183,17.8579 11.82638,-15.04635 m 0,0 41.26619,11.84876 m -118.17268,-19.16856 -29.32846,18.13189 6.68876,10.72452 m 22.6397,-28.85641 9.21264,24.26718 m 67.58974,-25.60421 0.10411,8.65683 m -63.98997,-16.82687 25.41059,19.01321 m 38.47527,-10.84317 3.55973,-3.32187 m 39.15197,21.00086 3.62179,-25.74828 m 0,0 29.73212,7.74821 m -139.95147,-7.84896 28.79213,-5.39804 m -3.38154,24.41125 3.38154,-24.41125 m 111.15934,13.247 8.36476,-16.67056 m -161.23275,18.32867 1.29135,-11.08891 m 0,0 11.62517,1.58184 m 166.41317,33.23568 18.77064,-32.75548 m -36.86758,-9.3018 35.36901,7.54766 m 0,0 1.49857,1.75414 m -156.39168,-5.87824 7.41676,-7.56649 m 0,0 5.73601,-0.39357 m 0,0 21.94096,21.52814 m -93.66603,-22.06013 13.71836,3.20511 m 0,0 4.43664,9.10314 m 79.07076,6.43001 38.94576,-18.83054 m 0,0 3.828,14.08312 m -147.02287,-29.5494 7.02335,15.55856 m 0,0 -13.26456,7.09946 -13.39854,-7.09946 m 40.38146,3.20511 13.31794,-16.80802 m 0,0 13.84449,-4.91502 m 0,0 25.10827,19.44349 m 31.2367,17.8127 8.8913,-41.45655 m 102.50929,-1.17038 4.83906,36.50482 m 1.49857,1.75414 19.1991,1.40201 m -23.4966,47.71237 23.4966,-12.46832 m -128.04602,-73.73464 34.98362,4.9715 m -4.92916,17.65451 4.92916,-17.65451 m 67.52567,-6.14188 9.72518,-9.4534 m -48.01526,4.76059 38.29008,4.69281 m -136.90128,24.42066 18.0599,-30.93823 m 0,0 16.33209,7.68795 m 50.91629,-0.85872 21.06305,28.6455 m -21.06305,-28.6455 13.30292,-5.00447 m -177.35962,13.02292 17.33214,-26.04865 m 0,0 16.72751,28.0043 m 114.06438,-4.14388 9.18961,-6.68611 m 0,0 6.74306,0.85589 m -147.10996,-20.07247 0.3854,2.04227 m 80.81358,1.78052 28.22954,-8.10224 m -32.07557,12.44572 2.50863,5.07697 m -2.50863,-5.07697 3.84603,-4.34348 m -87.56265,-8.54949 6.36367,4.7267 m 62.51442,0.0235 14.83853,8.14273 m -46.39555,16.96527 13.29091,-25.527 m 0,0 18.26611,0.419 m 18.68456,3.79925 11.58412,-18.72131 m 0,0 16.64542,10.61906 m -115.79219,-0.44725 1.51459,-10.62188 m 114.2776,11.06913 23.68579,-1.4792 m 0,0 7.25259,24.97524 m -140.3669,-19.21658 34.37998,-10.24809 m 0,0 9.86833,9.85263 m 48.53479,-14.50306 2.55167,-5.43382 m 0,0 37.24298,8.49676 m 0,0 0.53656,6.07692 m -0.53656,-6.07692 0.72176,-2.4754 m 27.11337,29.37898 21.8769,-36.86826 m 0,0 5.17742,-0.80975 m 0,0 20.96094,32.91742 m -213.27722,-25.656 11.35288,-18.311726 m 180.9634,11.050306 8.68509,-7.819773 m -131.98213,-7.422428 6.23152,1.056452 m -7.88726,36.819299 7.88726,-36.819299 m 62.89783,22.484779 22.10513,-21.385023 m 0,0 26.88514,13.895743 M 398.75396,79.301181 415.25423,66.730225 m 0,0 7.71908,20.293734 m 6.23152,1.056452 9.42887,-4.753064 m -45.41654,1.860549 29.75615,1.836063 m -29.75615,-1.836063 5.5368,-5.886715 m -11.18471,7.078744 5.61388,28.248155 m -5.61388,-28.248155 5.64791,-1.192029 m 22.03707,-18.457671 2.04614,-3.188169 m 0,0 21.33333,19.785291 m 0,0 9.02044,-2.653353 m 0,0 6.48378,23.869836 M 365.30695,91.215854 382.08952,82.64 m 0,0 5.47973,3.739925 m -6.25154,-6.012893 0.77181,2.272968 m -16.78257,8.575854 -34.71533,-4.641021 23.36245,22.952747 m 93.70007,-28.853586 5.70196,-6.478971 m -36.38408,-18.048087 0.32835,7.39512 m 1.88197,-7.39512 34.17376,18.048087 m 0,0 8.87029,-7.055213 m 0,0 29.87627,43.42538 m -93.3487,-31.264009 12.59818,-23.154245 m 143.6033,38.299451 28.0874,1.323854 m -15.81155,39.413339 15.81155,-3.27103 M 381.31771,80.367032 384.77433,56.146936 m 77.45206,10.992874 5.97225,-10.992874 m 42.78678,0 3.22237,33.033231 m 37.21495,-33.033231 3.5327,38.299451 m 7.79115,145.358273 20.29625,7.3923 m -8.72313,34.2149 8.72313,7.21623 m -117.93544,-4.82368 0.78482,9.79518 m -69.20442,-17.8108 0.48851,17.8108"
         id="path4908"
         inkscape:connector-curvature="0" />
      <path
         sodipodi:nodetypes="cccccccccccccccccccccccccccccccccccccccccccccccccccccccccccccccccccccccccccccccccccccccccccccccccccccccccccccccccccccccccccccccccccccccccccccccccccccccccccccccccccccccccccccccccccccccccccccccccccccccccccccccccccccccccccccccccccccccccccccccccccccccccccccccccccccccccccccccccccccccccccccccccccccccccccccccccccccccccccccccccccccccc"
         style="fill:none;stroke:#ffffff;stroke-width:4.85277557;stroke-miterlimit:4;stroke-dasharray:none"
         d="m 174.70156,273.09216 -15.77613,20.50748 m -28.49383,0 -2.10449,-21.81438 m 0,0 -33.201964,9.62665 m 110.012394,2.39254 -30.43598,-10.71229 m -43.35435,-7.53165 -3.0201,6.22475 m 46.37445,1.3069 -12.48174,-8.89693 m 161.30572,4.8444 -9.98499,-13.54643 m -99.01599,15.00681 -9.38702,13.30444 m -42.91772,-19.60922 -8.10537,-3.81055 m 0,0 -4.68292,33.21496 m 4.68292,-33.21496 -1.12536,-1.2118 m 0,0 -21.64188,6.38763 m 182.19334,-10.06731 -40.6771,16.58582 m 1.19494,3.70981 -1.19494,-3.70981 m -119.71907,-14.48422 -0.15529,1.57808 m -21.64188,6.38763 -19.52529,-14.55673 m 0,0 -16.696774,30.40813 m 223.466384,-34.01153 -5.05098,8.09282 m 12.23369,-11.07573 -7.18271,2.98291 m -45.72808,24.67864 -8.14671,-8.36023 m 0,0 -50.19218,6.78122 m 0,0 -9.06232,-24.41312 m 0,0 -4.51755,-3.15805 m 0,0 -38.72487,21.26639 m 3.34178,-27.57022 -12.41722,20.96979 m -41.32246,-6.59102 -5.03888,-11.19908 m 3.22379,-7.79434 -3.22379,7.79434 m 221.25198,-19.02544 -2.26078,23.63821 m -124.82955,-1.48863 -17.96432,-17.04907 m 0,0 -17.41877,10.74524 m -12.41722,20.96979 -32.46585,-34.62826 m 0,0 -10.6717,9.04382 m 208.5847,15.39002 -26.9389,-27.20677 m -108.56738,0.37474 -0.10488,5.31142 m 108.67226,-5.68616 -25.50096,8.0627 m 0,0 -1.43493,35.46248 m 63.31828,-42.93953 -32.08568,-4.58923 m 0,0 -4.29671,4.00358 m -108.56738,0.37474 -42.79772,-11.77532 m 125.86414,19.46328 -5.68929,-5.6551 m -120.17485,-13.80818 -11.35338,6.14 m 36.62745,21.69198 -36.62745,-21.69198 m 199.10087,5.84623 6.78043,-10.72452 -29.58598,-18.13189 m -176.29532,23.01018 -4.34814,0.71843 m 0,0 -3.90748,7.31508 m 139.78385,-0.36533 -20.7898,-8.31221 m 0,0 -34.21034,31.79789 m 61.15934,-44.6579 -6.1592,21.17222 m -74.27132,-11.5098 -3.10581,9.47694 m 3.10581,-9.47694 -1.35124,-2.8266 m 0,0 L 150.331,196.4311 m 0,0 -10.04347,12.36193 m 183.23801,60.2466 12.08966,-1.42367 11.9652,1.42367 M 151.24157,190.26474 150.331,196.4311 m 89.34158,17.8579 -11.91302,-15.04635 m 0,0 -41.5685,11.84876 m 119.03841,-19.16856 -9.28013,24.26718 m -68.08491,-25.60421 -0.10487,8.65683 m 64.45877,-16.82687 -25.59675,19.01321 m -38.75715,-10.84317 -3.5858,-3.32187 m -39.43881,21.00086 -3.64831,-25.74828 m 0,0 -29.94994,7.74821 m 140.97676,-7.84896 -29.00307,-5.39804 m 3.40632,24.41125 -3.40632,-24.41125 m -111.97369,13.247 -8.42604,-16.67056 m 162.41394,18.32867 -1.30081,-11.08891 m 0,0 -11.71033,1.58184 m -167.63232,33.23568 -18.90816,-32.75548 m 37.13768,-9.3018 -35.62813,7.54766 m 0,0 -1.50955,1.75414 m 157.53741,-5.87824 -7.4711,-7.56649 m 0,0 -5.77802,-0.39357 m 0,0 -22.10171,21.52814 m 94.35223,-22.06013 -13.81885,3.20511 m 0,0 -4.46915,9.10314 m -79.65003,6.43001 -39.23108,-18.83054 m 0,0 -3.85604,14.08312 m 148.09996,-29.5494 -7.07481,15.55856 m -13.81885,3.20511 -13.41551,-16.80802 m 0,0 -13.94592,-4.91502 m 0,0 -25.29222,19.44349 m -31.46553,17.8127 -8.95644,-41.45655 m -103.26028,-1.17038 -4.87451,36.50482 m -1.50955,1.75414 -19.33974,1.40201 m 23.66872,47.71237 -23.66872,-12.46832 m 128.98408,-73.73464 -35.2399,4.9715 m 4.96526,17.65451 -4.96526,-17.65451 m -68.02038,-6.14188 -9.79642,-9.4534 m 48.36701,4.76059 -38.57059,4.69281 m 137.90423,24.42066 -18.1922,-30.93823 m 0,0 -16.45175,7.68795 m -51.2893,-0.85872 -21.21736,28.6455 m 21.21736,-28.6455 -13.40039,-5.00447 m 178.65897,13.02292 -17.45911,-26.04865 m 0,0 -16.85006,28.0043 m -114.90001,-4.14388 -9.25694,-6.68611 m 0,0 -6.79246,0.85589 m 148.18769,-20.07247 -0.38822,2.04227 m -81.40562,1.78052 -28.43637,-8.10224 m 32.31056,12.44572 -2.52699,5.07697 m 2.52699,-5.07697 -3.87419,-4.34348 m 88.20412,-8.54949 -6.41028,4.7267 m -62.97241,0.0235 -14.94724,8.14273 m 46.73545,16.96527 -13.38828,-25.527 m 0,0 -18.39993,0.419 m -18.82143,3.79925 -11.669,-18.72131 m 0,0 -16.76737,10.61906 m 116.64049,-0.44725 -1.52568,-10.62188 m -115.11481,11.06913 -23.85931,-1.4792 m 0,0 -7.30571,24.97524 m 158.46612,8.87433 6.32373,-10.13604 6.24121,10.13604 m -23.22555,-32.81762 16.98434,2.73434 16.82428,-2.73434 m -40.2189,4.72671 -34.63185,-10.24809 m 0,0 -9.94063,9.85263 m -48.89036,-14.50306 -2.57036,-5.43382 m 0,0 -37.51582,8.49676 m 0,0 -0.5405,6.07692 m 0.5405,-6.07692 -0.72704,-2.4754 m -27.31202,29.37898 -22.03716,-36.86826 m 0,0 -5.21535,-0.80975 m 0,0 -21.1145,32.91742 m 214.83969,-25.656 -11.43606,-18.311726 m -182.28913,11.050306 -8.74872,-7.819773 m 132.94904,-7.422428 -6.27717,1.056452 m 7.94503,36.819299 -7.94503,-36.819299 M 177.94452,110.56519 155.67744,89.180167 m 0,0 -27.0821,13.895743 M 271.97709,79.301224 255.35594,66.730267 m 0,0 -7.77563,20.293734 m -6.27717,1.056453 -9.49795,-4.753064 m 45.74926,1.860548 -29.97414,1.836063 m 29.97414,-1.836063 -5.57736,-5.886714 m 11.26664,7.078744 -5.655,28.248152 m 5.655,-28.248152 -5.68928,-1.19203 m -22.19851,-18.457671 -2.06113,-3.188169 m 0,0 -21.48962,19.785292 m 0,0 -9.08652,-2.653353 m 0,0 -6.53129,23.869833 m 89.48174,-13.327974 -16.90551,-8.575854 m 0,0 -5.51988,3.739926 m 6.29735,-6.012893 -0.77747,2.272967 m 28.34157,26.887578 23.5336,-22.952745 -34.96966,4.641021 m -82.95045,-10.541859 -5.74374,-6.478971 m 36.65063,-18.048087 -0.33075,7.395119 m -1.89576,-7.395119 -34.42412,18.048087 m 0,0 -8.93527,-7.055214 m 0,0 -30.09514,43.425378 M 271.97709,79.301224 259.28661,56.146979 M 114.63127,94.44643 86.33811,95.770284 m 15.92738,39.413336 -15.92738,-3.27103 M 289.54108,80.367075 286.05913,56.146979 m -78.01947,10.992873 -6.016,-10.992873 m -43.10024,0 -3.24598,33.033231 M 118.18985,56.146979 114.63127,94.44643 m 208.89427,174.5932 -1.93811,18.14883 0,1.81332 -47.52904,-13.21295 M 289.54108,80.367075 335.6017,56.146957 381.31771,80.367032 M 106.78304,239.8047 86.33811,247.197 m 8.787036,34.21491 -8.787036,7.21622 m 118.79943,-4.82368 -0.79057,9.79519 m 69.71142,-17.81081 -0.49209,17.81081"
         id="path4910"
         inkscape:connector-curvature="0" />
      <path
         inkscape:connector-curvature="0"
         id="path4912"
         d="m 347.5804,316.39849 1.92401,-25.0117 47.18339,18.26249 m 144.67141,4.00358 -2.08919,-16.80251 2.08919,-19.61994 m 0,36.42245 32.9605,-9.62666 m -109.21231,-2.39254 30.21463,10.7123 m 43.03904,7.53165 2.99814,-6.22475 m -46.03718,-1.3069 12.39096,8.89693 m -160.13259,-4.8444 9.91237,13.54643 m 98.29588,-15.00681 9.31875,-13.30445 m 42.60559,19.60923 8.04643,3.81055 m 0,0 4.64886,-28.2031 -4.64886,-32.49295 m 0,60.69605 1.11717,1.2118 m 0,0 21.48448,-6.38763 m -180.8683,10.06731 40.38127,-16.58582 m -1.18624,-3.70982 1.18624,3.70982 m 118.84838,14.48422 0.15417,-1.57808 m 21.48448,-6.38763 19.38329,14.55673 m 0,0 16.57535,-30.40814 m -221.84118,34.01154 5.01424,-8.09282 m -12.14471,11.07573 7.13047,-2.98291 m 45.39551,-24.67864 8.08746,8.36023 m 0,0 49.82715,-6.78122 m 0,0 8.99642,24.41312 m 0,0 4.48469,3.15805 m 0,0 38.44323,-21.26639 m -3.31747,27.57022 12.3269,-20.96979 m 41.02194,6.59102 5.00223,11.19908 m -3.20035,7.79434 3.20035,-7.79434 m -219.64288,19.02544 2.24435,-23.63821 m 123.9217,1.48863 17.83366,17.04907 m 0,0 17.2921,-10.74524 m 12.3269,-20.96979 32.22974,34.62826 m 0,0 10.59408,-9.04382 m -207.06771,-15.39002 26.74298,27.20677 m 107.77781,-0.37474 0.1041,-5.31142 m -107.88191,5.68616 25.3155,-8.0627 m 0,0 1.42449,-35.46248 m -62.85779,42.93953 31.85234,4.58923 m 0,0 4.26546,-4.00358 m 107.77781,-0.37474 42.48646,11.77532 m -124.94877,-19.46328 5.64791,5.6551 m 119.30086,13.80818 11.2708,-6.14 m -36.36106,-21.69198 36.36106,21.69198 m 0,0 4.31652,-0.71843 m 0,0 3.87906,-7.31508 m -138.76724,0.36533 20.6386,8.31221 m 0,0 33.96155,-31.79789 m -60.71455,44.6579 6.1144,-21.17222 m 73.73117,11.5098 3.08323,-9.47694 m -3.08323,9.47694 1.3414,2.8266 m 0,0 34.25786,11.83371 m 0,0 9.97043,-12.36193 m -184.13772,-35.62444 -9.73286,-2.76541 -9.84096,2.76541 m 192.83716,54.15273 0.90395,-6.16636 m -88.69183,-17.8579 11.82638,15.04635 m 0,0 41.26619,-11.84876 m -118.17268,19.16856 -29.32846,-18.13189 6.68876,-10.72452 m 22.6397,28.85641 9.21264,-24.26718 m 67.58974,25.60421 0.10411,-8.65683 m -63.98997,16.82687 25.41059,-19.01321 m 38.47527,10.84317 3.55973,3.32187 m 39.15197,-21.00086 3.62179,25.74828 m 0,0 29.73212,-7.74821 m -139.95147,7.84896 28.79213,5.39804 m -3.38154,-24.41125 3.38154,24.41125 m 111.15934,-13.247 8.36476,16.67056 m -161.23275,-18.32867 1.29135,11.08891 m 0,0 11.62517,-1.58184 m 166.41317,-33.23568 18.77064,32.75548 m -36.86758,9.3018 35.36901,-7.54766 m 0,0 1.49857,-1.75414 m -156.39168,5.87824 7.41676,7.56649 m 0,0 5.73601,0.39357 m 0,0 21.94096,-21.52814 m -93.66603,22.06013 13.71836,-3.20511 m 0,0 4.43664,-9.10314 m 79.07076,-6.43001 38.94576,18.83054 m 0,0 3.828,-14.08312 m -147.02287,29.5494 7.02335,-15.55856 m 0,0 -13.26456,-7.09946 -13.39854,7.09946 m 40.38146,-3.20511 13.31794,16.80802 m 0,0 13.84449,4.91502 m 0,0 25.10827,-19.44349 m 31.2367,-17.8127 8.8913,41.45655 m 102.50929,1.17038 4.83906,-36.50482 m 1.49857,-1.75414 19.1991,-1.40201 m -23.4966,-47.71237 23.4966,12.46832 m -128.04602,73.73464 34.98362,-4.9715 m -4.92916,-17.65451 4.92916,17.65451 m 67.52567,6.14188 9.72518,9.4534 m -48.01526,-4.76059 38.29008,-4.69281 m -136.90128,-24.42066 18.0599,30.93823 m 0,0 16.33209,-7.68795 m 50.91629,0.85872 21.06305,-28.6455 m -21.06305,28.6455 13.30292,5.00447 m -177.35962,-13.02292 17.33214,26.04865 m 0,0 16.72751,-28.0043 m 114.06438,4.14388 9.18961,6.68611 m 0,0 6.74306,-0.85589 m -147.10996,20.07247 0.3854,-2.04227 m 80.81358,-1.78052 28.22954,8.10224 m -32.07557,-12.44572 2.50863,-5.07697 m -2.50863,5.07697 3.84603,4.34348 m -87.56265,8.54949 6.36367,-4.7267 m 62.51442,-0.0235 14.83853,-8.14273 m -46.39555,-16.96527 13.29091,25.527 m 0,0 18.26611,-0.419 m 18.68456,-3.79925 11.58412,18.72131 m 0,0 16.64542,-10.61906 m -115.79219,0.44725 1.51459,10.62188 m 114.2776,-11.06913 23.68579,1.4792 m 0,0 7.25259,-24.97524 m -140.3669,19.21658 34.37998,10.24809 m 0,0 9.86833,-9.85263 m 48.53479,14.50306 2.55167,5.43382 m 0,0 37.24298,-8.49676 m 0,0 0.53656,-6.07692 m -0.53656,6.07692 0.72176,2.4754 m 27.11337,-29.37898 21.8769,36.86826 m 0,0 5.17742,0.80975 m 0,0 20.96094,-32.91742 m -213.27722,25.656 11.35288,18.31172 m 180.9634,-11.0503 8.68509,7.81977 m -131.98213,7.42243 6.23152,-1.05645 m -7.88726,-36.8193 7.88726,36.8193 m 62.89783,-22.48478 22.10513,21.38502 m 0,0 26.88514,-13.89574 m -142.33897,23.77473 16.50027,12.57095 m 0,0 7.71908,-20.29373 m 6.23152,-1.05645 9.42887,4.75306 m -45.41654,-1.86055 29.75615,-1.83606 m -29.75615,1.83606 5.5368,5.88672 m -11.18471,-7.07875 5.61388,-28.24815 m -5.61388,28.24815 5.64791,1.19203 m 22.03707,18.45767 2.04614,3.18817 m 0,0 21.33333,-19.78529 m 0,0 9.02044,2.65335 m 0,0 6.48378,-23.86983 m -88.83097,13.32797 16.78257,8.57586 m 0,0 5.47973,-3.73993 m -6.25154,6.0129 0.77181,-2.27297 m -16.78257,-8.57586 -29.22504,4.641 17.87216,-22.95272 m 93.70007,28.85358 5.70196,6.47897 m -36.38408,18.04809 0.32835,-7.39512 m 1.88197,7.39512 34.17376,-18.04809 m 0,0 8.87029,7.05522 m 0,0 29.87627,-43.42538 m -93.3487,31.26401 12.59818,23.15424 m 143.6033,-38.29945 28.0874,-1.32385 m -15.81155,-39.41334 15.81155,3.27103 m -201.72513,51.54552 3.45662,24.22009 m 77.45206,-10.99287 5.97225,10.99287 m 42.78678,0 3.22237,-33.03323 m 37.21495,33.03323 3.5327,-38.29945 m 7.79115,-145.35827 20.29625,-7.3923 m -8.72313,-34.21491 6.29674,-16.4365 m -115.50905,14.04395 0.78482,-9.79518 m -69.20442,17.8108 0.48851,-17.8108"
         style="fill:none;stroke:#ffffff;stroke-width:4.85277557;stroke-miterlimit:4;stroke-dasharray:none"
         sodipodi:nodetypes="ccccccccccccccccccccccccccccccccccccccccccccccccccccccccccccccccccccccccccccccccccccccccccccccccccccccccccccccccccccccccccccccccccccccccccccccccccccccccccccccccccccccccccccccccccccccccccccccccccccccccccccccccccccccccccccccccccccccccccccccccccccccccccccccccccccccccccccccccccccccccccccccccccccccccccccccccccccccccccccccccc" />
      <path
         inkscape:connector-curvature="0"
         id="path4914"
         d="m 174.70156,312.34596 -15.77613,-20.50749 m -28.49383,0 -2.10449,21.81439 m 0,0 -33.201964,-9.62666 m 110.012394,-2.39254 -30.43598,10.7123 m -43.35435,7.53165 -3.0201,-6.22475 m 46.37445,-1.3069 -12.48174,8.89693 m 161.30572,-4.8444 -9.98499,13.54643 m -99.01599,-15.00681 -9.38702,-13.30445 m -42.91772,19.60923 -8.10537,3.81055 m 0,0 -4.68292,-33.21497 m 4.68292,33.21497 -1.12536,1.2118 m 0,0 -21.64188,-6.38763 m 182.19334,10.06731 -40.6771,-16.58582 m 1.19494,-3.70982 -1.19494,3.70982 m -119.71907,14.48422 -0.15529,-1.57808 m -21.64188,-6.38763 -19.52529,14.55673 m 0,0 -16.696774,-30.40814 m 223.466384,34.01154 -5.05098,-8.09282 m 12.23369,11.07573 -7.18271,-2.98291 m -45.72808,-24.67864 -8.14671,8.36023 m 0,0 -50.19218,-6.78122 m 0,0 -9.06232,24.41312 m 0,0 -4.51755,3.15805 m 0,0 -38.72487,-21.26639 m 3.34178,27.57022 -12.41722,-20.96979 m -41.32246,6.59102 -5.03888,11.19908 m 3.22379,7.79434 -3.22379,-7.79434 m 221.25198,19.02544 -2.26078,-23.63821 m -124.82955,1.48863 -17.96432,17.04907 m 0,0 -17.41877,-10.74524 m -12.41722,-20.96979 -32.46585,34.62826 m 0,0 -10.6717,-9.04382 m 208.5847,-15.39002 -26.9389,27.20677 m -108.56738,-0.37474 -0.10488,-5.31142 m 108.67226,5.68616 -25.50096,-8.0627 m 0,0 -1.43493,-35.46248 m 63.31828,42.93953 -32.08568,4.58923 m 0,0 -4.29671,-4.00358 m -108.56738,-0.37474 -42.79772,11.77532 m 125.86414,-19.46328 -5.68929,5.6551 m -120.17485,13.80818 -11.35338,-6.14 m 36.62745,-21.69198 -36.62745,21.69198 m 199.10087,-5.84623 6.78043,10.72452 -29.58598,18.13189 m -176.29532,-23.01018 -4.34814,-0.71843 m 0,0 -3.90748,-7.31508 m 139.78385,0.36533 -20.7898,8.31221 m 0,0 -34.21034,-31.79789 m 61.15934,44.6579 -6.1592,-21.17222 m -74.27132,11.5098 -3.10581,-9.47694 m 3.10581,9.47694 -1.35124,2.8266 m 0,0 -34.50882,11.83371 m 0,0 -10.04347,-12.36193 m 183.23801,-60.2466 12.08966,1.42367 11.9652,-1.42367 m -196.33883,78.77489 -0.91057,-6.16636 m 89.34158,-17.8579 -11.91302,15.04635 m 0,0 -41.5685,-11.84876 m 119.03841,19.16856 -9.28013,-24.26718 m -68.08491,25.60421 -0.10487,-8.65683 m 64.45877,16.82687 -25.59675,-19.01321 m -38.75715,10.84317 -3.5858,3.32187 m -39.43881,-21.00086 -3.64831,25.74828 m 0,0 -29.94994,-7.74821 m 140.97676,7.84896 -29.00307,5.39804 m 3.40632,-24.41125 -3.40632,24.41125 m -111.97369,-13.247 -8.42604,16.67056 m 162.41394,-18.32867 -1.30081,11.08891 m 0,0 -11.71033,-1.58184 m -167.63232,-33.23568 -18.90816,32.75548 m 37.13768,9.3018 -35.62813,-7.54766 m 0,0 -1.50955,-1.75414 m 157.53741,5.87824 -7.4711,7.56649 m 0,0 -5.77802,0.39357 m 0,0 -22.10171,-21.52814 m 94.35223,22.06013 -13.81885,-3.20511 m 0,0 -4.46915,-9.10314 m -79.65003,-6.43001 -39.23108,18.83054 m 0,0 -3.85604,-14.08312 m 148.09996,29.5494 -7.07481,-15.55856 m -13.81885,-3.20511 -13.41551,16.80802 m 0,0 -13.94592,4.91502 m 0,0 -25.29222,-19.44349 m -31.46553,-17.8127 -8.95644,41.45655 m -103.26028,1.17038 -4.87451,-36.50482 m -1.50955,-1.75414 -19.33974,-1.40201 m 23.66872,-47.71237 -23.66872,12.46832 m 128.98408,73.73464 -35.2399,-4.9715 m 4.96526,-17.65451 -4.96526,17.65451 m -68.02038,6.14188 -9.79642,9.4534 m 48.36701,-4.76059 -38.57059,-4.69281 m 137.90423,-24.42066 -18.1922,30.93823 m 0,0 -16.45175,-7.68795 m -51.2893,0.85872 -21.21736,-28.6455 m 21.21736,28.6455 -13.40039,5.00447 m 178.65897,-13.02292 -17.45911,26.04865 m 0,0 -16.85006,-28.0043 m -114.90001,4.14388 -9.25694,6.68611 m 0,0 -6.79246,-0.85589 m 148.18769,20.07247 -0.38822,-2.04227 m -81.40562,-1.78052 -28.43637,8.10224 m 32.31056,-12.44572 -2.52699,-5.07697 m 2.52699,5.07697 -3.87419,4.34348 m 88.20412,8.54949 -6.41028,-4.7267 m -62.97241,-0.0235 -14.94724,-8.14273 m 46.73545,-16.96527 -13.38828,25.527 m 0,0 -18.39993,-0.419 m -18.82143,-3.79925 -11.669,18.72131 m 0,0 -16.76737,-10.61906 m 116.64049,0.44725 -1.52568,10.62188 m -115.11481,-11.06913 -23.85931,1.4792 m 0,0 -7.30571,-24.97524 m 158.46612,-8.87433 6.32373,10.13604 6.24121,-10.13604 m -23.22555,32.81762 16.98434,-2.73434 16.82428,2.73434 m -40.2189,-4.72671 -34.63185,10.24809 m 0,0 -9.94063,-9.85263 m -48.89036,14.50306 -2.57036,5.43382 m 0,0 -37.51582,-8.49676 m 0,0 -0.5405,-6.07692 m 0.5405,6.07692 -0.72704,2.4754 m -27.31202,-29.37898 -22.03716,36.86826 m 0,0 -5.21535,0.80975 m 0,0 -21.1145,-32.91742 m 214.83969,25.656 -11.43606,18.31172 m -182.28913,-11.0503 -8.74872,7.81977 m 132.94904,7.42243 -6.27717,-1.05645 m 7.94503,-36.8193 -7.94503,36.8193 m -63.35862,-22.48478 -22.26708,21.38502 m 0,0 -27.0821,-13.89574 m 143.38175,23.77468 -16.62115,12.57096 m 0,0 -7.77563,-20.29373 m -6.27717,-1.05646 -9.49795,4.75307 m 45.74926,-1.86055 -29.97414,-1.83606 m 29.97414,1.83606 -5.57736,5.88671 m 11.26664,-7.07874 -5.655,-28.24815 m 5.655,28.24815 -5.68928,1.19203 m -22.19851,18.45767 -2.06113,3.18817 m 0,0 -21.48962,-19.78529 m 0,0 -9.08652,2.65335 m 0,0 -6.53129,-23.86983 m 89.48174,13.32797 -16.90551,8.57586 m 0,0 -5.51988,-3.73993 m 6.29735,6.01289 -0.77747,-2.27296 m 28.34157,-26.88758 18.04331,22.95276 -29.47937,-4.64104 m -82.95045,10.54186 -5.74374,6.47897 m 36.65063,18.04809 -0.33075,-7.39512 m -1.89576,7.39512 -34.42412,-18.04809 m 0,0 -8.93527,7.05522 m 0,0 -30.09514,-43.42538 m 94.03257,31.264 -12.69048,23.15425 M 114.63127,490.99169 86.33811,489.66783 m 15.92738,-39.41333 -15.92738,3.27103 m 203.20297,51.54551 -3.48195,24.2201 m -78.01947,-10.99287 -6.016,10.99287 m -43.10024,0 -3.24598,-33.03323 m -37.48759,33.03323 -3.55858,-38.29945 m 208.89427,-174.5932 -1.93811,-25.0117 0,-1.81332 -47.52904,20.07581 m 15.48269,195.42176 46.06062,24.22012 45.71601,-24.22007 M 106.78304,345.63342 86.33811,338.24112 m 8.787036,-34.21492 -8.787036,-7.21622 m 118.79943,4.82368 -0.79057,-9.79519 m 69.71142,17.81081 -0.49209,-17.81081"
         style="fill:none;stroke:#ffffff;stroke-width:4.85277557;stroke-miterlimit:4;stroke-dasharray:none"
         sodipodi:nodetypes="cccccccccccccccccccccccccccccccccccccccccccccccccccccccccccccccccccccccccccccccccccccccccccccccccccccccccccccccccccccccccccccccccccccccccccccccccccccccccccccccccccccccccccccccccccccccccccccccccccccccccccccccccccccccccccccccccccccccccccccccccccccccccccccccccccccccccccccccccccccccccccccccccccccccccccccccccccccccccccccccccccccccc" />
    </g>
  </g>
</svg>
