<?xml version="1.0" encoding="UTF-8" standalone="no"?>
<!-- Created with Inkscape (http://www.inkscape.org/) -->

<svg
   xmlns:dc="http://purl.org/dc/elements/1.1/"
   xmlns:cc="http://creativecommons.org/ns#"
   xmlns:rdf="http://www.w3.org/1999/02/22-rdf-syntax-ns#"
   xmlns:svg="http://www.w3.org/2000/svg"
   xmlns="http://www.w3.org/2000/svg"
   xmlns:sodipodi="http://sodipodi.sourceforge.net/DTD/sodipodi-0.dtd"
   xmlns:inkscape="http://www.inkscape.org/namespaces/inkscape"
   width="141.14249mm"
   height="141.09447mm"
   viewBox="0 0 500.11117 499.94102"
   id="svg2"
   version="1.1"
   inkscape:version="0.91 r13725"
   sodipodi:docname="Water.svg"
   inkscape:export-filename="C:\Users\vg\SuriAlFuturo\SuriAlFuturo\Assets\Sprites\Water.png"
   inkscape:export-xdpi="90"
   inkscape:export-ydpi="90">
  <sodipodi:namedview
     id="base"
     pagecolor="#ffffff"
     bordercolor="#666666"
     borderopacity="1.0"
     inkscape:pageopacity="0.0"
     inkscape:pageshadow="2"
     inkscape:zoom="0.35"
     inkscape:cx="375"
     inkscape:cy="520"
     inkscape:document-units="px"
     inkscape:current-layer="layer1"
     showgrid="false"
     inkscape:window-width="1366"
     inkscape:window-height="715"
     inkscape:window-x="-8"
     inkscape:window-y="-8"
     inkscape:window-maximized="1"
     fit-margin-top="0"
     fit-margin-left="0"
     fit-margin-right="0"
     fit-margin-bottom="0" />
  <defs
     id="defs4">
    <pattern
       patternUnits="userSpaceOnUse"
       patternTransform="translate(139.60255,85.710846)"
       height="252.1871"
       width="252.1871"
       id="Voronoi4213">
      <path
         id="path4221"
         d="M 16.971,26.084 18.893,6.809 M 164.558,21.780 180.203,0.000 M 208.460,0.000 210.547,23.168 M 210.547,23.168 243.473,12.944 M 134.375,10.403 164.558,21.780 M 207.552,29.779 210.547,23.168 M 164.558,21.780 176.936,31.229 M 18.893,6.809 66.027,18.916 M 16.971,26.084 26.873,40.471 M 125.066,24.533 134.375,10.403 M 176.936,31.229 184.974,35.276 M 184.974,35.276 189.618,0.000 M 184.974,35.276 186.090,36.563 M 186.090,36.563 207.552,29.779 M 26.873,40.471 67.212,22.856 M 66.027,18.916 67.212,22.856 M 185.936,38.239 186.090,36.563 M 207.552,29.779 226.915,45.239 M 226.915,45.239 243.473,12.944 M 21.864,49.066 26.873,40.471 M 14.741,52.234 21.864,49.066 M 67.212,22.856 75.291,31.735 M 75.291,31.735 125.066,24.533 M 125.066,24.533 134.053,50.461 M 134.053,50.461 138.533,53.815 M 138.533,53.815 176.936,31.229 M 173.622,60.510 185.936,38.239 M 226.915,45.239 231.912,57.133 M 228.715,65.411 231.912,57.133 M 12.499,77.339 14.741,52.234 M 138.533,53.815 156.348,71.922 M 156.348,71.922 173.622,60.510 M 185.936,38.239 218.132,75.016 M 218.132,75.016 228.715,65.411 M 21.864,49.066 48.579,77.961 M 156.244,77.563 156.348,71.922 M 48.579,77.961 73.868,69.398 M 73.868,69.398 75.291,31.735 M 12.499,77.339 44.318,82.213 M 44.318,82.213 48.579,77.961 M 156.244,77.563 198.686,90.069 M 73.868,69.398 79.510,75.404 M 198.686,90.069 209.945,83.548 M 173.622,60.510 209.945,83.548 M 0.000,87.680 12.499,77.339 M 209.945,83.548 214.257,82.785 M 214.257,82.785 218.132,75.016 M 79.510,75.404 100.127,84.232 M 100.127,84.232 134.053,50.461 M 73.402,97.890 79.510,75.404 M 153.164,87.628 156.244,77.563 M 153.164,87.628 154.504,90.630 M 154.504,90.630 188.726,103.198 M 188.726,103.198 198.686,90.069 M 0.000,27.596 16.971,26.084 M 0.000,49.297 14.741,52.234 M 187.823,109.747 188.726,103.198 M 100.127,84.232 111.941,100.212 M 111.941,100.212 153.164,87.628 M 0.000,89.778 35.115,107.986 M 35.115,107.986 44.318,82.213 M 111.837,109.406 111.941,100.212 M 48.018,118.083 73.402,97.890 M 111.837,109.406 115.393,112.934 M 154.504,90.630 158.122,117.976 M 158.122,117.976 187.823,109.747 M 48.018,118.083 76.780,123.816 M 73.402,97.890 76.780,123.816 M 187.823,109.747 196.179,127.452 M 35.115,107.986 36.405,119.763 M 36.405,119.763 48.018,118.083 M 214.257,82.785 233.008,117.573 M 196.179,127.452 231.511,119.436 M 231.511,119.436 233.008,117.573 M 76.780,123.816 84.189,131.852 M 84.189,131.852 89.919,132.270 M 89.919,132.270 111.837,109.406 M 18.269,132.835 31.973,129.431 M 31.973,129.431 36.405,119.763 M 115.393,112.934 154.298,132.933 M 154.298,132.933 158.122,117.976 M 11.253,149.359 18.269,132.835 M 0.000,125.295 18.269,132.835 M 31.973,129.431 45.277,147.282 M 45.277,147.282 59.107,152.502 M 59.107,152.502 84.189,131.852 M 115.393,112.934 124.275,156.963 M 226.677,158.206 231.511,119.436 M 233.008,117.573 252.187,116.084 M 228.715,65.411 252.187,78.653 M 124.275,156.963 159.222,151.683 M 154.298,132.933 159.222,151.683 M 226.677,158.206 236.392,168.246 M 188.427,163.190 226.677,158.206 M 89.919,132.270 107.960,165.128 M 107.960,165.128 124.275,156.963 M 175.138,157.875 196.179,127.452 M 175.138,157.875 188.427,163.190 M 11.253,149.359 28.567,177.024 M 28.567,177.024 45.277,147.282 M 159.222,151.683 168.402,158.784 M 168.402,158.784 175.138,157.875 M 28.182,179.193 28.567,177.024 M 109.296,175.133 137.496,183.738 M 105.454,170.520 107.960,165.128 M 105.454,170.520 109.296,175.133 M 21.825,184.213 28.182,179.193 M 90.631,179.168 105.454,170.520 M 59.107,152.502 72.384,179.613 M 72.384,179.613 90.631,179.168 M 109.296,175.133 120.868,195.016 M 120.868,195.016 137.496,183.738 M 21.825,184.213 23.338,195.494 M 137.496,183.738 161.157,185.309 M 161.157,185.309 168.402,158.784 M 0.000,160.124 11.253,149.359 M 0.000,181.309 21.825,184.213 M 28.182,179.193 62.526,190.077 M 62.526,190.077 72.384,179.613 M 120.868,195.016 123.417,200.787 M 123.417,200.787 160.621,191.763 M 160.621,191.763 161.157,185.309 M 160.621,191.763 161.342,194.392 M 188.427,163.190 210.281,202.346 M 210.281,202.346 215.453,203.206 M 215.453,203.206 236.392,168.246 M 23.338,195.494 34.679,214.942 M 215.453,203.206 224.129,211.511 M 92.285,219.394 98.510,218.272 M 90.631,179.168 98.510,218.272 M 161.342,194.392 183.424,217.104 M 183.424,217.104 210.281,202.346 M 68.091,227.596 84.574,240.947 M 84.574,240.947 92.285,219.394 M 98.510,218.272 107.929,223.320 M 62.560,221.344 92.285,219.394 M 62.560,221.344 68.091,227.596 M 56.918,220.078 62.526,190.077 M 56.918,220.078 62.560,221.344 M 84.574,240.947 86.618,244.333 M 86.618,244.333 107.929,223.320 M 107.929,223.320 116.940,226.138 M 116.940,226.138 123.417,200.787 M 34.679,214.942 51.444,224.050 M 51.444,224.050 56.918,220.078 M 50.673,226.464 51.444,224.050 M 0.000,216.443 23.338,195.494 M 0.000,223.299 34.679,214.942 M 116.940,226.138 122.636,233.019 M 86.290,252.187 86.618,244.333 M 88.498,252.187 122.636,233.019 M 122.636,233.019 131.497,240.512 M 131.497,240.512 161.342,194.392 M 68.091,227.596 80.676,252.187 M 224.129,211.511 252.187,210.105 M 236.392,168.246 252.187,171.720 M 50.673,226.464 54.126,252.187 M 131.497,240.512 137.463,252.187 M 180.205,252.187 183.424,217.104 M 220.600,252.187 224.129,211.511 M 13.229,0.000 18.893,6.809 M 0.000,221.139 0.000,221.139 M 3.683,252.187 50.673,226.464 M 231.912,57.133 252.187,49.282 M 243.473,12.944 252.187,5.280 M 134.375,10.403 135.159,0.000 M 66.027,18.916 66.515,0.000 "
         style="stroke:#000000" />
    </pattern>
    <filter
       inkscape:collect="always"
       style="color-interpolation-filters:sRGB"
       id="filter5019"
       x="-0.035958146"
       width="1.0719163"
       y="-0.036041951"
       height="1.0720839">
      <feGaussianBlur
         inkscape:collect="always"
         stdDeviation="7.4419089"
         id="feGaussianBlur5021" />
    </filter>
  </defs>
  <metadata
     id="metadata7">
    <rdf:RDF>
      <cc:Work
         rdf:about="">
        <dc:format>image/svg+xml</dc:format>
        <dc:type
           rdf:resource="http://purl.org/dc/dcmitype/StillImage" />
        <dc:title></dc:title>
      </cc:Work>
    </rdf:RDF>
  </metadata>
  <g
     inkscape:label="Layer 1"
     inkscape:groupmode="layer"
     id="layer1"
     transform="translate(-84.638233,-53.920924)">
    <rect
       style="color:#000000;clip-rule:nonzero;display:inline;overflow:visible;visibility:visible;opacity:1;isolation:auto;mix-blend-mode:normal;color-interpolation:sRGB;color-interpolation-filters:linearRGB;solid-color:#000000;solid-opacity:1;fill:#71b5f5;fill-opacity:1;fill-rule:nonzero;stroke:none;stroke-width:1;stroke-linecap:round;stroke-linejoin:round;stroke-miterlimit:4;stroke-dasharray:none;stroke-dashoffset:0;stroke-opacity:1;marker:none;color-rendering:auto;image-rendering:auto;shape-rendering:auto;text-rendering:auto;enable-background:accumulate"
       id="rect4981"
       width="607.94305"
       height="571.40228"
       x="7.8813438"
       y="14.328286" />
    <path
       style="color:#000000;clip-rule:nonzero;display:inline;overflow:visible;visibility:visible;opacity:1;isolation:auto;mix-blend-mode:normal;color-interpolation:sRGB;color-interpolation-filters:linearRGB;solid-color:#000000;solid-opacity:1;fill:none;fill-opacity:1;fill-rule:nonzero;stroke:none;stroke-width:10;stroke-linecap:round;stroke-linejoin:round;stroke-miterlimit:4;stroke-dasharray:none;stroke-dashoffset:0;stroke-opacity:1;marker:none;color-rendering:auto;image-rendering:auto;shape-rendering:auto;text-rendering:auto;enable-background:accumulate"
       d="m 335.336,304.50974 242.1871,0 0,242.1871 -242.1871,0 z"
       id="rect4136"
       inkscape:connector-curvature="0" />
    <g
       inkscape:label="Voronoi"
       id="g4144" />
    <path
       style="color:#000000;clip-rule:nonzero;display:inline;overflow:visible;visibility:visible;opacity:1;isolation:auto;mix-blend-mode:normal;color-interpolation:sRGB;color-interpolation-filters:linearRGB;solid-color:#000000;solid-opacity:1;fill:none;fill-opacity:1;fill-rule:nonzero;stroke:none;stroke-width:10;stroke-linecap:round;stroke-linejoin:round;stroke-miterlimit:4;stroke-dasharray:none;stroke-dashoffset:0;stroke-opacity:1;marker:none;color-rendering:auto;image-rendering:auto;shape-rendering:auto;text-rendering:auto;enable-background:accumulate"
       d="m 335.33594,90.023438 0,214.486332 242.1875,0 0,-214.486332 -242.1875,0 z"
       id="rect4952"
       inkscape:connector-curvature="0" />
    <path
       transform="scale(-1,1)"
       style="color:#000000;clip-rule:nonzero;display:inline;overflow:visible;visibility:visible;opacity:1;isolation:auto;mix-blend-mode:normal;color-interpolation:sRGB;color-interpolation-filters:linearRGB;solid-color:#000000;solid-opacity:1;fill:none;fill-opacity:1;fill-rule:nonzero;stroke:none;stroke-width:10;stroke-linecap:round;stroke-linejoin:round;stroke-miterlimit:4;stroke-dasharray:none;stroke-dashoffset:0;stroke-opacity:1;marker:none;color-rendering:auto;image-rendering:auto;shape-rendering:auto;text-rendering:auto;enable-background:accumulate"
       d="m -335.336,304.50974 243.961366,0 0,242.1871 -243.961366,0 z"
       id="rect4956"
       inkscape:connector-curvature="0" />
    <path
       transform="scale(-1,-1)"
       style="color:#000000;clip-rule:nonzero;display:inline;overflow:visible;visibility:visible;opacity:1;isolation:auto;mix-blend-mode:normal;color-interpolation:sRGB;color-interpolation-filters:linearRGB;solid-color:#000000;solid-opacity:1;fill:none;fill-opacity:1;fill-rule:nonzero;stroke:none;stroke-width:10;stroke-linecap:round;stroke-linejoin:round;stroke-miterlimit:4;stroke-dasharray:none;stroke-dashoffset:0;stroke-opacity:1;marker:none;color-rendering:auto;image-rendering:auto;shape-rendering:auto;text-rendering:auto;enable-background:accumulate"
       d="m -335.336,-304.50967 243.961366,0 0,214.485271 -243.961366,0 z"
       id="rect4958"
       inkscape:connector-curvature="0" />
    <g
       id="g4987">
      <path
         inkscape:connector-curvature="0"
         id="path4973"
         d="m 347.5804,269.03963 1.92401,18.14883 m 145.81762,-14.0963 15.66139,20.50748 m 28.2866,0 2.08919,-21.81438 m 0,0 32.9605,9.62665 m -109.21231,2.39254 30.21463,-10.71229 m 43.03904,-7.53165 2.99814,6.22475 m -46.03718,1.3069 12.39096,-8.89693 m -158.20858,22.99323 47.18339,-11.39963 m -49.1074,-6.7492 9.91237,-13.54643 m 98.29588,15.00681 9.31875,13.30444 m 42.60559,-19.60922 8.04643,-3.81055 m 0,0 4.64886,33.21496 m -4.64886,-33.21496 1.11717,-1.2118 m 0,0 21.48448,6.38763 m -180.8683,-10.06731 40.38127,16.58582 m -1.18624,3.70981 1.18624,-3.70981 m 118.84838,-14.48422 0.15417,1.57808 m 21.48448,6.38763 19.38329,-14.55673 m 0,0 16.57535,30.40813 m -221.84118,-34.01153 5.01424,8.09282 m -12.14471,-11.07573 7.13047,2.98291 m 45.39551,24.67864 8.08746,-8.36023 m 0,0 49.82715,6.78122 m 0,0 8.99642,-24.41312 m 0,0 4.48469,-3.15805 m 0,0 38.44323,21.26639 m -3.31747,-27.57022 12.3269,20.96979 m 41.02194,-6.59102 5.00223,-11.19908 m -3.20035,-7.79434 3.20035,7.79434 m -219.64288,-19.02544 2.24435,23.63821 m 123.9217,-1.48863 17.83366,-17.04907 m 0,0 17.2921,10.74524 m 12.3269,20.96979 32.22974,-34.62826 m 0,0 10.59408,9.04382 m -207.06771,15.39002 26.74298,-27.20677 m 107.77781,0.37474 0.1041,5.31142 m -107.88191,-5.68616 25.3155,8.0627 m 0,0 1.42449,35.46248 m -62.85779,-42.93953 31.85234,-4.58923 m 0,0 4.26546,4.00358 m 107.77781,0.37474 42.48646,-11.77532 m -124.94877,19.46328 5.64791,-5.6551 m 119.30086,-13.80818 11.2708,6.14 m -36.36106,21.69198 36.36106,-21.69198 m -210.16496,-3.89058 12.51209,9.73681 m 197.65287,-5.84623 4.31652,0.71843 m 0,0 3.87906,7.31508 m -138.76724,-0.36533 20.6386,-8.31221 m 0,0 33.96155,31.79789 m -60.71455,-44.6579 6.1144,21.17222 m 73.73117,-11.5098 3.08323,9.47694 m -3.08323,-9.47694 1.3414,-2.8266 m 0,0 34.25786,-11.83371 m 0,0 9.97043,12.36193 m -198.89416,58.82293 16.98878,1.42367 m -16.98878,-21.85675 14.75644,-2.76541 m 173.26334,-54.15273 0.90395,6.16636 m -88.69183,17.8579 11.82638,-15.04635 m 0,0 41.26619,11.84876 m -153.32447,-2.02438 35.15179,-17.14418 m 0,0 9.21264,24.26718 m 67.58974,-25.60421 0.10411,8.65683 m -63.98997,-16.82687 25.41059,19.01321 m 38.47527,-10.84317 3.55973,-3.32187 m 39.15197,21.00086 3.62179,-25.74828 m 0,0 29.73212,7.74821 m -139.95147,-7.84896 28.79213,-5.39804 m -3.38154,24.41125 3.38154,-24.41125 m 111.15934,13.247 8.36476,-16.67056 m -161.23275,18.32867 1.29135,-11.08891 m 0,0 11.62517,1.58184 m 166.41317,33.23568 18.77064,-32.75548 m -36.86758,-9.3018 35.36901,7.54766 m 0,0 1.49857,1.75414 m -156.39168,-5.87824 7.41676,-7.56649 m 0,0 5.73601,-0.39357 m 0,0 21.94096,21.52814 m -93.66603,-22.06013 13.71836,3.20511 m 0,0 4.43664,9.10314 m 79.07076,6.43001 38.94576,-18.83054 m 0,0 3.828,14.08312 m -147.02287,-29.5494 7.02335,15.55856 m -18.28814,7.09946 18.28814,-7.09946 m 13.71836,3.20511 13.31794,-16.80802 m 0,0 13.84449,-4.91502 m 0,0 25.10827,19.44349 m 31.2367,17.8127 8.8913,-41.45655 m 102.50929,-1.17038 4.83906,36.50482 m 1.49857,1.75414 19.1991,1.40201 m -23.4966,47.71237 23.4966,-12.46832 m -128.04602,-73.73464 34.98362,4.9715 m -4.92916,17.65451 4.92916,-17.65451 m 67.52567,-6.14188 9.72518,-9.4534 m -48.01526,4.76059 38.29008,4.69281 m -136.90128,24.42066 18.0599,-30.93823 m 0,0 16.33209,7.68795 m 50.91629,-0.85872 21.06305,28.6455 m -21.06305,-28.6455 13.30292,-5.00447 m -177.35962,13.02292 17.33214,-26.04865 m 0,0 16.72751,28.0043 m 114.06438,-4.14388 9.18961,-6.68611 m 0,0 6.74306,0.85589 m -147.10996,-20.07247 0.3854,2.04227 m 80.81358,1.78052 28.22954,-8.10224 m -32.07557,12.44572 2.50863,5.07697 m -2.50863,-5.07697 3.84603,-4.34348 m -87.56265,-8.54949 6.36367,4.7267 m 62.51442,0.0235 14.83853,8.14273 m -46.39555,16.96527 13.29091,-25.527 m 0,0 18.26611,0.419 m 18.68456,3.79925 11.58412,-18.72131 m 0,0 16.64542,10.61906 m -115.79219,-0.44725 1.51459,-10.62188 m 114.2776,11.06913 23.68579,-1.4792 m 0,0 7.25259,24.97524 m -168.57843,-1.26171 11.26479,10.13604 m -11.26479,-30.08328 21.84786,-2.73434 m 6.36367,4.72671 34.37998,-10.24809 m 0,0 9.86833,9.85263 m 48.53479,-14.50306 2.55167,-5.43382 m 0,0 37.24298,8.49676 m 0,0 0.53656,6.07692 m -0.53656,-6.07692 0.72176,-2.4754 m 27.11337,29.37898 21.8769,-36.86826 m 0,0 5.17742,-0.80975 m 0,0 20.96094,32.91742 m -213.27722,-25.656 11.35288,-18.311726 m 180.9634,11.050306 8.68509,-7.819773 m -131.98213,-7.422428 6.23152,1.056452 m -7.88726,36.819299 7.88726,-36.819299 m 62.89783,22.484779 22.10513,-21.385023 m 0,0 26.88514,13.895743 M 398.75396,79.301181 415.25423,66.730225 m 0,0 7.71908,20.293734 m 6.23152,1.056452 9.42887,-4.753064 m -45.41654,1.860549 29.75615,1.836063 m -29.75615,-1.836063 5.5368,-5.886715 m -11.18471,7.078744 5.61388,28.248155 m -5.61388,-28.248155 5.64791,-1.192029 m 22.03707,-18.457671 2.04614,-3.188169 m 0,0 21.33333,19.785291 m 0,0 9.02044,-2.653353 m 0,0 6.48378,23.869836 M 365.30695,91.215854 382.08952,82.64 m 0,0 5.47973,3.739925 m -6.25154,-6.012893 0.77181,2.272968 m -51.4979,7.162544 23.36245,19.725036 m -23.36245,-26.180458 34.71533,7.868732 m 82.34719,-10.54186 5.70196,-6.478971 m -36.38408,-18.048087 0.32835,7.39512 m 1.88197,-7.39512 34.17376,18.048087 m 0,0 8.87029,-7.055213 m 0,0 29.87627,43.42538 m -93.3487,-31.264009 12.59818,-23.154245 m 143.6033,38.299451 28.0874,1.323854 m -15.81155,39.413339 15.81155,-3.27103 M 381.31771,80.367032 384.77433,56.146936 m 77.45206,10.992874 5.97225,-10.992874 m 42.78678,0 3.22237,33.033231 m 37.21495,-33.033231 3.5327,38.299451 m -211.12096,199.153203 5.66993,-6.41117 m -18.91279,-201.807504 0,0 m 3.68686,-29.23398 47.03923,24.220096 m 181.42888,159.437628 20.29625,7.3923 m -8.72313,34.2149 8.72313,7.21623 m -117.93544,-4.82368 0.78482,9.79518 m -69.20442,-17.8108 0.48851,17.8108"
         style="stroke:#ffffff;stroke-width:5;stroke-miterlimit:4;stroke-dasharray:none" />
      <path
         inkscape:connector-curvature="0"
         id="path4975"
         d="m 347.5804,311.30794 1.92401,-20.49284 m 145.81762,15.9169 15.66139,-23.15611 m 28.2866,0 2.08919,24.63181 m 0,0 32.9605,-10.86998 M 465.1074,294.63618 495.32203,306.732 m 43.03904,8.5044 2.99814,-7.0287 m -46.03718,-1.4757 12.39096,10.04602 M 349.50441,290.8151 396.6878,303.68705 m -49.1074,7.62089 9.91237,15.29601 m 98.29588,-16.945 9.31875,-15.02277 m 42.60559,22.14184 8.04643,4.3027 m 0,0 4.64886,-37.50483 m -4.64886,37.50483 1.11717,1.36831 m 0,0 21.48448,-7.21263 m -180.8683,11.36755 40.38127,-18.72796 m -1.18624,-4.18894 1.18624,4.18894 m 118.84838,16.35494 0.15417,-1.7819 m 21.48448,-7.21263 19.38329,16.4368 m 0,0 16.57535,-34.33548 m -221.84118,38.40428 5.01424,-9.13805 m -12.14471,12.50622 7.13047,-3.36817 m 45.39551,-27.86601 8.08746,9.44 m 0,0 49.82715,-7.65704 m 0,0 8.99642,27.56619 m 0,0 4.48469,3.56592 m 0,0 38.44323,-24.01304 m -3.31747,31.13105 12.3269,-23.67814 m 41.02194,7.44227 5.00223,12.6455 m -3.20035,8.80102 3.20035,-8.80102 m -219.64288,21.48267 2.24435,-26.6912 m 123.9217,1.68089 17.83366,19.25105 m 0,0 17.2921,-12.13304 m 12.3269,-23.67814 32.22974,39.10066 m 0,0 10.59408,-10.21187 M 352.47853,335.742 l 26.74298,30.72067 m 107.77781,-0.42315 0.1041,-5.99741 m -107.88191,6.42056 25.3155,-9.10404 m 0,0 1.42449,-40.04264 m -62.85779,48.48538 31.85234,5.18195 m 0,0 4.26546,-4.52065 m 107.77781,-0.42315 42.48646,13.29616 m -124.94877,-21.97705 5.64791,6.38548 m 119.30086,15.59157 11.2708,-6.93301 m -36.36106,-24.4936 36.36106,24.4936 m -210.16496,4.39307 12.51209,-10.99437 m 197.65287,6.6013 4.31652,-0.81121 m 0,0 3.87906,-8.25987 m -138.76724,0.41252 20.6386,9.38577 m 0,0 33.96155,-35.90474 m -60.71455,50.42569 6.1144,-23.90672 m 73.73117,12.99634 3.08323,-10.70093 m -3.08323,10.70093 1.3414,3.19168 m 0,0 34.25786,13.36207 m 0,0 9.97043,-13.95852 m -198.89416,-66.42021 16.98878,-1.60753 m -16.98878,24.67966 14.75644,3.12257 m 173.26334,61.14682 0.90395,-6.96279 m -88.69183,-20.16432 11.82638,16.98966 m 0,0 41.26619,-13.37909 m -153.32447,2.28584 35.15179,19.35843 m 0,0 9.21264,-27.4014 m 67.58974,28.91112 0.10411,-9.7749 m -63.98997,19.00014 25.41059,-21.46885 m 38.47527,12.24361 3.55973,3.75091 m 39.15197,-23.71322 3.62179,29.07379 m 0,0 29.73212,-8.74893 m -139.95147,8.86269 28.79213,6.09522 m -3.38154,-27.56407 3.38154,27.56407 m 111.15934,-14.95791 8.36476,18.82365 m -161.23275,-20.69592 1.29135,12.5211 m 0,0 11.62517,-1.78614 m 166.41317,-37.52822 18.77064,36.98599 m -36.86758,10.50319 35.36901,-8.52248 m 0,0 1.49857,-1.98071 m -156.39168,6.63745 7.41676,8.54374 m 0,0 5.73601,0.44441 m 0,0 21.94096,-24.30861 m -93.66603,24.90931 13.71836,-3.61908 m 0,0 4.43664,-10.27885 m 79.07076,-7.26047 38.94576,21.26259 m 0,0 3.828,-15.90202 m -147.02287,33.36586 7.02335,-17.56803 m -18.28814,-8.0164 18.28814,8.0164 m 13.71836,-3.61908 13.31794,18.97888 m 0,0 13.84449,5.54981 m 0,0 25.10827,-21.95472 m 31.2367,-20.11329 8.8913,46.81087 m 102.50929,1.32153 4.83906,-41.21959 m 1.49857,-1.98071 19.1991,-1.58307 m -23.4966,-53.87466 23.4966,14.07867 m -128.04602,83.25783 34.98362,-5.61361 m -4.92916,-19.93467 4.92916,19.93467 m 67.52567,6.93514 9.72518,10.67436 m -48.01526,-5.37545 38.29008,-5.29891 m -136.90128,-27.5747 18.0599,34.93405 m 0,0 16.33209,-8.68088 m 50.91629,0.96962 21.06305,-32.3452 m -21.06305,32.3452 13.30292,5.65082 m -177.35962,-14.70488 17.33214,29.41294 m 0,0 16.72751,-31.62117 m 114.06438,4.67906 9.18961,7.54966 m 0,0 6.74306,-0.96643 m -147.10996,22.66493 0.3854,-2.30605 m 80.81358,-2.01047 28.22954,9.14868 m -32.07557,-14.05315 2.50863,-5.73268 m -2.50863,5.73268 3.84603,4.90447 m -87.56265,9.65369 6.36367,-5.33717 m 62.51442,-0.0266 14.83853,-9.19441 m -46.39555,-19.15642 13.29091,28.82394 m 0,0 18.26611,-0.47311 m 18.68456,-4.28994 11.58412,21.13925 m 0,0 16.64542,-11.99057 m -115.79219,0.50501 1.51459,11.99377 m 114.2776,-12.49878 23.68579,1.67026 m 0,0 7.25259,-28.20092 m -168.57843,1.42467 11.26479,-11.44516 m -11.26479,33.96868 21.84786,3.08748 m 6.36367,-5.33717 34.37998,11.57168 m 0,0 9.86833,-11.12515 m 48.53479,16.3762 2.55167,6.13563 m 0,0 37.24298,-9.59416 m 0,0 0.53656,-6.86178 m -0.53656,6.86178 0.72176,2.79511 m 27.11337,-33.17342 21.8769,41.62997 m 0,0 5.17742,0.91434 m 0,0 20.96094,-37.16886 m -213.27722,28.9696 11.35288,20.67677 m 180.9634,-12.47751 8.68509,8.82973 m -131.98213,8.38107 6.23152,-1.19289 m -7.88726,-41.57469 7.88726,41.57469 m 62.89783,-25.3888 22.10513,24.147 m 0,0 26.88514,-15.69045 m -142.33897,26.84536 16.50027,14.19455 m 0,0 7.71908,-22.91477 m 6.23152,-1.19289 9.42887,5.36695 m -45.41654,-2.10085 29.75615,-2.07321 m -29.75615,2.07321 5.5368,6.64701 m -11.18471,-7.993 5.61388,-31.89654 m -5.61388,31.89654 5.64791,1.34599 m 22.03707,20.84156 2.04614,3.59994 m 0,0 21.33333,-22.34065 m 0,0 9.02044,2.99604 m 0,0 6.48378,-26.95274 m -88.83097,15.04935 16.78257,9.68347 m 0,0 5.47973,-4.22296 m -6.25154,6.78948 0.77181,-2.56652 m -51.4979,-8.08763 23.36245,-22.27261 m -23.36245,29.56179 34.71533,-8.88502 m 82.34719,11.90339 5.70196,7.31576 m -36.38408,20.37909 0.32835,-8.35024 m 1.88197,8.35024 34.17376,-20.37909 m 0,0 8.87029,7.96643 m 0,0 29.87627,-49.03398 m -93.3487,35.30191 12.59818,26.14473 m 143.6033,-43.24602 28.0874,-1.49483 m -15.81155,-44.50376 15.81155,3.69349 m -201.72513,58.20287 3.45662,27.34825 m 77.45206,-12.41266 5.97225,12.41266 m 42.78678,0 3.22237,-37.29964 m 37.21495,37.29964 3.5327,-43.24602 m -211.12096,-224.87481 5.66993,7.23921 m -18.91279,227.87192 0,0 m 3.68686,33.0097 47.03923,-27.34825 m 181.42888,-180.02977 20.29625,-8.34705 m -8.72313,-38.63393 8.72313,-8.14823 m -117.93544,5.44669 0.78482,-11.06029 m -69.20442,20.11116 0.48851,-20.11116"
         style="stroke:#ffffff;stroke-width:5;stroke-miterlimit:4;stroke-dasharray:none" />
      <path
         inkscape:connector-curvature="0"
         id="path4977"
         d="M 323.52554,311.30794 321.58743,290.8151 M 174.70156,306.732 158.92543,283.57589 m -28.49383,0 -2.10449,24.63181 m 0,0 -33.201964,-10.86998 M 205.13754,294.63618 174.70156,306.732 m -43.35435,8.5044 -3.0201,-7.0287 m 46.37445,-1.4757 -12.48174,10.04602 m 159.36761,-25.96292 -47.52904,12.87195 m 49.46715,7.62089 -9.98499,15.29601 m -99.01599,-16.945 -9.38702,-15.02277 m -42.91772,22.14184 -8.10537,4.3027 m 0,0 -4.68292,-37.50483 m 4.68292,37.50483 -1.12536,1.36831 m 0,0 -21.64188,-7.21263 m 182.19334,11.36755 -40.6771,-18.72796 m 1.19494,-4.18894 -1.19494,4.18894 m -119.71907,16.35494 -0.15529,-1.7819 m -21.64188,-7.21263 -19.52529,16.4368 m 0,0 -16.696774,-34.33548 m 223.466384,38.40428 -5.05098,-9.13805 m 12.23369,12.50622 -7.18271,-3.36817 m -45.72808,-27.86601 -8.14671,9.44 m 0,0 -50.19218,-7.65704 m 0,0 -9.06232,27.56619 m 0,0 -4.51755,3.56592 m 0,0 -38.72487,-24.01304 m 3.34178,31.13105 -12.41722,-23.67814 m -41.32246,7.44227 -5.03888,12.6455 m 3.22379,8.80102 -3.22379,-8.80102 m 221.25198,21.48267 -2.26078,-26.6912 m -124.82955,1.68089 -17.96432,19.25105 m 0,0 -17.41877,-12.13304 m -12.41722,-23.67814 -32.46585,39.10066 m 0,0 -10.6717,-10.21187 m 208.5847,-17.37772 -26.9389,30.72067 m -108.56738,-0.42315 -0.10488,-5.99741 m 108.67226,6.42056 -25.50096,-9.10404 m 0,0 -1.43493,-40.04264 m 63.31828,48.48538 -32.08568,5.18195 m 0,0 -4.29671,-4.52065 m -108.56738,-0.42315 -42.79772,13.29616 m 125.86414,-21.97705 -5.68929,6.38548 m -120.17485,15.59157 -11.35338,-6.93301 m 36.62745,-24.4936 -36.62745,24.4936 m 211.70463,4.39307 -12.60376,-10.99437 m -199.10087,6.6013 -4.34814,-0.81121 m 0,0 -3.90748,-8.25987 m 139.78385,0.41252 -20.7898,9.38577 m 0,0 -34.21034,-35.90474 m 61.15934,50.42569 -6.1592,-23.90672 m -74.27132,12.99634 -3.10581,-10.70093 m 3.10581,10.70093 -1.35124,3.19168 m 0,0 -34.50882,13.36207 m 0,0 -10.04347,-13.95852 m 200.35125,-66.42021 -17.11324,-1.60753 m 17.11324,24.67966 -14.86454,3.12257 M 151.24157,400.25699 150.331,393.2942 m 89.34158,-20.16432 -11.91302,16.98966 m 0,0 -41.5685,-13.37909 m 154.44772,2.28584 -35.40931,19.35843 m 0,0 -9.28013,-27.4014 m -68.08491,28.91112 -0.10487,-9.7749 m 64.45877,19.00014 -25.59675,-21.46885 m -38.75715,12.24361 -3.5858,3.75091 m -39.43881,-23.71322 -3.64831,29.07379 m 0,0 -29.94994,-8.74893 m 140.97676,8.86269 -29.00307,6.09522 m 3.40632,-27.56407 -3.40632,27.56407 m -111.97369,-14.95791 -8.42604,18.82365 m 162.41394,-20.69592 -1.30081,12.5211 m 0,0 -11.71033,-1.78614 m -167.63232,-37.52822 -18.90816,36.98599 m 37.13768,10.50319 -35.62813,-8.52248 m 0,0 -1.50955,-1.98071 m 157.53741,6.63745 -7.4711,8.54374 m 0,0 -5.77802,0.44441 m 0,0 -22.10171,-24.30861 m 94.35223,24.90931 -13.81885,-3.61908 m 0,0 -4.46915,-10.27885 m -79.65003,-7.26047 -39.23108,21.26259 m 0,0 -3.85604,-15.90202 m 148.09996,33.36586 -7.07481,-17.56803 m 18.42212,-8.0164 -18.42212,8.0164 m -13.81885,-3.61908 -13.41551,18.97888 m 0,0 -13.94592,5.54981 m 0,0 -25.29222,-21.95472 m -31.46553,-20.11329 -8.95644,46.81087 m -103.26028,1.32153 -4.87451,-41.21959 m -1.50955,-1.98071 -19.33974,-1.58307 m 23.66872,-53.87466 -23.66872,14.07867 m 128.98408,83.25783 -35.2399,-5.61361 m 4.96526,-19.93467 -4.96526,19.93467 m -68.02038,6.93514 -9.79642,10.67436 m 48.36701,-5.37545 -38.57059,-5.29891 m 137.90423,-27.5747 -18.1922,34.93405 m 0,0 -16.45175,-8.68088 m -51.2893,0.96962 -21.21736,-32.3452 m 21.21736,32.3452 -13.40039,5.65082 m 178.65897,-14.70488 -17.45911,29.41294 m 0,0 -16.85006,-31.62117 m -114.90001,4.67906 -9.25694,7.54966 m 0,0 -6.79246,-0.96643 m 148.18769,22.66493 -0.38822,-2.30605 m -81.40562,-2.01047 -28.43637,9.14868 m 32.31056,-14.05315 -2.52699,-5.73268 m 2.52699,5.73268 -3.87419,4.90447 m 88.20412,9.65369 -6.41028,-5.33717 m -62.97241,-0.0266 -14.94724,-9.19441 m 46.73545,-19.15642 -13.38828,28.82394 m 0,0 -18.39993,-0.47311 m -18.82143,-4.28994 -11.669,21.13925 m 0,0 -16.76737,-11.99057 m 116.64049,0.50501 -1.52568,11.99377 m -115.11481,-12.49878 -23.85931,1.67026 m 0,0 -7.30571,-28.20092 m 169.81343,1.42467 -11.34731,-11.44516 m 11.34731,33.96868 -22.00792,3.08748 m -6.41028,-5.33717 -34.63185,11.57168 m 0,0 -9.94063,-11.12515 m -48.89036,16.3762 -2.57036,6.13563 m 0,0 -37.51582,-9.59416 m 0,0 -0.5405,-6.86178 m 0.5405,6.86178 -0.72704,2.79511 m -27.31202,-33.17342 -22.03716,41.62997 m 0,0 -5.21535,0.91434 m 0,0 -21.1145,-37.16886 m 214.83969,28.9696 -11.43606,20.67677 m -182.28913,-12.47751 -8.74872,8.82973 m 132.94904,8.38107 -6.27717,-1.19289 m 7.94503,-41.57469 -7.94503,41.57469 m -63.35862,-25.3888 -22.26708,24.147 m 0,0 -27.0821,-15.69045 m 143.38175,26.84536 -16.62115,14.19455 m 0,0 -7.77563,-22.91477 m -6.27717,-1.19289 -9.49795,5.36695 m 45.74926,-2.10085 -29.97414,-2.07321 m 29.97414,2.07321 -5.57736,6.64701 m 11.26664,-7.993 -5.655,-31.89654 m 5.655,31.89654 -5.68928,1.34599 m -22.19851,20.84156 -2.06113,3.59994 m 0,0 -21.48962,-22.34065 m 0,0 -9.08652,2.99604 m 0,0 -6.53129,-26.95274 m 89.48174,15.04935 -16.90551,9.68347 m 0,0 -5.51988,-4.22296 m 6.29735,6.78948 -0.77747,-2.56652 m 51.87517,-8.08763 -23.5336,-22.27261 m 23.5336,29.56179 -34.96966,-8.88502 m -82.95045,11.90339 -5.74374,7.31576 m 36.65063,20.37909 -0.33075,-8.35024 m -1.89576,8.35024 -34.42412,-20.37909 m 0,0 -8.93527,7.96643 m 0,0 -30.09514,-49.03398 m 94.03257,35.30191 -12.69048,26.14473 m -144.65534,-43.246 -28.29316,-1.49483 m 15.92738,-44.50376 -15.92738,3.69349 m 203.20297,58.20287 -3.48195,27.34825 m -78.01947,-12.41266 -6.016,12.41266 m -43.10024,0 -3.24598,-37.29964 m -37.48759,37.29964 -3.55858,-43.24602 m 212.66763,-224.87481 -5.71147,7.23921 m 19.05135,227.87192 0,0 m -3.71386,33.0097 -47.38384,-27.34825 M 106.78304,344.3187 86.33811,335.97165 m 8.787036,-38.63393 -8.787036,-8.14823 m 118.79943,5.44669 -0.79057,-11.06029 m 69.71142,20.11116 -0.49209,-20.11116"
         style="stroke:#ffffff;stroke-width:5;stroke-miterlimit:4;stroke-dasharray:none" />
      <path
         inkscape:connector-curvature="0"
         id="path4979"
         d="m 323.52554,269.03963 -1.93811,18.14883 m -146.88587,-14.0963 -15.77613,20.50748 m -28.49383,0 -2.10449,-21.81438 m 0,0 -33.201964,9.62665 m 110.012394,2.39254 -30.43598,-10.71229 m -43.35435,-7.53165 -3.0201,6.22475 m 46.37445,1.3069 -12.48174,-8.89693 m 159.36761,22.99323 -47.52904,-11.39963 m 49.46715,-6.7492 -9.98499,-13.54643 m -99.01599,15.00681 -9.38702,13.30444 m -42.91772,-19.60922 -8.10537,-3.81055 m 0,0 -4.68292,33.21496 m 4.68292,-33.21496 -1.12536,-1.2118 m 0,0 -21.64188,6.38763 m 182.19334,-10.06731 -40.6771,16.58582 m 1.19494,3.70981 -1.19494,-3.70981 m -119.71907,-14.48422 -0.15529,1.57808 m -21.64188,6.38763 -19.52529,-14.55673 m 0,0 -16.696774,30.40813 m 223.466384,-34.01153 -5.05098,8.09282 m 12.23369,-11.07573 -7.18271,2.98291 m -45.72808,24.67864 -8.14671,-8.36023 m 0,0 -50.19218,6.78122 m 0,0 -9.06232,-24.41312 m 0,0 -4.51755,-3.15805 m 0,0 -38.72487,21.26639 m 3.34178,-27.57022 -12.41722,20.96979 m -41.32246,-6.59102 -5.03888,-11.19908 m 3.22379,-7.79434 -3.22379,7.79434 m 221.25198,-19.02544 -2.26078,23.63821 m -124.82955,-1.48863 -17.96432,-17.04907 m 0,0 -17.41877,10.74524 m -12.41722,20.96979 -32.46585,-34.62826 m 0,0 -10.6717,9.04382 m 208.5847,15.39002 -26.9389,-27.20677 m -108.56738,0.37474 -0.10488,5.31142 m 108.67226,-5.68616 -25.50096,8.0627 m 0,0 -1.43493,35.46248 m 63.31828,-42.93953 -32.08568,-4.58923 m 0,0 -4.29671,4.00358 m -108.56738,0.37474 -42.79772,-11.77532 m 125.86414,19.46328 -5.68929,-5.6551 m -120.17485,-13.80818 -11.35338,6.14 m 36.62745,21.69198 -36.62745,-21.69198 m 211.70463,-3.89058 -12.60376,9.73681 m -199.10087,-5.84623 -4.34814,0.71843 m 0,0 -3.90748,7.31508 m 139.78385,-0.36533 -20.7898,-8.31221 m 0,0 -34.21034,31.79789 m 61.15934,-44.6579 -6.1592,21.17222 m -74.27132,-11.5098 -3.10581,9.47694 m 3.10581,-9.47694 -1.35124,-2.8266 m 0,0 L 150.331,196.4311 m 0,0 -10.04347,12.36193 m 200.35125,58.82293 -17.11324,1.42367 m 17.11324,-21.85675 -14.86454,-2.76541 M 151.24157,190.26474 150.331,196.4311 m 89.34158,17.8579 -11.91302,-15.04635 m 0,0 -41.5685,11.84876 m 154.44772,-2.02438 -35.40931,-17.14418 m 0,0 -9.28013,24.26718 m -68.08491,-25.60421 -0.10487,8.65683 m 64.45877,-16.82687 -25.59675,19.01321 m -38.75715,-10.84317 -3.5858,-3.32187 m -39.43881,21.00086 -3.64831,-25.74828 m 0,0 -29.94994,7.74821 m 140.97676,-7.84896 -29.00307,-5.39804 m 3.40632,24.41125 -3.40632,-24.41125 m -111.97369,13.247 -8.42604,-16.67056 m 162.41394,18.32867 -1.30081,-11.08891 m 0,0 -11.71033,1.58184 m -167.63232,33.23568 -18.90816,-32.75548 m 37.13768,-9.3018 -35.62813,7.54766 m 0,0 -1.50955,1.75414 m 157.53741,-5.87824 -7.4711,-7.56649 m 0,0 -5.77802,-0.39357 m 0,0 -22.10171,21.52814 m 94.35223,-22.06013 -13.81885,3.20511 m 0,0 -4.46915,9.10314 m -79.65003,6.43001 -39.23108,-18.83054 m 0,0 -3.85604,14.08312 m 148.09996,-29.5494 -7.07481,15.55856 m 18.42212,7.09946 -18.42212,-7.09946 m -13.81885,3.20511 -13.41551,-16.80802 m 0,0 -13.94592,-4.91502 m 0,0 -25.29222,19.44349 m -31.46553,17.8127 -8.95644,-41.45655 m -103.26028,-1.17038 -4.87451,36.50482 m -1.50955,1.75414 -19.33974,1.40201 m 23.66872,47.71237 -23.66872,-12.46832 m 128.98408,-73.73464 -35.2399,4.9715 m 4.96526,17.65451 -4.96526,-17.65451 m -68.02038,-6.14188 -9.79642,-9.4534 m 48.36701,4.76059 -38.57059,4.69281 m 137.90423,24.42066 -18.1922,-30.93823 m 0,0 -16.45175,7.68795 m -51.2893,-0.85872 -21.21736,28.6455 m 21.21736,-28.6455 -13.40039,-5.00447 m 178.65897,13.02292 -17.45911,-26.04865 m 0,0 -16.85006,28.0043 m -114.90001,-4.14388 -9.25694,-6.68611 m 0,0 -6.79246,0.85589 m 148.18769,-20.07247 -0.38822,2.04227 m -81.40562,1.78052 -28.43637,-8.10224 m 32.31056,12.44572 -2.52699,5.07697 m 2.52699,-5.07697 -3.87419,-4.34348 m 88.20412,-8.54949 -6.41028,4.7267 m -62.97241,0.0235 -14.94724,8.14273 m 46.73545,16.96527 -13.38828,-25.527 m 0,0 -18.39993,0.419 m -18.82143,3.79925 -11.669,-18.72131 m 0,0 -16.76737,10.61906 m 116.64049,-0.44725 -1.52568,-10.62188 m -115.11481,11.06913 -23.85931,-1.4792 m 0,0 -7.30571,24.97524 m 169.81343,-1.26171 -11.34731,10.13604 m 11.34731,-30.08328 -22.00792,-2.73434 m -6.41028,4.72671 -34.63185,-10.24809 m 0,0 -9.94063,9.85263 m -48.89036,-14.50306 -2.57036,-5.43382 m 0,0 -37.51582,8.49676 m 0,0 -0.5405,6.07692 m 0.5405,-6.07692 -0.72704,-2.4754 m -27.31202,29.37898 -22.03716,-36.86826 m 0,0 -5.21535,-0.80975 m 0,0 -21.1145,32.91742 m 214.83969,-25.656 -11.43606,-18.311726 m -182.28913,11.050306 -8.74872,-7.819773 m 132.94904,-7.422428 -6.27717,1.056452 m 7.94503,36.819299 -7.94503,-36.819299 M 177.94452,110.56519 155.67744,89.180167 m 0,0 -27.0821,13.895743 M 271.97709,79.301224 255.35594,66.730267 m 0,0 -7.77563,20.293734 m -6.27717,1.056453 -9.49795,-4.753064 m 45.74926,1.860548 -29.97414,1.836063 m 29.97414,-1.836063 -5.57736,-5.886714 m 11.26664,7.078744 -5.655,28.248152 m 5.655,-28.248152 -5.68928,-1.19203 m -22.19851,-18.457671 -2.06113,-3.188169 m 0,0 -21.48962,19.785292 m 0,0 -9.08652,-2.653353 m 0,0 -6.53129,23.869833 m 89.48174,-13.327974 -16.90551,-8.575854 m 0,0 -5.51988,3.739926 m 6.29735,-6.012893 -0.77747,2.272967 m 51.87517,7.162544 -23.5336,19.725034 m 23.5336,-26.180455 -34.96966,7.868731 m -82.95045,-10.541859 -5.74374,-6.478971 m 36.65063,-18.048087 -0.33075,7.395119 m -1.89576,-7.395119 -34.42412,18.048087 m 0,0 -8.93527,-7.055214 m 0,0 -30.09514,43.425378 M 271.97709,79.301224 259.28661,56.146979 M 114.63127,94.44643 86.33811,95.770284 m 15.92738,39.413336 -15.92738,-3.27103 M 289.54108,80.367075 286.05913,56.146979 m -78.01947,10.992873 -6.016,-10.992873 m -43.10024,0 -3.24598,33.033231 M 118.18985,56.146979 114.63127,94.44643 m 212.66763,199.15321 -5.71147,-6.41118 m 19.05135,-201.807501 0,0 m -3.71386,-29.23398 -47.38384,24.220096 M 106.78304,239.8047 86.33811,247.197 m 8.787036,34.21491 -8.787036,7.21622 m 118.79943,-4.82368 -0.79057,9.79519 m 69.71142,-17.81081 -0.49209,17.81081"
         style="stroke:#ffffff;stroke-width:5;stroke-miterlimit:4;stroke-dasharray:none" />
    </g>
    <g
       id="g4993"
       style="filter:url(#filter5019)">
      <path
         style="stroke:#ffffff;stroke-width:5;stroke-miterlimit:4;stroke-dasharray:none"
         d="m 347.5804,269.03963 1.92401,18.14883 m 145.81762,-14.0963 15.66139,20.50748 m 28.2866,0 2.08919,-21.81438 m 0,0 32.9605,9.62665 m -109.21231,2.39254 30.21463,-10.71229 m 43.03904,-7.53165 2.99814,6.22475 m -46.03718,1.3069 12.39096,-8.89693 m -158.20858,22.99323 47.18339,-11.39963 m -49.1074,-6.7492 9.91237,-13.54643 m 98.29588,15.00681 9.31875,13.30444 m 42.60559,-19.60922 8.04643,-3.81055 m 0,0 4.64886,33.21496 m -4.64886,-33.21496 1.11717,-1.2118 m 0,0 21.48448,6.38763 m -180.8683,-10.06731 40.38127,16.58582 m -1.18624,3.70981 1.18624,-3.70981 m 118.84838,-14.48422 0.15417,1.57808 m 21.48448,6.38763 19.38329,-14.55673 m 0,0 16.57535,30.40813 m -221.84118,-34.01153 5.01424,8.09282 m -12.14471,-11.07573 7.13047,2.98291 m 45.39551,24.67864 8.08746,-8.36023 m 0,0 49.82715,6.78122 m 0,0 8.99642,-24.41312 m 0,0 4.48469,-3.15805 m 0,0 38.44323,21.26639 m -3.31747,-27.57022 12.3269,20.96979 m 41.02194,-6.59102 5.00223,-11.19908 m -3.20035,-7.79434 3.20035,7.79434 m -219.64288,-19.02544 2.24435,23.63821 m 123.9217,-1.48863 17.83366,-17.04907 m 0,0 17.2921,10.74524 m 12.3269,20.96979 32.22974,-34.62826 m 0,0 10.59408,9.04382 m -207.06771,15.39002 26.74298,-27.20677 m 107.77781,0.37474 0.1041,5.31142 m -107.88191,-5.68616 25.3155,8.0627 m 0,0 1.42449,35.46248 m -62.85779,-42.93953 31.85234,-4.58923 m 0,0 4.26546,4.00358 m 107.77781,0.37474 42.48646,-11.77532 m -124.94877,19.46328 5.64791,-5.6551 m 119.30086,-13.80818 11.2708,6.14 m -36.36106,21.69198 36.36106,-21.69198 m -210.16496,-3.89058 12.51209,9.73681 m 197.65287,-5.84623 4.31652,0.71843 m 0,0 3.87906,7.31508 m -138.76724,-0.36533 20.6386,-8.31221 m 0,0 33.96155,31.79789 m -60.71455,-44.6579 6.1144,21.17222 m 73.73117,-11.5098 3.08323,9.47694 m -3.08323,-9.47694 1.3414,-2.8266 m 0,0 34.25786,-11.83371 m 0,0 9.97043,12.36193 m -198.89416,58.82293 16.98878,1.42367 m -16.98878,-21.85675 14.75644,-2.76541 m 173.26334,-54.15273 0.90395,6.16636 m -88.69183,17.8579 11.82638,-15.04635 m 0,0 41.26619,11.84876 m -153.32447,-2.02438 35.15179,-17.14418 m 0,0 9.21264,24.26718 m 67.58974,-25.60421 0.10411,8.65683 m -63.98997,-16.82687 25.41059,19.01321 m 38.47527,-10.84317 3.55973,-3.32187 m 39.15197,21.00086 3.62179,-25.74828 m 0,0 29.73212,7.74821 m -139.95147,-7.84896 28.79213,-5.39804 m -3.38154,24.41125 3.38154,-24.41125 m 111.15934,13.247 8.36476,-16.67056 m -161.23275,18.32867 1.29135,-11.08891 m 0,0 11.62517,1.58184 m 166.41317,33.23568 18.77064,-32.75548 m -36.86758,-9.3018 35.36901,7.54766 m 0,0 1.49857,1.75414 m -156.39168,-5.87824 7.41676,-7.56649 m 0,0 5.73601,-0.39357 m 0,0 21.94096,21.52814 m -93.66603,-22.06013 13.71836,3.20511 m 0,0 4.43664,9.10314 m 79.07076,6.43001 38.94576,-18.83054 m 0,0 3.828,14.08312 m -147.02287,-29.5494 7.02335,15.55856 m -18.28814,7.09946 18.28814,-7.09946 m 13.71836,3.20511 13.31794,-16.80802 m 0,0 13.84449,-4.91502 m 0,0 25.10827,19.44349 m 31.2367,17.8127 8.8913,-41.45655 m 102.50929,-1.17038 4.83906,36.50482 m 1.49857,1.75414 19.1991,1.40201 m -23.4966,47.71237 23.4966,-12.46832 m -128.04602,-73.73464 34.98362,4.9715 m -4.92916,17.65451 4.92916,-17.65451 m 67.52567,-6.14188 9.72518,-9.4534 m -48.01526,4.76059 38.29008,4.69281 m -136.90128,24.42066 18.0599,-30.93823 m 0,0 16.33209,7.68795 m 50.91629,-0.85872 21.06305,28.6455 m -21.06305,-28.6455 13.30292,-5.00447 m -177.35962,13.02292 17.33214,-26.04865 m 0,0 16.72751,28.0043 m 114.06438,-4.14388 9.18961,-6.68611 m 0,0 6.74306,0.85589 m -147.10996,-20.07247 0.3854,2.04227 m 80.81358,1.78052 28.22954,-8.10224 m -32.07557,12.44572 2.50863,5.07697 m -2.50863,-5.07697 3.84603,-4.34348 m -87.56265,-8.54949 6.36367,4.7267 m 62.51442,0.0235 14.83853,8.14273 m -46.39555,16.96527 13.29091,-25.527 m 0,0 18.26611,0.419 m 18.68456,3.79925 11.58412,-18.72131 m 0,0 16.64542,10.61906 m -115.79219,-0.44725 1.51459,-10.62188 m 114.2776,11.06913 23.68579,-1.4792 m 0,0 7.25259,24.97524 m -168.57843,-1.26171 11.26479,10.13604 m -11.26479,-30.08328 21.84786,-2.73434 m 6.36367,4.72671 34.37998,-10.24809 m 0,0 9.86833,9.85263 m 48.53479,-14.50306 2.55167,-5.43382 m 0,0 37.24298,8.49676 m 0,0 0.53656,6.07692 m -0.53656,-6.07692 0.72176,-2.4754 m 27.11337,29.37898 21.8769,-36.86826 m 0,0 5.17742,-0.80975 m 0,0 20.96094,32.91742 m -213.27722,-25.656 11.35288,-18.311726 m 180.9634,11.050306 8.68509,-7.819773 m -131.98213,-7.422428 6.23152,1.056452 m -7.88726,36.819299 7.88726,-36.819299 m 62.89783,22.484779 22.10513,-21.385023 m 0,0 26.88514,13.895743 M 398.75396,79.301181 415.25423,66.730225 m 0,0 7.71908,20.293734 m 6.23152,1.056452 9.42887,-4.753064 m -45.41654,1.860549 29.75615,1.836063 m -29.75615,-1.836063 5.5368,-5.886715 m -11.18471,7.078744 5.61388,28.248155 m -5.61388,-28.248155 5.64791,-1.192029 m 22.03707,-18.457671 2.04614,-3.188169 m 0,0 21.33333,19.785291 m 0,0 9.02044,-2.653353 m 0,0 6.48378,23.869836 M 365.30695,91.215854 382.08952,82.64 m 0,0 5.47973,3.739925 m -6.25154,-6.012893 0.77181,2.272968 m -51.4979,7.162544 23.36245,19.725036 m -23.36245,-26.180458 34.71533,7.868732 m 82.34719,-10.54186 5.70196,-6.478971 m -36.38408,-18.048087 0.32835,7.39512 m 1.88197,-7.39512 34.17376,18.048087 m 0,0 8.87029,-7.055213 m 0,0 29.87627,43.42538 m -93.3487,-31.264009 12.59818,-23.154245 m 143.6033,38.299451 28.0874,1.323854 m -15.81155,39.413339 15.81155,-3.27103 M 381.31771,80.367032 384.77433,56.146936 m 77.45206,10.992874 5.97225,-10.992874 m 42.78678,0 3.22237,33.033231 m 37.21495,-33.033231 3.5327,38.299451 m -211.12096,199.153203 5.66993,-6.41117 m -18.91279,-201.807504 0,0 m 3.68686,-29.23398 47.03923,24.220096 m 181.42888,159.437628 20.29625,7.3923 m -8.72313,34.2149 8.72313,7.21623 m -117.93544,-4.82368 0.78482,9.79518 m -69.20442,-17.8108 0.48851,17.8108"
         id="path4995"
         inkscape:connector-curvature="0" />
      <path
         style="stroke:#ffffff;stroke-width:5;stroke-miterlimit:4;stroke-dasharray:none"
         d="m 347.5804,311.30794 1.92401,-20.49284 m 145.81762,15.9169 15.66139,-23.15611 m 28.2866,0 2.08919,24.63181 m 0,0 32.9605,-10.86998 M 465.1074,294.63618 495.32203,306.732 m 43.03904,8.5044 2.99814,-7.0287 m -46.03718,-1.4757 12.39096,10.04602 M 349.50441,290.8151 396.6878,303.68705 m -49.1074,7.62089 9.91237,15.29601 m 98.29588,-16.945 9.31875,-15.02277 m 42.60559,22.14184 8.04643,4.3027 m 0,0 4.64886,-37.50483 m -4.64886,37.50483 1.11717,1.36831 m 0,0 21.48448,-7.21263 m -180.8683,11.36755 40.38127,-18.72796 m -1.18624,-4.18894 1.18624,4.18894 m 118.84838,16.35494 0.15417,-1.7819 m 21.48448,-7.21263 19.38329,16.4368 m 0,0 16.57535,-34.33548 m -221.84118,38.40428 5.01424,-9.13805 m -12.14471,12.50622 7.13047,-3.36817 m 45.39551,-27.86601 8.08746,9.44 m 0,0 49.82715,-7.65704 m 0,0 8.99642,27.56619 m 0,0 4.48469,3.56592 m 0,0 38.44323,-24.01304 m -3.31747,31.13105 12.3269,-23.67814 m 41.02194,7.44227 5.00223,12.6455 m -3.20035,8.80102 3.20035,-8.80102 m -219.64288,21.48267 2.24435,-26.6912 m 123.9217,1.68089 17.83366,19.25105 m 0,0 17.2921,-12.13304 m 12.3269,-23.67814 32.22974,39.10066 m 0,0 10.59408,-10.21187 M 352.47853,335.742 l 26.74298,30.72067 m 107.77781,-0.42315 0.1041,-5.99741 m -107.88191,6.42056 25.3155,-9.10404 m 0,0 1.42449,-40.04264 m -62.85779,48.48538 31.85234,5.18195 m 0,0 4.26546,-4.52065 m 107.77781,-0.42315 42.48646,13.29616 m -124.94877,-21.97705 5.64791,6.38548 m 119.30086,15.59157 11.2708,-6.93301 m -36.36106,-24.4936 36.36106,24.4936 m -210.16496,4.39307 12.51209,-10.99437 m 197.65287,6.6013 4.31652,-0.81121 m 0,0 3.87906,-8.25987 m -138.76724,0.41252 20.6386,9.38577 m 0,0 33.96155,-35.90474 m -60.71455,50.42569 6.1144,-23.90672 m 73.73117,12.99634 3.08323,-10.70093 m -3.08323,10.70093 1.3414,3.19168 m 0,0 34.25786,13.36207 m 0,0 9.97043,-13.95852 m -198.89416,-66.42021 16.98878,-1.60753 m -16.98878,24.67966 14.75644,3.12257 m 173.26334,61.14682 0.90395,-6.96279 m -88.69183,-20.16432 11.82638,16.98966 m 0,0 41.26619,-13.37909 m -153.32447,2.28584 35.15179,19.35843 m 0,0 9.21264,-27.4014 m 67.58974,28.91112 0.10411,-9.7749 m -63.98997,19.00014 25.41059,-21.46885 m 38.47527,12.24361 3.55973,3.75091 m 39.15197,-23.71322 3.62179,29.07379 m 0,0 29.73212,-8.74893 m -139.95147,8.86269 28.79213,6.09522 m -3.38154,-27.56407 3.38154,27.56407 m 111.15934,-14.95791 8.36476,18.82365 m -161.23275,-20.69592 1.29135,12.5211 m 0,0 11.62517,-1.78614 m 166.41317,-37.52822 18.77064,36.98599 m -36.86758,10.50319 35.36901,-8.52248 m 0,0 1.49857,-1.98071 m -156.39168,6.63745 7.41676,8.54374 m 0,0 5.73601,0.44441 m 0,0 21.94096,-24.30861 m -93.66603,24.90931 13.71836,-3.61908 m 0,0 4.43664,-10.27885 m 79.07076,-7.26047 38.94576,21.26259 m 0,0 3.828,-15.90202 m -147.02287,33.36586 7.02335,-17.56803 m -18.28814,-8.0164 18.28814,8.0164 m 13.71836,-3.61908 13.31794,18.97888 m 0,0 13.84449,5.54981 m 0,0 25.10827,-21.95472 m 31.2367,-20.11329 8.8913,46.81087 m 102.50929,1.32153 4.83906,-41.21959 m 1.49857,-1.98071 19.1991,-1.58307 m -23.4966,-53.87466 23.4966,14.07867 m -128.04602,83.25783 34.98362,-5.61361 m -4.92916,-19.93467 4.92916,19.93467 m 67.52567,6.93514 9.72518,10.67436 m -48.01526,-5.37545 38.29008,-5.29891 m -136.90128,-27.5747 18.0599,34.93405 m 0,0 16.33209,-8.68088 m 50.91629,0.96962 21.06305,-32.3452 m -21.06305,32.3452 13.30292,5.65082 m -177.35962,-14.70488 17.33214,29.41294 m 0,0 16.72751,-31.62117 m 114.06438,4.67906 9.18961,7.54966 m 0,0 6.74306,-0.96643 m -147.10996,22.66493 0.3854,-2.30605 m 80.81358,-2.01047 28.22954,9.14868 m -32.07557,-14.05315 2.50863,-5.73268 m -2.50863,5.73268 3.84603,4.90447 m -87.56265,9.65369 6.36367,-5.33717 m 62.51442,-0.0266 14.83853,-9.19441 m -46.39555,-19.15642 13.29091,28.82394 m 0,0 18.26611,-0.47311 m 18.68456,-4.28994 11.58412,21.13925 m 0,0 16.64542,-11.99057 m -115.79219,0.50501 1.51459,11.99377 m 114.2776,-12.49878 23.68579,1.67026 m 0,0 7.25259,-28.20092 m -168.57843,1.42467 11.26479,-11.44516 m -11.26479,33.96868 21.84786,3.08748 m 6.36367,-5.33717 34.37998,11.57168 m 0,0 9.86833,-11.12515 m 48.53479,16.3762 2.55167,6.13563 m 0,0 37.24298,-9.59416 m 0,0 0.53656,-6.86178 m -0.53656,6.86178 0.72176,2.79511 m 27.11337,-33.17342 21.8769,41.62997 m 0,0 5.17742,0.91434 m 0,0 20.96094,-37.16886 m -213.27722,28.9696 11.35288,20.67677 m 180.9634,-12.47751 8.68509,8.82973 m -131.98213,8.38107 6.23152,-1.19289 m -7.88726,-41.57469 7.88726,41.57469 m 62.89783,-25.3888 22.10513,24.147 m 0,0 26.88514,-15.69045 m -142.33897,26.84536 16.50027,14.19455 m 0,0 7.71908,-22.91477 m 6.23152,-1.19289 9.42887,5.36695 m -45.41654,-2.10085 29.75615,-2.07321 m -29.75615,2.07321 5.5368,6.64701 m -11.18471,-7.993 5.61388,-31.89654 m -5.61388,31.89654 5.64791,1.34599 m 22.03707,20.84156 2.04614,3.59994 m 0,0 21.33333,-22.34065 m 0,0 9.02044,2.99604 m 0,0 6.48378,-26.95274 m -88.83097,15.04935 16.78257,9.68347 m 0,0 5.47973,-4.22296 m -6.25154,6.78948 0.77181,-2.56652 m -51.4979,-8.08763 23.36245,-22.27261 m -23.36245,29.56179 34.71533,-8.88502 m 82.34719,11.90339 5.70196,7.31576 m -36.38408,20.37909 0.32835,-8.35024 m 1.88197,8.35024 34.17376,-20.37909 m 0,0 8.87029,7.96643 m 0,0 29.87627,-49.03398 m -93.3487,35.30191 12.59818,26.14473 m 143.6033,-43.24602 28.0874,-1.49483 m -15.81155,-44.50376 15.81155,3.69349 m -201.72513,58.20287 3.45662,27.34825 m 77.45206,-12.41266 5.97225,12.41266 m 42.78678,0 3.22237,-37.29964 m 37.21495,37.29964 3.5327,-43.24602 m -211.12096,-224.87481 5.66993,7.23921 m -18.91279,227.87192 0,0 m 3.68686,33.0097 47.03923,-27.34825 m 181.42888,-180.02977 20.29625,-8.34705 m -8.72313,-38.63393 8.72313,-8.14823 m -117.93544,5.44669 0.78482,-11.06029 m -69.20442,20.11116 0.48851,-20.11116"
         id="path4997"
         inkscape:connector-curvature="0" />
      <path
         style="stroke:#ffffff;stroke-width:5;stroke-miterlimit:4;stroke-dasharray:none"
         d="M 323.52554,311.30794 321.58743,290.8151 M 174.70156,306.732 158.92543,283.57589 m -28.49383,0 -2.10449,24.63181 m 0,0 -33.201964,-10.86998 M 205.13754,294.63618 174.70156,306.732 m -43.35435,8.5044 -3.0201,-7.0287 m 46.37445,-1.4757 -12.48174,10.04602 m 159.36761,-25.96292 -47.52904,12.87195 m 49.46715,7.62089 -9.98499,15.29601 m -99.01599,-16.945 -9.38702,-15.02277 m -42.91772,22.14184 -8.10537,4.3027 m 0,0 -4.68292,-37.50483 m 4.68292,37.50483 -1.12536,1.36831 m 0,0 -21.64188,-7.21263 m 182.19334,11.36755 -40.6771,-18.72796 m 1.19494,-4.18894 -1.19494,4.18894 m -119.71907,16.35494 -0.15529,-1.7819 m -21.64188,-7.21263 -19.52529,16.4368 m 0,0 -16.696774,-34.33548 m 223.466384,38.40428 -5.05098,-9.13805 m 12.23369,12.50622 -7.18271,-3.36817 m -45.72808,-27.86601 -8.14671,9.44 m 0,0 -50.19218,-7.65704 m 0,0 -9.06232,27.56619 m 0,0 -4.51755,3.56592 m 0,0 -38.72487,-24.01304 m 3.34178,31.13105 -12.41722,-23.67814 m -41.32246,7.44227 -5.03888,12.6455 m 3.22379,8.80102 -3.22379,-8.80102 m 221.25198,21.48267 -2.26078,-26.6912 m -124.82955,1.68089 -17.96432,19.25105 m 0,0 -17.41877,-12.13304 m -12.41722,-23.67814 -32.46585,39.10066 m 0,0 -10.6717,-10.21187 m 208.5847,-17.37772 -26.9389,30.72067 m -108.56738,-0.42315 -0.10488,-5.99741 m 108.67226,6.42056 -25.50096,-9.10404 m 0,0 -1.43493,-40.04264 m 63.31828,48.48538 -32.08568,5.18195 m 0,0 -4.29671,-4.52065 m -108.56738,-0.42315 -42.79772,13.29616 m 125.86414,-21.97705 -5.68929,6.38548 m -120.17485,15.59157 -11.35338,-6.93301 m 36.62745,-24.4936 -36.62745,24.4936 m 211.70463,4.39307 -12.60376,-10.99437 m -199.10087,6.6013 -4.34814,-0.81121 m 0,0 -3.90748,-8.25987 m 139.78385,0.41252 -20.7898,9.38577 m 0,0 -34.21034,-35.90474 m 61.15934,50.42569 -6.1592,-23.90672 m -74.27132,12.99634 -3.10581,-10.70093 m 3.10581,10.70093 -1.35124,3.19168 m 0,0 -34.50882,13.36207 m 0,0 -10.04347,-13.95852 m 200.35125,-66.42021 -17.11324,-1.60753 m 17.11324,24.67966 -14.86454,3.12257 M 151.24157,400.25699 150.331,393.2942 m 89.34158,-20.16432 -11.91302,16.98966 m 0,0 -41.5685,-13.37909 m 154.44772,2.28584 -35.40931,19.35843 m 0,0 -9.28013,-27.4014 m -68.08491,28.91112 -0.10487,-9.7749 m 64.45877,19.00014 -25.59675,-21.46885 m -38.75715,12.24361 -3.5858,3.75091 m -39.43881,-23.71322 -3.64831,29.07379 m 0,0 -29.94994,-8.74893 m 140.97676,8.86269 -29.00307,6.09522 m 3.40632,-27.56407 -3.40632,27.56407 m -111.97369,-14.95791 -8.42604,18.82365 m 162.41394,-20.69592 -1.30081,12.5211 m 0,0 -11.71033,-1.78614 m -167.63232,-37.52822 -18.90816,36.98599 m 37.13768,10.50319 -35.62813,-8.52248 m 0,0 -1.50955,-1.98071 m 157.53741,6.63745 -7.4711,8.54374 m 0,0 -5.77802,0.44441 m 0,0 -22.10171,-24.30861 m 94.35223,24.90931 -13.81885,-3.61908 m 0,0 -4.46915,-10.27885 m -79.65003,-7.26047 -39.23108,21.26259 m 0,0 -3.85604,-15.90202 m 148.09996,33.36586 -7.07481,-17.56803 m 18.42212,-8.0164 -18.42212,8.0164 m -13.81885,-3.61908 -13.41551,18.97888 m 0,0 -13.94592,5.54981 m 0,0 -25.29222,-21.95472 m -31.46553,-20.11329 -8.95644,46.81087 m -103.26028,1.32153 -4.87451,-41.21959 m -1.50955,-1.98071 -19.33974,-1.58307 m 23.66872,-53.87466 -23.66872,14.07867 m 128.98408,83.25783 -35.2399,-5.61361 m 4.96526,-19.93467 -4.96526,19.93467 m -68.02038,6.93514 -9.79642,10.67436 m 48.36701,-5.37545 -38.57059,-5.29891 m 137.90423,-27.5747 -18.1922,34.93405 m 0,0 -16.45175,-8.68088 m -51.2893,0.96962 -21.21736,-32.3452 m 21.21736,32.3452 -13.40039,5.65082 m 178.65897,-14.70488 -17.45911,29.41294 m 0,0 -16.85006,-31.62117 m -114.90001,4.67906 -9.25694,7.54966 m 0,0 -6.79246,-0.96643 m 148.18769,22.66493 -0.38822,-2.30605 m -81.40562,-2.01047 -28.43637,9.14868 m 32.31056,-14.05315 -2.52699,-5.73268 m 2.52699,5.73268 -3.87419,4.90447 m 88.20412,9.65369 -6.41028,-5.33717 m -62.97241,-0.0266 -14.94724,-9.19441 m 46.73545,-19.15642 -13.38828,28.82394 m 0,0 -18.39993,-0.47311 m -18.82143,-4.28994 -11.669,21.13925 m 0,0 -16.76737,-11.99057 m 116.64049,0.50501 -1.52568,11.99377 m -115.11481,-12.49878 -23.85931,1.67026 m 0,0 -7.30571,-28.20092 m 169.81343,1.42467 -11.34731,-11.44516 m 11.34731,33.96868 -22.00792,3.08748 m -6.41028,-5.33717 -34.63185,11.57168 m 0,0 -9.94063,-11.12515 m -48.89036,16.3762 -2.57036,6.13563 m 0,0 -37.51582,-9.59416 m 0,0 -0.5405,-6.86178 m 0.5405,6.86178 -0.72704,2.79511 m -27.31202,-33.17342 -22.03716,41.62997 m 0,0 -5.21535,0.91434 m 0,0 -21.1145,-37.16886 m 214.83969,28.9696 -11.43606,20.67677 m -182.28913,-12.47751 -8.74872,8.82973 m 132.94904,8.38107 -6.27717,-1.19289 m 7.94503,-41.57469 -7.94503,41.57469 m -63.35862,-25.3888 -22.26708,24.147 m 0,0 -27.0821,-15.69045 m 143.38175,26.84536 -16.62115,14.19455 m 0,0 -7.77563,-22.91477 m -6.27717,-1.19289 -9.49795,5.36695 m 45.74926,-2.10085 -29.97414,-2.07321 m 29.97414,2.07321 -5.57736,6.64701 m 11.26664,-7.993 -5.655,-31.89654 m 5.655,31.89654 -5.68928,1.34599 m -22.19851,20.84156 -2.06113,3.59994 m 0,0 -21.48962,-22.34065 m 0,0 -9.08652,2.99604 m 0,0 -6.53129,-26.95274 m 89.48174,15.04935 -16.90551,9.68347 m 0,0 -5.51988,-4.22296 m 6.29735,6.78948 -0.77747,-2.56652 m 51.87517,-8.08763 -23.5336,-22.27261 m 23.5336,29.56179 -34.96966,-8.88502 m -82.95045,11.90339 -5.74374,7.31576 m 36.65063,20.37909 -0.33075,-8.35024 m -1.89576,8.35024 -34.42412,-20.37909 m 0,0 -8.93527,7.96643 m 0,0 -30.09514,-49.03398 m 94.03257,35.30191 -12.69048,26.14473 m -144.65534,-43.246 -28.29316,-1.49483 m 15.92738,-44.50376 -15.92738,3.69349 m 203.20297,58.20287 -3.48195,27.34825 m -78.01947,-12.41266 -6.016,12.41266 m -43.10024,0 -3.24598,-37.29964 m -37.48759,37.29964 -3.55858,-43.24602 m 212.66763,-224.87481 -5.71147,7.23921 m 19.05135,227.87192 0,0 m -3.71386,33.0097 -47.38384,-27.34825 M 106.78304,344.3187 86.33811,335.97165 m 8.787036,-38.63393 -8.787036,-8.14823 m 118.79943,5.44669 -0.79057,-11.06029 m 69.71142,20.11116 -0.49209,-20.11116"
         id="path4999"
         inkscape:connector-curvature="0" />
      <path
         style="stroke:#ffffff;stroke-width:5;stroke-miterlimit:4;stroke-dasharray:none"
         d="m 323.52554,269.03963 -1.93811,18.14883 m -146.88587,-14.0963 -15.77613,20.50748 m -28.49383,0 -2.10449,-21.81438 m 0,0 -33.201964,9.62665 m 110.012394,2.39254 -30.43598,-10.71229 m -43.35435,-7.53165 -3.0201,6.22475 m 46.37445,1.3069 -12.48174,-8.89693 m 159.36761,22.99323 -47.52904,-11.39963 m 49.46715,-6.7492 -9.98499,-13.54643 m -99.01599,15.00681 -9.38702,13.30444 m -42.91772,-19.60922 -8.10537,-3.81055 m 0,0 -4.68292,33.21496 m 4.68292,-33.21496 -1.12536,-1.2118 m 0,0 -21.64188,6.38763 m 182.19334,-10.06731 -40.6771,16.58582 m 1.19494,3.70981 -1.19494,-3.70981 m -119.71907,-14.48422 -0.15529,1.57808 m -21.64188,6.38763 -19.52529,-14.55673 m 0,0 -16.696774,30.40813 m 223.466384,-34.01153 -5.05098,8.09282 m 12.23369,-11.07573 -7.18271,2.98291 m -45.72808,24.67864 -8.14671,-8.36023 m 0,0 -50.19218,6.78122 m 0,0 -9.06232,-24.41312 m 0,0 -4.51755,-3.15805 m 0,0 -38.72487,21.26639 m 3.34178,-27.57022 -12.41722,20.96979 m -41.32246,-6.59102 -5.03888,-11.19908 m 3.22379,-7.79434 -3.22379,7.79434 m 221.25198,-19.02544 -2.26078,23.63821 m -124.82955,-1.48863 -17.96432,-17.04907 m 0,0 -17.41877,10.74524 m -12.41722,20.96979 -32.46585,-34.62826 m 0,0 -10.6717,9.04382 m 208.5847,15.39002 -26.9389,-27.20677 m -108.56738,0.37474 -0.10488,5.31142 m 108.67226,-5.68616 -25.50096,8.0627 m 0,0 -1.43493,35.46248 m 63.31828,-42.93953 -32.08568,-4.58923 m 0,0 -4.29671,4.00358 m -108.56738,0.37474 -42.79772,-11.77532 m 125.86414,19.46328 -5.68929,-5.6551 m -120.17485,-13.80818 -11.35338,6.14 m 36.62745,21.69198 -36.62745,-21.69198 m 211.70463,-3.89058 -12.60376,9.73681 m -199.10087,-5.84623 -4.34814,0.71843 m 0,0 -3.90748,7.31508 m 139.78385,-0.36533 -20.7898,-8.31221 m 0,0 -34.21034,31.79789 m 61.15934,-44.6579 -6.1592,21.17222 m -74.27132,-11.5098 -3.10581,9.47694 m 3.10581,-9.47694 -1.35124,-2.8266 m 0,0 L 150.331,196.4311 m 0,0 -10.04347,12.36193 m 200.35125,58.82293 -17.11324,1.42367 m 17.11324,-21.85675 -14.86454,-2.76541 M 151.24157,190.26474 150.331,196.4311 m 89.34158,17.8579 -11.91302,-15.04635 m 0,0 -41.5685,11.84876 m 154.44772,-2.02438 -35.40931,-17.14418 m 0,0 -9.28013,24.26718 m -68.08491,-25.60421 -0.10487,8.65683 m 64.45877,-16.82687 -25.59675,19.01321 m -38.75715,-10.84317 -3.5858,-3.32187 m -39.43881,21.00086 -3.64831,-25.74828 m 0,0 -29.94994,7.74821 m 140.97676,-7.84896 -29.00307,-5.39804 m 3.40632,24.41125 -3.40632,-24.41125 m -111.97369,13.247 -8.42604,-16.67056 m 162.41394,18.32867 -1.30081,-11.08891 m 0,0 -11.71033,1.58184 m -167.63232,33.23568 -18.90816,-32.75548 m 37.13768,-9.3018 -35.62813,7.54766 m 0,0 -1.50955,1.75414 m 157.53741,-5.87824 -7.4711,-7.56649 m 0,0 -5.77802,-0.39357 m 0,0 -22.10171,21.52814 m 94.35223,-22.06013 -13.81885,3.20511 m 0,0 -4.46915,9.10314 m -79.65003,6.43001 -39.23108,-18.83054 m 0,0 -3.85604,14.08312 m 148.09996,-29.5494 -7.07481,15.55856 m 18.42212,7.09946 -18.42212,-7.09946 m -13.81885,3.20511 -13.41551,-16.80802 m 0,0 -13.94592,-4.91502 m 0,0 -25.29222,19.44349 m -31.46553,17.8127 -8.95644,-41.45655 m -103.26028,-1.17038 -4.87451,36.50482 m -1.50955,1.75414 -19.33974,1.40201 m 23.66872,47.71237 -23.66872,-12.46832 m 128.98408,-73.73464 -35.2399,4.9715 m 4.96526,17.65451 -4.96526,-17.65451 m -68.02038,-6.14188 -9.79642,-9.4534 m 48.36701,4.76059 -38.57059,4.69281 m 137.90423,24.42066 -18.1922,-30.93823 m 0,0 -16.45175,7.68795 m -51.2893,-0.85872 -21.21736,28.6455 m 21.21736,-28.6455 -13.40039,-5.00447 m 178.65897,13.02292 -17.45911,-26.04865 m 0,0 -16.85006,28.0043 m -114.90001,-4.14388 -9.25694,-6.68611 m 0,0 -6.79246,0.85589 m 148.18769,-20.07247 -0.38822,2.04227 m -81.40562,1.78052 -28.43637,-8.10224 m 32.31056,12.44572 -2.52699,5.07697 m 2.52699,-5.07697 -3.87419,-4.34348 m 88.20412,-8.54949 -6.41028,4.7267 m -62.97241,0.0235 -14.94724,8.14273 m 46.73545,16.96527 -13.38828,-25.527 m 0,0 -18.39993,0.419 m -18.82143,3.79925 -11.669,-18.72131 m 0,0 -16.76737,10.61906 m 116.64049,-0.44725 -1.52568,-10.62188 m -115.11481,11.06913 -23.85931,-1.4792 m 0,0 -7.30571,24.97524 m 169.81343,-1.26171 -11.34731,10.13604 m 11.34731,-30.08328 -22.00792,-2.73434 m -6.41028,4.72671 -34.63185,-10.24809 m 0,0 -9.94063,9.85263 m -48.89036,-14.50306 -2.57036,-5.43382 m 0,0 -37.51582,8.49676 m 0,0 -0.5405,6.07692 m 0.5405,-6.07692 -0.72704,-2.4754 m -27.31202,29.37898 -22.03716,-36.86826 m 0,0 -5.21535,-0.80975 m 0,0 -21.1145,32.91742 m 214.83969,-25.656 -11.43606,-18.311726 m -182.28913,11.050306 -8.74872,-7.819773 m 132.94904,-7.422428 -6.27717,1.056452 m 7.94503,36.819299 -7.94503,-36.819299 M 177.94452,110.56519 155.67744,89.180167 m 0,0 -27.0821,13.895743 M 271.97709,79.301224 255.35594,66.730267 m 0,0 -7.77563,20.293734 m -6.27717,1.056453 -9.49795,-4.753064 m 45.74926,1.860548 -29.97414,1.836063 m 29.97414,-1.836063 -5.57736,-5.886714 m 11.26664,7.078744 -5.655,28.248152 m 5.655,-28.248152 -5.68928,-1.19203 m -22.19851,-18.457671 -2.06113,-3.188169 m 0,0 -21.48962,19.785292 m 0,0 -9.08652,-2.653353 m 0,0 -6.53129,23.869833 m 89.48174,-13.327974 -16.90551,-8.575854 m 0,0 -5.51988,3.739926 m 6.29735,-6.012893 -0.77747,2.272967 m 51.87517,7.162544 -23.5336,19.725034 m 23.5336,-26.180455 -34.96966,7.868731 m -82.95045,-10.541859 -5.74374,-6.478971 m 36.65063,-18.048087 -0.33075,7.395119 m -1.89576,-7.395119 -34.42412,18.048087 m 0,0 -8.93527,-7.055214 m 0,0 -30.09514,43.425378 M 271.97709,79.301224 259.28661,56.146979 M 114.63127,94.44643 86.33811,95.770284 m 15.92738,39.413336 -15.92738,-3.27103 M 289.54108,80.367075 286.05913,56.146979 m -78.01947,10.992873 -6.016,-10.992873 m -43.10024,0 -3.24598,33.033231 M 118.18985,56.146979 114.63127,94.44643 m 212.66763,199.15321 -5.71147,-6.41118 m 19.05135,-201.807501 0,0 m -3.71386,-29.23398 -47.38384,24.220096 M 106.78304,239.8047 86.33811,247.197 m 8.787036,34.21491 -8.787036,7.21622 m 118.79943,-4.82368 -0.79057,9.79519 m 69.71142,-17.81081 -0.49209,17.81081"
         id="path5001"
         inkscape:connector-curvature="0" />
    </g>
  </g>
</svg>
