# Blender v2.76 (sub 0) OBJ File: 'TroncoCortado.blend'
# www.blender.org
o Cylinder_Cylinder.001
v 0.000000 0.000000 -0.410069
v 0.000000 0.310032 -0.344882
v 0.253565 0.000000 -0.335745
v 0.177609 0.310032 -0.312133
v 0.328003 0.000000 -0.106574
v 0.456438 0.310032 -0.106574
v 0.328003 0.000000 0.106575
v 0.328003 0.310032 0.106575
v 0.177391 0.000000 0.217413
v 0.196970 0.310032 0.258801
v -0.002485 0.000000 0.364061
v -0.000000 0.310032 0.425358
v -0.202717 0.000000 0.279016
v -0.202717 0.310032 0.279016
v -0.246657 -0.000000 0.080830
v -0.328003 0.310032 0.106575
v -0.383321 0.000000 -0.120775
v -0.381844 0.310032 -0.093375
v -0.202717 0.000000 -0.279016
v -0.264246 0.310032 -0.338703
v -0.000000 0.589890 -0.515728
v 0.265592 0.589890 -0.365556
v 0.490487 0.589890 -0.159369
v 0.490487 0.589890 0.159369
v 0.294544 0.589890 0.387005
v -0.000000 0.589890 0.515728
v -0.303137 0.589890 0.417233
v -0.490487 0.589890 0.159369
v -0.429736 0.589890 -0.139630
v -0.303137 0.589890 -0.417233
vt 0.767118 0.692792
vt 0.771042 0.906376
vt 0.669665 0.906376
vt 0.669665 0.692792
vt 0.584097 0.906376
vt 0.584097 0.692792
vt 0.042613 0.959155
vt 0.042613 0.755335
vt 0.189291 0.755335
vt 0.189291 0.959155
vt 0.342634 0.755335
vt 0.342634 0.959155
vt 0.500713 0.755335
vt 0.500713 0.959155
vt 0.956400 0.586869
vt 0.848214 0.586869
vt 0.848214 0.387952
vt 0.956400 0.387952
vt 0.848214 0.253340
vt 0.956400 0.293497
vt 0.848214 0.146661
vt 0.956400 0.159914
vt 0.342634 0.684162
vt 0.500713 0.684162
vt 0.886278 0.692792
vt 0.886278 0.906376
vt 0.946768 0.692792
vt 0.949581 0.906376
vt 0.589576 0.312377
vt 0.563382 0.475025
vt 0.436145 0.591532
vt 0.271529 0.577235
vt 0.114379 0.526238
vt 0.042754 0.369377
vt 0.077124 0.200427
vt 0.216321 0.096014
vt 0.375865 0.064359
vt 0.526127 0.149215
vt 0.189291 0.684162
vt 0.770099 0.970189
vt 0.669665 0.970189
vt 0.042613 0.684162
vt 0.584097 0.970189
vt 0.886278 0.970189
vt 0.848214 0.073784
vt 0.632183 0.115927
vt 0.632183 0.031419
vt 0.632183 0.230831
vt 0.632183 0.387952
vt 0.632183 0.586869
vn 0.237700 0.166200 -0.957000
vn 0.775400 -0.041600 -0.630100
vn 0.939200 -0.194500 0.283000
vn 0.680900 -0.070200 0.729000
vn 0.632100 -0.148400 0.760500
vn -0.496200 -0.083400 0.864200
vn -0.901300 -0.135300 0.411500
vn -0.893100 -0.151300 0.423700
vn 0.474000 -0.390800 0.789100
vn -0.281900 -0.019500 -0.959200
vn -0.799500 -0.108200 -0.590800
vn 0.000000 1.000000 -0.000000
vn 0.660400 -0.490700 0.568400
vn 0.350400 -0.395300 -0.849100
vn 0.920000 -0.323000 0.222100
vn 0.608700 -0.274000 -0.744600
vn -0.165400 -0.410900 -0.896500
vn -0.882100 -0.228600 -0.411900
vn -0.936000 -0.351700 -0.013000
vn -0.699600 -0.502100 0.508300
vn -0.397900 -0.407100 0.822100
s off
f 1/1/1 2/2/1 4/3/1 3/4/1
f 3/4/2 4/3/2 6/5/2 5/6/2
f 5/7/3 6/8/3 8/9/3 7/10/3
f 7/10/4 8/9/4 10/11/4 9/12/4
f 9/12/5 10/11/5 12/13/5 11/14/5
f 11/15/6 12/16/6 14/17/6 13/18/6
f 13/18/7 14/17/7 16/19/7 15/20/7
f 15/20/8 16/19/8 18/21/8 17/22/8
f 12/13/9 10/11/9 25/23/9 26/24/9
f 19/25/10 20/26/10 2/2/10 1/1/10
f 17/27/11 18/28/11 20/26/11 19/25/11
f 22/29/12 21/30/12 30/31/12 29/32/12 28/33/12 27/34/12 26/35/12 25/36/12 24/37/12 23/38/12
f 10/11/13 8/9/13 24/39/13 25/23/13
f 4/3/14 2/2/14 21/40/14 22/41/14
f 8/9/15 6/8/15 23/42/15 24/39/15
f 6/5/16 4/3/16 22/41/16 23/43/16
f 2/2/17 20/26/17 30/44/17 21/40/17
f 20/45/18 18/21/18 29/46/18 30/47/18
f 18/21/19 16/19/19 28/48/19 29/46/19
f 16/19/20 14/17/20 27/49/20 28/48/20
f 14/17/21 12/16/21 26/50/21 27/49/21
