<?xml version="1.0" encoding="UTF-8" standalone="no"?>
<!-- Created with Inkscape (http://www.inkscape.org/) -->

<svg
   xmlns:dc="http://purl.org/dc/elements/1.1/"
   xmlns:cc="http://creativecommons.org/ns#"
   xmlns:rdf="http://www.w3.org/1999/02/22-rdf-syntax-ns#"
   xmlns:svg="http://www.w3.org/2000/svg"
   xmlns="http://www.w3.org/2000/svg"
   xmlns:sodipodi="http://sodipodi.sourceforge.net/DTD/sodipodi-0.dtd"
   xmlns:inkscape="http://www.inkscape.org/namespaces/inkscape"
   width="41.072636mm"
   height="41.072636mm"
   viewBox="0 0 145.53296 145.53296"
   id="svg6362"
   version="1.1"
   inkscape:version="0.91 r13725"
   sodipodi:docname="ToonMud.svg"
   inkscape:export-filename="C:\Users\vg\Documents\MMAyA\2dArt\Terrain\Mud.png"
   inkscape:export-xdpi="79.160004"
   inkscape:export-ydpi="79.160004">
  <defs
     id="defs6364">
    <filter
       inkscape:collect="always"
       style="color-interpolation-filters:sRGB"
       id="filter10257"
       x="-0.04926916"
       width="1.0985383"
       y="-0.046794584"
       height="1.0935892">
      <feGaussianBlur
         inkscape:collect="always"
         stdDeviation="2.7351501"
         id="feGaussianBlur10259" />
    </filter>
  </defs>
  <sodipodi:namedview
     id="base"
     pagecolor="#ffffff"
     bordercolor="#666666"
     borderopacity="1.0"
     inkscape:pageopacity="0.0"
     inkscape:pageshadow="2"
     inkscape:zoom="0.35"
     inkscape:cx="375"
     inkscape:cy="520"
     inkscape:document-units="px"
     inkscape:current-layer="layer1"
     showgrid="false"
     showguides="true"
     fit-margin-top="0"
     fit-margin-left="0"
     fit-margin-right="0"
     fit-margin-bottom="0"
     inkscape:window-width="1366"
     inkscape:window-height="715"
     inkscape:window-x="-8"
     inkscape:window-y="-8"
     inkscape:window-maximized="1"
     inkscape:guide-bbox="true">
    <sodipodi:guide
       position="94.721883,93.15364"
       orientation="0,1"
       id="guide10283" />
    <sodipodi:guide
       position="112.9135,138.00539"
       orientation="0,1"
       id="guide10285" />
  </sodipodi:namedview>
  <metadata
     id="metadata6367">
    <rdf:RDF>
      <cc:Work
         rdf:about="">
        <dc:format>image/svg+xml</dc:format>
        <dc:type
           rdf:resource="http://purl.org/dc/dcmitype/StillImage" />
        <dc:title />
      </cc:Work>
    </rdf:RDF>
  </metadata>
  <g
     inkscape:label="Layer 1"
     inkscape:groupmode="layer"
     id="layer1"
     transform="translate(1.8818917,-0.07109849)">
    <rect
       y="0.07109946"
       x="-1.8818917"
       height="145.53296"
       width="145.53296"
       id="rect6910"
       style="color:#000000;clip-rule:nonzero;display:inline;overflow:visible;visibility:visible;opacity:1;isolation:auto;mix-blend-mode:normal;color-interpolation:sRGB;color-interpolation-filters:linearRGB;solid-color:#000000;solid-opacity:1;fill:#c9924a;fill-opacity:1;fill-rule:nonzero;stroke:none;stroke-width:200;stroke-linecap:round;stroke-linejoin:miter;stroke-miterlimit:4;stroke-dasharray:none;stroke-dashoffset:0;stroke-opacity:1;marker:none;color-rendering:auto;image-rendering:auto;shape-rendering:auto;text-rendering:auto;enable-background:accumulate" />
    <path
       style="color:#000000;clip-rule:nonzero;display:inline;overflow:visible;visibility:visible;opacity:1;isolation:auto;mix-blend-mode:normal;color-interpolation:sRGB;color-interpolation-filters:linearRGB;solid-color:#000000;solid-opacity:1;fill:#614827;fill-opacity:0.3438914;fill-rule:nonzero;stroke:none;stroke-width:15;stroke-linecap:round;stroke-linejoin:miter;stroke-miterlimit:4;stroke-dasharray:none;stroke-dashoffset:0;stroke-opacity:1;marker:none;color-rendering:auto;image-rendering:auto;shape-rendering:auto;text-rendering:auto;enable-background:accumulate"
       d="m -5.4304207,39.591755 c -0.5917207,1.183441 -2.8973656,11.740316 -1.7742645,12.863417 4.3358866,4.335887 10.645587,-7.45776 10.645587,6.209926 0,2.625425 3.3060076,17.712541 13.0979582,22.204125 9.791951,4.491583 14.135197,-2.243649 16.91233,-2.243649 0,0 0.69593,16.522796 1.993343,21.712446 0.124265,0.49706 6.563579,-7.067057 8.782161,1.85038 1.019198,4.09659 3.56643,-3.169671 7.043245,-0.85179 2.501416,1.66761 6.374692,15.92763 7.173162,12.33069 1.371175,-6.17686 11.580624,-3.81858 12.549769,3.72844 0.558978,4.35293 2.73803,-11.40659 3.450672,-22.635661 0.297549,-4.688458 15.70824,-8.273474 15.269851,-9.588641 C 89.144678,83.465292 66.279745,80.990758 65.540159,82.617669 64.58668,84.715094 67.124261,55.83606 69.088688,44.027416 69.657789,40.606414 67.75799,31.5296 67.75799,27.615469 c 0,-3.353078 2.960205,-11.378668 1.774264,-13.75055 -0.48285,-0.9657 -6.006483,-1.497459 -6.209925,-0.887132 -0.922591,2.767771 -1.611845,19.394066 -2.217831,20.404042 -0.930849,1.551415 -1.551286,2.208265 -1.774265,3.992095 -0.386767,3.094139 -0.174891,5.981805 -1.330698,8.871323 -0.650437,1.626092 -2.376322,-7.402473 -5.033956,-5.746404 0,0 -4.372468,13.58696 -5.611631,12.843462 -2.880829,-1.728497 -1.910514,-6.776419 -6.653492,-4.879228 -2.210059,0.884024 -7.256122,8.846235 -8.427756,9.314889 -2.076,0.8304 -0.56386,-5.796433 -2.217831,-6.209926 C 22.388179,49.651368 28.704118,31.869854 25.619208,26.728337 20.902926,18.867867 15.926812,28.757414 10.094393,25.841205 2.1788479,21.883432 -3.2463233,4.4488317 -5.6522037,-2.7688098 c -1.6788476,8.6100723 2.973891,36.8563488 0.221783,42.3605648 z"
       id="path10281"
       inkscape:connector-curvature="0"
       sodipodi:nodetypes="ssscssssssssssssssssssssssscs" />
    <g
       id="g10227"
       style="fill:#8e6939;fill-opacity:1;filter:url(#filter10257)">
      <path
         sodipodi:nodetypes="csssssssscsssssssssssssssc"
         inkscape:connector-curvature="0"
         id="path10155"
         d="m 3.0727353,11.977776 c -0.041709,1.640217 1.1268594,12.850885 1.7406502,13.114144 0.6771071,0.290415 2.6679919,-2.075034 3.4655699,-1.392254 0.704099,0.602756 0.5239172,2.543213 1.3386825,3.02636 1.6801951,0.996336 2.7080811,-0.757598 3.3108351,-0.499068 1.097281,0.470631 1.978582,1.159583 3.352038,1.331093 2.359057,0.294587 3.985701,-3.114436 6.128702,-2.702209 0.257432,0.04952 1.000515,0.921608 1.247974,1.068349 0.892375,0.529168 2.462211,0.325824 2.850775,1.329332 0.161889,0.418098 0.826837,0.598112 1.148966,0.812649 0.02323,0.01548 0.755195,0.841279 0.798288,0.768859 0.213817,-0.359339 -0.332696,-0.918193 0.0578,-1.574462 1.969812,-3.310453 3.788747,-6.501236 2.864852,-11.624029 -0.923895,-5.122791 -1.90689,-5.7249915 -2.07636,-6.1626665 -0.06804,-0.175712 -0.115465,-0.729139 -0.04743,-0.553427 1.357875,3.5068605 2.003874,8.2398135 0.09457,11.4485765 -0.302488,0.50836 -1.839849,3.902024 -2.824093,3.479876 -2.144907,-0.919965 -0.926792,-3.56632 -4.04717,-2.695409 -0.847349,0.236498 -0.609659,2.188007 -1.31615,2.634003 -1.586972,1.001829 -1.95964,-1.420525 -3.556279,-0.565757 -0.75017,0.401606 -0.39196,2.201907 -1.714258,2.036786 -0.59326,-0.07408 -0.881479,-1.109621 -1.59865,-1.11214 -0.623212,-0.0022 -1.182683,0.471757 -1.757537,0.632202 C 12.12183,24.893764 11.218626,22.540977 11.142175,22.47553 10.546574,21.965655 8.7063334,23.039882 7.6849053,22.165471 5.1743959,20.016307 4.259686,15.043206 3.0727353,11.977776 Z"
         style="color:#000000;clip-rule:nonzero;display:inline;overflow:visible;visibility:visible;opacity:1;isolation:auto;mix-blend-mode:normal;color-interpolation:sRGB;color-interpolation-filters:linearRGB;solid-color:#000000;solid-opacity:1;fill:#8e6939;fill-opacity:1;fill-rule:nonzero;stroke:none;stroke-width:200;stroke-linecap:round;stroke-linejoin:miter;stroke-miterlimit:4;stroke-dasharray:none;stroke-dashoffset:0;stroke-opacity:1;marker:none;color-rendering:auto;image-rendering:auto;shape-rendering:auto;text-rendering:auto;enable-background:accumulate" />
      <path
         sodipodi:nodetypes="ccccccccccccccccccccccccccccccccccc"
         inkscape:connector-curvature="0"
         id="path10157"
         d="m 25.936364,39.529857 c 0.184634,3.671031 0.342532,7.35547 0.780005,11.002519 0.817435,2.070166 1.201633,4.284523 1.019223,6.523794 0.30575,1.941324 -0.563439,5.998328 1.580795,6.404172 2.849772,-3.482248 4.296997,-7.99269 6.94603,-11.638095 1.627188,-1.12702 0.801912,3.140449 1.17468,4.2165 -0.03432,1.635753 0.390683,6.161789 2.642438,3.698098 1.929079,-2.23931 2.449871,-5.43336 4.323327,-7.687375 0.880975,0.57816 1.443844,3.395324 3.113654,1.508601 2.830596,-2.50881 2.857024,-6.895756 5.118102,-9.822775 1.528848,1.356735 0.422363,4.64539 1.029519,6.717486 0.662898,1.941307 1.05057,5.264148 3.123069,5.753086 0.977758,-2.211876 0.384285,-4.865784 1.423773,-7.125989 0.480637,-2.246418 1.70848,-4.216656 2.161653,-6.444414 1.219728,-7.756271 2.202682,-15.567191 2.699471,-23.41278 0.379517,-3.244243 0.699386,-6.54376 1.641086,-9.6634508 -0.123516,-1.0931711 0.06779,-5.7030362 0.0677,-2.4309725 -0.625727,3.4476003 -2.432274,6.5530483 -2.701563,10.0661913 -0.849918,4.43665 -1.772767,8.90576 -3.401596,13.103898 -1.894346,3.269873 -2.260307,7.19134 -2.532652,10.929918 -0.08811,1.182308 -0.402454,2.148126 -0.325914,0.378028 -0.297507,-2.417019 0.05182,-5.839441 -2.196374,-7.234318 -2.439791,0.390876 -3.357862,3.406934 -3.590517,5.681902 -0.469559,2.210616 -0.240388,5.215299 -2.330225,6.508578 -2.344558,0.241816 -2.965765,-4.659654 -3.306066,-4.753106 -1.855602,2.433828 -3.124178,5.346459 -3.482096,8.46072 -0.183477,0.989176 -0.366585,-2.332293 -1.044369,-2.817514 -0.398024,-2.361212 0.962813,-4.935831 -0.143355,-7.159124 -2.52531,-1.344002 -4.957851,1.21203 -5.544856,3.737567 -1.498819,3.420962 -2.206538,7.286152 -4.34491,10.352262 -0.772572,-1.1272 0.379485,-4.202252 0.04766,-6.099095 -0.05386,-2.838171 0.382839,-5.935163 -1.08418,-8.470082 C 27.910077,37.61623 28.464578,26.85581 27.422127,24.755393 25.019196,24.478242 25.812549,36.66021 25.810095,38.372335 c 0.03481,0.386667 0.07511,0.772867 0.126269,1.157522 z"
         style="color:#000000;clip-rule:nonzero;display:inline;overflow:visible;visibility:visible;opacity:1;isolation:auto;mix-blend-mode:normal;color-interpolation:sRGB;color-interpolation-filters:linearRGB;solid-color:#000000;solid-opacity:1;fill:#8e6939;fill-opacity:1;fill-rule:nonzero;stroke:none;stroke-width:200;stroke-linecap:round;stroke-linejoin:miter;stroke-miterlimit:4;stroke-dasharray:none;stroke-dashoffset:0;stroke-opacity:1;marker:none;color-rendering:auto;image-rendering:auto;shape-rendering:auto;text-rendering:auto;enable-background:accumulate" />
      <path
         sodipodi:nodetypes="cssssssccsscc"
         inkscape:connector-curvature="0"
         id="path10159"
         d="m 44.993887,31.116187 c -0.04917,-3.275453 -0.805833,-18.708892 -2.159322,-20.513543 -1.101222,-1.4682961 -4.226209,2.992172 -5.398303,2.699149 -4.163771,-1.040942 -2.50384,-4.4393381 -6.477959,3.508896 -0.682428,1.364855 -3.165523,-3.091724 -5.128387,-2.699151 -1.286718,0.257344 -0.220398,3.238981 -1.889405,3.238981 -0.53983,0 0,-1.07966 0,-1.61949 0,-1.129139 -2.746801,-5.8732791 -0.792374,-6.5236251 1.954428,-0.650346 4.202234,4.5196281 6.284775,4.9722071 2.082541,0.452579 1.344093,-4.9708511 2.335136,-5.4663731 1.906994,-0.953497 4.940206,0 7.017791,0 1.302155,0 4.048726,1.8894061 5.977128,-2.5962 0.905702,-0.1084735 4.188122,26.3182171 0.23092,24.9991491 z"
         style="color:#000000;clip-rule:nonzero;display:inline;overflow:visible;visibility:visible;opacity:1;isolation:auto;mix-blend-mode:normal;color-interpolation:sRGB;color-interpolation-filters:linearRGB;solid-color:#000000;solid-opacity:1;fill:#8e6939;fill-opacity:1;fill-rule:nonzero;stroke:none;stroke-width:200;stroke-linecap:round;stroke-linejoin:miter;stroke-miterlimit:4;stroke-dasharray:none;stroke-dashoffset:0;stroke-opacity:1;marker:none;color-rendering:auto;image-rendering:auto;shape-rendering:auto;text-rendering:auto;enable-background:accumulate" />
      <path
         inkscape:connector-curvature="0"
         id="path10161"
         d="m 75.275667,13.557993 c -2.314,2.666582 -2.467215,6.362475 -3.469476,9.596961 -1.355068,5.921713 -2.350372,11.934278 -2.78733,17.996438 0.01514,-2.404635 0.519648,-4.801345 1.445539,-7.019183 1.378754,-1.431657 1.317416,3.330934 2.77635,1.307074 1.509403,2.376427 0.887478,5.315241 1.299899,7.961082 0.147943,1.262903 -0.07669,3.90902 0.671212,4.3539 0.987496,-2.112281 1.326519,-4.446911 2.151024,-6.617758 1.89157,-1.691373 2.281631,2.015997 1.93747,3.261032 -0.03315,2.746726 3.528119,1.004814 4.515843,2.494607 0.329449,1.609103 1.999233,3.695529 3.458639,1.780585 1.591579,-1.510923 3.579076,-0.224051 3.734477,1.711881 0.924403,1.869925 3.0942,1.130823 3.277007,-0.729884 2.147195,-4.363113 4.30754,-8.983744 4.179509,-13.961586 0.09235,-1.64363 -0.07722,-4.542865 1.082486,-5.271461 0.558604,1.93971 -0.974478,3.756787 -1.382373,5.619065 -0.753413,2.055916 -1.0457,4.305447 -2.113244,6.229594 -1.380897,1.728414 -3.919916,0.906835 -5.619007,2.052772 -2.701862,0.607919 -0.529382,-3.18343 -2.232037,-3.860635 -1.945026,-0.153922 -2.067878,2.457435 -2.579337,3.819428 -0.04567,1.221206 -1.420785,3.968608 -2.133527,1.488825 C 82.817729,43.582319 82.801646,41.219025 81.869848,39.109946 81.6975,38.35567 81.7316,36.150758 80.931305,36.479201 c -0.0518,1.29779 -1.878285,3.986516 -2.532848,1.556272 -0.53456,-2.268444 -0.225249,-4.625804 -0.613598,-6.913158 -1.775726,-0.173875 -0.507508,3.669706 -2.441704,2.591968 0.09509,-2.203746 -2.656552,-3.157926 -4.003753,-1.961348 -1.120336,-1.082351 1.137462,-2.142636 1.834091,-1.060359 1.614739,0.28696 2.365335,-1.506001 2.149381,-2.826614 0.611563,-4.455674 1.223127,-8.911349 1.83469,-13.367023 -0.782182,0.153345 -1.29468,-0.57535 -1.881897,-0.940946 z"
         style="color:#000000;clip-rule:nonzero;display:inline;overflow:visible;visibility:visible;opacity:1;isolation:auto;mix-blend-mode:normal;color-interpolation:sRGB;color-interpolation-filters:linearRGB;solid-color:#000000;solid-opacity:1;fill:#8e6939;fill-opacity:1;fill-rule:nonzero;stroke:none;stroke-width:15;stroke-linecap:round;stroke-linejoin:miter;stroke-miterlimit:4;stroke-dasharray:none;stroke-dashoffset:0;stroke-opacity:1;marker:none;color-rendering:auto;image-rendering:auto;shape-rendering:auto;text-rendering:auto;enable-background:accumulate" />
      <path
         sodipodi:nodetypes="csssscssssssssssscccssssssssssssssc"
         inkscape:connector-curvature="0"
         id="path10163"
         d="m 135.97881,29.60837 c 0.27825,5.512738 -4.42126,17.878524 -4.02224,22.618551 0.46052,5.470598 -0.55666,11.329545 -1.88544,16.812416 -0.48073,1.983598 -0.61025,6.45629 -1.9487,8.040799 -0.39989,0.473418 -2.23284,-10.102906 -3.6904,-10.866822 -0.51531,-0.270081 -2.97256,-0.982998 -3.44605,-0.835155 -0.29212,0.09122 -2.45777,9.13771 -2.79088,10.512227 -0.4895,2.019782 -1.21468,-12.954341 -4.33097,-12.238214 -0.75224,0.172868 -2.32625,0.756854 -2.79847,1.510864 -1.60664,2.565381 -1.63971,5.722196 -2.97899,8.277561 -0.94988,1.812389 -3.21065,3.014022 -4.32284,4.78989 -0.17027,0.271883 -0.0194,1.211439 -0.73786,1.037328 -0.90004,-0.218124 -1.50221,-15.725363 -4.4007,-13.957724 -3.774992,2.302179 -3.985111,5.375328 -6.18829,8.472711 -0.255255,0.358864 -1.706304,-0.01265 -1.893572,-0.215685 -2.441421,-2.646954 -4.441969,-14.890875 -4.032051,-18.489758 0.203991,-1.790926 0.907355,-3.743972 1.336247,-5.513686 l 1.725987,-7.121847 0.612447,-2.527106 0.167031,-0.689211 c -0.598448,2.469344 -1.191893,4.979182 -1.322185,7.462938 -0.110129,2.099033 1.318267,18.201416 3.523926,19.582768 3.478334,2.178397 6.789902,-14.698619 8.74998,-11.013876 1.30197,2.447555 2.40059,6.222915 2.70172,8.924602 0.12668,1.136514 -0.77787,3.222451 -0.54271,4.246615 0.0983,0.427572 2.22384,1.378366 2.41577,1.071925 2.09323,-3.342359 2.7721,-7.423873 3.7028,-11.264145 0.16547,-0.68276 -0.88969,-3.600922 0.66109,-3.731469 2.92313,-0.246072 7.02673,3.033589 6.80887,6.028283 -0.0133,0.182577 -0.43653,4.181871 0.59895,3.550386 2.15803,-1.31608 0.7555,-4.529137 1.84436,-6.606702 1.8876,-3.601546 8.04858,8.328625 8.59812,7.67806 2.17018,-2.569139 1.40247,-19.83769 2.46274,-24.212647 0.76482,-3.155846 1.09086,-7.185278 2.44979,-10.108428 0.53072,-1.141602 3.89519,-5.032593 2.97252,-1.225449 z"
         style="color:#000000;clip-rule:nonzero;display:inline;overflow:visible;visibility:visible;opacity:1;isolation:auto;mix-blend-mode:normal;color-interpolation:sRGB;color-interpolation-filters:linearRGB;solid-color:#000000;solid-opacity:1;fill:#8e6939;fill-opacity:1;fill-rule:nonzero;stroke:none;stroke-width:15;stroke-linecap:round;stroke-linejoin:miter;stroke-miterlimit:4;stroke-dasharray:none;stroke-dashoffset:0;stroke-opacity:1;marker:none;color-rendering:auto;image-rendering:auto;shape-rendering:auto;text-rendering:auto;enable-background:accumulate" />
      <path
         inkscape:connector-curvature="0"
         id="path10165"
         d="m 66.807155,40.845422 c -3.27091,9.717074 1.26553,21.122061 -0.94095,31.051211 -0.47359,2.13118 -3.48599,9.45426 -2.19554,11.60501 1.29156,2.15259 27.91473,0.36089 27.91473,0.94094 0,0.52053 -5.03373,-1.56824 -9.09581,-1.56824 -1.80201,0 -4.22658,-1.4487 -5.95932,-1.88189 -4.40381,-1.10096 -5.56571,1.44118 -7.52757,-3.13649 -2.96239,-6.91224 0.31365,-23.17088 0.31365,-31.678514 0,-2.422231 0.89124,-6.182136 -2.50919,-5.332027 z"
         style="color:#000000;clip-rule:nonzero;display:inline;overflow:visible;visibility:visible;opacity:1;isolation:auto;mix-blend-mode:normal;color-interpolation:sRGB;color-interpolation-filters:linearRGB;solid-color:#000000;solid-opacity:1;fill:#8e6939;fill-opacity:1;fill-rule:nonzero;stroke:none;stroke-width:15;stroke-linecap:round;stroke-linejoin:miter;stroke-miterlimit:4;stroke-dasharray:none;stroke-dashoffset:0;stroke-opacity:1;marker:none;color-rendering:auto;image-rendering:auto;shape-rendering:auto;text-rendering:auto;enable-background:accumulate" />
      <path
         inkscape:connector-curvature="0"
         id="path10167"
         d="m 88.13526,3.2075895 c -0.209634,4.7331837 -4.120941,25.9893255 -0.627297,29.4829685 1.769397,1.769397 25.388257,0.940946 30.110277,0.940946 0.52275,0 -1.04549,0 -1.56824,0 -2.16384,0 -3.83459,-0.900471 -5.95932,-1.254594 -1.31262,-0.218769 -2.02436,-0.698529 -3.13649,-1.254595 -2.41594,-1.207966 -15.349949,0.03769 -16.309741,-1.881892 C 88.713976,25.379479 90.3308,10.553928 90.3308,7.2850216 c 0,-0.946134 0.245585,-2.297636 -0.313649,-3.1364862 C 89.599969,3.5227611 86.879016,2.7888417 88.13526,3.2075895 Z"
         style="color:#000000;clip-rule:nonzero;display:inline;overflow:visible;visibility:visible;opacity:1;isolation:auto;mix-blend-mode:normal;color-interpolation:sRGB;color-interpolation-filters:linearRGB;solid-color:#000000;solid-opacity:1;fill:#8e6939;fill-opacity:1;fill-rule:nonzero;stroke:none;stroke-width:15;stroke-linecap:round;stroke-linejoin:miter;stroke-miterlimit:4;stroke-dasharray:none;stroke-dashoffset:0;stroke-opacity:1;marker:none;color-rendering:auto;image-rendering:auto;shape-rendering:auto;text-rendering:auto;enable-background:accumulate" />
      <path
         inkscape:connector-curvature="0"
         id="path10169"
         d="m 3.1364854,85.069877 c 0,15.473333 0,30.946663 0,46.419993 0,2.89231 -0.293809,10.51715 0,10.66406 1.007492,0.50374 1.663171,0.24514 2.822838,0.94094 1.176411,0.70585 4.6237026,-0.18008 5.9593236,-0.31365 3.62593,-0.36259 24.739458,-0.29425 26.032834,-0.94094 1.188479,-0.59424 -2.170107,-17.25068 -0.940946,-17.25068 1.254594,0 0,2.50919 0,3.76379 0,2.21795 0.323771,10.87652 -3.136486,9.7231 -2.613275,-0.87109 -1.250063,-6.68815 -3.450135,-8.15486 -1.338745,-0.8925 -2.557418,6.22474 -3.136486,5.64568 -0.916936,-0.91694 -0.999063,-2.34683 -1.254595,-4.39109 -0.575461,-4.60369 -3.787423,7.52757 -4.077432,7.52757 -2.025465,0 -9.470601,0.25251 -10.9777,-1.25459 -2.4259126,-2.42592 -3.0780126,-10.03676 -3.7637836,-10.03676 -0.740969,0 -0.976072,9.9665 -1.568243,8.78216 -1.613876,-3.22775 0,-11.94848 0,-15.68243 0,-11.76643 3.094626,-23.377439 0.313649,-34.501347 -0.214299,-0.857194 -2.391244,-0.854627 -2.822838,-0.940946 z"
         style="color:#000000;clip-rule:nonzero;display:inline;overflow:visible;visibility:visible;opacity:1;isolation:auto;mix-blend-mode:normal;color-interpolation:sRGB;color-interpolation-filters:linearRGB;solid-color:#000000;solid-opacity:1;fill:#8e6939;fill-opacity:1;fill-rule:nonzero;stroke:none;stroke-width:15;stroke-linecap:round;stroke-linejoin:miter;stroke-miterlimit:4;stroke-dasharray:none;stroke-dashoffset:0;stroke-opacity:1;marker:none;color-rendering:auto;image-rendering:auto;shape-rendering:auto;text-rendering:auto;enable-background:accumulate" />
      <path
         sodipodi:nodetypes="csssssssscsssssssssssssssc"
         inkscape:connector-curvature="0"
         id="path10171"
         d="m 74.532401,90.245365 c -0.04171,1.640218 1.126859,12.850885 1.74065,13.114145 0.677107,0.29041 2.667992,-2.07504 3.46557,-1.39226 0.704099,0.60276 0.523917,2.54321 1.338682,3.02636 1.680195,0.99634 2.708081,-0.7576 3.310835,-0.49907 1.097281,0.47063 1.978583,1.15959 3.352038,1.3311 2.35906,0.29458 3.9857,-3.11444 6.1287,-2.70221 0.25743,0.0495 1.00052,0.92161 1.24798,1.06835 0.89237,0.52916 2.46221,0.32582 2.85077,1.32933 0.16189,0.4181 0.82684,0.59811 1.14897,0.81265 0.0232,0.0155 0.75519,0.84128 0.79829,0.76886 0.213814,-0.35934 -0.3327,-0.9182 0.0578,-1.57447 1.969814,-3.31045 3.788744,-6.501228 2.864854,-11.62402 -0.9239,-5.122792 -1.90689,-5.724993 -2.07636,-6.162668 -0.068,-0.175712 -0.11547,-0.729139 -0.0474,-0.553427 1.35787,3.506861 2.00387,8.239814 0.0946,11.448577 -0.30249,0.50836 -1.839854,3.902018 -2.824104,3.479868 -2.1449,-0.91996 -0.92679,-3.566312 -4.04717,-2.695396 -0.84734,0.23649 -0.60965,2.187996 -1.31615,2.633996 -1.58697,1.00183 -1.95964,-1.42053 -3.55627,-0.56576 -0.75017,0.40161 -0.39196,2.20191 -1.71426,2.03679 -0.593262,-0.0741 -0.881481,-1.10962 -1.598653,-1.11214 -0.623212,-0.002 -1.182683,0.47175 -1.757537,0.6322 -0.412681,0.11518 -1.315885,-2.23761 -1.392336,-2.30305 -0.595601,-0.50988 -2.435841,0.56435 -3.45727,-0.31006 -2.510509,-2.149164 -3.425219,-7.122264 -4.612169,-10.187695 z"
         style="color:#000000;clip-rule:nonzero;display:inline;overflow:visible;visibility:visible;opacity:1;isolation:auto;mix-blend-mode:normal;color-interpolation:sRGB;color-interpolation-filters:linearRGB;solid-color:#000000;solid-opacity:1;fill:#8e6939;fill-opacity:1;fill-rule:nonzero;stroke:none;stroke-width:200;stroke-linecap:round;stroke-linejoin:miter;stroke-miterlimit:4;stroke-dasharray:none;stroke-dashoffset:0;stroke-opacity:1;marker:none;color-rendering:auto;image-rendering:auto;shape-rendering:auto;text-rendering:auto;enable-background:accumulate" />
      <path
         sodipodi:nodetypes="ccccccccccccccccccccccccccccccccccc"
         inkscape:connector-curvature="0"
         id="path10173"
         d="m 97.396026,117.79744 c 0.18464,3.67103 0.34254,7.35547 0.78001,11.00252 0.81743,2.07017 1.20163,4.28452 1.01922,6.5238 0.30575,1.94132 -0.56344,5.99832 1.580804,6.40417 2.84977,-3.48225 4.297,-7.99269 6.94604,-11.6381 1.62718,-1.12702 0.80191,3.14045 1.17468,4.2165 -0.0343,1.63576 0.39068,6.16179 2.64243,3.6981 1.92908,-2.23931 2.44988,-5.43336 4.32333,-7.68737 0.88098,0.57816 1.44385,3.39532 3.11366,1.5086 2.83059,-2.50881 2.85702,-6.89576 5.1181,-9.82278 1.52885,1.35674 0.42236,4.64539 1.02952,6.71749 0.66289,1.9413 1.05057,5.26415 3.12307,5.75308 0.97775,-2.21187 0.38428,-4.86578 1.42377,-7.12599 0.48064,-2.24641 1.70848,-4.21665 2.16165,-6.44441 1.21973,-7.75627 2.20268,-15.56719 2.69947,-23.412776 0.37952,-3.244243 0.69939,-6.54376 1.64109,-9.663451 -0.12352,-1.093171 0.0678,-5.703036 0.0677,-2.430972 -0.62573,3.4476 -2.43228,6.553049 -2.70156,10.066191 -0.84992,4.436652 -1.77277,8.905758 -3.4016,13.103898 -1.89435,3.26987 -2.26031,7.19134 -2.53265,10.92991 -0.0881,1.18231 -0.40246,2.14813 -0.32592,0.37803 -0.2975,-2.41702 0.0518,-5.83944 -2.19637,-7.23432 -2.43979,0.39088 -3.35786,3.40694 -3.59052,5.68191 -0.46956,2.21061 -0.24039,5.2153 -2.33022,6.50857 -2.34456,0.24182 -2.96577,-4.65965 -3.30607,-4.7531 -1.8556,2.43383 -3.12418,5.34646 -3.48209,8.46072 -0.18348,0.98917 -0.36659,-2.33229 -1.04437,-2.81752 -0.39803,-2.36121 0.96281,-4.93583 -0.14336,-7.15912 -2.52531,-1.344 -4.95785,1.21203 -5.54485,3.73757 -1.49883,3.42096 -2.20655,7.28615 -4.34492,10.35226 -0.77258,-1.1272 0.37948,-4.20225 0.0477,-6.0991 -0.0539,-2.83817 0.38283,-5.93516 -1.08418,-8.47008 -0.889804,-2.19785 -0.335304,-12.95827 -1.377754,-15.05869 -2.40293,-0.27715 -1.60958,11.90482 -1.61204,13.61694 0.0348,0.38667 0.0751,0.77287 0.12627,1.15752 z"
         style="color:#000000;clip-rule:nonzero;display:inline;overflow:visible;visibility:visible;opacity:1;isolation:auto;mix-blend-mode:normal;color-interpolation:sRGB;color-interpolation-filters:linearRGB;solid-color:#000000;solid-opacity:1;fill:#8e6939;fill-opacity:1;fill-rule:nonzero;stroke:none;stroke-width:200;stroke-linecap:round;stroke-linejoin:miter;stroke-miterlimit:4;stroke-dasharray:none;stroke-dashoffset:0;stroke-opacity:1;marker:none;color-rendering:auto;image-rendering:auto;shape-rendering:auto;text-rendering:auto;enable-background:accumulate" />
      <path
         sodipodi:nodetypes="cssssssccsscc"
         inkscape:connector-curvature="0"
         id="path10175"
         d="m 116.45357,109.38377 c -0.0492,-3.27545 -0.80584,-18.708886 -2.15933,-20.513537 -1.10122,-1.468296 -4.2262,2.992173 -5.3983,2.69915 -4.16378,-1.040943 -2.50384,-4.439339 -6.47797,3.508895 -0.68243,1.364855 -3.165524,-3.091723 -5.128384,-2.69915 -1.28672,0.257344 -0.2204,3.23898 -1.88941,3.23898 -0.53983,0 0,-1.07966 0,-1.619489 0,-1.129139 -2.7468,-5.87328 -0.79237,-6.523626 1.95442,-0.650346 4.20223,4.519629 6.284774,4.972208 2.08254,0.452579 1.34409,-4.970852 2.33514,-5.466374 1.907,-0.953497 4.94021,0 7.0178,0 1.30215,0 4.04872,1.889406 5.97713,-2.5962 0.9057,-0.108474 4.18812,26.318213 0.23092,24.999143 z"
         style="color:#000000;clip-rule:nonzero;display:inline;overflow:visible;visibility:visible;opacity:1;isolation:auto;mix-blend-mode:normal;color-interpolation:sRGB;color-interpolation-filters:linearRGB;solid-color:#000000;solid-opacity:1;fill:#8e6939;fill-opacity:1;fill-rule:nonzero;stroke:none;stroke-width:200;stroke-linecap:round;stroke-linejoin:miter;stroke-miterlimit:4;stroke-dasharray:none;stroke-dashoffset:0;stroke-opacity:1;marker:none;color-rendering:auto;image-rendering:auto;shape-rendering:auto;text-rendering:auto;enable-background:accumulate" />
      <path
         inkscape:connector-curvature="0"
         id="path10177"
         d="m 33.246752,74.092176 c 0,8.154864 0,16.309728 0,24.464592 0,0.424481 -0.193001,5.911072 0,5.959322 1.196267,0.29907 5.844076,-3.47785 7.213918,-4.39108 2.755197,-1.836797 3.023562,8.41205 3.763784,8.78216 0.529172,0.26459 2.09847,-5.33202 4.704729,-5.33202 6.331685,0 7.086707,18.19162 9.09581,18.19162 1.364582,0 2.432056,-7.13679 3.763783,-8.46852 3.357567,-3.35756 7.619138,7.8107 10.350404,6.90027 1.959574,-0.65319 -3.551726,-13.69451 -5.018378,-14.42783 -1.826987,-0.9135 -8.028673,2.79037 -8.468512,3.45013 -0.183392,0.27509 -0.01794,1.0888 -0.313649,0.94095 -2.629342,-1.31467 -2.251853,-12.260456 -2.822837,-12.545948 -4.876969,-2.438484 -10.923701,3.320308 -9.409459,4.077428 0.402551,0.20128 0.313649,-2.640466 0.313649,-2.822834 0,-2.050215 0.657252,-5.929369 -0.940946,-7.527567 -0.228829,-0.228829 -1.18381,0 -1.568243,0 -4.799509,0 -4.323851,7.027229 -5.645675,6.586621 -1.11457,-0.371523 -5.018378,-21.614353 -5.018378,-23.837294 z"
         style="color:#000000;clip-rule:nonzero;display:inline;overflow:visible;visibility:visible;opacity:1;isolation:auto;mix-blend-mode:normal;color-interpolation:sRGB;color-interpolation-filters:linearRGB;solid-color:#000000;solid-opacity:1;fill:#8e6939;fill-opacity:1;fill-rule:nonzero;stroke:none;stroke-width:15;stroke-linecap:round;stroke-linejoin:miter;stroke-miterlimit:4;stroke-dasharray:none;stroke-dashoffset:0;stroke-opacity:1;marker:none;color-rendering:auto;image-rendering:auto;shape-rendering:auto;text-rendering:auto;enable-background:accumulate" />
    </g>
    <g
       id="g10125">
      <path
         sodipodi:nodetypes="csssssssscsssssssssssssssc"
         inkscape:connector-curvature="0"
         id="path6912"
         d="m 3.0727353,11.977774 c -0.041709,1.640218 1.1268594,12.850886 1.7406502,13.114145 0.6771071,0.290415 2.6679919,-2.075034 3.4655699,-1.392254 0.704099,0.602756 0.5239172,2.543213 1.3386825,3.02636 1.6801951,0.996336 2.7080811,-0.757598 3.3108351,-0.499068 1.097281,0.470631 1.978583,1.159583 3.352039,1.331093 2.359057,0.294587 3.985701,-3.114436 6.128702,-2.702209 0.257432,0.04952 1.000515,0.921608 1.247974,1.068349 0.892375,0.529168 2.462211,0.325824 2.850775,1.329332 0.161889,0.418098 0.826837,0.598112 1.148966,0.812649 0.02323,0.01548 0.755195,0.841279 0.798288,0.768859 0.213817,-0.359339 -0.332696,-0.918193 0.0578,-1.574462 1.969812,-3.310453 3.788747,-6.501236 2.864852,-11.624029 -0.923895,-5.122792 -1.90689,-5.7249922 -2.07636,-6.1626672 -0.06804,-0.175712 -0.115465,-0.729139 -0.04743,-0.553427 1.357875,3.5068602 2.003874,8.2398142 0.09457,11.4485772 -0.302488,0.50836 -1.839849,3.902024 -2.824093,3.479876 -2.144907,-0.919965 -0.926792,-3.56632 -4.04717,-2.695409 -0.847349,0.236498 -0.609659,2.188007 -1.31615,2.634003 -1.586972,1.001829 -1.95964,-1.420525 -3.556279,-0.565757 -0.75017,0.401606 -0.39196,2.201907 -1.714258,2.036786 -0.59326,-0.07408 -0.881479,-1.109621 -1.598651,-1.11214 -0.623212,-0.0022 -1.182683,0.471757 -1.757537,0.632202 -0.412681,0.11518 -1.315885,-2.237607 -1.392336,-2.303054 C 10.546574,21.965654 8.7063334,23.039881 7.6849053,22.16547 5.1743959,20.016306 4.259686,15.043205 3.0727353,11.977774 Z"
         style="color:#000000;clip-rule:nonzero;display:inline;overflow:visible;visibility:visible;opacity:1;isolation:auto;mix-blend-mode:normal;color-interpolation:sRGB;color-interpolation-filters:linearRGB;solid-color:#000000;solid-opacity:1;fill:#8e6939;fill-opacity:1;fill-rule:nonzero;stroke:none;stroke-width:200;stroke-linecap:round;stroke-linejoin:miter;stroke-miterlimit:4;stroke-dasharray:none;stroke-dashoffset:0;stroke-opacity:1;marker:none;color-rendering:auto;image-rendering:auto;shape-rendering:auto;text-rendering:auto;enable-background:accumulate" />
      <path
         sodipodi:nodetypes="ccccccccccccccccccccccccccccccccccc"
         inkscape:connector-curvature="0"
         id="path6916"
         d="m 25.936365,39.529856 c 0.184634,3.671031 0.342532,7.35547 0.780005,11.002519 0.817435,2.070166 1.201633,4.284523 1.019223,6.523794 0.30575,1.941324 -0.563439,5.998328 1.580795,6.404172 2.849772,-3.482248 4.296997,-7.99269 6.94603,-11.638095 1.627188,-1.12702 0.801912,3.140449 1.17468,4.2165 -0.03432,1.635753 0.390683,6.161789 2.642438,3.698098 1.929079,-2.23931 2.449871,-5.43336 4.323327,-7.687375 0.880975,0.57816 1.443844,3.395324 3.113654,1.508601 2.830596,-2.50881 2.857024,-6.895756 5.118102,-9.822775 1.528848,1.356735 0.422363,4.64539 1.029519,6.717486 0.662898,1.941307 1.05057,5.264148 3.123069,5.753086 0.977758,-2.211876 0.384285,-4.865784 1.423773,-7.125989 0.480637,-2.246418 1.70848,-4.216656 2.161653,-6.444414 1.219728,-7.756271 2.202682,-15.567191 2.699471,-23.41278 0.379517,-3.244243 0.699386,-6.543761 1.641086,-9.6634515 -0.123516,-1.0931711 0.06779,-5.7030361 0.0677,-2.4309725 -0.625727,3.4476 -2.432274,6.553049 -2.701563,10.066192 -0.849918,4.43665 -1.772767,8.90576 -3.401596,13.103898 -1.894346,3.269873 -2.260307,7.19134 -2.532652,10.929918 -0.08811,1.182308 -0.402454,2.148126 -0.325914,0.378028 -0.297507,-2.417019 0.05182,-5.839441 -2.196374,-7.234318 -2.439791,0.390876 -3.357862,3.406934 -3.590517,5.681902 -0.469559,2.210616 -0.240388,5.215299 -2.330225,6.508578 -2.344558,0.241816 -2.965765,-4.659654 -3.306066,-4.753106 -1.855602,2.433828 -3.124178,5.346459 -3.482096,8.46072 -0.183477,0.989176 -0.366585,-2.332293 -1.044369,-2.817514 -0.398024,-2.361212 0.962813,-4.935831 -0.143355,-7.159124 -2.52531,-1.344002 -4.957851,1.21203 -5.544856,3.737567 -1.498819,3.420962 -2.206538,7.286152 -4.34491,10.352262 -0.772572,-1.1272 0.379485,-4.202252 0.04766,-6.099095 -0.05386,-2.838171 0.382839,-5.935163 -1.08418,-8.470082 -0.889799,-2.197857 -0.335298,-12.958277 -1.377749,-15.058694 -2.402931,-0.277151 -1.609578,11.904817 -1.612032,13.616942 0.03481,0.386667 0.07511,0.772867 0.126269,1.157522 z"
         style="color:#000000;clip-rule:nonzero;display:inline;overflow:visible;visibility:visible;opacity:1;isolation:auto;mix-blend-mode:normal;color-interpolation:sRGB;color-interpolation-filters:linearRGB;solid-color:#000000;solid-opacity:1;fill:#8e6939;fill-opacity:1;fill-rule:nonzero;stroke:none;stroke-width:200;stroke-linecap:round;stroke-linejoin:miter;stroke-miterlimit:4;stroke-dasharray:none;stroke-dashoffset:0;stroke-opacity:1;marker:none;color-rendering:auto;image-rendering:auto;shape-rendering:auto;text-rendering:auto;enable-background:accumulate" />
      <path
         sodipodi:nodetypes="cssssssccsscc"
         inkscape:connector-curvature="0"
         id="path6920"
         d="m 44.993888,31.116186 c -0.04917,-3.275453 -0.805833,-18.708893 -2.159322,-20.513544 -1.101222,-1.4682958 -4.226209,2.992173 -5.398303,2.69915 -4.163771,-1.040943 -2.50384,-4.4393388 -6.477959,3.508896 -0.682428,1.364855 -3.165523,-3.091724 -5.128387,-2.699151 -1.286718,0.257344 -0.220398,3.238981 -1.889405,3.238981 -0.53983,0 0,-1.07966 0,-1.61949 0,-1.129139 -2.746801,-5.8732798 -0.792374,-6.5236258 1.954428,-0.650346 4.202234,4.5196288 6.284775,4.9722078 2.082541,0.452579 1.344093,-4.9708518 2.335136,-5.4663738 1.906994,-0.953497 4.940206,0 7.017791,0 1.302155,0 4.048726,1.8894058 5.977128,-2.5962 0.905702,-0.1084735 4.188122,26.3182178 0.23092,24.9991498 z"
         style="color:#000000;clip-rule:nonzero;display:inline;overflow:visible;visibility:visible;opacity:1;isolation:auto;mix-blend-mode:normal;color-interpolation:sRGB;color-interpolation-filters:linearRGB;solid-color:#000000;solid-opacity:1;fill:#8e6939;fill-opacity:1;fill-rule:nonzero;stroke:none;stroke-width:200;stroke-linecap:round;stroke-linejoin:miter;stroke-miterlimit:4;stroke-dasharray:none;stroke-dashoffset:0;stroke-opacity:1;marker:none;color-rendering:auto;image-rendering:auto;shape-rendering:auto;text-rendering:auto;enable-background:accumulate" />
      <path
         inkscape:connector-curvature="0"
         id="path10082"
         d="m 75.275668,13.557992 c -2.314,2.666582 -2.467215,6.362475 -3.469476,9.596961 -1.355068,5.921713 -2.350372,11.934278 -2.78733,17.996438 0.01514,-2.404635 0.519648,-4.801345 1.445539,-7.019183 1.378754,-1.431657 1.317416,3.330934 2.77635,1.307074 1.509403,2.376427 0.887478,5.315241 1.299899,7.961082 0.147943,1.262903 -0.07669,3.90902 0.671212,4.3539 0.987496,-2.112281 1.326519,-4.446911 2.151024,-6.617758 1.89157,-1.691373 2.281631,2.015997 1.93747,3.261032 -0.03315,2.746726 3.528119,1.004814 4.515843,2.494607 0.329449,1.609103 1.999233,3.695529 3.458639,1.780585 1.591579,-1.510923 3.579076,-0.224051 3.734477,1.711881 0.924403,1.869925 3.0942,1.130823 3.277007,-0.729884 2.147195,-4.363113 4.30754,-8.983744 4.179509,-13.961586 0.09235,-1.64363 -0.07722,-4.542865 1.082486,-5.271461 0.558603,1.93971 -0.974478,3.756787 -1.382373,5.619065 -0.753413,2.055916 -1.0457,4.305447 -2.113244,6.229594 -1.380897,1.728414 -3.919916,0.906835 -5.619007,2.052772 -2.701862,0.607919 -0.529382,-3.18343 -2.232037,-3.860635 -1.945026,-0.153922 -2.067878,2.457435 -2.579337,3.819428 -0.04567,1.221206 -1.420785,3.968608 -2.133527,1.488825 -0.671062,-2.188411 -0.687145,-4.551705 -1.618943,-6.660784 -0.172348,-0.754276 -0.138248,-2.959188 -0.938543,-2.630745 -0.0518,1.29779 -1.878285,3.986516 -2.532848,1.556272 -0.53456,-2.268444 -0.225249,-4.625804 -0.613598,-6.913158 -1.775726,-0.173875 -0.507508,3.669706 -2.441704,2.591968 0.09509,-2.203746 -2.656552,-3.157926 -4.003753,-1.961348 -1.120336,-1.082351 1.137462,-2.142636 1.834091,-1.060359 1.614739,0.28696 2.365335,-1.506001 2.149381,-2.826614 0.611563,-4.455674 1.223127,-8.911349 1.83469,-13.367023 -0.782182,0.153345 -1.29468,-0.57535 -1.881897,-0.940946 z"
         style="color:#000000;clip-rule:nonzero;display:inline;overflow:visible;visibility:visible;opacity:1;isolation:auto;mix-blend-mode:normal;color-interpolation:sRGB;color-interpolation-filters:linearRGB;solid-color:#000000;solid-opacity:1;fill:#8e6939;fill-opacity:1;fill-rule:nonzero;stroke:none;stroke-width:15;stroke-linecap:round;stroke-linejoin:miter;stroke-miterlimit:4;stroke-dasharray:none;stroke-dashoffset:0;stroke-opacity:1;marker:none;color-rendering:auto;image-rendering:auto;shape-rendering:auto;text-rendering:auto;enable-background:accumulate" />
      <path
         sodipodi:nodetypes="csssscssssssssssscccssssssssssssssc"
         inkscape:connector-curvature="0"
         id="path10090"
         d="m 135.9788,29.608369 c 0.27825,5.512738 -4.42126,17.878524 -4.02224,22.618551 0.46052,5.470598 -0.55666,11.329545 -1.88544,16.812416 -0.48073,1.983598 -0.61025,6.45629 -1.9487,8.040799 -0.39989,0.473418 -2.23284,-10.102906 -3.6904,-10.866822 -0.51531,-0.270081 -2.97256,-0.982998 -3.44605,-0.835155 -0.29212,0.09122 -2.45777,9.13771 -2.79088,10.512227 -0.4895,2.019782 -1.21468,-12.954341 -4.33097,-12.238214 -0.75224,0.172868 -2.32625,0.756854 -2.79847,1.510864 -1.60664,2.565381 -1.63971,5.722196 -2.97899,8.277561 -0.94988,1.812389 -3.21064,3.014022 -4.32283,4.78989 -0.17027,0.271883 -0.0194,1.211439 -0.73786,1.037328 -0.90004,-0.218124 -1.50221,-15.725363 -4.400699,-13.957724 -3.774992,2.302179 -3.985111,5.375328 -6.18829,8.472711 -0.255255,0.358864 -1.706304,-0.01265 -1.893572,-0.215685 -2.441421,-2.646954 -4.441969,-14.890875 -4.032051,-18.489758 0.203991,-1.790926 0.907355,-3.743972 1.336247,-5.513686 l 1.725987,-7.121847 0.612447,-2.527106 0.167031,-0.689211 c -0.598448,2.469344 -1.191893,4.979182 -1.322185,7.462938 -0.110129,2.099033 1.318267,18.201416 3.523926,19.582768 3.478334,2.178397 6.789902,-14.698619 8.749979,-11.013876 1.30197,2.447555 2.40059,6.222915 2.70172,8.924602 0.12668,1.136514 -0.77787,3.222451 -0.54271,4.246615 0.0983,0.427572 2.22383,1.378366 2.41576,1.071925 2.09323,-3.342359 2.7721,-7.423873 3.7028,-11.264145 0.16547,-0.68276 -0.88969,-3.600922 0.66109,-3.731469 2.92313,-0.246072 7.02673,3.033589 6.80887,6.028283 -0.0133,0.182577 -0.43653,4.181871 0.59895,3.550386 2.15803,-1.31608 0.7555,-4.529137 1.84436,-6.606702 1.8876,-3.601546 8.04858,8.328625 8.59812,7.67806 2.17018,-2.569139 1.40247,-19.83769 2.46274,-24.212647 0.76482,-3.155846 1.09086,-7.185278 2.44979,-10.108428 0.53072,-1.141602 3.89519,-5.032593 2.97252,-1.225449 z"
         style="color:#000000;clip-rule:nonzero;display:inline;overflow:visible;visibility:visible;opacity:1;isolation:auto;mix-blend-mode:normal;color-interpolation:sRGB;color-interpolation-filters:linearRGB;solid-color:#000000;solid-opacity:1;fill:#8e6939;fill-opacity:1;fill-rule:nonzero;stroke:none;stroke-width:15;stroke-linecap:round;stroke-linejoin:miter;stroke-miterlimit:4;stroke-dasharray:none;stroke-dashoffset:0;stroke-opacity:1;marker:none;color-rendering:auto;image-rendering:auto;shape-rendering:auto;text-rendering:auto;enable-background:accumulate" />
      <path
         inkscape:connector-curvature="0"
         id="path10092"
         d="m 66.807156,40.845421 c -3.27091,9.717074 1.26553,21.122061 -0.94095,31.051211 -0.47359,2.13118 -3.48599,9.45426 -2.19554,11.60501 1.29156,2.15259 27.91473,0.36089 27.91473,0.94094 0,0.52053 -5.03373,-1.56824 -9.09581,-1.56824 -1.80201,0 -4.22658,-1.4487 -5.95932,-1.88189 -4.40381,-1.10096 -5.56571,1.44118 -7.52757,-3.13649 -2.96239,-6.91224 0.31365,-23.17088 0.31365,-31.678514 0,-2.422231 0.89124,-6.182136 -2.50919,-5.332027 z"
         style="color:#000000;clip-rule:nonzero;display:inline;overflow:visible;visibility:visible;opacity:1;isolation:auto;mix-blend-mode:normal;color-interpolation:sRGB;color-interpolation-filters:linearRGB;solid-color:#000000;solid-opacity:1;fill:#8e6939;fill-opacity:1;fill-rule:nonzero;stroke:none;stroke-width:15;stroke-linecap:round;stroke-linejoin:miter;stroke-miterlimit:4;stroke-dasharray:none;stroke-dashoffset:0;stroke-opacity:1;marker:none;color-rendering:auto;image-rendering:auto;shape-rendering:auto;text-rendering:auto;enable-background:accumulate" />
      <path
         inkscape:connector-curvature="0"
         id="path10096"
         d="M 88.135261,3.2075879 C 87.925627,7.9407715 84.01432,29.196914 87.507964,32.690557 c 1.769397,1.769397 25.388246,0.940946 30.110266,0.940946 0.52275,0 -1.04549,0 -1.56824,0 -2.16384,0 -3.83459,-0.900471 -5.95932,-1.254594 -1.31262,-0.218769 -2.02436,-0.698529 -3.13649,-1.254595 -2.41593,-1.207966 -15.349938,0.03769 -16.30973,-1.881892 -1.930473,-3.860944 -0.313649,-18.686496 -0.313649,-21.9554021 0,-0.946134 0.245585,-2.297636 -0.313649,-3.1364862 C 89.59997,3.5227595 86.879017,2.7888401 88.135261,3.2075879 Z"
         style="color:#000000;clip-rule:nonzero;display:inline;overflow:visible;visibility:visible;opacity:1;isolation:auto;mix-blend-mode:normal;color-interpolation:sRGB;color-interpolation-filters:linearRGB;solid-color:#000000;solid-opacity:1;fill:#8e6939;fill-opacity:1;fill-rule:nonzero;stroke:none;stroke-width:15;stroke-linecap:round;stroke-linejoin:miter;stroke-miterlimit:4;stroke-dasharray:none;stroke-dashoffset:0;stroke-opacity:1;marker:none;color-rendering:auto;image-rendering:auto;shape-rendering:auto;text-rendering:auto;enable-background:accumulate" />
      <path
         inkscape:connector-curvature="0"
         id="path10098"
         d="m 3.1364854,85.069876 c 0,15.473334 0,30.946664 0,46.419994 0,2.89231 -0.293809,10.51715 0,10.66406 1.007492,0.50374 1.663171,0.24514 2.822838,0.94094 1.176411,0.70585 4.6237026,-0.18008 5.9593236,-0.31365 3.625931,-0.36259 24.739459,-0.29425 26.032835,-0.94094 1.188479,-0.59424 -2.170107,-17.25068 -0.940946,-17.25068 1.254594,0 0,2.50919 0,3.76379 0,2.21795 0.323771,10.87652 -3.136486,9.7231 -2.613275,-0.87109 -1.250063,-6.68815 -3.450135,-8.15486 -1.338745,-0.8925 -2.557418,6.22474 -3.136486,5.64568 -0.916936,-0.91694 -0.999063,-2.34683 -1.254595,-4.39109 -0.575461,-4.60369 -3.787423,7.52757 -4.077432,7.52757 -2.025465,0 -9.470602,0.25251 -10.977701,-1.25459 -2.4259126,-2.42592 -3.0780126,-10.03676 -3.7637836,-10.03676 -0.740969,0 -0.976072,9.9665 -1.568243,8.78216 -1.613876,-3.22775 0,-11.94848 0,-15.68243 0,-11.76643 3.094626,-23.37744 0.313649,-34.501348 -0.214299,-0.857194 -2.391244,-0.854627 -2.822838,-0.940946 z"
         style="color:#000000;clip-rule:nonzero;display:inline;overflow:visible;visibility:visible;opacity:1;isolation:auto;mix-blend-mode:normal;color-interpolation:sRGB;color-interpolation-filters:linearRGB;solid-color:#000000;solid-opacity:1;fill:#8e6939;fill-opacity:1;fill-rule:nonzero;stroke:none;stroke-width:15;stroke-linecap:round;stroke-linejoin:miter;stroke-miterlimit:4;stroke-dasharray:none;stroke-dashoffset:0;stroke-opacity:1;marker:none;color-rendering:auto;image-rendering:auto;shape-rendering:auto;text-rendering:auto;enable-background:accumulate" />
      <path
         sodipodi:nodetypes="csssssssscsssssssssssssssc"
         inkscape:connector-curvature="0"
         id="path6912-9"
         d="m 74.532402,90.245364 c -0.04171,1.640218 1.126859,12.850886 1.74065,13.114146 0.677107,0.29041 2.667992,-2.07504 3.46557,-1.39226 0.704099,0.60276 0.523917,2.54321 1.338682,3.02636 1.680195,0.99634 2.708081,-0.7576 3.310835,-0.49907 1.097281,0.47063 1.978583,1.15959 3.352038,1.3311 2.35906,0.29458 3.9857,-3.11444 6.1287,-2.70221 0.25743,0.0495 1.00052,0.92161 1.24798,1.06835 0.89237,0.52916 2.46221,0.32582 2.85077,1.32933 0.16189,0.4181 0.82684,0.59811 1.14897,0.81265 0.0232,0.0155 0.75519,0.84128 0.79829,0.76886 0.213813,-0.35934 -0.3327,-0.9182 0.0578,-1.57447 1.969813,-3.31045 3.788743,-6.501229 2.864853,-11.624021 -0.9239,-5.122792 -1.90689,-5.724993 -2.07636,-6.162668 -0.068,-0.175712 -0.11547,-0.729139 -0.0474,-0.553427 1.35787,3.506861 2.00387,8.239814 0.0946,11.448577 -0.30249,0.50836 -1.839853,3.902019 -2.824103,3.479869 -2.1449,-0.91996 -0.92679,-3.566313 -4.04717,-2.695397 -0.84734,0.23649 -0.60965,2.187997 -1.31615,2.633997 -1.58697,1.00183 -1.95964,-1.42053 -3.55627,-0.56576 -0.75017,0.40161 -0.39196,2.20191 -1.71426,2.03679 -0.593262,-0.0741 -0.881481,-1.10962 -1.598653,-1.11214 -0.623212,-0.002 -1.182683,0.47175 -1.757537,0.6322 -0.412681,0.11518 -1.315885,-2.23761 -1.392336,-2.30305 -0.595601,-0.50988 -2.435841,0.56435 -3.45727,-0.31006 -2.510509,-2.149165 -3.425219,-7.122265 -4.612169,-10.187696 z"
         style="color:#000000;clip-rule:nonzero;display:inline;overflow:visible;visibility:visible;opacity:1;isolation:auto;mix-blend-mode:normal;color-interpolation:sRGB;color-interpolation-filters:linearRGB;solid-color:#000000;solid-opacity:1;fill:#8e6939;fill-opacity:1;fill-rule:nonzero;stroke:none;stroke-width:200;stroke-linecap:round;stroke-linejoin:miter;stroke-miterlimit:4;stroke-dasharray:none;stroke-dashoffset:0;stroke-opacity:1;marker:none;color-rendering:auto;image-rendering:auto;shape-rendering:auto;text-rendering:auto;enable-background:accumulate" />
      <path
         sodipodi:nodetypes="ccccccccccccccccccccccccccccccccccc"
         inkscape:connector-curvature="0"
         id="path6916-0"
         d="m 97.396027,117.79744 c 0.18464,3.67103 0.34254,7.35547 0.78001,11.00252 0.81743,2.07017 1.20163,4.28452 1.01922,6.5238 0.30575,1.94132 -0.56344,5.99832 1.580803,6.40417 2.84977,-3.48225 4.29699,-7.99269 6.94603,-11.6381 1.62718,-1.12702 0.80191,3.14045 1.17468,4.2165 -0.0343,1.63576 0.39068,6.16179 2.64243,3.6981 1.92908,-2.23931 2.44988,-5.43336 4.32333,-7.68737 0.88098,0.57816 1.44385,3.39532 3.11366,1.5086 2.83059,-2.50881 2.85702,-6.89576 5.1181,-9.82278 1.52885,1.35674 0.42236,4.64539 1.02952,6.71749 0.66289,1.9413 1.05057,5.26415 3.12307,5.75308 0.97775,-2.21187 0.38428,-4.86578 1.42377,-7.12599 0.48064,-2.24641 1.70848,-4.21665 2.16165,-6.44441 1.21973,-7.75627 2.20268,-15.56719 2.69947,-23.412777 0.37952,-3.244243 0.69939,-6.54376 1.64109,-9.663451 -0.12352,-1.093171 0.0678,-5.703036 0.0677,-2.430972 -0.62573,3.4476 -2.43228,6.553049 -2.70156,10.066191 -0.84992,4.436652 -1.77277,8.905759 -3.4016,13.103899 -1.89435,3.26987 -2.26031,7.19134 -2.53265,10.92991 -0.0881,1.18231 -0.40246,2.14813 -0.32592,0.37803 -0.2975,-2.41702 0.0518,-5.83944 -2.19637,-7.23432 -2.43979,0.39088 -3.35786,3.40694 -3.59052,5.68191 -0.46956,2.21061 -0.24039,5.2153 -2.33022,6.50857 -2.34456,0.24182 -2.96577,-4.65965 -3.30607,-4.7531 -1.8556,2.43383 -3.12418,5.34646 -3.48209,8.46072 -0.18348,0.98917 -0.36659,-2.33229 -1.04437,-2.81752 -0.39803,-2.36121 0.96281,-4.93583 -0.14336,-7.15912 -2.52531,-1.344 -4.95785,1.21203 -5.54485,3.73757 -1.49882,3.42096 -2.20654,7.28615 -4.34491,10.35226 -0.77258,-1.1272 0.37948,-4.20225 0.0477,-6.0991 -0.0539,-2.83817 0.38283,-5.93516 -1.08418,-8.47008 -0.889803,-2.19785 -0.335303,-12.95827 -1.377753,-15.05869 -2.40293,-0.27715 -1.60958,11.90482 -1.61204,13.61694 0.0348,0.38667 0.0751,0.77287 0.12627,1.15752 z"
         style="color:#000000;clip-rule:nonzero;display:inline;overflow:visible;visibility:visible;opacity:1;isolation:auto;mix-blend-mode:normal;color-interpolation:sRGB;color-interpolation-filters:linearRGB;solid-color:#000000;solid-opacity:1;fill:#8e6939;fill-opacity:1;fill-rule:nonzero;stroke:none;stroke-width:200;stroke-linecap:round;stroke-linejoin:miter;stroke-miterlimit:4;stroke-dasharray:none;stroke-dashoffset:0;stroke-opacity:1;marker:none;color-rendering:auto;image-rendering:auto;shape-rendering:auto;text-rendering:auto;enable-background:accumulate" />
      <path
         sodipodi:nodetypes="cssssssccsscc"
         inkscape:connector-curvature="0"
         id="path6920-8"
         d="m 116.45356,109.38377 c -0.0492,-3.27545 -0.80584,-18.708887 -2.15933,-20.513538 -1.10122,-1.468296 -4.2262,2.992173 -5.3983,2.69915 -4.16377,-1.040943 -2.50384,-4.439339 -6.47796,3.508895 -0.68243,1.364855 -3.165523,-3.091723 -5.128383,-2.69915 -1.28672,0.257344 -0.2204,3.23898 -1.88941,3.23898 -0.53983,0 0,-1.07966 0,-1.619489 0,-1.129139 -2.7468,-5.87328 -0.79237,-6.523626 1.95442,-0.650346 4.20223,4.519629 6.284773,4.972208 2.08254,0.452579 1.34409,-4.970852 2.33514,-5.466374 1.90699,-0.953497 4.9402,0 7.01779,0 1.30215,0 4.04872,1.889406 5.97713,-2.5962 0.9057,-0.108474 4.18812,26.318214 0.23092,24.999144 z"
         style="color:#000000;clip-rule:nonzero;display:inline;overflow:visible;visibility:visible;opacity:1;isolation:auto;mix-blend-mode:normal;color-interpolation:sRGB;color-interpolation-filters:linearRGB;solid-color:#000000;solid-opacity:1;fill:#8e6939;fill-opacity:1;fill-rule:nonzero;stroke:none;stroke-width:200;stroke-linecap:round;stroke-linejoin:miter;stroke-miterlimit:4;stroke-dasharray:none;stroke-dashoffset:0;stroke-opacity:1;marker:none;color-rendering:auto;image-rendering:auto;shape-rendering:auto;text-rendering:auto;enable-background:accumulate" />
      <path
         inkscape:connector-curvature="0"
         id="path10121"
         d="m 33.246753,74.092175 c 0,8.154864 0,16.309728 0,24.464592 0,0.424481 -0.193001,5.911073 0,5.959323 1.196267,0.29907 5.844076,-3.47785 7.213918,-4.39108 2.755197,-1.836798 3.023562,8.41205 3.763784,8.78216 0.529172,0.26459 2.09847,-5.33202 4.704729,-5.33202 6.331685,0 7.086707,18.19162 9.09581,18.19162 1.364582,0 2.432056,-7.13679 3.763783,-8.46852 3.357567,-3.35756 7.619138,7.8107 10.350404,6.90027 1.959574,-0.65319 -3.551726,-13.69451 -5.018378,-14.42783 -1.826987,-0.9135 -8.028673,2.79037 -8.468512,3.45013 -0.183392,0.27509 -0.01794,1.0888 -0.313649,0.94095 -2.629342,-1.31467 -2.251853,-12.260457 -2.822837,-12.545949 -4.876969,-2.438484 -10.923701,3.320309 -9.409459,4.077429 0.402551,0.20128 0.313649,-2.640467 0.313649,-2.822835 0,-2.050215 0.657252,-5.929369 -0.940946,-7.527567 -0.228829,-0.228829 -1.18381,0 -1.568243,0 -4.799509,0 -4.323851,7.027229 -5.645675,6.586621 -1.11457,-0.371523 -5.018378,-21.614353 -5.018378,-23.837294 z"
         style="color:#000000;clip-rule:nonzero;display:inline;overflow:visible;visibility:visible;opacity:1;isolation:auto;mix-blend-mode:normal;color-interpolation:sRGB;color-interpolation-filters:linearRGB;solid-color:#000000;solid-opacity:1;fill:#8e6939;fill-opacity:1;fill-rule:nonzero;stroke:none;stroke-width:15;stroke-linecap:round;stroke-linejoin:miter;stroke-miterlimit:4;stroke-dasharray:none;stroke-dashoffset:0;stroke-opacity:1;marker:none;color-rendering:auto;image-rendering:auto;shape-rendering:auto;text-rendering:auto;enable-background:accumulate" />
    </g>
    <path
       style="color:#000000;clip-rule:nonzero;display:inline;overflow:visible;visibility:visible;opacity:1;isolation:auto;mix-blend-mode:normal;color-interpolation:sRGB;color-interpolation-filters:linearRGB;solid-color:#000000;solid-opacity:1;fill:#614827;fill-opacity:0.3438914;fill-rule:nonzero;stroke:none;stroke-width:15;stroke-linecap:round;stroke-linejoin:miter;stroke-miterlimit:4;stroke-dasharray:none;stroke-dashoffset:0;stroke-opacity:1;marker:none;color-rendering:auto;image-rendering:auto;shape-rendering:auto;text-rendering:auto;enable-background:accumulate"
       d="m 144.27836,7.5986704 c -24.77824,0 4.07743,9.7230996 -12.85959,44.8517496 -6.65415,13.801208 -6.22092,20.971632 -2.89415,23.443792 2.96165,2.20083 0.89768,-1.428832 5.48681,-5.311613 3.37689,-2.857134 5.4328,-18.132179 9.95329,-18.132179"
       id="path10287"
       inkscape:connector-curvature="0"
       sodipodi:nodetypes="csssc" />
  </g>
</svg>
