<?xml version="1.0" encoding="UTF-8" standalone="no"?>
<!-- Created with Inkscape (http://www.inkscape.org/) -->

<svg
   xmlns:dc="http://purl.org/dc/elements/1.1/"
   xmlns:cc="http://creativecommons.org/ns#"
   xmlns:rdf="http://www.w3.org/1999/02/22-rdf-syntax-ns#"
   xmlns:svg="http://www.w3.org/2000/svg"
   xmlns="http://www.w3.org/2000/svg"
   xmlns:sodipodi="http://sodipodi.sourceforge.net/DTD/sodipodi-0.dtd"
   xmlns:inkscape="http://www.inkscape.org/namespaces/inkscape"
   width="82.495941mm"
   height="82.495941mm"
   viewBox="0 0 292.30845 292.30845"
   id="svg12508"
   version="1.1"
   inkscape:version="0.91 r13725"
   sodipodi:docname="WetDirt.svg">
  <defs
     id="defs12510" />
  <sodipodi:namedview
     id="base"
     pagecolor="#ffffff"
     bordercolor="#666666"
     borderopacity="1.0"
     inkscape:pageopacity="0.0"
     inkscape:pageshadow="2"
     inkscape:zoom="0.35"
     inkscape:cx="375"
     inkscape:cy="520"
     inkscape:document-units="px"
     inkscape:current-layer="layer1"
     showgrid="false"
     fit-margin-top="0"
     fit-margin-left="0"
     fit-margin-right="0"
     fit-margin-bottom="0"
     inkscape:window-width="1366"
     inkscape:window-height="715"
     inkscape:window-x="-8"
     inkscape:window-y="-8"
     inkscape:window-maximized="1" />
  <metadata
     id="metadata12513">
    <rdf:RDF>
      <cc:Work
         rdf:about="">
        <dc:format>image/svg+xml</dc:format>
        <dc:type
           rdf:resource="http://purl.org/dc/dcmitype/StillImage" />
        <dc:title></dc:title>
      </cc:Work>
    </rdf:RDF>
  </metadata>
  <g
     inkscape:label="Layer 1"
     inkscape:groupmode="layer"
     id="layer1"
     transform="translate(-1.8114567,-12.598708)">
    <rect
       style="color:#000000;clip-rule:nonzero;display:inline;overflow:visible;visibility:visible;opacity:1;isolation:auto;mix-blend-mode:normal;color-interpolation:sRGB;color-interpolation-filters:linearRGB;solid-color:#000000;solid-opacity:1;fill:#753819;fill-opacity:1;fill-rule:nonzero;stroke:none;stroke-width:200;stroke-linecap:round;stroke-linejoin:miter;stroke-miterlimit:4;stroke-dasharray:none;stroke-dashoffset:0;stroke-opacity:1;marker:none;color-rendering:auto;image-rendering:auto;shape-rendering:auto;text-rendering:auto;enable-background:accumulate"
       id="rect9531"
       width="292.30844"
       height="292.30844"
       x="1.8114567"
       y="12.598708" />
    <path
       style="color:#000000;clip-rule:nonzero;display:inline;overflow:visible;visibility:visible;opacity:1;isolation:auto;mix-blend-mode:normal;color-interpolation:sRGB;color-interpolation-filters:linearRGB;solid-color:#000000;solid-opacity:1;fill:#000000;fill-opacity:0.19004529;fill-rule:nonzero;stroke:none;stroke-width:3;stroke-linecap:round;stroke-linejoin:round;stroke-miterlimit:4;stroke-dasharray:none;stroke-dashoffset:0;stroke-opacity:1;marker:none;color-rendering:auto;image-rendering:auto;shape-rendering:auto;text-rendering:auto;enable-background:accumulate"
       d="m 51.171544,40.810438 c -6.396443,0 -12.792886,0 -19.189329,0 -31.35044414,0 6.80727,14.276843 7.31022,15.534219 3.95629,9.890724 -6.113035,22.780883 -3.65511,30.154659 2.292066,6.876199 8.795506,5.937968 6.396443,15.534214 -1.594332,6.37733 -22.844439,3.23932 -22.844439,9.13778 0,2.30082 28.492398,1.41316 33.80977,-4.56889 0.756468,-0.85102 7.891349,-7.642867 4.568888,-10.965328 C 47.61044,85.679545 47.516433,80.608814 47.516433,63.654877 c 0,-8.491622 26.552824,-28.568867 3.655111,-22.844439 z"
       id="path13062"
       inkscape:connector-curvature="0" />
    <path
       style="color:#000000;clip-rule:nonzero;display:inline;overflow:visible;visibility:visible;opacity:1;isolation:auto;mix-blend-mode:normal;color-interpolation:sRGB;color-interpolation-filters:linearRGB;solid-color:#000000;solid-opacity:1;fill:#000000;fill-opacity:0.19004529;fill-rule:nonzero;stroke:none;stroke-width:3;stroke-linecap:round;stroke-linejoin:round;stroke-miterlimit:4;stroke-dasharray:none;stroke-dashoffset:0;stroke-opacity:1;marker:none;color-rendering:auto;image-rendering:auto;shape-rendering:auto;text-rendering:auto;enable-background:accumulate"
       d="m 68.533318,74.620208 c 5.98103,-0.296621 32.299722,-14.302932 40.206212,-6.396443 5.14318,5.14318 3.07866,15.871545 7.31022,20.103106 8.59352,8.593515 19.92096,4.447455 28.32711,10.051554 8.97493,5.983285 20.66205,32.691865 14.62044,44.775105 -8.66117,17.32233 -39.50981,5.30856 -54.82666,9.13777 -8.772027,2.19301 -11.919986,22.98311 -32.89599,15.99111 -6.273784,-2.09126 -2.64928,-31.10459 11.879109,-22.38755 3.30453,1.98272 9.996168,8.27938 5.482665,12.79288 -2.841888,2.84189 -7.969942,-2.74133 -7.310221,-2.74133 4.361102,0 -1.395971,11.41379 2.741333,12.79289 5.059298,1.68643 20.918834,-5.23755 22.844444,-10.05156 1.69684,-4.2421 -3.2307,-10.47597 0,-13.70666 5.85966,-5.85966 32.42583,8.25054 38.37865,-3.65511 1.73224,-3.46448 -0.0473,-9.86235 0.91378,-13.70666 0.77582,-3.10328 5.01936,-5.04504 3.65511,-9.13778 -1.04886,-3.14659 -28.4735,-6.95683 -32.89599,-5.48266 -4.16747,1.38915 -7.85909,10.41646 -10.96533,7.31022 -6.564845,-6.56485 1.54636,-39.433036 0,-40.206217 -10.282193,-5.141095 -21.580451,3.868463 -25.585774,11.879109 -11.527442,23.054888 28.344324,16.680748 16.447996,13.706668 -4.504465,-1.12612 -1.946333,9.19716 -5.482665,10.96533 C 70.373513,127.1561 66.100537,86.784112 68.533318,74.620208 Z"
       id="path13064"
       inkscape:connector-curvature="0"
       sodipodi:nodetypes="csssssssssssssssssssssc" />
    <path
       style="color:#000000;clip-rule:nonzero;display:inline;overflow:visible;visibility:visible;opacity:1;isolation:auto;mix-blend-mode:normal;color-interpolation:sRGB;color-interpolation-filters:linearRGB;solid-color:#000000;solid-opacity:1;fill:#000000;fill-opacity:0.19004529;fill-rule:nonzero;stroke:none;stroke-width:3;stroke-linecap:round;stroke-linejoin:round;stroke-miterlimit:4;stroke-dasharray:none;stroke-dashoffset:0;stroke-opacity:1;marker:none;color-rendering:auto;image-rendering:auto;shape-rendering:auto;text-rendering:auto;enable-background:accumulate"
       d="m 92.291534,130.36064 c -12.060697,-21.31722 -48.996628,9.893 -56.654209,20.10311 -1.690344,2.25379 11.879108,27.52557 11.879108,40.20621 0,8.27451 -3.65511,15.40773 -3.65511,22.84444 0,0.48408 -3.145721,4.77108 -0.913777,3.65511 32.226921,-16.11346 -12.772637,-74.38555 49.343988,-86.80887 z"
       id="path13066"
       inkscape:connector-curvature="0" />
    <path
       style="color:#000000;clip-rule:nonzero;display:inline;overflow:visible;visibility:visible;opacity:1;isolation:auto;mix-blend-mode:normal;color-interpolation:sRGB;color-interpolation-filters:linearRGB;solid-color:#000000;solid-opacity:1;fill:#000000;fill-opacity:0.19004529;fill-rule:nonzero;stroke:none;stroke-width:3;stroke-linecap:round;stroke-linejoin:round;stroke-miterlimit:4;stroke-dasharray:none;stroke-dashoffset:0;stroke-opacity:1;marker:none;color-rendering:auto;image-rendering:auto;shape-rendering:auto;text-rendering:auto;enable-background:accumulate"
       d="m 45.688878,121.22286 c -5.128796,-0.30847 -22.957397,-0.80082 -26.499549,2.74134 -0.751748,0.75174 7.31022,68.14382 7.31022,88.63642 0,3.45807 1.884871,20.69319 -1.827555,21.93066 -2.248748,0.74959 0.913778,-26.51653 0.913778,-31.06844 0,-19.90347 -3.65511,-38.87868 -3.65511,-57.56798 0,-15.90867 23.758216,-13.09227 23.758216,-24.672 z"
       id="path13068"
       inkscape:connector-curvature="0" />
    <path
       style="color:#000000;clip-rule:nonzero;display:inline;overflow:visible;visibility:visible;opacity:1;isolation:auto;mix-blend-mode:normal;color-interpolation:sRGB;color-interpolation-filters:linearRGB;solid-color:#000000;solid-opacity:1;fill:#000000;fill-opacity:0.19004529;fill-rule:nonzero;stroke:none;stroke-width:3;stroke-linecap:round;stroke-linejoin:round;stroke-miterlimit:4;stroke-dasharray:none;stroke-dashoffset:0;stroke-opacity:1;marker:none;color-rendering:auto;image-rendering:auto;shape-rendering:auto;text-rendering:auto;enable-background:accumulate"
       d="m 74.92976,39.89666 c 13.260343,-36.4596493 43.91161,-7.31022 69.4471,-7.31022 10.22274,0 36.74129,-8.128903 42.03376,-5.482665 14.63291,7.316454 23.15353,58.777357 15.53422,74.015985 -1.79421,3.58843 -28.47522,3.12416 -32.89599,0.91377 -9.42276,-4.711376 -13.89233,-36.179756 -9.13778,-45.688873 6.71627,-13.432526 17.4196,-0.798141 21.01689,6.396443 1.00588,2.011769 -7.38102,-3.022327 -10.96533,-1.827556 -4.6189,1.539634 -3.59017,16.534584 -0.91378,20.103107 0.76518,1.020242 13.50389,21.422419 18.27555,11.879108 5.69358,-11.387148 3.17979,-47.979466 -9.13777,-52.085321 -7.8796,-2.626531 -28.52229,10.051553 -48.43022,10.051553 -5.01417,0 -22.3063,-14.407295 -23.75821,-10.051553 -4.87982,14.639446 19.43862,12.979853 26.49955,18.275551 8.05695,6.042713 -2.01554,6.934254 1.82755,14.620441 0.93844,1.876882 27.1612,15.242741 2.74134,9.137776 C 129.74925,81.01486 120.38942,65.538962 114.2222,60.913544 101.25507,51.188198 54.202563,67.532924 74.92976,39.89666 Z"
       id="path13070"
       inkscape:connector-curvature="0" />
    <path
       style="color:#000000;clip-rule:nonzero;display:inline;overflow:visible;visibility:visible;opacity:1;isolation:auto;mix-blend-mode:normal;color-interpolation:sRGB;color-interpolation-filters:linearRGB;solid-color:#000000;solid-opacity:1;fill:#000000;fill-opacity:0.19004529;fill-rule:nonzero;stroke:none;stroke-width:3;stroke-linecap:round;stroke-linejoin:round;stroke-miterlimit:4;stroke-dasharray:none;stroke-dashoffset:0;stroke-opacity:1;marker:none;color-rendering:auto;image-rendering:auto;shape-rendering:auto;text-rendering:auto;enable-background:accumulate"
       d="M 256.61471,5.9839092 C 248.512,5.6309645 239.61883,0.99268526 235.74796,3.3115735 216.14387,15.055622 243.13952,90.334551 231.18572,110.25753 c -10.84882,18.08135 -35.34936,6.99731 -47.51643,0.91378 -1.17974,-0.58987 -0.91378,3.23466 -0.91378,3.65511 0,10.3478 17.0914,19.96792 24.672,23.75822 24.03835,12.01917 57.25654,-1.20467 68.53332,-23.75822 1.33853,-2.67707 -1.7635,-8.614 0,-10.96533 16.57505,-22.100074 -24.40077,-19.089243 -21.01689,-29.240882 0.87446,-2.623382 8.84573,-3.363064 10.96533,-5.482665 6.02259,-6.022588 -3.48772,-8.726152 -1.82755,-13.706664 0.87446,-2.623382 8.84573,-3.363064 10.96533,-5.482665 5.29655,-5.296548 38.7853,-27.155588 35.78623,-30.15466 -9.81493,-9.8149308 -63.75574,-32.883987 -54.21857,-13.8096448 z"
       id="path13072"
       inkscape:connector-curvature="0"
       sodipodi:nodetypes="cssssssssssssc" />
    <path
       style="color:#000000;clip-rule:nonzero;display:inline;overflow:visible;visibility:visible;opacity:1;isolation:auto;mix-blend-mode:normal;color-interpolation:sRGB;color-interpolation-filters:linearRGB;solid-color:#000000;solid-opacity:1;fill:#000000;fill-opacity:0.19004529;fill-rule:nonzero;stroke:none;stroke-width:3;stroke-linecap:round;stroke-linejoin:round;stroke-miterlimit:4;stroke-dasharray:none;stroke-dashoffset:0;stroke-opacity:1;marker:none;color-rendering:auto;image-rendering:auto;shape-rendering:auto;text-rendering:auto;enable-background:accumulate"
       d="m 173.61774,116.65398 c 16.46148,54.41544 62.27807,30.91392 95.03286,37.46488 6.22371,1.24474 3.65511,20.7584 3.65511,25.58577 0,11.32462 7.56545,21.82353 4.56889,33.80977 -3.65692,14.62767 -11.39851,31.16324 -7.31022,47.51643 1.5291,6.11639 7.21454,12.35755 5.48267,21.01689 -1.20144,6.00717 -82.69661,14.6194 -68.53332,-42.03377 1.51772,-6.07089 21.05678,-31.94232 28.3271,-24.672 1.68443,1.68443 14.47917,46.60266 6.39645,46.60266 -0.10768,0 0.12377,-9.30892 0,-10.05155 -0.75223,-4.51336 -15.62051,-19.01675 -20.10311,-10.05156 -2.24142,4.48285 0,15.87888 0,21.01689 0,13.59362 31.98222,14.49251 31.98222,2.74133 0,-19.47179 10.30486,-61.37695 3.65511,-81.3262 -2.06322,-6.18966 -23.22499,-7.31022 -29.24089,-7.31022 -50.59072,0 -36.5511,8.05058 -36.5511,51.17154 0,3.22481 -12.38344,7.71967 -10.05155,10.05155 11.60209,11.6021 23.56374,-29.40606 26.49955,-33.80977 3.0224,-4.5336 20.06916,-7.31022 14.62044,-7.31022 -10.27464,0 -12.79289,8.22048 -12.79289,17.36178 0,3.99036 1.78609,12.87581 0,16.44799 -3.42792,6.85585 -9.30074,12.20505 -12.79288,19.18933 -1.21667,2.43334 -1.53766,16.55932 -2.74134,17.36177 -13.24236,8.82825 -23.26396,-15.32445 -28.3271,-12.79288 -2.80571,1.40285 -7.34007,10.0814 -10.05155,12.79288 -4.45583,4.45583 -25.42313,-1.33963 -27.41333,-7.31022 -1.21547,-3.6464 16.30984,6.67276 21.01688,-2.74133 2.66718,-5.33435 1.29885,-17.98829 2.74134,-23.75822 1.78013,-7.12052 16.76265,-3.07108 19.18933,-9.13777 3.0916,-7.729 3.68191,-32.81558 0.91377,-41.11999 -2.33554,-7.00662 -11.40189,-17.62071 -18.27555,-7.31022 -7.28175,10.92263 3.21452,25.3149 -22.84444,20.1031 -29.01204,-5.8024 -14.09127,-51.94076 -9.13777,-42.03376 2.45702,4.91405 1.08602,11.13757 4.56888,14.62044 3.58256,3.58256 4.48989,12.83239 13.70667,8.224 4.14176,-2.07089 -2.00203,-14.19954 2.74133,-17.36178 8.76023,-5.84015 16.64042,-1.46949 25.58577,-4.56889 9.04577,-3.13419 2.04467,-30.28913 5.48267,-38.37865 z"
       id="path13076"
       inkscape:connector-curvature="0"
       sodipodi:nodetypes="cssssssssssssssssssssssssssssssssssssc" />
    <path
       style="color:#000000;clip-rule:nonzero;display:inline;overflow:visible;visibility:visible;opacity:1;isolation:auto;mix-blend-mode:normal;color-interpolation:sRGB;color-interpolation-filters:linearRGB;solid-color:#000000;solid-opacity:1;fill:#000000;fill-opacity:0.19004529;fill-rule:nonzero;stroke:none;stroke-width:3;stroke-linecap:round;stroke-linejoin:round;stroke-miterlimit:4;stroke-dasharray:none;stroke-dashoffset:0;stroke-opacity:1;marker:none;color-rendering:auto;image-rendering:auto;shape-rendering:auto;text-rendering:auto;enable-background:accumulate"
       d="m 159.45419,188.8424 c -0.44968,4.0505 4.56888,7.84486 4.56888,12.336 0,13.29776 -26.52707,20.30861 -36.09421,12.336 -7.89328,-6.57774 -17.91641,-18.56879 -21.01688,-27.87022 -0.14468,-0.43403 -8.598318,-4.61017 -8.680891,-4.56889 -2.532827,1.26642 4.504901,14.42849 5.025781,15.99111 1.15049,3.45147 10.1621,25.46543 11.8791,28.32711 3.6099,6.01649 11.07745,2.50867 14.16356,8.68088 2.60522,5.21046 -20.99807,7.09119 -25.12889,5.02578 -1.22333,-0.61166 7.85892,1.50784 10.96533,2.28444 0.64991,0.16248 1.60227,2.28655 2.28445,2.74134 9.40854,6.27236 13.88717,7.67685 23.75821,2.74133 7.31661,-3.6583 0.51213,-14.32926 2.28445,-19.64622 2.1243,-6.37291 15.82542,-3.17814 20.1031,-9.59466 5.0131,-7.51965 9.07285,-28.784 -4.11199,-28.784 z"
       id="path13078"
       inkscape:connector-curvature="0" />
    <path
       style="color:#000000;clip-rule:nonzero;display:inline;overflow:visible;visibility:visible;opacity:1;isolation:auto;mix-blend-mode:normal;color-interpolation:sRGB;color-interpolation-filters:linearRGB;solid-color:#000000;solid-opacity:1;fill:#000000;fill-opacity:0.19004529;fill-rule:nonzero;stroke:none;stroke-width:3;stroke-linecap:round;stroke-linejoin:round;stroke-miterlimit:4;stroke-dasharray:none;stroke-dashoffset:0;stroke-opacity:1;marker:none;color-rendering:auto;image-rendering:auto;shape-rendering:auto;text-rendering:auto;enable-background:accumulate"
       d="m 302.00349,127.61931 c -4.81914,0.81529 -10.3492,-1.18204 -15.07733,0 -39.06945,9.76736 8.77065,36.82615 26.04266,26.95643 13.04151,-7.45229 0.91339,-26.95643 -10.96533,-26.95643 z"
       id="path13080"
       inkscape:connector-curvature="0" />
    <path
       inkscape:connector-curvature="0"
       id="path13082"
       d="m -0.9174202,127.61931 c 2.8832095,0.81529 6.1917503,-1.18204 9.02051,0 23.3745872,9.76736 -5.2473306,36.82615 -15.5808803,26.95643 -7.8025135,-7.45229 -0.5464657,-26.95643 6.5603703,-26.95643 z"
       style="color:#000000;clip-rule:nonzero;display:inline;overflow:visible;visibility:visible;opacity:1;isolation:auto;mix-blend-mode:normal;color-interpolation:sRGB;color-interpolation-filters:linearRGB;solid-color:#000000;solid-opacity:1;fill:#000000;fill-opacity:0.19004529;fill-rule:nonzero;stroke:none;stroke-width:3;stroke-linecap:round;stroke-linejoin:round;stroke-miterlimit:4;stroke-dasharray:none;stroke-dashoffset:0;stroke-opacity:1;marker:none;color-rendering:auto;image-rendering:auto;shape-rendering:auto;text-rendering:auto;enable-background:accumulate" />
    <path
       style="color:#000000;clip-rule:nonzero;display:inline;overflow:visible;visibility:visible;opacity:1;isolation:auto;mix-blend-mode:normal;color-interpolation:sRGB;color-interpolation-filters:linearRGB;solid-color:#000000;solid-opacity:1;fill:#000000;fill-opacity:0.19004529;fill-rule:nonzero;stroke:none;stroke-width:3;stroke-linecap:round;stroke-linejoin:round;stroke-miterlimit:4;stroke-dasharray:none;stroke-dashoffset:0;stroke-opacity:1;marker:none;color-rendering:auto;image-rendering:auto;shape-rendering:auto;text-rendering:auto;enable-background:accumulate"
       d="m 70.429076,180.72162 c -8.106148,25.40876 22.194484,24.58446 26.491671,37.47602 1.033223,3.09967 0.707663,12.7279 5.169103,14.21504 1.9001,0.63337 14.86118,3.46854 14.86118,4.52297 0,0.80228 -16.91577,-1.05992 -17.44573,0 -5.37986,10.75972 4.07397,15.50732 12.27663,15.50732 27.29361,0 4.66881,6.22509 11.63049,15.50732 2.07208,2.76278 16.75071,6.55914 16.15346,7.75366 -2.01359,4.02717 -27.78395,3.09684 -27.78395,0 0,-0.81056 -3.23069,-7.08875 -3.23069,-10.98435 0,-1.73644 5.75082,-1.3567 4.52297,-2.58455 -2.10209,-2.10208 -4.94426,-1.93842 -7.75366,-1.93842 -8.389657,0 -14.038197,13.92261 -10.338218,21.32257 2.115738,4.23147 31.218538,1.23579 25.845528,8.39979 -4.57653,6.10204 -34.642759,3.08197 -38.768294,-5.1691 -8.408978,-16.81796 17.956354,-27.85171 -3.87683,-38.7683 -8.767298,-4.38365 -5.762565,19.30513 -8.399798,23.26098 -1.562974,2.34446 -6.172701,2.11714 -8.399798,3.23069 -19.80309,9.90154 -30.232608,-10.09976 -24.553256,-27.13781 4.342416,-13.02725 25.199394,-25.11422 25.199394,-1.29228 0,9.81705 0.638228,14.86118 -10.338213,14.86118 -3.66778,0 6.759517,-3.82695 8.399798,-7.10752 0.757734,-1.51546 -5.337786,-17.27705 -10.984351,-11.63049 -2.501877,2.50188 -5.814202,22.93844 -1.292277,25.1994 1.988196,0.9941 7.423784,0 9.692075,0 2.866945,0 6.018194,0.30789 7.75366,-2.58456 7.011952,-11.68658 -0.998847,-29.1355 -5.815245,-38.76829 -2.856296,-5.7126 2.883837,-7.70609 4.522968,-10.98436 3.181059,-6.36211 -2.270635,-17.09521 0,-23.90711 0.684637,-2.05391 5.20262,-5.25289 6.461383,-8.3998 z"
       id="path13084"
       inkscape:connector-curvature="0" />
    <path
       style="color:#000000;clip-rule:nonzero;display:inline;overflow:visible;visibility:visible;opacity:1;isolation:auto;mix-blend-mode:normal;color-interpolation:sRGB;color-interpolation-filters:linearRGB;solid-color:#000000;solid-opacity:1;fill:#000000;fill-opacity:0.19004529;fill-rule:nonzero;stroke:none;stroke-width:3;stroke-linecap:round;stroke-linejoin:round;stroke-miterlimit:4;stroke-dasharray:none;stroke-dashoffset:0;stroke-opacity:1;marker:none;color-rendering:auto;image-rendering:auto;shape-rendering:auto;text-rendering:auto;enable-background:accumulate"
       d="m 73.01363,269.88871 c 2.268525,14.8275 -19.359533,25.64656 -31.660778,17.44573 -19.292613,-12.86174 1.627037,-27.78395 -37.4760221,-27.78395 -3.70569455,0 -9.6666909,-1.324 -12.276628,1.93842 -7.2849259,9.10616 4.9609089,22.63638 7.1075215,29.07622 4.7880097,14.36403 -0.6213411,35.81807 1.93841491,36.18375 15.57853169,2.2255 19.57841369,-4.18819 30.36850069,-5.16911 8.203451,-0.74577 20.926638,0.77812 29.076224,-1.93841 11.458432,-3.81948 17.620567,-38.00815 12.922767,-49.75265 z"
       id="path13086"
       inkscape:connector-curvature="0" />
    <path
       style="color:#000000;clip-rule:nonzero;display:inline;overflow:visible;visibility:visible;opacity:1;isolation:auto;mix-blend-mode:normal;color-interpolation:sRGB;color-interpolation-filters:linearRGB;solid-color:#000000;solid-opacity:1;fill:#000000;fill-opacity:0.19004529;fill-rule:nonzero;stroke:none;stroke-width:3;stroke-linecap:round;stroke-linejoin:round;stroke-miterlimit:4;stroke-dasharray:none;stroke-dashoffset:0;stroke-opacity:1;marker:none;color-rendering:auto;image-rendering:auto;shape-rendering:auto;text-rendering:auto;enable-background:accumulate"
       d="m 306.26956,246.62773 c -37.27665,-1.51558 -20.67643,19.14494 -20.67643,41.35285 0,18.29374 -49.39985,-12.01107 -37.47602,29.72236 2.57992,9.0297 29.45021,8.44846 35.53761,3.23069 4.95611,-4.24809 12.78368,-6.82934 16.15346,-13.5689 6.16529,-12.33059 6.46138,-48.0912 6.46138,-60.737 z"
       id="path13088"
       inkscape:connector-curvature="0" />
    <path
       style="color:#000000;clip-rule:nonzero;display:inline;overflow:visible;visibility:visible;opacity:1;isolation:auto;mix-blend-mode:normal;color-interpolation:sRGB;color-interpolation-filters:linearRGB;solid-color:#000000;solid-opacity:1;fill:#000000;fill-opacity:0.19004529;fill-rule:nonzero;stroke:none;stroke-width:3;stroke-linecap:round;stroke-linejoin:round;stroke-miterlimit:4;stroke-dasharray:none;stroke-dashoffset:0;stroke-opacity:1;marker:none;color-rendering:auto;image-rendering:auto;shape-rendering:auto;text-rendering:auto;enable-background:accumulate"
       d="m 53.62948,8.2026888 c -0.442615,2.5018542 0.630564,10.5639752 0,10.9843512 -4.212081,2.808054 -13.728604,-2.617961 -18.091873,0 -4.556608,2.733965 -15.280275,14.407092 -15.507319,14.861181 -4.051084,8.102167 -8.365294,27.8012 -25.1993945,19.38415 C -6.9498968,52.541976 -9.2743891,44.048868 -9.6920747,43.094158 -20.328711,18.781847 -17.366608,14.618857 0.6461383,4.3258589 19.516625,-6.4572759 44.456056,10.496045 53.62948,8.2026888 Z"
       id="path13092"
       inkscape:connector-curvature="0"
       sodipodi:nodetypes="cssssssc" />
    <path
       style="color:#000000;clip-rule:nonzero;display:inline;overflow:visible;visibility:visible;opacity:1;isolation:auto;mix-blend-mode:normal;color-interpolation:sRGB;color-interpolation-filters:linearRGB;solid-color:#000000;solid-opacity:1;fill:#000000;fill-opacity:0.19004529;fill-rule:nonzero;stroke:none;stroke-width:3;stroke-linecap:round;stroke-linejoin:round;stroke-miterlimit:4;stroke-dasharray:none;stroke-dashoffset:0;stroke-opacity:1;marker:none;color-rendering:auto;image-rendering:auto;shape-rendering:auto;text-rendering:auto;enable-background:accumulate"
       d="m 155.71933,163.92202 c 6.98391,-1.05597 14.96488,3.62689 21.96871,1.29228 3.56085,-1.18695 7.35486,-14.86118 4.52296,-14.86118 -4.06377,0 2.39762,10.33821 6.46139,10.33821 22.3476,0 81.41343,-10.10704 81.41343,25.1994 0,2.36917 1.05952,-4.98847 0,-7.10753 -0.7701,-1.54019 -5.28207,-5.20676 -7.10753,-5.81524 -12.46655,-4.15552 -26.51929,-7.75366 -40.70671,-7.75366 -6.66942,0 -17.48705,-2.14002 -23.90712,0 -4.45595,1.48532 -7.00665,8.34936 -10.98435,10.33821 -2.58987,1.29494 -2.98775,12.92277 -4.52297,12.92277 -0.20973,0 -0.39968,-5.72202 -0.64614,-6.46138 -1.23421,-3.70266 -3.4499,-9.47862 -7.75366,-11.63049 -9.70685,-4.85343 -13.23851,2.70444 -18.73801,-6.46139 z"
       id="path13094"
       inkscape:connector-curvature="0" />
    <path
       style="color:#000000;clip-rule:nonzero;display:inline;overflow:visible;visibility:visible;opacity:1;isolation:auto;mix-blend-mode:normal;color-interpolation:sRGB;color-interpolation-filters:linearRGB;solid-color:#000000;solid-opacity:1;fill:#000000;fill-opacity:0.19004529;fill-rule:nonzero;stroke:none;stroke-width:3;stroke-linecap:round;stroke-linejoin:round;stroke-miterlimit:4;stroke-dasharray:none;stroke-dashoffset:0;stroke-opacity:1;marker:none;color-rendering:auto;image-rendering:auto;shape-rendering:auto;text-rendering:auto;enable-background:accumulate"
       d="m 270.08582,22.417732 c -13.11666,-0.56661 -32.00339,0.22538 -28.43009,18.091872 0.50221,2.511049 3.05668,6.511277 2.58455,8.399799 -0.55621,2.224843 -4.83653,4.798532 -5.1691,6.461383 -1.88542,9.427098 5.77794,15.929653 7.10752,23.907117 1.08437,6.506243 0,14.081269 0,20.676426 0,6.922701 -7.57846,22.125681 -14.86118,24.553261 -0.0532,0.0177 -6.69707,1.13515 -4.52297,2.58455 5.64933,3.76622 27.01451,-10.77885 29.07622,-14.21504 1.46736,-2.4456 1.03381,-5.42755 2.58456,-7.75366 8.28801,-12.432029 -14.80219,-22.791842 -10.33822,-36.18375 1.27601,-3.828023 9.23184,-1.203841 10.33822,-4.522968 2.79227,-8.376825 -9.28042,-8.576976 -4.52297,-18.091873 1.66534,-3.33068 12.70594,3.668668 16.79959,-16.799596 1.11673,-5.583655 5.20654,-2.718012 -0.64613,-7.107521 z"
       id="path13096"
       inkscape:connector-curvature="0" />
    <path
       style="color:#000000;clip-rule:nonzero;display:inline;overflow:visible;visibility:visible;opacity:1;isolation:auto;mix-blend-mode:normal;color-interpolation:sRGB;color-interpolation-filters:linearRGB;solid-color:#000000;solid-opacity:1;fill:#000000;fill-opacity:0.19004529;fill-rule:nonzero;stroke:none;stroke-width:3;stroke-linecap:round;stroke-linejoin:round;stroke-miterlimit:4;stroke-dasharray:none;stroke-dashoffset:0;stroke-opacity:1;marker:none;color-rendering:auto;image-rendering:auto;shape-rendering:auto;text-rendering:auto;enable-background:accumulate"
       d="m 97.566885,28.879115 c -6.06336,-6.067481 -15.468793,15.089403 -12.276628,16.153458 4.713817,1.571272 18.438673,-13.568905 16.153463,-13.568905 -3.015317,0 -1.550737,0.516911 -3.876835,-2.584553 z"
       id="path13100"
       inkscape:connector-curvature="0" />
    <path
       style="color:#000000;clip-rule:nonzero;display:inline;overflow:visible;visibility:visible;opacity:1;isolation:auto;mix-blend-mode:normal;color-interpolation:sRGB;color-interpolation-filters:linearRGB;solid-color:#000000;solid-opacity:1;fill:#000000;fill-opacity:0.19004529;fill-rule:nonzero;stroke:none;stroke-width:3;stroke-linecap:round;stroke-linejoin:round;stroke-miterlimit:4;stroke-dasharray:none;stroke-dashoffset:0;stroke-opacity:1;marker:none;color-rendering:auto;image-rendering:auto;shape-rendering:auto;text-rendering:auto;enable-background:accumulate"
       d="m 87.228672,224.65902 c 2.831889,-2.88991 -9.322117,-18.18565 -10.984351,-14.86118 -3.517753,7.03551 1.292277,11.16867 1.292277,16.15346 0,3.68569 -5.043531,4.8997 -4.522968,6.46138 0.597734,1.79321 10.173109,5.98035 10.984351,5.16911 1.05402,-1.05402 0.567828,-5.37471 1.292276,-6.46138 1.306197,-1.9593 11.798746,-8.43345 1.938415,-6.46139 z"
       id="path13102"
       inkscape:connector-curvature="0" />
    <path
       style="color:#000000;clip-rule:nonzero;display:inline;overflow:visible;visibility:visible;opacity:1;isolation:auto;mix-blend-mode:normal;color-interpolation:sRGB;color-interpolation-filters:linearRGB;solid-color:#000000;solid-opacity:1;fill:#000000;fill-opacity:0.19004529;fill-rule:nonzero;stroke:none;stroke-width:3;stroke-linecap:round;stroke-linejoin:round;stroke-miterlimit:4;stroke-dasharray:none;stroke-dashoffset:0;stroke-opacity:1;marker:none;color-rendering:auto;image-rendering:auto;shape-rendering:auto;text-rendering:auto;enable-background:accumulate"
       d="m 25.845533,279.58078 c -7.641471,0.0875 -12.689907,-2.051 -15.50732,4.52297 -5.4883028,12.80604 30.979695,16.10686 15.50732,-4.52297 z"
       id="path13104"
       inkscape:connector-curvature="0" />
    <path
       style="color:#000000;clip-rule:nonzero;display:inline;overflow:visible;visibility:visible;opacity:1;isolation:auto;mix-blend-mode:normal;color-interpolation:sRGB;color-interpolation-filters:linearRGB;solid-color:#000000;solid-opacity:1;fill:#000000;fill-opacity:0.19004529;fill-rule:nonzero;stroke:none;stroke-width:3;stroke-linecap:round;stroke-linejoin:round;stroke-miterlimit:4;stroke-dasharray:none;stroke-dashoffset:0;stroke-opacity:1;marker:none;color-rendering:auto;image-rendering:auto;shape-rendering:auto;text-rendering:auto;enable-background:accumulate"
       d="m 259.10146,258.90435 c 1.46736,3.81401 -3.87683,7.54396 -3.87683,11.63049 0,0.88354 16.80784,9.05831 7.75366,-4.52296 -2.26318,-3.39478 0.64367,-4.84728 -3.87683,-7.10753 z"
       id="path13106"
       inkscape:connector-curvature="0" />
    <path
       style="color:#000000;clip-rule:nonzero;display:inline;overflow:visible;visibility:visible;opacity:1;isolation:auto;mix-blend-mode:normal;color-interpolation:sRGB;color-interpolation-filters:linearRGB;solid-color:#000000;solid-opacity:1;fill:#000000;fill-opacity:0.19004529;fill-rule:nonzero;stroke:none;stroke-width:3;stroke-linecap:round;stroke-linejoin:round;stroke-miterlimit:4;stroke-dasharray:none;stroke-dashoffset:0;stroke-opacity:1;marker:none;color-rendering:auto;image-rendering:auto;shape-rendering:auto;text-rendering:auto;enable-background:accumulate"
       d="m 180.27259,249.21228 c 4.49344,-6.3175 -14.66624,-8.59474 -16.15346,-7.10752 -0.47354,0.47354 6.15664,4.04753 7.10752,4.52297 4.58625,2.29312 3.81539,8.046 8.3998,10.33821 5.89014,2.94507 8.54219,-3.80563 0.64614,-7.75366 z"
       id="path13108"
       inkscape:connector-curvature="0" />
    <path
       style="color:#000000;clip-rule:nonzero;display:inline;overflow:visible;visibility:visible;opacity:1;isolation:auto;mix-blend-mode:normal;color-interpolation:sRGB;color-interpolation-filters:linearRGB;solid-color:#000000;solid-opacity:1;fill:#000000;fill-opacity:0.19004529;fill-rule:nonzero;stroke:none;stroke-width:3;stroke-linecap:round;stroke-linejoin:round;stroke-miterlimit:4;stroke-dasharray:none;stroke-dashoffset:0;stroke-opacity:1;marker:none;color-rendering:auto;image-rendering:auto;shape-rendering:auto;text-rendering:auto;enable-background:accumulate"
       d="m 133.10449,101.24661 c -12.98756,0.98502 -22.61484,-12.779278 -22.61484,2.58455 0,3.35214 -0.40782,6.05356 0,6.46138 0.40749,0.40749 13.08531,-4.68551 13.56891,-5.1691 3.24822,-3.24823 11.66171,1.90719 14.21504,-0.64614 4.73233,-4.732335 -16.71801,-5.540475 -5.16911,-3.23069 z"
       id="path13110"
       inkscape:connector-curvature="0" />
    <path
       style="color:#000000;clip-rule:nonzero;display:inline;overflow:visible;visibility:visible;opacity:1;isolation:auto;mix-blend-mode:normal;color-interpolation:sRGB;color-interpolation-filters:linearRGB;solid-color:#000000;solid-opacity:1;fill:#000000;fill-opacity:0.19004529;fill-rule:nonzero;stroke:none;stroke-width:3;stroke-linecap:round;stroke-linejoin:round;stroke-miterlimit:4;stroke-dasharray:none;stroke-dashoffset:0;stroke-opacity:1;marker:none;color-rendering:auto;image-rendering:auto;shape-rendering:auto;text-rendering:auto;enable-background:accumulate"
       d="m 60.766208,136.30019 c -4.981879,1.29187 -8.457079,3.43131 -11.879108,6.85334 -5.883902,5.8839 -4.111999,15.66859 -4.111999,23.75821 0,6.74485 5.482665,12.04896 5.482665,11.87911 0,-7.33417 -3.352566,-14.91684 -1.370666,-22.84444 0.630799,-2.5232 18.906412,-16.8353 11.879108,-19.64622 z"
       id="path13112"
       inkscape:connector-curvature="0" />
    <path
       style="color:#000000;clip-rule:nonzero;display:inline;overflow:visible;visibility:visible;opacity:1;isolation:auto;mix-blend-mode:normal;color-interpolation:sRGB;color-interpolation-filters:linearRGB;solid-color:#000000;solid-opacity:1;fill:#000000;fill-opacity:0.19004529;fill-rule:nonzero;stroke:none;stroke-width:3;stroke-linecap:round;stroke-linejoin:round;stroke-miterlimit:4;stroke-dasharray:none;stroke-dashoffset:0;stroke-opacity:1;marker:none;color-rendering:auto;image-rendering:auto;shape-rendering:auto;text-rendering:auto;enable-background:accumulate"
       d="m 138.59667,220.13606 c -1.43767,2.11569 -5.44601,3.13839 -8.07673,2.26148 -2.18916,-0.72972 -3.19474,-4.32194 -5.81525,-4.84604 -0.43256,-0.0865 -6.05641,-2.02031 -5.81524,-2.26148 0.76885,-0.76885 3.79429,8.64033 3.87683,8.72287 9.11509,9.11509 11.63049,4.4275 11.63049,19.70721 0,1.75307 0.96921,-3.41604 0.96921,-5.1691 0,-1.53379 1.73301,-6.25598 2.90762,-7.43059 1.3562,-1.35621 1.12961,-4.5207 1.93841,-6.13832 0.55724,-1.11448 4.80866,-4.56034 5.81525,-3.55376 0.85136,0.85136 -2.47686,-1.18458 -3.55376,-0.64614 -1.09468,0.54734 -1.81512,-0.64613 -3.87683,-0.64613 z"
       id="path13114"
       inkscape:connector-curvature="0" />
    <path
       style="color:#000000;clip-rule:nonzero;display:inline;overflow:visible;visibility:visible;opacity:1;isolation:auto;mix-blend-mode:normal;color-interpolation:sRGB;color-interpolation-filters:linearRGB;solid-color:#000000;solid-opacity:1;fill:#000000;fill-opacity:0.19004529;fill-rule:nonzero;stroke:none;stroke-width:3;stroke-linecap:round;stroke-linejoin:round;stroke-miterlimit:4;stroke-dasharray:none;stroke-dashoffset:0;stroke-opacity:1;marker:none;color-rendering:auto;image-rendering:auto;shape-rendering:auto;text-rendering:auto;enable-background:accumulate"
       d="m 135.12486,225.16506 c -0.66923,-0.72696 -3.73992,1.23046 -4.112,0.11422 -0.1,-0.29994 0.96044,1.32644 1.14222,1.59911 0.81839,1.22759 2.12214,2.41672 2.74133,3.65511 0.13395,0.2679 -0.2044,0.7695 0.22845,0.91378 0.79531,0.26511 1.89172,-5.14719 0,-6.28222 z"
       id="path13116"
       inkscape:connector-curvature="0" />
    <path
       style="color:#000000;clip-rule:nonzero;display:inline;overflow:visible;visibility:visible;opacity:1;isolation:auto;mix-blend-mode:normal;color-interpolation:sRGB;color-interpolation-filters:linearRGB;solid-color:#000000;solid-opacity:1;fill:#000000;fill-opacity:0.19004529;fill-rule:nonzero;stroke:none;stroke-width:3;stroke-linecap:round;stroke-linejoin:round;stroke-miterlimit:4;stroke-dasharray:none;stroke-dashoffset:0;stroke-opacity:1;marker:none;color-rendering:auto;image-rendering:auto;shape-rendering:auto;text-rendering:auto;enable-background:accumulate"
       d="m 111.00788,129.46186 c -0.39846,-8.03383 21.2507,-17.11721 24.67199,-6.85333 0.79241,2.37723 -1.64107,5.39874 -0.45689,7.76711 3.18545,6.37088 3.18008,5.03485 -3.19822,8.22399 -0.0229,0.0115 2.24925,-2.67094 2.28445,-2.74133 0.82705,-1.65411 -3.98863,-2.40781 -2.74134,-3.65511 3.26865,-3.26865 2.46847,-7.26264 0.91378,-9.59466 -3.36854,-5.05281 -18.01305,4.25779 -21.47377,6.85333 z"
       id="path13118"
       inkscape:connector-curvature="0" />
    <path
       style="color:#000000;clip-rule:nonzero;display:inline;overflow:visible;visibility:visible;opacity:1;isolation:auto;mix-blend-mode:normal;color-interpolation:sRGB;color-interpolation-filters:linearRGB;solid-color:#000000;solid-opacity:1;fill:#ff702b;fill-opacity:0.27149323;fill-rule:nonzero;stroke:none;stroke-width:3;stroke-linecap:round;stroke-linejoin:round;stroke-miterlimit:4;stroke-dasharray:none;stroke-dashoffset:0;stroke-opacity:1;marker:none;color-rendering:auto;image-rendering:auto;shape-rendering:auto;text-rendering:auto;enable-background:accumulate"
       d="m 108.90889,132.22669 c 4.23104,-1.36853 14.89505,-9.03917 18.89954,-8.23827 7.27285,1.45457 -0.48544,6.13665 0.80767,8.72287 0.39422,0.78844 2.64682,1.16775 2.09995,2.26148 -0.56391,1.12783 -2.1902,0.5487 -2.74608,1.93842 -1.52324,3.80808 8.3043,1.90539 2.42301,4.84604 -2.43494,1.21747 -10.01514,0.1943 -10.01514,-2.90763 0,-0.41317 0.10773,-4.19989 0.16154,-4.19989 0.0708,0 -0.56052,0 -0.80768,0 -1.75845,0 -3.67135,1.61534 -5.81524,1.61534 -2.18303,0 -9.38971,2.40231 -11.14589,0.64614 -2.6566,-2.6566 -3.896935,-7.67007 -0.16153,-10.33821 0.46053,-0.32896 4.48507,-1.89058 4.52297,-1.77688 0.76405,2.29215 -4.36277,4.40081 -1.61535,6.46138 0.72912,0.54684 2.44193,0.49406 3.39223,0.96921 z"
       id="path13120"
       inkscape:connector-curvature="0" />
    <path
       style="color:#000000;clip-rule:nonzero;display:inline;overflow:visible;visibility:visible;opacity:1;isolation:auto;mix-blend-mode:normal;color-interpolation:sRGB;color-interpolation-filters:linearRGB;solid-color:#000000;solid-opacity:1;fill:#ff702b;fill-opacity:0.27149323;fill-rule:nonzero;stroke:none;stroke-width:3;stroke-linecap:round;stroke-linejoin:round;stroke-miterlimit:4;stroke-dasharray:none;stroke-dashoffset:0;stroke-opacity:1;marker:none;color-rendering:auto;image-rendering:auto;shape-rendering:auto;text-rendering:auto;enable-background:accumulate"
       d="m 149.131,59.37459 c -5.1779,-0.464136 -7.55526,4.024291 -6.46139,8.399798 1.13152,4.526071 8.36478,0.829114 9.69208,6.138314 0.85683,3.427345 -1.89418,19.406268 1.29227,20.999495 0.86689,0.433443 0,-1.938415 0,-2.907623 0,-2.993514 1.29228,-5.466642 1.29228,-8.722867 0,-5.668716 1.50935,-13.240765 -0.32307,-18.738011 -1.13025,-3.390757 -1.03689,-8.876098 1.93842,-10.661282 0.51116,-0.306697 6.98847,-2.967145 5.81524,-3.553761 -4.99066,-2.495328 -13.53949,6.138314 -18.41494,6.138314 -0.61892,0 -3.9378,0.121945 -4.1999,0.646138 -0.36973,0.739463 0.93209,0.203006 1.29228,0.32307 2.8069,0.935633 5.07822,1.338713 8.07673,1.938415 z"
       id="path13122"
       inkscape:connector-curvature="0" />
    <path
       style="color:#000000;clip-rule:nonzero;display:inline;overflow:visible;visibility:visible;opacity:1;isolation:auto;mix-blend-mode:normal;color-interpolation:sRGB;color-interpolation-filters:linearRGB;solid-color:#000000;solid-opacity:1;fill:#ff702b;fill-opacity:0.27149323;fill-rule:nonzero;stroke:none;stroke-width:3;stroke-linecap:round;stroke-linejoin:round;stroke-miterlimit:4;stroke-dasharray:none;stroke-dashoffset:0;stroke-opacity:1;marker:none;color-rendering:auto;image-rendering:auto;shape-rendering:auto;text-rendering:auto;enable-background:accumulate"
       d="m 178.20722,74.55884 c 1.70848,-1.491131 -2.09438,-2.773946 -2.42302,-1.130742 -1.00532,5.02663 4.97371,10.082866 7.59213,4.846037 0.40363,-0.807271 -0.0552,-2.040801 0.16153,-2.907622 0.28208,-1.128307 1.1041,-4.091648 0.4846,-5.330641 -1.59018,-3.180372 -7.52017,-7.523985 -11.79202,-5.815245 -3.1904,1.27616 -2.39005,8.854752 -1.77688,11.30742 2.69592,10.783664 1.64751,-4.748837 2.26148,-5.976779 0.76343,-1.526849 2.96789,-1.603294 4.52297,-1.292277 2.25056,0.450111 2.2531,1.029012 3.06916,3.069157 3.26759,8.168975 -3.04634,7.016256 -2.09995,3.230692 z"
       id="path13124"
       inkscape:connector-curvature="0" />
    <path
       style="color:#000000;clip-rule:nonzero;display:inline;overflow:visible;visibility:visible;opacity:1;isolation:auto;mix-blend-mode:normal;color-interpolation:sRGB;color-interpolation-filters:linearRGB;solid-color:#000000;solid-opacity:1;fill:#ff702b;fill-opacity:0.27149323;fill-rule:nonzero;stroke:none;stroke-width:3;stroke-linecap:round;stroke-linejoin:round;stroke-miterlimit:4;stroke-dasharray:none;stroke-dashoffset:0;stroke-opacity:1;marker:none;color-rendering:auto;image-rendering:auto;shape-rendering:auto;text-rendering:auto;enable-background:accumulate"
       d="m 210.51414,184.07929 c 3.46784,-0.10571 35.37625,-0.32271 36.50681,1.93841 2.68648,5.37296 5.65039,15.19311 3.23069,21.64563 -1.78321,4.75524 -1.75351,10.70802 -2.26148,9.69208 -3.01747,-6.03493 -1.00485,-14.28633 -3.87683,-20.03029 -1.02157,-2.04313 -10.23326,16.2207 -13.56891,10.66128 -3.32768,-5.54614 12.24249,-18.09187 -5.81524,-18.09187 -9.36884,0 -15.58401,-0.28472 -23.26098,3.55376 -3.98939,1.99469 -3.87683,6.59403 -3.87683,6.46139 0,-5.77574 -0.45933,-11.44753 4.52297,-15.18426 0.98222,-0.73666 2.28292,-0.3445 3.23069,-1.29227 0.75913,-0.75913 4.05071,0.92573 5.16911,0.64614 z"
       id="path13126"
       inkscape:connector-curvature="0" />
    <path
       style="color:#000000;clip-rule:nonzero;display:inline;overflow:visible;visibility:visible;opacity:1;isolation:auto;mix-blend-mode:normal;color-interpolation:sRGB;color-interpolation-filters:linearRGB;solid-color:#000000;solid-opacity:1;fill:#ff702b;fill-opacity:0.27149323;fill-rule:nonzero;stroke:none;stroke-width:3;stroke-linecap:round;stroke-linejoin:round;stroke-miterlimit:4;stroke-dasharray:none;stroke-dashoffset:0;stroke-opacity:1;marker:none;color-rendering:auto;image-rendering:auto;shape-rendering:auto;text-rendering:auto;enable-background:accumulate"
       d="m 19.63012,56.131206 c 2.164584,-0.579814 3.918865,0.702989 5.711109,1.599111 18.521416,9.260708 5.254221,4.286886 5.254221,17.818663 0,3.592993 0.456889,7.69722 0.456889,10.96533 0,1.615736 0.913778,7.744609 0.913778,5.025777 0,-2.917843 -4.978441,-7.317766 -5.71111,-10.736886 -0.328563,-1.533293 -2.046153,-13.468373 -2.284444,-13.706664 -1.286447,-1.286447 -8.219854,0.138725 -10.279998,-0.685333 -1.996566,-0.798626 -2.055999,-1.386116 -2.055999,-3.426666 0,-10.538613 13.850795,-6.853332 7.995554,-6.853332 z"
       id="path13128"
       inkscape:connector-curvature="0" />
    <path
       style="color:#000000;clip-rule:nonzero;display:inline;overflow:visible;visibility:visible;opacity:1;isolation:auto;mix-blend-mode:normal;color-interpolation:sRGB;color-interpolation-filters:linearRGB;solid-color:#000000;solid-opacity:1;fill:#ff702b;fill-opacity:0.27149323;fill-rule:nonzero;stroke:none;stroke-width:3;stroke-linecap:round;stroke-linejoin:round;stroke-miterlimit:4;stroke-dasharray:none;stroke-dashoffset:0;stroke-opacity:1;marker:none;color-rendering:auto;image-rendering:auto;shape-rendering:auto;text-rendering:auto;enable-background:accumulate"
       d="m 219.88314,33.529057 c 2.14659,7.096576 0.3652,15.198254 1.29228,22.614841 1.49404,11.952316 10.69159,35.507297 0.32307,45.875822 -4.56503,4.56503 -22.8099,3.94387 -23.58405,5.49217 -2.65016,5.30032 7.17628,7.75367 10.01514,7.75367 22.64324,0 23.90712,-8.16742 23.90712,-28.753161 0,-10.382788 -4.35878,-24.701515 -6.46138,-35.214538 -1.7447,-8.723493 1.66871,-19.896881 -1.61535,-28.107017 -2.78827,-6.970686 -20.07867,-0.797006 -22.61484,2.584553 -3.90827,5.211021 7.28309,13.920034 8.72287,16.799596 1.02882,2.057637 -1.44603,-12.292205 -0.32307,-14.538112 1.42585,-2.851695 11.96822,-4.287868 10.33821,5.492176 z"
       id="path13132"
       inkscape:connector-curvature="0" />
    <path
       style="color:#000000;clip-rule:nonzero;display:inline;overflow:visible;visibility:visible;opacity:1;isolation:auto;mix-blend-mode:normal;color-interpolation:sRGB;color-interpolation-filters:linearRGB;solid-color:#000000;solid-opacity:1;fill:#ff702b;fill-opacity:0.27149323;fill-rule:nonzero;stroke:none;stroke-width:3;stroke-linecap:round;stroke-linejoin:round;stroke-miterlimit:4;stroke-dasharray:none;stroke-dashoffset:0;stroke-opacity:1;marker:none;color-rendering:auto;image-rendering:auto;shape-rendering:auto;text-rendering:auto;enable-background:accumulate"
       d="m 213.42176,46.451823 c -0.88733,2.979935 1.16959,7.185228 2.58455,10.015144 1.5077,3.015402 2.1874,17.090787 0.32307,20.353357 -0.92275,1.614813 -3.26084,2.998068 -3.87683,4.846037 -0.28723,0.861677 -0.39238,2.969106 -1.93841,1.938415 -1.41336,-0.94224 3.23069,-13.96403 3.23069,-18.091872 0,-5.661781 -10.92245,-17.294517 -0.32307,-19.061081 z"
       id="path13134"
       inkscape:connector-curvature="0" />
    <path
       style="color:#000000;clip-rule:nonzero;display:inline;overflow:visible;visibility:visible;opacity:1;isolation:auto;mix-blend-mode:normal;color-interpolation:sRGB;color-interpolation-filters:linearRGB;solid-color:#000000;solid-opacity:1;fill:#ff702b;fill-opacity:0.27149323;fill-rule:nonzero;stroke:none;stroke-width:3;stroke-linecap:round;stroke-linejoin:round;stroke-miterlimit:4;stroke-dasharray:none;stroke-dashoffset:0;stroke-opacity:1;marker:none;color-rendering:auto;image-rendering:auto;shape-rendering:auto;text-rendering:auto;enable-background:accumulate"
       d="m 181.76098,18.990945 c -6.45025,5.361379 -29.14775,11.08497 -37.47602,7.75366 -15.93871,-6.375485 -15.7037,-10.338213 3.23069,-10.338213 5.59987,0 11.19973,0 16.7996,0 3.57357,0 8.30445,-0.729821 11.95355,0 2.53041,0.50608 2.35003,3.370091 5.49218,2.584553 z"
       id="path13136"
       inkscape:connector-curvature="0" />
    <path
       style="color:#000000;clip-rule:nonzero;display:inline;overflow:visible;visibility:visible;opacity:1;isolation:auto;mix-blend-mode:normal;color-interpolation:sRGB;color-interpolation-filters:linearRGB;solid-color:#000000;solid-opacity:1;fill:#ff702b;fill-opacity:0.27149323;fill-rule:nonzero;stroke:none;stroke-width:3;stroke-linecap:round;stroke-linejoin:round;stroke-miterlimit:4;stroke-dasharray:none;stroke-dashoffset:0;stroke-opacity:1;marker:none;color-rendering:auto;image-rendering:auto;shape-rendering:auto;text-rendering:auto;enable-background:accumulate"
       d="m 81.766994,177.89207 c -2.415395,5.40648 -1.780594,12.93377 0,18.27555 0.799311,2.39793 12.618428,7.19392 15.534219,9.13778 1.170219,0.78014 5.741737,10.05155 4.568887,10.05155 -0.12488,0 0.38418,-6.76001 -0.45689,-10.96533 -1.702842,-8.51422 -13.107858,-12.27371 -11.422218,-22.38755 0.902637,-5.41582 12.443358,-8.17032 10.508438,-9.13778 -1.71085,-0.85542 -15.931076,4.14202 -24.215101,0 -0.941331,-0.47066 -8.181729,-0.95604 -7.310221,-1.82755 0.920314,-0.92032 2.66153,2.92987 3.198222,3.19822 1.799508,0.89975 16.28115,6.99835 9.594664,3.65511 z"
       id="path13138"
       inkscape:connector-curvature="0" />
    <path
       style="color:#000000;clip-rule:nonzero;display:inline;overflow:visible;visibility:visible;opacity:1;isolation:auto;mix-blend-mode:normal;color-interpolation:sRGB;color-interpolation-filters:linearRGB;solid-color:#000000;solid-opacity:1;fill:#ff702b;fill-opacity:0.27149323;fill-rule:nonzero;stroke:none;stroke-width:3;stroke-linecap:round;stroke-linejoin:round;stroke-miterlimit:4;stroke-dasharray:none;stroke-dashoffset:0;stroke-opacity:1;marker:none;color-rendering:auto;image-rendering:auto;shape-rendering:auto;text-rendering:auto;enable-background:accumulate"
       d="m 31.052339,167.84052 c -2.026713,1.82844 -16.642246,7.73564 -8.680887,13.70666 3.276134,2.4571 8.349654,1.49632 11.42222,4.56889 0.323938,0.32394 0,3.28797 0,3.65511 0,2.98124 -1.557294,6.22917 -2.284444,9.13777 -1.809552,7.23821 0,17.20809 0,24.672 0,1.37066 0,-2.74134 0,-4.112 0,-5.27442 1.905571,-8.41904 3.65511,-12.79289 1.962383,-4.90596 9.593634,-44.3178 -4.111999,-38.83554 z"
       id="path13140"
       inkscape:connector-curvature="0" />
    <path
       style="color:#000000;clip-rule:nonzero;display:inline;overflow:visible;visibility:visible;opacity:1;isolation:auto;mix-blend-mode:normal;color-interpolation:sRGB;color-interpolation-filters:linearRGB;solid-color:#000000;solid-opacity:1;fill:#ff702b;fill-opacity:0.27149323;fill-rule:nonzero;stroke:none;stroke-width:3;stroke-linecap:round;stroke-linejoin:round;stroke-miterlimit:4;stroke-dasharray:none;stroke-dashoffset:0;stroke-opacity:1;marker:none;color-rendering:auto;image-rendering:auto;shape-rendering:auto;text-rendering:auto;enable-background:accumulate"
       d="m 16.888787,196.16762 c 0.599255,16.2711 -7.4158152,61.78558 21.473773,32.89599 1.926412,-1.92641 -2.906672,4.69069 -3.655111,7.31022 -1.926966,6.74439 -4.568887,11.72108 -4.568887,19.18933 0,2.3247 -1.575834,-4.89991 -3.655111,-5.93955 -6.314947,-3.15748 -12.100522,2.99087 -15.534219,-7.31022 -2.1212318,-6.3637 -8.4514184,-23.30338 -4.5688875,-31.06844 1.9056078,-3.81122 2.7413327,-5.90684 2.7413327,-10.50844 0,-6.74284 1.1971548,-24.00689 5.9395548,-29.69777 2.430123,-2.91615 6.013149,-5.55626 8.680887,-8.224 0.456888,-0.45689 1.370666,-2.01681 1.370666,-1.37067 0,6.90423 -6.548336,12.33479 -8.680887,18.73244 -1.559035,4.67711 0.272036,11.23737 3.198222,14.16356 2.88202,2.88202 -3.935284,3.41949 -2.741333,1.82755 0.456889,-0.60918 2.284444,0.76148 1.827555,1.37067 -0.456889,0.60918 -1.21837,-0.91378 -1.827555,-1.37067 z"
       id="path13142"
       inkscape:connector-curvature="0" />
    <path
       style="color:#000000;clip-rule:nonzero;display:inline;overflow:visible;visibility:visible;opacity:1;isolation:auto;mix-blend-mode:normal;color-interpolation:sRGB;color-interpolation-filters:linearRGB;solid-color:#000000;solid-opacity:1;fill:#ff702b;fill-opacity:0.27149323;fill-rule:nonzero;stroke:none;stroke-width:3;stroke-linecap:round;stroke-linejoin:round;stroke-miterlimit:4;stroke-dasharray:none;stroke-dashoffset:0;stroke-opacity:1;marker:none;color-rendering:auto;image-rendering:auto;shape-rendering:auto;text-rendering:auto;enable-background:accumulate"
       d="m 143.44698,284.80404 c 2.69807,0 4.07333,0.19823 6.85333,-0.91377 3.29286,-1.31714 6.46931,-3.91999 9.59467,-5.48267 8.66171,-4.33085 14.73346,6.85333 24.67199,6.85333 2.21255,0 12.5095,-3.48161 13.70667,-2.28444 1.7513,1.75131 -1.21824,5.27969 1.82755,7.31022 4.46745,2.9783 14.94978,-6.34312 12.336,4.112 -1.31075,5.24299 -21.71347,2.74133 -26.04266,2.74133 -5.18054,0 1.39172,-5.60215 4.56889,-6.39644 0.44324,-0.11081 -0.91378,0 -1.37067,0 -3.19822,0 -6.39644,0 -9.59466,0 -1.80036,0 -13.01525,1.14831 -14.16356,0 -0.26138,-0.26138 4.56847,-1.82724 4.56889,-1.82756 0.99558,-0.74668 -0.51421,-4.2834 -1.37067,-4.56888 -7.37073,-2.45692 -14.67501,6.86424 -21.47377,8.22399 -3.60216,0.72044 -7.7242,0 -11.42222,0 -2.13215,0 -4.88878,1.50766 -6.39644,0 -1.51305,-1.51304 10.14939,-2.94365 11.42222,-3.19822 4.41992,-0.88398 2.32592,-4.48593 2.28444,-4.56889 z"
       id="path13144"
       inkscape:connector-curvature="0" />
    <path
       style="color:#000000;clip-rule:nonzero;display:inline;overflow:visible;visibility:visible;opacity:1;isolation:auto;mix-blend-mode:normal;color-interpolation:sRGB;color-interpolation-filters:linearRGB;solid-color:#000000;solid-opacity:1;fill:#ff702b;fill-opacity:0.27149323;fill-rule:nonzero;stroke:none;stroke-width:3;stroke-linecap:round;stroke-linejoin:round;stroke-miterlimit:4;stroke-dasharray:none;stroke-dashoffset:0;stroke-opacity:1;marker:none;color-rendering:auto;image-rendering:auto;shape-rendering:auto;text-rendering:auto;enable-background:accumulate"
       d="m 285.53939,174.69385 c -2.41121,1.71262 -0.65055,2.86545 -1.37066,5.02577 -3.7842,11.3526 2.19789,42.12033 1.37066,42.94755 -1.99053,1.99054 -5.57449,7.12656 -4.56888,9.13778 2.4175,4.83501 6.39644,-6.45959 6.39644,-7.76711 0,-6.07475 2.94664,-14.4614 0.91378,-20.56 -1.69554,-5.08663 -3.19822,-7.30821 -3.19822,-13.24977 0,-6.20889 3.93795,-11.66151 2.28444,-18.27555 -0.2067,-0.8268 -2.3941,0.47515 -1.82756,2.74133 z"
       id="path13146"
       inkscape:connector-curvature="0" />
    <path
       style="color:#000000;clip-rule:nonzero;display:inline;overflow:visible;visibility:visible;opacity:1;isolation:auto;mix-blend-mode:normal;color-interpolation:sRGB;color-interpolation-filters:linearRGB;solid-color:#000000;solid-opacity:1;fill:#ff702b;fill-opacity:0.27149323;fill-rule:nonzero;stroke:none;stroke-width:3;stroke-linecap:round;stroke-linejoin:round;stroke-miterlimit:4;stroke-dasharray:none;stroke-dashoffset:0;stroke-opacity:1;marker:none;color-rendering:auto;image-rendering:auto;shape-rendering:auto;text-rendering:auto;enable-background:accumulate"
       d="m 283.25495,62.299205 c -3.53354,0.137908 -3.88518,5.255847 -6.39644,7.767109 -15.96104,15.961039 9.59466,2.548547 9.59466,21.930662 0,3.198221 0,6.396443 0,9.594664 0,0.76148 0.76148,2.28444 0,2.28444 -0.46991,0 0.45689,-12.896476 0.45689,-14.163548 0,-4.489336 1.7317,-33.544589 1.37067,-34.266659 -2.92928,-5.858564 -5.02578,5.252036 -5.02578,6.853332 z"
       id="path13148"
       inkscape:connector-curvature="0" />
    <path
       style="color:#000000;clip-rule:nonzero;display:inline;overflow:visible;visibility:visible;opacity:1;isolation:auto;mix-blend-mode:normal;color-interpolation:sRGB;color-interpolation-filters:linearRGB;solid-color:#000000;solid-opacity:1;fill:#ff702b;fill-opacity:0.27149323;fill-rule:nonzero;stroke:none;stroke-width:3;stroke-linecap:round;stroke-linejoin:round;stroke-miterlimit:4;stroke-dasharray:none;stroke-dashoffset:0;stroke-opacity:1;marker:none;color-rendering:auto;image-rendering:auto;shape-rendering:auto;text-rendering:auto;enable-background:accumulate"
       d="m 64.163804,59.37459 c 4.631215,-0.07001 9.591226,0.272644 13.568905,2.261484 0.303389,0.151694 4.522968,-0.118168 4.522968,0 0,0.02506 -1.790747,-0.02953 -1.938415,0 -3.672155,0.734431 -5.466495,2.235803 -8.076729,4.846037 -1.675085,1.675086 -5.822116,0.489757 -7.753659,1.938415 -1.899476,1.424606 1.615345,42.693884 1.615345,48.460374 0,6.64961 -5.660932,8.72287 -11.953559,8.72287 -2.261484,0 -4.522968,0 -6.784452,0 -0.538448,0 -1.615346,0.53845 -1.615346,0 0,-0.71005 6.101872,-2.41613 6.784453,-3.55376 0.685859,-1.1431 1.578174,-4.59731 0.969207,-5.81525 -0.403996,-0.80799 -3.677395,-0.63657 -2.584553,-1.29227 3.796577,-2.27795 8.290681,-3.65432 9.369005,-9.04594 3.05747,-15.287349 -11.478062,-31.880314 -6.784452,-43.614338 2.71156,-6.778901 13.326297,-9.448243 14.538112,-15.50732 0.455003,-2.275012 2.197191,-6.008124 1.292277,-8.722867 -2.189277,-6.567831 -16.784281,-5.169106 -21.968703,-5.169106 -1.941404,0 3.755731,-1.070193 5.492176,-1.938415 2.471441,-1.235721 8.809151,-2.340413 11.953559,-1.292277 7.888598,2.629533 1.838393,21.745655 -1.615346,25.199394 -0.903822,0.903822 0.541753,3.95303 0.969207,4.522969 z"
       id="path13150"
       inkscape:connector-curvature="0" />
  </g>
</svg>
